<?xml version="1.0" encoding="utf-8" standalone="no"?>
<!DOCTYPE svg PUBLIC "-//W3C//DTD SVG 1.1//EN"
  "http://www.w3.org/Graphics/SVG/1.1/DTD/svg11.dtd">
<svg height="395.19175pt" version="1.1" viewBox="0 0 366.71875 395.19175" width="366.71875pt" xmlns="http://www.w3.org/2000/svg" xmlns:xlink="http://www.w3.org/1999/xlink">
 <metadata>
  <rdf:RDF xmlns:cc="http://creativecommons.org/ns#" xmlns:dc="http://purl.org/dc/elements/1.1/" xmlns:rdf="http://www.w3.org/1999/02/22-rdf-syntax-ns#">
   <cc:Work>
    <dc:type rdf:resource="http://purl.org/dc/dcmitype/StillImage"/>
    <dc:date>2021-04-29T16:16:14.717091</dc:date>
    <dc:format>image/svg+xml</dc:format>
    <dc:creator>
     <cc:Agent>
      <dc:title>Matplotlib v3.4.1, https://matplotlib.org/</dc:title>
     </cc:Agent>
    </dc:creator>
   </cc:Work>
  </rdf:RDF>
 </metadata>
 <defs>
  <style type="text/css">*{stroke-linecap:butt;stroke-linejoin:round;}</style>
 </defs>
 <g id="figure_1">
  <g id="patch_1">
   <path d="M 0 395.19175 
L 366.71875 395.19175 
L 366.71875 0 
L 0 0 
z
" style="fill:none;"/>
  </g>
  <g id="axes_1">
   <g id="patch_2">
    <path d="M 62.86875 357.6355 
L 359.51875 357.6355 
L 359.51875 36.2355 
L 62.86875 36.2355 
z
" style="fill:#ffffff;"/>
   </g>
   <g id="PathCollection_1">
    <defs>
     <path d="M 0 3 
C 0.795609 3 1.55874 2.683901 2.12132 2.12132 
C 2.683901 1.55874 3 0.795609 3 0 
C 3 -0.795609 2.683901 -1.55874 2.12132 -2.12132 
C 1.55874 -2.683901 0.795609 -3 0 -3 
C -0.795609 -3 -1.55874 -2.683901 -2.12132 -2.12132 
C -2.683901 -1.55874 -3 -0.795609 -3 0 
C -3 0.795609 -2.683901 1.55874 -2.12132 2.12132 
C -1.55874 2.683901 -0.795609 3 0 3 
z
" id="mf093b66503" style="stroke:#1f77b4;stroke-opacity:0.8;"/>
    </defs>
    <g clip-path="url(#p80cd5f65c8)">
     <use style="fill:#1f77b4;fill-opacity:0.8;stroke:#1f77b4;stroke-opacity:0.8;" x="62.86875" xlink:href="#mf093b66503" y="326.422352"/>
     <use style="fill:#1f77b4;fill-opacity:0.8;stroke:#1f77b4;stroke-opacity:0.8;" x="65.895791" xlink:href="#mf093b66503" y="328.23669"/>
     <use style="fill:#1f77b4;fill-opacity:0.8;stroke:#1f77b4;stroke-opacity:0.8;" x="68.922832" xlink:href="#mf093b66503" y="316.54429"/>
     <use style="fill:#1f77b4;fill-opacity:0.8;stroke:#1f77b4;stroke-opacity:0.8;" x="71.949872" xlink:href="#mf093b66503" y="321.785711"/>
     <use style="fill:#1f77b4;fill-opacity:0.8;stroke:#1f77b4;stroke-opacity:0.8;" x="74.976913" xlink:href="#mf093b66503" y="286.305326"/>
     <use style="fill:#1f77b4;fill-opacity:0.8;stroke:#1f77b4;stroke-opacity:0.8;" x="78.003954" xlink:href="#mf093b66503" y="313.117208"/>
     <use style="fill:#1f77b4;fill-opacity:0.8;stroke:#1f77b4;stroke-opacity:0.8;" x="81.030995" xlink:href="#mf093b66503" y="314.326766"/>
     <use style="fill:#1f77b4;fill-opacity:0.8;stroke:#1f77b4;stroke-opacity:0.8;" x="84.058036" xlink:href="#mf093b66503" y="316.342697"/>
     <use style="fill:#1f77b4;fill-opacity:0.8;stroke:#1f77b4;stroke-opacity:0.8;" x="87.085077" xlink:href="#mf093b66503" y="317.552256"/>
     <use style="fill:#1f77b4;fill-opacity:0.8;stroke:#1f77b4;stroke-opacity:0.8;" x="90.112117" xlink:href="#mf093b66503" y="315.133138"/>
     <use style="fill:#1f77b4;fill-opacity:0.8;stroke:#1f77b4;stroke-opacity:0.8;" x="93.139158" xlink:href="#mf093b66503" y="313.92358"/>
     <use style="fill:#1f77b4;fill-opacity:0.8;stroke:#1f77b4;stroke-opacity:0.8;" x="96.166199" xlink:href="#mf093b66503" y="314.729952"/>
     <use style="fill:#1f77b4;fill-opacity:0.8;stroke:#1f77b4;stroke-opacity:0.8;" x="99.19324" xlink:href="#mf093b66503" y="309.891718"/>
     <use style="fill:#1f77b4;fill-opacity:0.8;stroke:#1f77b4;stroke-opacity:0.8;" x="102.220281" xlink:href="#mf093b66503" y="309.085346"/>
     <use style="fill:#1f77b4;fill-opacity:0.8;stroke:#1f77b4;stroke-opacity:0.8;" x="105.247321" xlink:href="#mf093b66503" y="314.729952"/>
     <use style="fill:#1f77b4;fill-opacity:0.8;stroke:#1f77b4;stroke-opacity:0.8;" x="108.274362" xlink:href="#mf093b66503" y="311.504463"/>
     <use style="fill:#1f77b4;fill-opacity:0.8;stroke:#1f77b4;stroke-opacity:0.8;" x="111.301403" xlink:href="#mf093b66503" y="305.859856"/>
     <use style="fill:#1f77b4;fill-opacity:0.8;stroke:#1f77b4;stroke-opacity:0.8;" x="114.328444" xlink:href="#mf093b66503" y="308.278973"/>
     <use style="fill:#1f77b4;fill-opacity:0.8;stroke:#1f77b4;stroke-opacity:0.8;" x="117.355485" xlink:href="#mf093b66503" y="305.053484"/>
     <use style="fill:#1f77b4;fill-opacity:0.8;stroke:#1f77b4;stroke-opacity:0.8;" x="120.382526" xlink:href="#mf093b66503" y="298.400912"/>
     <use style="fill:#1f77b4;fill-opacity:0.8;stroke:#1f77b4;stroke-opacity:0.8;" x="123.409566" xlink:href="#mf093b66503" y="302.23118"/>
     <use style="fill:#1f77b4;fill-opacity:0.8;stroke:#1f77b4;stroke-opacity:0.8;" x="126.436607" xlink:href="#mf093b66503" y="299.207284"/>
     <use style="fill:#1f77b4;fill-opacity:0.8;stroke:#1f77b4;stroke-opacity:0.8;" x="129.463648" xlink:href="#mf093b66503" y="300.618436"/>
     <use style="fill:#1f77b4;fill-opacity:0.8;stroke:#1f77b4;stroke-opacity:0.8;" x="132.490689" xlink:href="#mf093b66503" y="290.538781"/>
     <use style="fill:#1f77b4;fill-opacity:0.8;stroke:#1f77b4;stroke-opacity:0.8;" x="135.51773" xlink:href="#mf093b66503" y="289.732409"/>
     <use style="fill:#1f77b4;fill-opacity:0.8;stroke:#1f77b4;stroke-opacity:0.8;" x="138.54477" xlink:href="#mf093b66503" y="293.562677"/>
     <use style="fill:#1f77b4;fill-opacity:0.8;stroke:#1f77b4;stroke-opacity:0.8;" x="141.571811" xlink:href="#mf093b66503" y="290.941967"/>
     <use style="fill:#1f77b4;fill-opacity:0.8;stroke:#1f77b4;stroke-opacity:0.8;" x="144.598852" xlink:href="#mf093b66503" y="292.957898"/>
     <use style="fill:#1f77b4;fill-opacity:0.8;stroke:#1f77b4;stroke-opacity:0.8;" x="147.625893" xlink:href="#mf093b66503" y="285.29736"/>
     <use style="fill:#1f77b4;fill-opacity:0.8;stroke:#1f77b4;stroke-opacity:0.8;" x="150.652934" xlink:href="#mf093b66503" y="289.127629"/>
     <use style="fill:#1f77b4;fill-opacity:0.8;stroke:#1f77b4;stroke-opacity:0.8;" x="153.679974" xlink:href="#mf093b66503" y="288.321257"/>
     <use style="fill:#1f77b4;fill-opacity:0.8;stroke:#1f77b4;stroke-opacity:0.8;" x="156.707015" xlink:href="#mf093b66503" y="285.29736"/>
     <use style="fill:#1f77b4;fill-opacity:0.8;stroke:#1f77b4;stroke-opacity:0.8;" x="159.734056" xlink:href="#mf093b66503" y="281.265499"/>
     <use style="fill:#1f77b4;fill-opacity:0.8;stroke:#1f77b4;stroke-opacity:0.8;" x="162.761097" xlink:href="#mf093b66503" y="280.862312"/>
     <use style="fill:#1f77b4;fill-opacity:0.8;stroke:#1f77b4;stroke-opacity:0.8;" x="165.788138" xlink:href="#mf093b66503" y="279.249568"/>
     <use style="fill:#1f77b4;fill-opacity:0.8;stroke:#1f77b4;stroke-opacity:0.8;" x="168.815179" xlink:href="#mf093b66503" y="273.201775"/>
     <use style="fill:#1f77b4;fill-opacity:0.8;stroke:#1f77b4;stroke-opacity:0.8;" x="171.842219" xlink:href="#mf093b66503" y="273.201775"/>
     <use style="fill:#1f77b4;fill-opacity:0.8;stroke:#1f77b4;stroke-opacity:0.8;" x="174.86926" xlink:href="#mf093b66503" y="253.445651"/>
     <use style="fill:#1f77b4;fill-opacity:0.8;stroke:#1f77b4;stroke-opacity:0.8;" x="177.896301" xlink:href="#mf093b66503" y="256.872734"/>
     <use style="fill:#1f77b4;fill-opacity:0.8;stroke:#1f77b4;stroke-opacity:0.8;" x="180.923342" xlink:href="#mf093b66503" y="259.291851"/>
     <use style="fill:#1f77b4;fill-opacity:0.8;stroke:#1f77b4;stroke-opacity:0.8;" x="183.950383" xlink:href="#mf093b66503" y="259.493444"/>
     <use style="fill:#1f77b4;fill-opacity:0.8;stroke:#1f77b4;stroke-opacity:0.8;" x="186.977423" xlink:href="#mf093b66503" y="250.623348"/>
     <use style="fill:#1f77b4;fill-opacity:0.8;stroke:#1f77b4;stroke-opacity:0.8;" x="190.004464" xlink:href="#mf093b66503" y="258.485479"/>
     <use style="fill:#1f77b4;fill-opacity:0.8;stroke:#1f77b4;stroke-opacity:0.8;" x="193.031505" xlink:href="#mf093b66503" y="251.42972"/>
     <use style="fill:#1f77b4;fill-opacity:0.8;stroke:#1f77b4;stroke-opacity:0.8;" x="196.058546" xlink:href="#mf093b66503" y="243.56759"/>
     <use style="fill:#1f77b4;fill-opacity:0.8;stroke:#1f77b4;stroke-opacity:0.8;" x="199.085587" xlink:href="#mf093b66503" y="248.607417"/>
     <use style="fill:#1f77b4;fill-opacity:0.8;stroke:#1f77b4;stroke-opacity:0.8;" x="202.112628" xlink:href="#mf093b66503" y="255.058396"/>
     <use style="fill:#1f77b4;fill-opacity:0.8;stroke:#1f77b4;stroke-opacity:0.8;" x="205.139668" xlink:href="#mf093b66503" y="252.0345"/>
     <use style="fill:#1f77b4;fill-opacity:0.8;stroke:#1f77b4;stroke-opacity:0.8;" x="208.166709" xlink:href="#mf093b66503" y="251.228127"/>
     <use style="fill:#1f77b4;fill-opacity:0.8;stroke:#1f77b4;stroke-opacity:0.8;" x="211.19375" xlink:href="#mf093b66503" y="247.801045"/>
     <use style="fill:#1f77b4;fill-opacity:0.8;stroke:#1f77b4;stroke-opacity:0.8;" x="214.220791" xlink:href="#mf093b66503" y="246.389893"/>
     <use style="fill:#1f77b4;fill-opacity:0.8;stroke:#1f77b4;stroke-opacity:0.8;" x="217.247832" xlink:href="#mf093b66503" y="243.970776"/>
     <use style="fill:#1f77b4;fill-opacity:0.8;stroke:#1f77b4;stroke-opacity:0.8;" x="220.274872" xlink:href="#mf093b66503" y="242.96281"/>
     <use style="fill:#1f77b4;fill-opacity:0.8;stroke:#1f77b4;stroke-opacity:0.8;" x="223.301913" xlink:href="#mf093b66503" y="221.593942"/>
     <use style="fill:#1f77b4;fill-opacity:0.8;stroke:#1f77b4;stroke-opacity:0.8;" x="226.328954" xlink:href="#mf093b66503" y="235.503866"/>
     <use style="fill:#1f77b4;fill-opacity:0.8;stroke:#1f77b4;stroke-opacity:0.8;" x="229.355995" xlink:href="#mf093b66503" y="229.456073"/>
     <use style="fill:#1f77b4;fill-opacity:0.8;stroke:#1f77b4;stroke-opacity:0.8;" x="232.383036" xlink:href="#mf093b66503" y="223.609873"/>
     <use style="fill:#1f77b4;fill-opacity:0.8;stroke:#1f77b4;stroke-opacity:0.8;" x="235.410077" xlink:href="#mf093b66503" y="225.021025"/>
     <use style="fill:#1f77b4;fill-opacity:0.8;stroke:#1f77b4;stroke-opacity:0.8;" x="238.437117" xlink:href="#mf093b66503" y="219.174825"/>
     <use style="fill:#1f77b4;fill-opacity:0.8;stroke:#1f77b4;stroke-opacity:0.8;" x="241.464158" xlink:href="#mf093b66503" y="225.424211"/>
     <use style="fill:#1f77b4;fill-opacity:0.8;stroke:#1f77b4;stroke-opacity:0.8;" x="244.491199" xlink:href="#mf093b66503" y="218.16686"/>
     <use style="fill:#1f77b4;fill-opacity:0.8;stroke:#1f77b4;stroke-opacity:0.8;" x="247.51824" xlink:href="#mf093b66503" y="214.94137"/>
     <use style="fill:#1f77b4;fill-opacity:0.8;stroke:#1f77b4;stroke-opacity:0.8;" x="250.545281" xlink:href="#mf093b66503" y="213.530219"/>
     <use style="fill:#1f77b4;fill-opacity:0.8;stroke:#1f77b4;stroke-opacity:0.8;" x="253.572321" xlink:href="#mf093b66503" y="214.134998"/>
     <use style="fill:#1f77b4;fill-opacity:0.8;stroke:#1f77b4;stroke-opacity:0.8;" x="256.599362" xlink:href="#mf093b66503" y="198.813923"/>
     <use style="fill:#1f77b4;fill-opacity:0.8;stroke:#1f77b4;stroke-opacity:0.8;" x="259.626403" xlink:href="#mf093b66503" y="223.811466"/>
     <use style="fill:#1f77b4;fill-opacity:0.8;stroke:#1f77b4;stroke-opacity:0.8;" x="262.653444" xlink:href="#mf093b66503" y="221.997129"/>
     <use style="fill:#1f77b4;fill-opacity:0.8;stroke:#1f77b4;stroke-opacity:0.8;" x="265.680485" xlink:href="#mf093b66503" y="215.949336"/>
     <use style="fill:#1f77b4;fill-opacity:0.8;stroke:#1f77b4;stroke-opacity:0.8;" x="268.707526" xlink:href="#mf093b66503" y="208.691984"/>
     <use style="fill:#1f77b4;fill-opacity:0.8;stroke:#1f77b4;stroke-opacity:0.8;" x="271.734566" xlink:href="#mf093b66503" y="204.055343"/>
     <use style="fill:#1f77b4;fill-opacity:0.8;stroke:#1f77b4;stroke-opacity:0.8;" x="274.761607" xlink:href="#mf093b66503" y="206.071274"/>
     <use style="fill:#1f77b4;fill-opacity:0.8;stroke:#1f77b4;stroke-opacity:0.8;" x="277.788648" xlink:href="#mf093b66503" y="202.442598"/>
     <use style="fill:#1f77b4;fill-opacity:0.8;stroke:#1f77b4;stroke-opacity:0.8;" x="280.815689" xlink:href="#mf093b66503" y="185.508778"/>
     <use style="fill:#1f77b4;fill-opacity:0.8;stroke:#1f77b4;stroke-opacity:0.8;" x="283.84273" xlink:href="#mf093b66503" y="202.442598"/>
     <use style="fill:#1f77b4;fill-opacity:0.8;stroke:#1f77b4;stroke-opacity:0.8;" x="286.86977" xlink:href="#mf093b66503" y="193.572502"/>
     <use style="fill:#1f77b4;fill-opacity:0.8;stroke:#1f77b4;stroke-opacity:0.8;" x="289.896811" xlink:href="#mf093b66503" y="198.00755"/>
     <use style="fill:#1f77b4;fill-opacity:0.8;stroke:#1f77b4;stroke-opacity:0.8;" x="292.923852" xlink:href="#mf093b66503" y="191.556571"/>
     <use style="fill:#1f77b4;fill-opacity:0.8;stroke:#1f77b4;stroke-opacity:0.8;" x="295.950893" xlink:href="#mf093b66503" y="195.38684"/>
     <use style="fill:#1f77b4;fill-opacity:0.8;stroke:#1f77b4;stroke-opacity:0.8;" x="298.977934" xlink:href="#mf093b66503" y="194.378875"/>
     <use style="fill:#1f77b4;fill-opacity:0.8;stroke:#1f77b4;stroke-opacity:0.8;" x="302.004974" xlink:href="#mf093b66503" y="201.837819"/>
     <use style="fill:#1f77b4;fill-opacity:0.8;stroke:#1f77b4;stroke-opacity:0.8;" x="305.032015" xlink:href="#mf093b66503" y="201.636226"/>
     <use style="fill:#1f77b4;fill-opacity:0.8;stroke:#1f77b4;stroke-opacity:0.8;" x="308.059056" xlink:href="#mf093b66503" y="196.596399"/>
     <use style="fill:#1f77b4;fill-opacity:0.8;stroke:#1f77b4;stroke-opacity:0.8;" x="311.086097" xlink:href="#mf093b66503" y="200.628261"/>
     <use style="fill:#1f77b4;fill-opacity:0.8;stroke:#1f77b4;stroke-opacity:0.8;" x="314.113138" xlink:href="#mf093b66503" y="203.248971"/>
     <use style="fill:#1f77b4;fill-opacity:0.8;stroke:#1f77b4;stroke-opacity:0.8;" x="317.140179" xlink:href="#mf093b66503" y="192.76613"/>
     <use style="fill:#1f77b4;fill-opacity:0.8;stroke:#1f77b4;stroke-opacity:0.8;" x="320.167219" xlink:href="#mf093b66503" y="178.251427"/>
     <use style="fill:#1f77b4;fill-opacity:0.8;stroke:#1f77b4;stroke-opacity:0.8;" x="323.19426" xlink:href="#mf093b66503" y="184.702406"/>
     <use style="fill:#1f77b4;fill-opacity:0.8;stroke:#1f77b4;stroke-opacity:0.8;" x="326.221301" xlink:href="#mf093b66503" y="177.445055"/>
     <use style="fill:#1f77b4;fill-opacity:0.8;stroke:#1f77b4;stroke-opacity:0.8;" x="329.248342" xlink:href="#mf093b66503" y="50.844591"/>
     <use style="fill:#1f77b4;fill-opacity:0.8;stroke:#1f77b4;stroke-opacity:0.8;" x="332.275383" xlink:href="#mf093b66503" y="172.60682"/>
     <use style="fill:#1f77b4;fill-opacity:0.8;stroke:#1f77b4;stroke-opacity:0.8;" x="335.302423" xlink:href="#mf093b66503" y="175.227531"/>
     <use style="fill:#1f77b4;fill-opacity:0.8;stroke:#1f77b4;stroke-opacity:0.8;" x="338.329464" xlink:href="#mf093b66503" y="172.002041"/>
     <use style="fill:#1f77b4;fill-opacity:0.8;stroke:#1f77b4;stroke-opacity:0.8;" x="341.356505" xlink:href="#mf093b66503" y="163.131945"/>
     <use style="fill:#1f77b4;fill-opacity:0.8;stroke:#1f77b4;stroke-opacity:0.8;" x="344.383546" xlink:href="#mf093b66503" y="129.465898"/>
     <use style="fill:#1f77b4;fill-opacity:0.8;stroke:#1f77b4;stroke-opacity:0.8;" x="347.410587" xlink:href="#mf093b66503" y="90.961617"/>
     <use style="fill:#1f77b4;fill-opacity:0.8;stroke:#1f77b4;stroke-opacity:0.8;" x="350.437628" xlink:href="#mf093b66503" y="131.683422"/>
     <use style="fill:#1f77b4;fill-opacity:0.8;stroke:#1f77b4;stroke-opacity:0.8;" x="353.464668" xlink:href="#mf093b66503" y="125.232443"/>
     <use style="fill:#1f77b4;fill-opacity:0.8;stroke:#1f77b4;stroke-opacity:0.8;" x="356.491709" xlink:href="#mf093b66503" y="97.211003"/>
     <use style="fill:#1f77b4;fill-opacity:0.8;stroke:#1f77b4;stroke-opacity:0.8;" x="359.51875" xlink:href="#mf093b66503" y="138.73918"/>
    </g>
   </g>
   <g id="PolyCollection_1">
    <path clip-path="url(#p80cd5f65c8)" d="M 62.86875 330.57193 
L 62.86875 343.026409 
L 65.865215 340.927281 
L 68.861679 338.827256 
L 71.858144 336.727863 
L 74.854609 334.628347 
L 77.851073 332.547815 
L 80.847538 330.445019 
L 83.844003 328.329801 
L 86.840467 326.223108 
L 89.836932 324.119922 
L 92.833396 322.031254 
L 95.829861 319.92972 
L 98.826326 317.833266 
L 101.82279 315.763115 
L 104.819255 313.701217 
L 107.81572 311.552101 
L 110.812184 309.533776 
L 113.808649 307.450659 
L 116.805114 305.368326 
L 119.801578 303.36465 
L 122.798043 301.244446 
L 125.794508 299.191943 
L 128.790972 297.14639 
L 131.787437 295.050741 
L 134.783902 293.001266 
L 137.780366 290.989524 
L 140.776831 288.953309 
L 143.773295 286.947092 
L 146.76976 284.917682 
L 149.766225 282.894298 
L 152.762689 280.938418 
L 155.759154 278.943606 
L 158.755619 276.950572 
L 161.752083 274.952959 
L 164.748548 272.966004 
L 167.745013 271.020663 
L 170.741477 269.077389 
L 173.737942 267.14066 
L 176.734407 265.253001 
L 179.730871 263.382301 
L 182.727336 261.521878 
L 185.723801 259.630344 
L 188.720265 257.726758 
L 191.71673 255.824531 
L 194.713194 253.972794 
L 197.709659 252.199125 
L 200.706124 250.342658 
L 203.702588 248.436634 
L 206.699053 246.550492 
L 209.695518 244.701288 
L 212.691982 242.900416 
L 215.688447 241.149845 
L 218.684912 239.310763 
L 221.681376 237.479402 
L 224.677841 235.642032 
L 227.674306 233.813393 
L 230.67077 231.965048 
L 233.667235 230.175451 
L 236.663699 228.396486 
L 239.660164 226.614164 
L 242.656629 224.789562 
L 245.653093 222.953296 
L 248.649558 221.11703 
L 251.646023 219.350606 
L 254.642487 217.625916 
L 257.638952 215.901226 
L 260.635417 214.138802 
L 263.631881 212.313887 
L 266.628346 210.542597 
L 269.624811 208.731887 
L 272.621275 206.925833 
L 275.61774 205.152279 
L 278.614205 203.358578 
L 281.610669 201.548699 
L 284.607134 199.759616 
L 287.603598 197.960261 
L 290.600063 196.160314 
L 293.596528 194.360367 
L 296.592992 192.560874 
L 299.589457 190.76256 
L 302.585922 188.963179 
L 305.582386 187.163635 
L 308.578851 185.364092 
L 311.575316 183.590388 
L 314.57178 181.79523 
L 317.568245 179.998264 
L 320.56471 178.185718 
L 323.561174 176.372817 
L 326.557639 174.566831 
L 329.554104 172.767288 
L 332.550568 170.971727 
L 335.547033 169.196393 
L 338.543497 167.421059 
L 341.539962 165.640593 
L 344.536427 163.842304 
L 347.532891 162.044014 
L 350.529356 160.245725 
L 353.525821 158.447009 
L 356.522285 156.647867 
L 359.51875 154.848725 
L 359.51875 134.071868 
L 359.51875 134.071868 
L 356.522285 136.128522 
L 353.525821 138.185177 
L 350.529356 140.258046 
L 347.532891 142.359331 
L 344.536427 144.461382 
L 341.539962 146.563433 
L 338.543497 148.665484 
L 335.547033 150.767535 
L 332.550568 152.869585 
L 329.554104 154.971636 
L 326.557639 157.028531 
L 323.561174 159.078925 
L 320.56471 161.159636 
L 317.568245 163.281362 
L 314.57178 165.403087 
L 311.575316 167.524813 
L 308.578851 169.646538 
L 305.582386 171.768264 
L 302.585922 173.820564 
L 299.589457 175.862164 
L 296.592992 177.903765 
L 293.596528 179.981927 
L 290.600063 182.074528 
L 287.603598 184.168894 
L 284.607134 186.284741 
L 281.610669 188.358871 
L 278.614205 190.448094 
L 275.61774 192.540149 
L 272.621275 194.632205 
L 269.624811 196.718531 
L 266.628346 198.791173 
L 263.631881 200.846716 
L 260.635417 202.903727 
L 257.638952 204.943233 
L 254.642487 207.030135 
L 251.646023 209.138699 
L 248.649558 211.232744 
L 245.653093 213.322435 
L 242.656629 215.395879 
L 239.660164 217.478309 
L 236.663699 219.541755 
L 233.667235 221.614862 
L 230.67077 223.687969 
L 227.674306 225.73708 
L 224.677841 227.792888 
L 221.681376 229.899866 
L 218.684912 231.981118 
L 215.688447 234.053833 
L 212.691982 236.121058 
L 209.695518 238.170356 
L 206.699053 240.22733 
L 203.702588 242.292351 
L 200.706124 244.364121 
L 197.709659 246.460793 
L 194.713194 248.536512 
L 191.71673 250.570572 
L 188.720265 252.567667 
L 185.723801 254.597813 
L 182.727336 256.591636 
L 179.730871 258.502717 
L 176.734407 260.415176 
L 173.737942 262.31644 
L 170.741477 264.23816 
L 167.745013 266.180266 
L 164.748548 268.144902 
L 161.752083 270.070951 
L 158.755619 271.991385 
L 155.759154 273.919109 
L 152.762689 275.889247 
L 149.766225 277.830305 
L 146.76976 279.664451 
L 143.773295 281.547346 
L 140.776831 283.457741 
L 137.780366 285.303751 
L 134.783902 287.176757 
L 131.787437 289.036934 
L 128.790972 290.874645 
L 125.794508 292.649033 
L 122.798043 294.396317 
L 119.801578 296.20633 
L 116.805114 298.080933 
L 113.808649 299.939208 
L 110.812184 301.719727 
L 107.81572 303.593582 
L 104.819255 305.41905 
L 101.82279 307.206048 
L 98.826326 309.021065 
L 95.829861 310.819398 
L 92.833396 312.607891 
L 89.836932 314.38345 
L 86.840467 316.184875 
L 83.844003 317.973899 
L 80.847538 319.845371 
L 77.851073 321.638112 
L 74.854609 323.404796 
L 71.858144 325.212435 
L 68.861679 326.998403 
L 65.865215 328.785167 
L 62.86875 330.57193 
z
" style="fill:#1f77b4;fill-opacity:0.15;"/>
   </g>
   <g id="matplotlib.axis_1">
    <g id="xtick_1">
     <g id="line2d_1">
      <defs>
       <path d="M 0 0 
L 0 3.5 
" id="m39459d94f4" style="stroke:#000000;stroke-width:0.8;"/>
      </defs>
      <g>
       <use style="stroke:#000000;stroke-width:0.8;" x="120.382526" xlink:href="#m39459d94f4" y="357.6355"/>
      </g>
     </g>
     <g id="text_1">
      <!-- 20 -->
      <g transform="translate(114.020026 372.233937)scale(0.1 -0.1)">
       <defs>
        <path d="M 1228 531 
L 3431 531 
L 3431 0 
L 469 0 
L 469 531 
Q 828 903 1448 1529 
Q 2069 2156 2228 2338 
Q 2531 2678 2651 2914 
Q 2772 3150 2772 3378 
Q 2772 3750 2511 3984 
Q 2250 4219 1831 4219 
Q 1534 4219 1204 4116 
Q 875 4013 500 3803 
L 500 4441 
Q 881 4594 1212 4672 
Q 1544 4750 1819 4750 
Q 2544 4750 2975 4387 
Q 3406 4025 3406 3419 
Q 3406 3131 3298 2873 
Q 3191 2616 2906 2266 
Q 2828 2175 2409 1742 
Q 1991 1309 1228 531 
z
" id="DejaVuSans-32" transform="scale(0.015625)"/>
        <path d="M 2034 4250 
Q 1547 4250 1301 3770 
Q 1056 3291 1056 2328 
Q 1056 1369 1301 889 
Q 1547 409 2034 409 
Q 2525 409 2770 889 
Q 3016 1369 3016 2328 
Q 3016 3291 2770 3770 
Q 2525 4250 2034 4250 
z
M 2034 4750 
Q 2819 4750 3233 4129 
Q 3647 3509 3647 2328 
Q 3647 1150 3233 529 
Q 2819 -91 2034 -91 
Q 1250 -91 836 529 
Q 422 1150 422 2328 
Q 422 3509 836 4129 
Q 1250 4750 2034 4750 
z
" id="DejaVuSans-30" transform="scale(0.015625)"/>
       </defs>
       <use xlink:href="#DejaVuSans-32"/>
       <use x="63.623047" xlink:href="#DejaVuSans-30"/>
      </g>
     </g>
    </g>
    <g id="xtick_2">
     <g id="line2d_2">
      <g>
       <use style="stroke:#000000;stroke-width:0.8;" x="180.923342" xlink:href="#m39459d94f4" y="357.6355"/>
      </g>
     </g>
     <g id="text_2">
      <!-- 40 -->
      <g transform="translate(174.560842 372.233937)scale(0.1 -0.1)">
       <defs>
        <path d="M 2419 4116 
L 825 1625 
L 2419 1625 
L 2419 4116 
z
M 2253 4666 
L 3047 4666 
L 3047 1625 
L 3713 1625 
L 3713 1100 
L 3047 1100 
L 3047 0 
L 2419 0 
L 2419 1100 
L 313 1100 
L 313 1709 
L 2253 4666 
z
" id="DejaVuSans-34" transform="scale(0.015625)"/>
       </defs>
       <use xlink:href="#DejaVuSans-34"/>
       <use x="63.623047" xlink:href="#DejaVuSans-30"/>
      </g>
     </g>
    </g>
    <g id="xtick_3">
     <g id="line2d_3">
      <g>
       <use style="stroke:#000000;stroke-width:0.8;" x="241.464158" xlink:href="#m39459d94f4" y="357.6355"/>
      </g>
     </g>
     <g id="text_3">
      <!-- 60 -->
      <g transform="translate(235.101658 372.233937)scale(0.1 -0.1)">
       <defs>
        <path d="M 2113 2584 
Q 1688 2584 1439 2293 
Q 1191 2003 1191 1497 
Q 1191 994 1439 701 
Q 1688 409 2113 409 
Q 2538 409 2786 701 
Q 3034 994 3034 1497 
Q 3034 2003 2786 2293 
Q 2538 2584 2113 2584 
z
M 3366 4563 
L 3366 3988 
Q 3128 4100 2886 4159 
Q 2644 4219 2406 4219 
Q 1781 4219 1451 3797 
Q 1122 3375 1075 2522 
Q 1259 2794 1537 2939 
Q 1816 3084 2150 3084 
Q 2853 3084 3261 2657 
Q 3669 2231 3669 1497 
Q 3669 778 3244 343 
Q 2819 -91 2113 -91 
Q 1303 -91 875 529 
Q 447 1150 447 2328 
Q 447 3434 972 4092 
Q 1497 4750 2381 4750 
Q 2619 4750 2861 4703 
Q 3103 4656 3366 4563 
z
" id="DejaVuSans-36" transform="scale(0.015625)"/>
       </defs>
       <use xlink:href="#DejaVuSans-36"/>
       <use x="63.623047" xlink:href="#DejaVuSans-30"/>
      </g>
     </g>
    </g>
    <g id="xtick_4">
     <g id="line2d_4">
      <g>
       <use style="stroke:#000000;stroke-width:0.8;" x="302.004974" xlink:href="#m39459d94f4" y="357.6355"/>
      </g>
     </g>
     <g id="text_4">
      <!-- 80 -->
      <g transform="translate(295.642474 372.233937)scale(0.1 -0.1)">
       <defs>
        <path d="M 2034 2216 
Q 1584 2216 1326 1975 
Q 1069 1734 1069 1313 
Q 1069 891 1326 650 
Q 1584 409 2034 409 
Q 2484 409 2743 651 
Q 3003 894 3003 1313 
Q 3003 1734 2745 1975 
Q 2488 2216 2034 2216 
z
M 1403 2484 
Q 997 2584 770 2862 
Q 544 3141 544 3541 
Q 544 4100 942 4425 
Q 1341 4750 2034 4750 
Q 2731 4750 3128 4425 
Q 3525 4100 3525 3541 
Q 3525 3141 3298 2862 
Q 3072 2584 2669 2484 
Q 3125 2378 3379 2068 
Q 3634 1759 3634 1313 
Q 3634 634 3220 271 
Q 2806 -91 2034 -91 
Q 1263 -91 848 271 
Q 434 634 434 1313 
Q 434 1759 690 2068 
Q 947 2378 1403 2484 
z
M 1172 3481 
Q 1172 3119 1398 2916 
Q 1625 2713 2034 2713 
Q 2441 2713 2670 2916 
Q 2900 3119 2900 3481 
Q 2900 3844 2670 4047 
Q 2441 4250 2034 4250 
Q 1625 4250 1398 4047 
Q 1172 3844 1172 3481 
z
" id="DejaVuSans-38" transform="scale(0.015625)"/>
       </defs>
       <use xlink:href="#DejaVuSans-38"/>
       <use x="63.623047" xlink:href="#DejaVuSans-30"/>
      </g>
     </g>
    </g>
    <g id="text_5">
     <!-- complejidad -->
     <g transform="translate(180.684375 385.912062)scale(0.1 -0.1)">
      <defs>
       <path d="M 3122 3366 
L 3122 2828 
Q 2878 2963 2633 3030 
Q 2388 3097 2138 3097 
Q 1578 3097 1268 2742 
Q 959 2388 959 1747 
Q 959 1106 1268 751 
Q 1578 397 2138 397 
Q 2388 397 2633 464 
Q 2878 531 3122 666 
L 3122 134 
Q 2881 22 2623 -34 
Q 2366 -91 2075 -91 
Q 1284 -91 818 406 
Q 353 903 353 1747 
Q 353 2603 823 3093 
Q 1294 3584 2113 3584 
Q 2378 3584 2631 3529 
Q 2884 3475 3122 3366 
z
" id="DejaVuSans-63" transform="scale(0.015625)"/>
       <path d="M 1959 3097 
Q 1497 3097 1228 2736 
Q 959 2375 959 1747 
Q 959 1119 1226 758 
Q 1494 397 1959 397 
Q 2419 397 2687 759 
Q 2956 1122 2956 1747 
Q 2956 2369 2687 2733 
Q 2419 3097 1959 3097 
z
M 1959 3584 
Q 2709 3584 3137 3096 
Q 3566 2609 3566 1747 
Q 3566 888 3137 398 
Q 2709 -91 1959 -91 
Q 1206 -91 779 398 
Q 353 888 353 1747 
Q 353 2609 779 3096 
Q 1206 3584 1959 3584 
z
" id="DejaVuSans-6f" transform="scale(0.015625)"/>
       <path d="M 3328 2828 
Q 3544 3216 3844 3400 
Q 4144 3584 4550 3584 
Q 5097 3584 5394 3201 
Q 5691 2819 5691 2113 
L 5691 0 
L 5113 0 
L 5113 2094 
Q 5113 2597 4934 2840 
Q 4756 3084 4391 3084 
Q 3944 3084 3684 2787 
Q 3425 2491 3425 1978 
L 3425 0 
L 2847 0 
L 2847 2094 
Q 2847 2600 2669 2842 
Q 2491 3084 2119 3084 
Q 1678 3084 1418 2786 
Q 1159 2488 1159 1978 
L 1159 0 
L 581 0 
L 581 3500 
L 1159 3500 
L 1159 2956 
Q 1356 3278 1631 3431 
Q 1906 3584 2284 3584 
Q 2666 3584 2933 3390 
Q 3200 3197 3328 2828 
z
" id="DejaVuSans-6d" transform="scale(0.015625)"/>
       <path d="M 1159 525 
L 1159 -1331 
L 581 -1331 
L 581 3500 
L 1159 3500 
L 1159 2969 
Q 1341 3281 1617 3432 
Q 1894 3584 2278 3584 
Q 2916 3584 3314 3078 
Q 3713 2572 3713 1747 
Q 3713 922 3314 415 
Q 2916 -91 2278 -91 
Q 1894 -91 1617 61 
Q 1341 213 1159 525 
z
M 3116 1747 
Q 3116 2381 2855 2742 
Q 2594 3103 2138 3103 
Q 1681 3103 1420 2742 
Q 1159 2381 1159 1747 
Q 1159 1113 1420 752 
Q 1681 391 2138 391 
Q 2594 391 2855 752 
Q 3116 1113 3116 1747 
z
" id="DejaVuSans-70" transform="scale(0.015625)"/>
       <path d="M 603 4863 
L 1178 4863 
L 1178 0 
L 603 0 
L 603 4863 
z
" id="DejaVuSans-6c" transform="scale(0.015625)"/>
       <path d="M 3597 1894 
L 3597 1613 
L 953 1613 
Q 991 1019 1311 708 
Q 1631 397 2203 397 
Q 2534 397 2845 478 
Q 3156 559 3463 722 
L 3463 178 
Q 3153 47 2828 -22 
Q 2503 -91 2169 -91 
Q 1331 -91 842 396 
Q 353 884 353 1716 
Q 353 2575 817 3079 
Q 1281 3584 2069 3584 
Q 2775 3584 3186 3129 
Q 3597 2675 3597 1894 
z
M 3022 2063 
Q 3016 2534 2758 2815 
Q 2500 3097 2075 3097 
Q 1594 3097 1305 2825 
Q 1016 2553 972 2059 
L 3022 2063 
z
" id="DejaVuSans-65" transform="scale(0.015625)"/>
       <path d="M 603 3500 
L 1178 3500 
L 1178 -63 
Q 1178 -731 923 -1031 
Q 669 -1331 103 -1331 
L -116 -1331 
L -116 -844 
L 38 -844 
Q 366 -844 484 -692 
Q 603 -541 603 -63 
L 603 3500 
z
M 603 4863 
L 1178 4863 
L 1178 4134 
L 603 4134 
L 603 4863 
z
" id="DejaVuSans-6a" transform="scale(0.015625)"/>
       <path d="M 603 3500 
L 1178 3500 
L 1178 0 
L 603 0 
L 603 3500 
z
M 603 4863 
L 1178 4863 
L 1178 4134 
L 603 4134 
L 603 4863 
z
" id="DejaVuSans-69" transform="scale(0.015625)"/>
       <path d="M 2906 2969 
L 2906 4863 
L 3481 4863 
L 3481 0 
L 2906 0 
L 2906 525 
Q 2725 213 2448 61 
Q 2172 -91 1784 -91 
Q 1150 -91 751 415 
Q 353 922 353 1747 
Q 353 2572 751 3078 
Q 1150 3584 1784 3584 
Q 2172 3584 2448 3432 
Q 2725 3281 2906 2969 
z
M 947 1747 
Q 947 1113 1208 752 
Q 1469 391 1925 391 
Q 2381 391 2643 752 
Q 2906 1113 2906 1747 
Q 2906 2381 2643 2742 
Q 2381 3103 1925 3103 
Q 1469 3103 1208 2742 
Q 947 2381 947 1747 
z
" id="DejaVuSans-64" transform="scale(0.015625)"/>
       <path d="M 2194 1759 
Q 1497 1759 1228 1600 
Q 959 1441 959 1056 
Q 959 750 1161 570 
Q 1363 391 1709 391 
Q 2188 391 2477 730 
Q 2766 1069 2766 1631 
L 2766 1759 
L 2194 1759 
z
M 3341 1997 
L 3341 0 
L 2766 0 
L 2766 531 
Q 2569 213 2275 61 
Q 1981 -91 1556 -91 
Q 1019 -91 701 211 
Q 384 513 384 1019 
Q 384 1609 779 1909 
Q 1175 2209 1959 2209 
L 2766 2209 
L 2766 2266 
Q 2766 2663 2505 2880 
Q 2244 3097 1772 3097 
Q 1472 3097 1187 3025 
Q 903 2953 641 2809 
L 641 3341 
Q 956 3463 1253 3523 
Q 1550 3584 1831 3584 
Q 2591 3584 2966 3190 
Q 3341 2797 3341 1997 
z
" id="DejaVuSans-61" transform="scale(0.015625)"/>
      </defs>
      <use xlink:href="#DejaVuSans-63"/>
      <use x="54.980469" xlink:href="#DejaVuSans-6f"/>
      <use x="116.162109" xlink:href="#DejaVuSans-6d"/>
      <use x="213.574219" xlink:href="#DejaVuSans-70"/>
      <use x="277.050781" xlink:href="#DejaVuSans-6c"/>
      <use x="304.833984" xlink:href="#DejaVuSans-65"/>
      <use x="366.357422" xlink:href="#DejaVuSans-6a"/>
      <use x="394.140625" xlink:href="#DejaVuSans-69"/>
      <use x="421.923828" xlink:href="#DejaVuSans-64"/>
      <use x="485.400391" xlink:href="#DejaVuSans-61"/>
      <use x="546.679688" xlink:href="#DejaVuSans-64"/>
     </g>
    </g>
   </g>
   <g id="matplotlib.axis_2">
    <g id="ytick_1">
     <g id="line2d_5">
      <defs>
       <path d="M 0 0 
L -3.5 0 
" id="m680d261d03" style="stroke:#000000;stroke-width:0.8;"/>
      </defs>
      <g>
       <use style="stroke:#000000;stroke-width:0.8;" x="62.86875" xlink:href="#m680d261d03" y="329.244655"/>
      </g>
     </g>
     <g id="text_6">
      <!-- 0.0008 -->
      <g transform="translate(20.878125 333.043874)scale(0.1 -0.1)">
       <defs>
        <path d="M 684 794 
L 1344 794 
L 1344 0 
L 684 0 
L 684 794 
z
" id="DejaVuSans-2e" transform="scale(0.015625)"/>
       </defs>
       <use xlink:href="#DejaVuSans-30"/>
       <use x="63.623047" xlink:href="#DejaVuSans-2e"/>
       <use x="95.410156" xlink:href="#DejaVuSans-30"/>
       <use x="159.033203" xlink:href="#DejaVuSans-30"/>
       <use x="222.65625" xlink:href="#DejaVuSans-30"/>
       <use x="286.279297" xlink:href="#DejaVuSans-38"/>
      </g>
     </g>
    </g>
    <g id="ytick_2">
     <g id="line2d_6">
      <g>
       <use style="stroke:#000000;stroke-width:0.8;" x="62.86875" xlink:href="#m680d261d03" y="288.926036"/>
      </g>
     </g>
     <g id="text_7">
      <!-- 0.0010 -->
      <g transform="translate(20.878125 292.725255)scale(0.1 -0.1)">
       <defs>
        <path d="M 794 531 
L 1825 531 
L 1825 4091 
L 703 3866 
L 703 4441 
L 1819 4666 
L 2450 4666 
L 2450 531 
L 3481 531 
L 3481 0 
L 794 0 
L 794 531 
z
" id="DejaVuSans-31" transform="scale(0.015625)"/>
       </defs>
       <use xlink:href="#DejaVuSans-30"/>
       <use x="63.623047" xlink:href="#DejaVuSans-2e"/>
       <use x="95.410156" xlink:href="#DejaVuSans-30"/>
       <use x="159.033203" xlink:href="#DejaVuSans-30"/>
       <use x="222.65625" xlink:href="#DejaVuSans-31"/>
       <use x="286.279297" xlink:href="#DejaVuSans-30"/>
      </g>
     </g>
    </g>
    <g id="ytick_3">
     <g id="line2d_7">
      <g>
       <use style="stroke:#000000;stroke-width:0.8;" x="62.86875" xlink:href="#m680d261d03" y="248.607417"/>
      </g>
     </g>
     <g id="text_8">
      <!-- 0.0012 -->
      <g transform="translate(20.878125 252.406636)scale(0.1 -0.1)">
       <use xlink:href="#DejaVuSans-30"/>
       <use x="63.623047" xlink:href="#DejaVuSans-2e"/>
       <use x="95.410156" xlink:href="#DejaVuSans-30"/>
       <use x="159.033203" xlink:href="#DejaVuSans-30"/>
       <use x="222.65625" xlink:href="#DejaVuSans-31"/>
       <use x="286.279297" xlink:href="#DejaVuSans-32"/>
      </g>
     </g>
    </g>
    <g id="ytick_4">
     <g id="line2d_8">
      <g>
       <use style="stroke:#000000;stroke-width:0.8;" x="62.86875" xlink:href="#m680d261d03" y="208.288798"/>
      </g>
     </g>
     <g id="text_9">
      <!-- 0.0014 -->
      <g transform="translate(20.878125 212.088017)scale(0.1 -0.1)">
       <use xlink:href="#DejaVuSans-30"/>
       <use x="63.623047" xlink:href="#DejaVuSans-2e"/>
       <use x="95.410156" xlink:href="#DejaVuSans-30"/>
       <use x="159.033203" xlink:href="#DejaVuSans-30"/>
       <use x="222.65625" xlink:href="#DejaVuSans-31"/>
       <use x="286.279297" xlink:href="#DejaVuSans-34"/>
      </g>
     </g>
    </g>
    <g id="ytick_5">
     <g id="line2d_9">
      <g>
       <use style="stroke:#000000;stroke-width:0.8;" x="62.86875" xlink:href="#m680d261d03" y="167.970179"/>
      </g>
     </g>
     <g id="text_10">
      <!-- 0.0016 -->
      <g transform="translate(20.878125 171.769398)scale(0.1 -0.1)">
       <use xlink:href="#DejaVuSans-30"/>
       <use x="63.623047" xlink:href="#DejaVuSans-2e"/>
       <use x="95.410156" xlink:href="#DejaVuSans-30"/>
       <use x="159.033203" xlink:href="#DejaVuSans-30"/>
       <use x="222.65625" xlink:href="#DejaVuSans-31"/>
       <use x="286.279297" xlink:href="#DejaVuSans-36"/>
      </g>
     </g>
    </g>
    <g id="ytick_6">
     <g id="line2d_10">
      <g>
       <use style="stroke:#000000;stroke-width:0.8;" x="62.86875" xlink:href="#m680d261d03" y="127.65156"/>
      </g>
     </g>
     <g id="text_11">
      <!-- 0.0018 -->
      <g transform="translate(20.878125 131.450779)scale(0.1 -0.1)">
       <use xlink:href="#DejaVuSans-30"/>
       <use x="63.623047" xlink:href="#DejaVuSans-2e"/>
       <use x="95.410156" xlink:href="#DejaVuSans-30"/>
       <use x="159.033203" xlink:href="#DejaVuSans-30"/>
       <use x="222.65625" xlink:href="#DejaVuSans-31"/>
       <use x="286.279297" xlink:href="#DejaVuSans-38"/>
      </g>
     </g>
    </g>
    <g id="ytick_7">
     <g id="line2d_11">
      <g>
       <use style="stroke:#000000;stroke-width:0.8;" x="62.86875" xlink:href="#m680d261d03" y="87.332941"/>
      </g>
     </g>
     <g id="text_12">
      <!-- 0.0020 -->
      <g transform="translate(20.878125 91.13216)scale(0.1 -0.1)">
       <use xlink:href="#DejaVuSans-30"/>
       <use x="63.623047" xlink:href="#DejaVuSans-2e"/>
       <use x="95.410156" xlink:href="#DejaVuSans-30"/>
       <use x="159.033203" xlink:href="#DejaVuSans-30"/>
       <use x="222.65625" xlink:href="#DejaVuSans-32"/>
       <use x="286.279297" xlink:href="#DejaVuSans-30"/>
      </g>
     </g>
    </g>
    <g id="ytick_8">
     <g id="line2d_12">
      <g>
       <use style="stroke:#000000;stroke-width:0.8;" x="62.86875" xlink:href="#m680d261d03" y="47.014322"/>
      </g>
     </g>
     <g id="text_13">
      <!-- 0.0022 -->
      <g transform="translate(20.878125 50.813541)scale(0.1 -0.1)">
       <use xlink:href="#DejaVuSans-30"/>
       <use x="63.623047" xlink:href="#DejaVuSans-2e"/>
       <use x="95.410156" xlink:href="#DejaVuSans-30"/>
       <use x="159.033203" xlink:href="#DejaVuSans-30"/>
       <use x="222.65625" xlink:href="#DejaVuSans-32"/>
       <use x="286.279297" xlink:href="#DejaVuSans-32"/>
      </g>
     </g>
    </g>
    <g id="text_14">
     <!-- tiempo -->
     <g transform="translate(14.798438 214.465187)rotate(-90)scale(0.1 -0.1)">
      <defs>
       <path d="M 1172 4494 
L 1172 3500 
L 2356 3500 
L 2356 3053 
L 1172 3053 
L 1172 1153 
Q 1172 725 1289 603 
Q 1406 481 1766 481 
L 2356 481 
L 2356 0 
L 1766 0 
Q 1100 0 847 248 
Q 594 497 594 1153 
L 594 3053 
L 172 3053 
L 172 3500 
L 594 3500 
L 594 4494 
L 1172 4494 
z
" id="DejaVuSans-74" transform="scale(0.015625)"/>
      </defs>
      <use xlink:href="#DejaVuSans-74"/>
      <use x="39.208984" xlink:href="#DejaVuSans-69"/>
      <use x="66.992188" xlink:href="#DejaVuSans-65"/>
      <use x="128.515625" xlink:href="#DejaVuSans-6d"/>
      <use x="225.927734" xlink:href="#DejaVuSans-70"/>
      <use x="289.404297" xlink:href="#DejaVuSans-6f"/>
     </g>
    </g>
   </g>
   <g id="line2d_13">
    <path clip-path="url(#p80cd5f65c8)" d="M 62.86875 336.804722 
L 65.865215 334.863675 
L 68.861679 332.922628 
L 71.858144 330.98158 
L 74.854609 329.040533 
L 77.851073 327.099486 
L 80.847538 325.158439 
L 83.844003 323.217392 
L 86.840467 321.276345 
L 89.836932 319.335297 
L 92.833396 317.39425 
L 95.829861 315.453203 
L 98.826326 313.512156 
L 101.82279 311.571109 
L 104.819255 309.630062 
L 107.81572 307.689014 
L 110.812184 305.747967 
L 113.808649 303.80692 
L 116.805114 301.865873 
L 119.801578 299.924826 
L 122.798043 297.983779 
L 125.794508 296.042731 
L 128.790972 294.101684 
L 131.787437 292.160637 
L 134.783902 290.21959 
L 137.780366 288.278543 
L 140.776831 286.337496 
L 143.773295 284.396448 
L 146.76976 282.455401 
L 149.766225 280.514354 
L 152.762689 278.573307 
L 155.759154 276.63226 
L 158.755619 274.691213 
L 161.752083 272.750165 
L 164.748548 270.809118 
L 167.745013 268.868071 
L 170.741477 266.927024 
L 173.737942 264.985977 
L 176.734407 263.04493 
L 179.730871 261.103882 
L 182.727336 259.162835 
L 185.723801 257.221788 
L 188.720265 255.280741 
L 191.71673 253.339694 
L 194.713194 251.398647 
L 197.709659 249.457599 
L 200.706124 247.516552 
L 203.702588 245.575505 
L 206.699053 243.634458 
L 209.695518 241.693411 
L 212.691982 239.752364 
L 215.688447 237.811316 
L 218.684912 235.870269 
L 221.681376 233.929222 
L 224.677841 231.988175 
L 227.674306 230.047128 
L 230.67077 228.106081 
L 233.667235 226.165033 
L 236.663699 224.223986 
L 239.660164 222.282939 
L 242.656629 220.341892 
L 245.653093 218.400845 
L 248.649558 216.459798 
L 251.646023 214.51875 
L 254.642487 212.577703 
L 257.638952 210.636656 
L 260.635417 208.695609 
L 263.631881 206.754562 
L 266.628346 204.813515 
L 269.624811 202.872467 
L 272.621275 200.93142 
L 275.61774 198.990373 
L 278.614205 197.049326 
L 281.610669 195.108279 
L 284.607134 193.167232 
L 287.603598 191.226184 
L 290.600063 189.285137 
L 293.596528 187.34409 
L 296.592992 185.403043 
L 299.589457 183.461996 
L 302.585922 181.520949 
L 305.582386 179.579901 
L 308.578851 177.638854 
L 311.575316 175.697807 
L 314.57178 173.75676 
L 317.568245 171.815713 
L 320.56471 169.874666 
L 323.561174 167.933618 
L 326.557639 165.992571 
L 329.554104 164.051524 
L 332.550568 162.110477 
L 335.547033 160.16943 
L 338.543497 158.228383 
L 341.539962 156.287335 
L 344.536427 154.346288 
L 347.532891 152.405241 
L 350.529356 150.464194 
L 353.525821 148.523147 
L 356.522285 146.5821 
L 359.51875 144.641052 
" style="fill:none;stroke:#1f77b4;stroke-linecap:square;stroke-width:2.25;"/>
   </g>
   <g id="patch_3">
    <path d="M 62.86875 357.6355 
L 62.86875 36.2355 
" style="fill:none;stroke:#000000;stroke-linecap:square;stroke-linejoin:miter;stroke-width:0.8;"/>
   </g>
   <g id="patch_4">
    <path d="M 62.86875 357.6355 
L 359.51875 357.6355 
" style="fill:none;stroke:#000000;stroke-linecap:square;stroke-linejoin:miter;stroke-width:0.8;"/>
   </g>
   <g id="text_15">
    <!-- Tiempo de ejecución mejor caso BT-O -->
    <g transform="translate(98.005625 16.798125)scale(0.12 -0.12)">
     <defs>
      <path d="M -19 4666 
L 3928 4666 
L 3928 4134 
L 2272 4134 
L 2272 0 
L 1638 0 
L 1638 4134 
L -19 4134 
L -19 4666 
z
" id="DejaVuSans-54" transform="scale(0.015625)"/>
      <path id="DejaVuSans-20" transform="scale(0.015625)"/>
      <path d="M 544 1381 
L 544 3500 
L 1119 3500 
L 1119 1403 
Q 1119 906 1312 657 
Q 1506 409 1894 409 
Q 2359 409 2629 706 
Q 2900 1003 2900 1516 
L 2900 3500 
L 3475 3500 
L 3475 0 
L 2900 0 
L 2900 538 
Q 2691 219 2414 64 
Q 2138 -91 1772 -91 
Q 1169 -91 856 284 
Q 544 659 544 1381 
z
M 1991 3584 
L 1991 3584 
z
" id="DejaVuSans-75" transform="scale(0.015625)"/>
      <path d="M 1959 3097 
Q 1497 3097 1228 2736 
Q 959 2375 959 1747 
Q 959 1119 1226 758 
Q 1494 397 1959 397 
Q 2419 397 2687 759 
Q 2956 1122 2956 1747 
Q 2956 2369 2687 2733 
Q 2419 3097 1959 3097 
z
M 1959 3584 
Q 2709 3584 3137 3096 
Q 3566 2609 3566 1747 
Q 3566 888 3137 398 
Q 2709 -91 1959 -91 
Q 1206 -91 779 398 
Q 353 888 353 1747 
Q 353 2609 779 3096 
Q 1206 3584 1959 3584 
z
M 2394 5119 
L 3016 5119 
L 1998 3944 
L 1519 3944 
L 2394 5119 
z
" id="DejaVuSans-f3" transform="scale(0.015625)"/>
      <path d="M 3513 2113 
L 3513 0 
L 2938 0 
L 2938 2094 
Q 2938 2591 2744 2837 
Q 2550 3084 2163 3084 
Q 1697 3084 1428 2787 
Q 1159 2491 1159 1978 
L 1159 0 
L 581 0 
L 581 3500 
L 1159 3500 
L 1159 2956 
Q 1366 3272 1645 3428 
Q 1925 3584 2291 3584 
Q 2894 3584 3203 3211 
Q 3513 2838 3513 2113 
z
" id="DejaVuSans-6e" transform="scale(0.015625)"/>
      <path d="M 2631 2963 
Q 2534 3019 2420 3045 
Q 2306 3072 2169 3072 
Q 1681 3072 1420 2755 
Q 1159 2438 1159 1844 
L 1159 0 
L 581 0 
L 581 3500 
L 1159 3500 
L 1159 2956 
Q 1341 3275 1631 3429 
Q 1922 3584 2338 3584 
Q 2397 3584 2469 3576 
Q 2541 3569 2628 3553 
L 2631 2963 
z
" id="DejaVuSans-72" transform="scale(0.015625)"/>
      <path d="M 2834 3397 
L 2834 2853 
Q 2591 2978 2328 3040 
Q 2066 3103 1784 3103 
Q 1356 3103 1142 2972 
Q 928 2841 928 2578 
Q 928 2378 1081 2264 
Q 1234 2150 1697 2047 
L 1894 2003 
Q 2506 1872 2764 1633 
Q 3022 1394 3022 966 
Q 3022 478 2636 193 
Q 2250 -91 1575 -91 
Q 1294 -91 989 -36 
Q 684 19 347 128 
L 347 722 
Q 666 556 975 473 
Q 1284 391 1588 391 
Q 1994 391 2212 530 
Q 2431 669 2431 922 
Q 2431 1156 2273 1281 
Q 2116 1406 1581 1522 
L 1381 1569 
Q 847 1681 609 1914 
Q 372 2147 372 2553 
Q 372 3047 722 3315 
Q 1072 3584 1716 3584 
Q 2034 3584 2315 3537 
Q 2597 3491 2834 3397 
z
" id="DejaVuSans-73" transform="scale(0.015625)"/>
      <path d="M 1259 2228 
L 1259 519 
L 2272 519 
Q 2781 519 3026 730 
Q 3272 941 3272 1375 
Q 3272 1813 3026 2020 
Q 2781 2228 2272 2228 
L 1259 2228 
z
M 1259 4147 
L 1259 2741 
L 2194 2741 
Q 2656 2741 2882 2914 
Q 3109 3088 3109 3444 
Q 3109 3797 2882 3972 
Q 2656 4147 2194 4147 
L 1259 4147 
z
M 628 4666 
L 2241 4666 
Q 2963 4666 3353 4366 
Q 3744 4066 3744 3513 
Q 3744 3084 3544 2831 
Q 3344 2578 2956 2516 
Q 3422 2416 3680 2098 
Q 3938 1781 3938 1306 
Q 3938 681 3513 340 
Q 3088 0 2303 0 
L 628 0 
L 628 4666 
z
" id="DejaVuSans-42" transform="scale(0.015625)"/>
      <path d="M 313 2009 
L 1997 2009 
L 1997 1497 
L 313 1497 
L 313 2009 
z
" id="DejaVuSans-2d" transform="scale(0.015625)"/>
      <path d="M 2522 4238 
Q 1834 4238 1429 3725 
Q 1025 3213 1025 2328 
Q 1025 1447 1429 934 
Q 1834 422 2522 422 
Q 3209 422 3611 934 
Q 4013 1447 4013 2328 
Q 4013 3213 3611 3725 
Q 3209 4238 2522 4238 
z
M 2522 4750 
Q 3503 4750 4090 4092 
Q 4678 3434 4678 2328 
Q 4678 1225 4090 567 
Q 3503 -91 2522 -91 
Q 1538 -91 948 565 
Q 359 1222 359 2328 
Q 359 3434 948 4092 
Q 1538 4750 2522 4750 
z
" id="DejaVuSans-4f" transform="scale(0.015625)"/>
     </defs>
     <use xlink:href="#DejaVuSans-54"/>
     <use x="57.958984" xlink:href="#DejaVuSans-69"/>
     <use x="85.742188" xlink:href="#DejaVuSans-65"/>
     <use x="147.265625" xlink:href="#DejaVuSans-6d"/>
     <use x="244.677734" xlink:href="#DejaVuSans-70"/>
     <use x="308.154297" xlink:href="#DejaVuSans-6f"/>
     <use x="369.335938" xlink:href="#DejaVuSans-20"/>
     <use x="401.123047" xlink:href="#DejaVuSans-64"/>
     <use x="464.599609" xlink:href="#DejaVuSans-65"/>
     <use x="526.123047" xlink:href="#DejaVuSans-20"/>
     <use x="557.910156" xlink:href="#DejaVuSans-65"/>
     <use x="619.433594" xlink:href="#DejaVuSans-6a"/>
     <use x="647.216797" xlink:href="#DejaVuSans-65"/>
     <use x="708.740234" xlink:href="#DejaVuSans-63"/>
     <use x="763.720703" xlink:href="#DejaVuSans-75"/>
     <use x="827.099609" xlink:href="#DejaVuSans-63"/>
     <use x="882.080078" xlink:href="#DejaVuSans-69"/>
     <use x="909.863281" xlink:href="#DejaVuSans-f3"/>
     <use x="971.044922" xlink:href="#DejaVuSans-6e"/>
     <use x="1034.423828" xlink:href="#DejaVuSans-20"/>
     <use x="1066.210938" xlink:href="#DejaVuSans-6d"/>
     <use x="1163.623047" xlink:href="#DejaVuSans-65"/>
     <use x="1225.146484" xlink:href="#DejaVuSans-6a"/>
     <use x="1252.929688" xlink:href="#DejaVuSans-6f"/>
     <use x="1314.111328" xlink:href="#DejaVuSans-72"/>
     <use x="1355.224609" xlink:href="#DejaVuSans-20"/>
     <use x="1387.011719" xlink:href="#DejaVuSans-63"/>
     <use x="1441.992188" xlink:href="#DejaVuSans-61"/>
     <use x="1503.271484" xlink:href="#DejaVuSans-73"/>
     <use x="1555.371094" xlink:href="#DejaVuSans-6f"/>
     <use x="1616.552734" xlink:href="#DejaVuSans-20"/>
     <use x="1648.339844" xlink:href="#DejaVuSans-42"/>
     <use x="1716.943359" xlink:href="#DejaVuSans-54"/>
     <use x="1768.902344" xlink:href="#DejaVuSans-2d"/>
     <use x="1807.736328" xlink:href="#DejaVuSans-4f"/>
    </g>
    <!--  vs función lineal -->
    <g transform="translate(160.4675 30.2355)scale(0.12 -0.12)">
     <defs>
      <path d="M 191 3500 
L 800 3500 
L 1894 563 
L 2988 3500 
L 3597 3500 
L 2284 0 
L 1503 0 
L 191 3500 
z
" id="DejaVuSans-76" transform="scale(0.015625)"/>
      <path d="M 2375 4863 
L 2375 4384 
L 1825 4384 
Q 1516 4384 1395 4259 
Q 1275 4134 1275 3809 
L 1275 3500 
L 2222 3500 
L 2222 3053 
L 1275 3053 
L 1275 0 
L 697 0 
L 697 3053 
L 147 3053 
L 147 3500 
L 697 3500 
L 697 3744 
Q 697 4328 969 4595 
Q 1241 4863 1831 4863 
L 2375 4863 
z
" id="DejaVuSans-66" transform="scale(0.015625)"/>
     </defs>
     <use xlink:href="#DejaVuSans-20"/>
     <use x="31.787109" xlink:href="#DejaVuSans-76"/>
     <use x="90.966797" xlink:href="#DejaVuSans-73"/>
     <use x="143.066406" xlink:href="#DejaVuSans-20"/>
     <use x="174.853516" xlink:href="#DejaVuSans-66"/>
     <use x="210.058594" xlink:href="#DejaVuSans-75"/>
     <use x="273.4375" xlink:href="#DejaVuSans-6e"/>
     <use x="336.816406" xlink:href="#DejaVuSans-63"/>
     <use x="391.796875" xlink:href="#DejaVuSans-69"/>
     <use x="419.580078" xlink:href="#DejaVuSans-f3"/>
     <use x="480.761719" xlink:href="#DejaVuSans-6e"/>
     <use x="544.140625" xlink:href="#DejaVuSans-20"/>
     <use x="575.927734" xlink:href="#DejaVuSans-6c"/>
     <use x="603.710938" xlink:href="#DejaVuSans-69"/>
     <use x="631.494141" xlink:href="#DejaVuSans-6e"/>
     <use x="694.873047" xlink:href="#DejaVuSans-65"/>
     <use x="756.396484" xlink:href="#DejaVuSans-61"/>
     <use x="817.675781" xlink:href="#DejaVuSans-6c"/>
    </g>
   </g>
  </g>
 </g>
 <defs>
  <clipPath id="p80cd5f65c8">
   <rect height="321.4" width="296.65" x="62.86875" y="36.2355"/>
  </clipPath>
 </defs>
</svg>
