<?xml version="1.0" encoding="utf-8" standalone="no"?>
<!DOCTYPE svg PUBLIC "-//W3C//DTD SVG 1.1//EN"
  "http://www.w3.org/Graphics/SVG/1.1/DTD/svg11.dtd">
<svg height="291.23175pt" version="1.1" viewBox="0 0 388.965625 291.23175" width="388.965625pt" xmlns="http://www.w3.org/2000/svg" xmlns:xlink="http://www.w3.org/1999/xlink">
 <metadata>
  <rdf:RDF xmlns:cc="http://creativecommons.org/ns#" xmlns:dc="http://purl.org/dc/elements/1.1/" xmlns:rdf="http://www.w3.org/1999/02/22-rdf-syntax-ns#">
   <cc:Work>
    <dc:type rdf:resource="http://purl.org/dc/dcmitype/StillImage"/>
    <dc:date>2021-04-29T16:16:41.128837</dc:date>
    <dc:format>image/svg+xml</dc:format>
    <dc:creator>
     <cc:Agent>
      <dc:title>Matplotlib v3.4.1, https://matplotlib.org/</dc:title>
     </cc:Agent>
    </dc:creator>
   </cc:Work>
  </rdf:RDF>
 </metadata>
 <defs>
  <style type="text/css">*{stroke-linecap:butt;stroke-linejoin:round;}</style>
 </defs>
 <g id="figure_1">
  <g id="patch_1">
   <path d="M 0 291.23175 
L 388.965625 291.23175 
L 388.965625 0 
L 0 0 
z
" style="fill:none;"/>
  </g>
  <g id="axes_1">
   <g id="patch_2">
    <path d="M 46.965625 253.6755 
L 381.765625 253.6755 
L 381.765625 36.2355 
L 46.965625 36.2355 
z
" style="fill:#ffffff;"/>
   </g>
   <g id="PathCollection_1">
    <defs>
     <path d="M 0 3 
C 0.795609 3 1.55874 2.683901 2.12132 2.12132 
C 2.683901 1.55874 3 0.795609 3 0 
C 3 -0.795609 2.683901 -1.55874 2.12132 -2.12132 
C 1.55874 -2.683901 0.795609 -3 0 -3 
C -0.795609 -3 -1.55874 -2.683901 -2.12132 -2.12132 
C -2.683901 -1.55874 -3 -0.795609 -3 0 
C -3 0.795609 -2.683901 1.55874 -2.12132 2.12132 
C -1.55874 2.683901 -0.795609 3 0 3 
z
" id="mdd4650e1c3" style="stroke:#ffffff;stroke-width:0.48;"/>
    </defs>
    <g clip-path="url(#p2ff0151ac6)">
     <use style="fill:#1f77b4;stroke:#ffffff;stroke-width:0.48;" x="62.183807" xlink:href="#mdd4650e1c3" y="243.791864"/>
     <use style="fill:#1f77b4;stroke:#ffffff;stroke-width:0.48;" x="85.596394" xlink:href="#mdd4650e1c3" y="241.210896"/>
     <use style="fill:#1f77b4;stroke:#ffffff;stroke-width:0.48;" x="109.008982" xlink:href="#mdd4650e1c3" y="238.246866"/>
     <use style="fill:#1f77b4;stroke:#ffffff;stroke-width:0.48;" x="132.421569" xlink:href="#mdd4650e1c3" y="235.745979"/>
     <use style="fill:#1f77b4;stroke:#ffffff;stroke-width:0.48;" x="155.834156" xlink:href="#mdd4650e1c3" y="233.209444"/>
     <use style="fill:#1f77b4;stroke:#ffffff;stroke-width:0.48;" x="179.246744" xlink:href="#mdd4650e1c3" y="230.001819"/>
     <use style="fill:#1f77b4;stroke:#ffffff;stroke-width:0.48;" x="202.659331" xlink:href="#mdd4650e1c3" y="226.252493"/>
     <use style="fill:#1f77b4;stroke:#ffffff;stroke-width:0.48;" x="226.071919" xlink:href="#mdd4650e1c3" y="224.481921"/>
     <use style="fill:#1f77b4;stroke:#ffffff;stroke-width:0.48;" x="249.484506" xlink:href="#mdd4650e1c3" y="221.257745"/>
     <use style="fill:#1f77b4;stroke:#ffffff;stroke-width:0.48;" x="272.897094" xlink:href="#mdd4650e1c3" y="218.765629"/>
     <use style="fill:#1f77b4;stroke:#ffffff;stroke-width:0.48;" x="296.309681" xlink:href="#mdd4650e1c3" y="215.387637"/>
     <use style="fill:#1f77b4;stroke:#ffffff;stroke-width:0.48;" x="319.722268" xlink:href="#mdd4650e1c3" y="212.136065"/>
     <use style="fill:#1f77b4;stroke:#ffffff;stroke-width:0.48;" x="343.134856" xlink:href="#mdd4650e1c3" y="210.86617"/>
     <use style="fill:#1f77b4;stroke:#ffffff;stroke-width:0.48;" x="366.547443" xlink:href="#mdd4650e1c3" y="208.072695"/>
    </g>
   </g>
   <g id="PathCollection_2">
    <defs>
     <path d="M 0 3 
C 0.795609 3 1.55874 2.683901 2.12132 2.12132 
C 2.683901 1.55874 3 0.795609 3 0 
C 3 -0.795609 2.683901 -1.55874 2.12132 -2.12132 
C 1.55874 -2.683901 0.795609 -3 0 -3 
C -0.795609 -3 -1.55874 -2.683901 -2.12132 -2.12132 
C -2.683901 -1.55874 -3 -0.795609 -3 0 
C -3 0.795609 -2.683901 1.55874 -2.12132 2.12132 
C -1.55874 2.683901 -0.795609 3 0 3 
z
" id="mb622ecef2f" style="stroke:#ffffff;stroke-width:0.48;"/>
    </defs>
    <g clip-path="url(#p2ff0151ac6)">
     <use style="fill:#ff7f0e;stroke:#ffffff;stroke-width:0.48;" x="62.183807" xlink:href="#mb622ecef2f" y="243.044752"/>
     <use style="fill:#ff7f0e;stroke:#ffffff;stroke-width:0.48;" x="85.596394" xlink:href="#mb622ecef2f" y="239.325317"/>
     <use style="fill:#ff7f0e;stroke:#ffffff;stroke-width:0.48;" x="109.008982" xlink:href="#mb622ecef2f" y="233.263435"/>
     <use style="fill:#ff7f0e;stroke:#ffffff;stroke-width:0.48;" x="132.421569" xlink:href="#mb622ecef2f" y="225.876395"/>
     <use style="fill:#ff7f0e;stroke:#ffffff;stroke-width:0.48;" x="155.834156" xlink:href="#mb622ecef2f" y="217.2619"/>
     <use style="fill:#ff7f0e;stroke:#ffffff;stroke-width:0.48;" x="179.246744" xlink:href="#mb622ecef2f" y="208.530557"/>
     <use style="fill:#ff7f0e;stroke:#ffffff;stroke-width:0.48;" x="202.659331" xlink:href="#mb622ecef2f" y="196.267125"/>
     <use style="fill:#ff7f0e;stroke:#ffffff;stroke-width:0.48;" x="226.071919" xlink:href="#mb622ecef2f" y="189.095059"/>
     <use style="fill:#ff7f0e;stroke:#ffffff;stroke-width:0.48;" x="249.484506" xlink:href="#mb622ecef2f" y="178.631198"/>
     <use style="fill:#ff7f0e;stroke:#ffffff;stroke-width:0.48;" x="272.897094" xlink:href="#mb622ecef2f" y="168.996297"/>
     <use style="fill:#ff7f0e;stroke:#ffffff;stroke-width:0.48;" x="296.309681" xlink:href="#mb622ecef2f" y="156.482197"/>
     <use style="fill:#ff7f0e;stroke:#ffffff;stroke-width:0.48;" x="319.722268" xlink:href="#mb622ecef2f" y="148.224182"/>
     <use style="fill:#ff7f0e;stroke:#ffffff;stroke-width:0.48;" x="343.134856" xlink:href="#mb622ecef2f" y="139.668628"/>
     <use style="fill:#ff7f0e;stroke:#ffffff;stroke-width:0.48;" x="366.547443" xlink:href="#mb622ecef2f" y="125.883738"/>
    </g>
   </g>
   <g id="PathCollection_3">
    <defs>
     <path d="M 0 3 
C 0.795609 3 1.55874 2.683901 2.12132 2.12132 
C 2.683901 1.55874 3 0.795609 3 0 
C 3 -0.795609 2.683901 -1.55874 2.12132 -2.12132 
C 1.55874 -2.683901 0.795609 -3 0 -3 
C -0.795609 -3 -1.55874 -2.683901 -2.12132 -2.12132 
C -2.683901 -1.55874 -3 -0.795609 -3 0 
C -3 0.795609 -2.683901 1.55874 -2.12132 2.12132 
C -1.55874 2.683901 -0.795609 3 0 3 
z
" id="mad36495ec9" style="stroke:#ffffff;stroke-width:0.48;"/>
    </defs>
    <g clip-path="url(#p2ff0151ac6)">
     <use style="fill:#2ca02c;stroke:#ffffff;stroke-width:0.48;" x="62.183807" xlink:href="#mad36495ec9" y="242.049523"/>
     <use style="fill:#2ca02c;stroke:#ffffff;stroke-width:0.48;" x="85.596394" xlink:href="#mad36495ec9" y="238.246347"/>
     <use style="fill:#2ca02c;stroke:#ffffff;stroke-width:0.48;" x="109.008982" xlink:href="#mad36495ec9" y="231.941059"/>
     <use style="fill:#2ca02c;stroke:#ffffff;stroke-width:0.48;" x="132.421569" xlink:href="#mad36495ec9" y="224.641631"/>
     <use style="fill:#2ca02c;stroke:#ffffff;stroke-width:0.48;" x="155.834156" xlink:href="#mad36495ec9" y="215.282485"/>
     <use style="fill:#2ca02c;stroke:#ffffff;stroke-width:0.48;" x="179.246744" xlink:href="#mad36495ec9" y="202.905884"/>
     <use style="fill:#2ca02c;stroke:#ffffff;stroke-width:0.48;" x="202.659331" xlink:href="#mad36495ec9" y="190.419604"/>
     <use style="fill:#2ca02c;stroke:#ffffff;stroke-width:0.48;" x="226.071919" xlink:href="#mad36495ec9" y="177.2015"/>
     <use style="fill:#2ca02c;stroke:#ffffff;stroke-width:0.48;" x="249.484506" xlink:href="#mad36495ec9" y="161.234811"/>
     <use style="fill:#2ca02c;stroke:#ffffff;stroke-width:0.48;" x="272.897094" xlink:href="#mad36495ec9" y="142.423815"/>
     <use style="fill:#2ca02c;stroke:#ffffff;stroke-width:0.48;" x="296.309681" xlink:href="#mad36495ec9" y="127.564764"/>
     <use style="fill:#2ca02c;stroke:#ffffff;stroke-width:0.48;" x="319.722268" xlink:href="#mad36495ec9" y="108.562796"/>
     <use style="fill:#2ca02c;stroke:#ffffff;stroke-width:0.48;" x="343.134856" xlink:href="#mad36495ec9" y="89.403335"/>
     <use style="fill:#2ca02c;stroke:#ffffff;stroke-width:0.48;" x="366.547443" xlink:href="#mad36495ec9" y="75.878261"/>
    </g>
   </g>
   <g id="PathCollection_4">
    <defs>
     <path d="M 0 3 
C 0.795609 3 1.55874 2.683901 2.12132 2.12132 
C 2.683901 1.55874 3 0.795609 3 0 
C 3 -0.795609 2.683901 -1.55874 2.12132 -2.12132 
C 1.55874 -2.683901 0.795609 -3 0 -3 
C -0.795609 -3 -1.55874 -2.683901 -2.12132 -2.12132 
C -2.683901 -1.55874 -3 -0.795609 -3 0 
C -3 0.795609 -2.683901 1.55874 -2.12132 2.12132 
C -1.55874 2.683901 -0.795609 3 0 3 
z
" id="m2be0ebca37" style="stroke:#ffffff;stroke-width:0.48;"/>
    </defs>
    <g clip-path="url(#p2ff0151ac6)">
     <use style="fill:#d62728;stroke:#ffffff;stroke-width:0.48;" x="62.183807" xlink:href="#m2be0ebca37" y="241.436384"/>
     <use style="fill:#d62728;stroke:#ffffff;stroke-width:0.48;" x="85.596394" xlink:href="#m2be0ebca37" y="236.92034"/>
     <use style="fill:#d62728;stroke:#ffffff;stroke-width:0.48;" x="109.008982" xlink:href="#m2be0ebca37" y="230.13814"/>
     <use style="fill:#d62728;stroke:#ffffff;stroke-width:0.48;" x="132.421569" xlink:href="#m2be0ebca37" y="222.080434"/>
     <use style="fill:#d62728;stroke:#ffffff;stroke-width:0.48;" x="155.834156" xlink:href="#m2be0ebca37" y="212.376642"/>
     <use style="fill:#d62728;stroke:#ffffff;stroke-width:0.48;" x="179.246744" xlink:href="#m2be0ebca37" y="201.651833"/>
     <use style="fill:#d62728;stroke:#ffffff;stroke-width:0.48;" x="202.659331" xlink:href="#m2be0ebca37" y="187.324912"/>
     <use style="fill:#d62728;stroke:#ffffff;stroke-width:0.48;" x="226.071919" xlink:href="#m2be0ebca37" y="171.742524"/>
     <use style="fill:#d62728;stroke:#ffffff;stroke-width:0.48;" x="249.484506" xlink:href="#m2be0ebca37" y="154.734212"/>
     <use style="fill:#d62728;stroke:#ffffff;stroke-width:0.48;" x="272.897094" xlink:href="#m2be0ebca37" y="135.16923"/>
     <use style="fill:#d62728;stroke:#ffffff;stroke-width:0.48;" x="296.309681" xlink:href="#m2be0ebca37" y="114.859692"/>
     <use style="fill:#d62728;stroke:#ffffff;stroke-width:0.48;" x="319.722268" xlink:href="#m2be0ebca37" y="96.044923"/>
     <use style="fill:#d62728;stroke:#ffffff;stroke-width:0.48;" x="343.134856" xlink:href="#m2be0ebca37" y="68.061133"/>
     <use style="fill:#d62728;stroke:#ffffff;stroke-width:0.48;" x="366.547443" xlink:href="#m2be0ebca37" y="46.119136"/>
    </g>
   </g>
   <g id="matplotlib.axis_1">
    <g id="xtick_1">
     <g id="line2d_1">
      <defs>
       <path d="M 0 0 
L 0 3.5 
" id="md83565f0e9" style="stroke:#000000;stroke-width:0.8;"/>
      </defs>
      <g>
       <use style="stroke:#000000;stroke-width:0.8;" x="62.183807" xlink:href="#md83565f0e9" y="253.6755"/>
      </g>
     </g>
     <g id="text_1">
      <!-- 1000 -->
      <g transform="translate(49.458807 268.273937)scale(0.1 -0.1)">
       <defs>
        <path d="M 794 531 
L 1825 531 
L 1825 4091 
L 703 3866 
L 703 4441 
L 1819 4666 
L 2450 4666 
L 2450 531 
L 3481 531 
L 3481 0 
L 794 0 
L 794 531 
z
" id="DejaVuSans-31" transform="scale(0.015625)"/>
        <path d="M 2034 4250 
Q 1547 4250 1301 3770 
Q 1056 3291 1056 2328 
Q 1056 1369 1301 889 
Q 1547 409 2034 409 
Q 2525 409 2770 889 
Q 3016 1369 3016 2328 
Q 3016 3291 2770 3770 
Q 2525 4250 2034 4250 
z
M 2034 4750 
Q 2819 4750 3233 4129 
Q 3647 3509 3647 2328 
Q 3647 1150 3233 529 
Q 2819 -91 2034 -91 
Q 1250 -91 836 529 
Q 422 1150 422 2328 
Q 422 3509 836 4129 
Q 1250 4750 2034 4750 
z
" id="DejaVuSans-30" transform="scale(0.015625)"/>
       </defs>
       <use xlink:href="#DejaVuSans-31"/>
       <use x="63.623047" xlink:href="#DejaVuSans-30"/>
       <use x="127.246094" xlink:href="#DejaVuSans-30"/>
       <use x="190.869141" xlink:href="#DejaVuSans-30"/>
      </g>
     </g>
    </g>
    <g id="xtick_2">
     <g id="line2d_2">
      <g>
       <use style="stroke:#000000;stroke-width:0.8;" x="109.008982" xlink:href="#md83565f0e9" y="253.6755"/>
      </g>
     </g>
     <g id="text_2">
      <!-- 2000 -->
      <g transform="translate(96.283982 268.273937)scale(0.1 -0.1)">
       <defs>
        <path d="M 1228 531 
L 3431 531 
L 3431 0 
L 469 0 
L 469 531 
Q 828 903 1448 1529 
Q 2069 2156 2228 2338 
Q 2531 2678 2651 2914 
Q 2772 3150 2772 3378 
Q 2772 3750 2511 3984 
Q 2250 4219 1831 4219 
Q 1534 4219 1204 4116 
Q 875 4013 500 3803 
L 500 4441 
Q 881 4594 1212 4672 
Q 1544 4750 1819 4750 
Q 2544 4750 2975 4387 
Q 3406 4025 3406 3419 
Q 3406 3131 3298 2873 
Q 3191 2616 2906 2266 
Q 2828 2175 2409 1742 
Q 1991 1309 1228 531 
z
" id="DejaVuSans-32" transform="scale(0.015625)"/>
       </defs>
       <use xlink:href="#DejaVuSans-32"/>
       <use x="63.623047" xlink:href="#DejaVuSans-30"/>
       <use x="127.246094" xlink:href="#DejaVuSans-30"/>
       <use x="190.869141" xlink:href="#DejaVuSans-30"/>
      </g>
     </g>
    </g>
    <g id="xtick_3">
     <g id="line2d_3">
      <g>
       <use style="stroke:#000000;stroke-width:0.8;" x="155.834156" xlink:href="#md83565f0e9" y="253.6755"/>
      </g>
     </g>
     <g id="text_3">
      <!-- 3000 -->
      <g transform="translate(143.109156 268.273937)scale(0.1 -0.1)">
       <defs>
        <path d="M 2597 2516 
Q 3050 2419 3304 2112 
Q 3559 1806 3559 1356 
Q 3559 666 3084 287 
Q 2609 -91 1734 -91 
Q 1441 -91 1130 -33 
Q 819 25 488 141 
L 488 750 
Q 750 597 1062 519 
Q 1375 441 1716 441 
Q 2309 441 2620 675 
Q 2931 909 2931 1356 
Q 2931 1769 2642 2001 
Q 2353 2234 1838 2234 
L 1294 2234 
L 1294 2753 
L 1863 2753 
Q 2328 2753 2575 2939 
Q 2822 3125 2822 3475 
Q 2822 3834 2567 4026 
Q 2313 4219 1838 4219 
Q 1578 4219 1281 4162 
Q 984 4106 628 3988 
L 628 4550 
Q 988 4650 1302 4700 
Q 1616 4750 1894 4750 
Q 2613 4750 3031 4423 
Q 3450 4097 3450 3541 
Q 3450 3153 3228 2886 
Q 3006 2619 2597 2516 
z
" id="DejaVuSans-33" transform="scale(0.015625)"/>
       </defs>
       <use xlink:href="#DejaVuSans-33"/>
       <use x="63.623047" xlink:href="#DejaVuSans-30"/>
       <use x="127.246094" xlink:href="#DejaVuSans-30"/>
       <use x="190.869141" xlink:href="#DejaVuSans-30"/>
      </g>
     </g>
    </g>
    <g id="xtick_4">
     <g id="line2d_4">
      <g>
       <use style="stroke:#000000;stroke-width:0.8;" x="202.659331" xlink:href="#md83565f0e9" y="253.6755"/>
      </g>
     </g>
     <g id="text_4">
      <!-- 4000 -->
      <g transform="translate(189.934331 268.273937)scale(0.1 -0.1)">
       <defs>
        <path d="M 2419 4116 
L 825 1625 
L 2419 1625 
L 2419 4116 
z
M 2253 4666 
L 3047 4666 
L 3047 1625 
L 3713 1625 
L 3713 1100 
L 3047 1100 
L 3047 0 
L 2419 0 
L 2419 1100 
L 313 1100 
L 313 1709 
L 2253 4666 
z
" id="DejaVuSans-34" transform="scale(0.015625)"/>
       </defs>
       <use xlink:href="#DejaVuSans-34"/>
       <use x="63.623047" xlink:href="#DejaVuSans-30"/>
       <use x="127.246094" xlink:href="#DejaVuSans-30"/>
       <use x="190.869141" xlink:href="#DejaVuSans-30"/>
      </g>
     </g>
    </g>
    <g id="xtick_5">
     <g id="line2d_5">
      <g>
       <use style="stroke:#000000;stroke-width:0.8;" x="249.484506" xlink:href="#md83565f0e9" y="253.6755"/>
      </g>
     </g>
     <g id="text_5">
      <!-- 5000 -->
      <g transform="translate(236.759506 268.273937)scale(0.1 -0.1)">
       <defs>
        <path d="M 691 4666 
L 3169 4666 
L 3169 4134 
L 1269 4134 
L 1269 2991 
Q 1406 3038 1543 3061 
Q 1681 3084 1819 3084 
Q 2600 3084 3056 2656 
Q 3513 2228 3513 1497 
Q 3513 744 3044 326 
Q 2575 -91 1722 -91 
Q 1428 -91 1123 -41 
Q 819 9 494 109 
L 494 744 
Q 775 591 1075 516 
Q 1375 441 1709 441 
Q 2250 441 2565 725 
Q 2881 1009 2881 1497 
Q 2881 1984 2565 2268 
Q 2250 2553 1709 2553 
Q 1456 2553 1204 2497 
Q 953 2441 691 2322 
L 691 4666 
z
" id="DejaVuSans-35" transform="scale(0.015625)"/>
       </defs>
       <use xlink:href="#DejaVuSans-35"/>
       <use x="63.623047" xlink:href="#DejaVuSans-30"/>
       <use x="127.246094" xlink:href="#DejaVuSans-30"/>
       <use x="190.869141" xlink:href="#DejaVuSans-30"/>
      </g>
     </g>
    </g>
    <g id="xtick_6">
     <g id="line2d_6">
      <g>
       <use style="stroke:#000000;stroke-width:0.8;" x="296.309681" xlink:href="#md83565f0e9" y="253.6755"/>
      </g>
     </g>
     <g id="text_6">
      <!-- 6000 -->
      <g transform="translate(283.584681 268.273937)scale(0.1 -0.1)">
       <defs>
        <path d="M 2113 2584 
Q 1688 2584 1439 2293 
Q 1191 2003 1191 1497 
Q 1191 994 1439 701 
Q 1688 409 2113 409 
Q 2538 409 2786 701 
Q 3034 994 3034 1497 
Q 3034 2003 2786 2293 
Q 2538 2584 2113 2584 
z
M 3366 4563 
L 3366 3988 
Q 3128 4100 2886 4159 
Q 2644 4219 2406 4219 
Q 1781 4219 1451 3797 
Q 1122 3375 1075 2522 
Q 1259 2794 1537 2939 
Q 1816 3084 2150 3084 
Q 2853 3084 3261 2657 
Q 3669 2231 3669 1497 
Q 3669 778 3244 343 
Q 2819 -91 2113 -91 
Q 1303 -91 875 529 
Q 447 1150 447 2328 
Q 447 3434 972 4092 
Q 1497 4750 2381 4750 
Q 2619 4750 2861 4703 
Q 3103 4656 3366 4563 
z
" id="DejaVuSans-36" transform="scale(0.015625)"/>
       </defs>
       <use xlink:href="#DejaVuSans-36"/>
       <use x="63.623047" xlink:href="#DejaVuSans-30"/>
       <use x="127.246094" xlink:href="#DejaVuSans-30"/>
       <use x="190.869141" xlink:href="#DejaVuSans-30"/>
      </g>
     </g>
    </g>
    <g id="xtick_7">
     <g id="line2d_7">
      <g>
       <use style="stroke:#000000;stroke-width:0.8;" x="343.134856" xlink:href="#md83565f0e9" y="253.6755"/>
      </g>
     </g>
     <g id="text_7">
      <!-- 7000 -->
      <g transform="translate(330.409856 268.273937)scale(0.1 -0.1)">
       <defs>
        <path d="M 525 4666 
L 3525 4666 
L 3525 4397 
L 1831 0 
L 1172 0 
L 2766 4134 
L 525 4134 
L 525 4666 
z
" id="DejaVuSans-37" transform="scale(0.015625)"/>
       </defs>
       <use xlink:href="#DejaVuSans-37"/>
       <use x="63.623047" xlink:href="#DejaVuSans-30"/>
       <use x="127.246094" xlink:href="#DejaVuSans-30"/>
       <use x="190.869141" xlink:href="#DejaVuSans-30"/>
      </g>
     </g>
    </g>
    <g id="text_8">
     <!-- n -->
     <g transform="translate(211.196875 281.952062)scale(0.1 -0.1)">
      <defs>
       <path d="M 3513 2113 
L 3513 0 
L 2938 0 
L 2938 2094 
Q 2938 2591 2744 2837 
Q 2550 3084 2163 3084 
Q 1697 3084 1428 2787 
Q 1159 2491 1159 1978 
L 1159 0 
L 581 0 
L 581 3500 
L 1159 3500 
L 1159 2956 
Q 1366 3272 1645 3428 
Q 1925 3584 2291 3584 
Q 2894 3584 3203 3211 
Q 3513 2838 3513 2113 
z
" id="DejaVuSans-6e" transform="scale(0.015625)"/>
      </defs>
      <use xlink:href="#DejaVuSans-6e"/>
     </g>
    </g>
   </g>
   <g id="matplotlib.axis_2">
    <g id="ytick_1">
     <g id="line2d_8">
      <defs>
       <path d="M 0 0 
L -3.5 0 
" id="m175b20aa93" style="stroke:#000000;stroke-width:0.8;"/>
      </defs>
      <g>
       <use style="stroke:#000000;stroke-width:0.8;" x="46.965625" xlink:href="#m175b20aa93" y="246.206587"/>
      </g>
     </g>
     <g id="text_9">
      <!-- 0 -->
      <g transform="translate(33.603125 250.005805)scale(0.1 -0.1)">
       <use xlink:href="#DejaVuSans-30"/>
      </g>
     </g>
    </g>
    <g id="ytick_2">
     <g id="line2d_9">
      <g>
       <use style="stroke:#000000;stroke-width:0.8;" x="46.965625" xlink:href="#m175b20aa93" y="199.052961"/>
      </g>
     </g>
     <g id="text_10">
      <!-- 100 -->
      <g transform="translate(20.878125 202.85218)scale(0.1 -0.1)">
       <use xlink:href="#DejaVuSans-31"/>
       <use x="63.623047" xlink:href="#DejaVuSans-30"/>
       <use x="127.246094" xlink:href="#DejaVuSans-30"/>
      </g>
     </g>
    </g>
    <g id="ytick_3">
     <g id="line2d_10">
      <g>
       <use style="stroke:#000000;stroke-width:0.8;" x="46.965625" xlink:href="#m175b20aa93" y="151.899336"/>
      </g>
     </g>
     <g id="text_11">
      <!-- 200 -->
      <g transform="translate(20.878125 155.698555)scale(0.1 -0.1)">
       <use xlink:href="#DejaVuSans-32"/>
       <use x="63.623047" xlink:href="#DejaVuSans-30"/>
       <use x="127.246094" xlink:href="#DejaVuSans-30"/>
      </g>
     </g>
    </g>
    <g id="ytick_4">
     <g id="line2d_11">
      <g>
       <use style="stroke:#000000;stroke-width:0.8;" x="46.965625" xlink:href="#m175b20aa93" y="104.74571"/>
      </g>
     </g>
     <g id="text_12">
      <!-- 300 -->
      <g transform="translate(20.878125 108.544929)scale(0.1 -0.1)">
       <use xlink:href="#DejaVuSans-33"/>
       <use x="63.623047" xlink:href="#DejaVuSans-30"/>
       <use x="127.246094" xlink:href="#DejaVuSans-30"/>
      </g>
     </g>
    </g>
    <g id="ytick_5">
     <g id="line2d_12">
      <g>
       <use style="stroke:#000000;stroke-width:0.8;" x="46.965625" xlink:href="#m175b20aa93" y="57.592085"/>
      </g>
     </g>
     <g id="text_13">
      <!-- 400 -->
      <g transform="translate(20.878125 61.391304)scale(0.1 -0.1)">
       <use xlink:href="#DejaVuSans-34"/>
       <use x="63.623047" xlink:href="#DejaVuSans-30"/>
       <use x="127.246094" xlink:href="#DejaVuSans-30"/>
      </g>
     </g>
    </g>
    <g id="text_14">
     <!-- tiempo (ms) -->
     <g transform="translate(14.798438 175.450812)rotate(-90)scale(0.1 -0.1)">
      <defs>
       <path d="M 1172 4494 
L 1172 3500 
L 2356 3500 
L 2356 3053 
L 1172 3053 
L 1172 1153 
Q 1172 725 1289 603 
Q 1406 481 1766 481 
L 2356 481 
L 2356 0 
L 1766 0 
Q 1100 0 847 248 
Q 594 497 594 1153 
L 594 3053 
L 172 3053 
L 172 3500 
L 594 3500 
L 594 4494 
L 1172 4494 
z
" id="DejaVuSans-74" transform="scale(0.015625)"/>
       <path d="M 603 3500 
L 1178 3500 
L 1178 0 
L 603 0 
L 603 3500 
z
M 603 4863 
L 1178 4863 
L 1178 4134 
L 603 4134 
L 603 4863 
z
" id="DejaVuSans-69" transform="scale(0.015625)"/>
       <path d="M 3597 1894 
L 3597 1613 
L 953 1613 
Q 991 1019 1311 708 
Q 1631 397 2203 397 
Q 2534 397 2845 478 
Q 3156 559 3463 722 
L 3463 178 
Q 3153 47 2828 -22 
Q 2503 -91 2169 -91 
Q 1331 -91 842 396 
Q 353 884 353 1716 
Q 353 2575 817 3079 
Q 1281 3584 2069 3584 
Q 2775 3584 3186 3129 
Q 3597 2675 3597 1894 
z
M 3022 2063 
Q 3016 2534 2758 2815 
Q 2500 3097 2075 3097 
Q 1594 3097 1305 2825 
Q 1016 2553 972 2059 
L 3022 2063 
z
" id="DejaVuSans-65" transform="scale(0.015625)"/>
       <path d="M 3328 2828 
Q 3544 3216 3844 3400 
Q 4144 3584 4550 3584 
Q 5097 3584 5394 3201 
Q 5691 2819 5691 2113 
L 5691 0 
L 5113 0 
L 5113 2094 
Q 5113 2597 4934 2840 
Q 4756 3084 4391 3084 
Q 3944 3084 3684 2787 
Q 3425 2491 3425 1978 
L 3425 0 
L 2847 0 
L 2847 2094 
Q 2847 2600 2669 2842 
Q 2491 3084 2119 3084 
Q 1678 3084 1418 2786 
Q 1159 2488 1159 1978 
L 1159 0 
L 581 0 
L 581 3500 
L 1159 3500 
L 1159 2956 
Q 1356 3278 1631 3431 
Q 1906 3584 2284 3584 
Q 2666 3584 2933 3390 
Q 3200 3197 3328 2828 
z
" id="DejaVuSans-6d" transform="scale(0.015625)"/>
       <path d="M 1159 525 
L 1159 -1331 
L 581 -1331 
L 581 3500 
L 1159 3500 
L 1159 2969 
Q 1341 3281 1617 3432 
Q 1894 3584 2278 3584 
Q 2916 3584 3314 3078 
Q 3713 2572 3713 1747 
Q 3713 922 3314 415 
Q 2916 -91 2278 -91 
Q 1894 -91 1617 61 
Q 1341 213 1159 525 
z
M 3116 1747 
Q 3116 2381 2855 2742 
Q 2594 3103 2138 3103 
Q 1681 3103 1420 2742 
Q 1159 2381 1159 1747 
Q 1159 1113 1420 752 
Q 1681 391 2138 391 
Q 2594 391 2855 752 
Q 3116 1113 3116 1747 
z
" id="DejaVuSans-70" transform="scale(0.015625)"/>
       <path d="M 1959 3097 
Q 1497 3097 1228 2736 
Q 959 2375 959 1747 
Q 959 1119 1226 758 
Q 1494 397 1959 397 
Q 2419 397 2687 759 
Q 2956 1122 2956 1747 
Q 2956 2369 2687 2733 
Q 2419 3097 1959 3097 
z
M 1959 3584 
Q 2709 3584 3137 3096 
Q 3566 2609 3566 1747 
Q 3566 888 3137 398 
Q 2709 -91 1959 -91 
Q 1206 -91 779 398 
Q 353 888 353 1747 
Q 353 2609 779 3096 
Q 1206 3584 1959 3584 
z
" id="DejaVuSans-6f" transform="scale(0.015625)"/>
       <path id="DejaVuSans-20" transform="scale(0.015625)"/>
       <path d="M 1984 4856 
Q 1566 4138 1362 3434 
Q 1159 2731 1159 2009 
Q 1159 1288 1364 580 
Q 1569 -128 1984 -844 
L 1484 -844 
Q 1016 -109 783 600 
Q 550 1309 550 2009 
Q 550 2706 781 3412 
Q 1013 4119 1484 4856 
L 1984 4856 
z
" id="DejaVuSans-28" transform="scale(0.015625)"/>
       <path d="M 2834 3397 
L 2834 2853 
Q 2591 2978 2328 3040 
Q 2066 3103 1784 3103 
Q 1356 3103 1142 2972 
Q 928 2841 928 2578 
Q 928 2378 1081 2264 
Q 1234 2150 1697 2047 
L 1894 2003 
Q 2506 1872 2764 1633 
Q 3022 1394 3022 966 
Q 3022 478 2636 193 
Q 2250 -91 1575 -91 
Q 1294 -91 989 -36 
Q 684 19 347 128 
L 347 722 
Q 666 556 975 473 
Q 1284 391 1588 391 
Q 1994 391 2212 530 
Q 2431 669 2431 922 
Q 2431 1156 2273 1281 
Q 2116 1406 1581 1522 
L 1381 1569 
Q 847 1681 609 1914 
Q 372 2147 372 2553 
Q 372 3047 722 3315 
Q 1072 3584 1716 3584 
Q 2034 3584 2315 3537 
Q 2597 3491 2834 3397 
z
" id="DejaVuSans-73" transform="scale(0.015625)"/>
       <path d="M 513 4856 
L 1013 4856 
Q 1481 4119 1714 3412 
Q 1947 2706 1947 2009 
Q 1947 1309 1714 600 
Q 1481 -109 1013 -844 
L 513 -844 
Q 928 -128 1133 580 
Q 1338 1288 1338 2009 
Q 1338 2731 1133 3434 
Q 928 4138 513 4856 
z
" id="DejaVuSans-29" transform="scale(0.015625)"/>
      </defs>
      <use xlink:href="#DejaVuSans-74"/>
      <use x="39.208984" xlink:href="#DejaVuSans-69"/>
      <use x="66.992188" xlink:href="#DejaVuSans-65"/>
      <use x="128.515625" xlink:href="#DejaVuSans-6d"/>
      <use x="225.927734" xlink:href="#DejaVuSans-70"/>
      <use x="289.404297" xlink:href="#DejaVuSans-6f"/>
      <use x="350.585938" xlink:href="#DejaVuSans-20"/>
      <use x="382.373047" xlink:href="#DejaVuSans-28"/>
      <use x="421.386719" xlink:href="#DejaVuSans-6d"/>
      <use x="518.798828" xlink:href="#DejaVuSans-73"/>
      <use x="570.898438" xlink:href="#DejaVuSans-29"/>
     </g>
    </g>
   </g>
   <g id="patch_3">
    <path d="M 46.965625 253.6755 
L 46.965625 36.2355 
" style="fill:none;stroke:#000000;stroke-linecap:square;stroke-linejoin:miter;stroke-width:0.8;"/>
   </g>
   <g id="patch_4">
    <path d="M 381.765625 253.6755 
L 381.765625 36.2355 
" style="fill:none;stroke:#000000;stroke-linecap:square;stroke-linejoin:miter;stroke-width:0.8;"/>
   </g>
   <g id="patch_5">
    <path d="M 46.965625 253.6755 
L 381.765625 253.6755 
" style="fill:none;stroke:#000000;stroke-linecap:square;stroke-linejoin:miter;stroke-width:0.8;"/>
   </g>
   <g id="patch_6">
    <path d="M 46.965625 36.2355 
L 381.765625 36.2355 
" style="fill:none;stroke:#000000;stroke-linecap:square;stroke-linejoin:miter;stroke-width:0.8;"/>
   </g>
   <g id="text_15">
    <!-- Tiempo de ejecución en función de n -->
    <g transform="translate(103.71625 16.798125)scale(0.12 -0.12)">
     <defs>
      <path d="M -19 4666 
L 3928 4666 
L 3928 4134 
L 2272 4134 
L 2272 0 
L 1638 0 
L 1638 4134 
L -19 4134 
L -19 4666 
z
" id="DejaVuSans-54" transform="scale(0.015625)"/>
      <path d="M 2906 2969 
L 2906 4863 
L 3481 4863 
L 3481 0 
L 2906 0 
L 2906 525 
Q 2725 213 2448 61 
Q 2172 -91 1784 -91 
Q 1150 -91 751 415 
Q 353 922 353 1747 
Q 353 2572 751 3078 
Q 1150 3584 1784 3584 
Q 2172 3584 2448 3432 
Q 2725 3281 2906 2969 
z
M 947 1747 
Q 947 1113 1208 752 
Q 1469 391 1925 391 
Q 2381 391 2643 752 
Q 2906 1113 2906 1747 
Q 2906 2381 2643 2742 
Q 2381 3103 1925 3103 
Q 1469 3103 1208 2742 
Q 947 2381 947 1747 
z
" id="DejaVuSans-64" transform="scale(0.015625)"/>
      <path d="M 603 3500 
L 1178 3500 
L 1178 -63 
Q 1178 -731 923 -1031 
Q 669 -1331 103 -1331 
L -116 -1331 
L -116 -844 
L 38 -844 
Q 366 -844 484 -692 
Q 603 -541 603 -63 
L 603 3500 
z
M 603 4863 
L 1178 4863 
L 1178 4134 
L 603 4134 
L 603 4863 
z
" id="DejaVuSans-6a" transform="scale(0.015625)"/>
      <path d="M 3122 3366 
L 3122 2828 
Q 2878 2963 2633 3030 
Q 2388 3097 2138 3097 
Q 1578 3097 1268 2742 
Q 959 2388 959 1747 
Q 959 1106 1268 751 
Q 1578 397 2138 397 
Q 2388 397 2633 464 
Q 2878 531 3122 666 
L 3122 134 
Q 2881 22 2623 -34 
Q 2366 -91 2075 -91 
Q 1284 -91 818 406 
Q 353 903 353 1747 
Q 353 2603 823 3093 
Q 1294 3584 2113 3584 
Q 2378 3584 2631 3529 
Q 2884 3475 3122 3366 
z
" id="DejaVuSans-63" transform="scale(0.015625)"/>
      <path d="M 544 1381 
L 544 3500 
L 1119 3500 
L 1119 1403 
Q 1119 906 1312 657 
Q 1506 409 1894 409 
Q 2359 409 2629 706 
Q 2900 1003 2900 1516 
L 2900 3500 
L 3475 3500 
L 3475 0 
L 2900 0 
L 2900 538 
Q 2691 219 2414 64 
Q 2138 -91 1772 -91 
Q 1169 -91 856 284 
Q 544 659 544 1381 
z
M 1991 3584 
L 1991 3584 
z
" id="DejaVuSans-75" transform="scale(0.015625)"/>
      <path d="M 1959 3097 
Q 1497 3097 1228 2736 
Q 959 2375 959 1747 
Q 959 1119 1226 758 
Q 1494 397 1959 397 
Q 2419 397 2687 759 
Q 2956 1122 2956 1747 
Q 2956 2369 2687 2733 
Q 2419 3097 1959 3097 
z
M 1959 3584 
Q 2709 3584 3137 3096 
Q 3566 2609 3566 1747 
Q 3566 888 3137 398 
Q 2709 -91 1959 -91 
Q 1206 -91 779 398 
Q 353 888 353 1747 
Q 353 2609 779 3096 
Q 1206 3584 1959 3584 
z
M 2394 5119 
L 3016 5119 
L 1998 3944 
L 1519 3944 
L 2394 5119 
z
" id="DejaVuSans-f3" transform="scale(0.015625)"/>
      <path d="M 2375 4863 
L 2375 4384 
L 1825 4384 
Q 1516 4384 1395 4259 
Q 1275 4134 1275 3809 
L 1275 3500 
L 2222 3500 
L 2222 3053 
L 1275 3053 
L 1275 0 
L 697 0 
L 697 3053 
L 147 3053 
L 147 3500 
L 697 3500 
L 697 3744 
Q 697 4328 969 4595 
Q 1241 4863 1831 4863 
L 2375 4863 
z
" id="DejaVuSans-66" transform="scale(0.015625)"/>
     </defs>
     <use xlink:href="#DejaVuSans-54"/>
     <use x="57.958984" xlink:href="#DejaVuSans-69"/>
     <use x="85.742188" xlink:href="#DejaVuSans-65"/>
     <use x="147.265625" xlink:href="#DejaVuSans-6d"/>
     <use x="244.677734" xlink:href="#DejaVuSans-70"/>
     <use x="308.154297" xlink:href="#DejaVuSans-6f"/>
     <use x="369.335938" xlink:href="#DejaVuSans-20"/>
     <use x="401.123047" xlink:href="#DejaVuSans-64"/>
     <use x="464.599609" xlink:href="#DejaVuSans-65"/>
     <use x="526.123047" xlink:href="#DejaVuSans-20"/>
     <use x="557.910156" xlink:href="#DejaVuSans-65"/>
     <use x="619.433594" xlink:href="#DejaVuSans-6a"/>
     <use x="647.216797" xlink:href="#DejaVuSans-65"/>
     <use x="708.740234" xlink:href="#DejaVuSans-63"/>
     <use x="763.720703" xlink:href="#DejaVuSans-75"/>
     <use x="827.099609" xlink:href="#DejaVuSans-63"/>
     <use x="882.080078" xlink:href="#DejaVuSans-69"/>
     <use x="909.863281" xlink:href="#DejaVuSans-f3"/>
     <use x="971.044922" xlink:href="#DejaVuSans-6e"/>
     <use x="1034.423828" xlink:href="#DejaVuSans-20"/>
     <use x="1066.210938" xlink:href="#DejaVuSans-65"/>
     <use x="1127.734375" xlink:href="#DejaVuSans-6e"/>
     <use x="1191.113281" xlink:href="#DejaVuSans-20"/>
     <use x="1222.900391" xlink:href="#DejaVuSans-66"/>
     <use x="1258.105469" xlink:href="#DejaVuSans-75"/>
     <use x="1321.484375" xlink:href="#DejaVuSans-6e"/>
     <use x="1384.863281" xlink:href="#DejaVuSans-63"/>
     <use x="1439.84375" xlink:href="#DejaVuSans-69"/>
     <use x="1467.626953" xlink:href="#DejaVuSans-f3"/>
     <use x="1528.808594" xlink:href="#DejaVuSans-6e"/>
     <use x="1592.1875" xlink:href="#DejaVuSans-20"/>
     <use x="1623.974609" xlink:href="#DejaVuSans-64"/>
     <use x="1687.451172" xlink:href="#DejaVuSans-65"/>
     <use x="1748.974609" xlink:href="#DejaVuSans-20"/>
     <use x="1780.761719" xlink:href="#DejaVuSans-6e"/>
    </g>
    <!--  -->
    <g transform="translate(214.365625 30.2355)scale(0.12 -0.12)"/>
   </g>
   <g id="legend_1">
    <g id="patch_7">
     <path d="M 53.965625 102.948 
L 123.90625 102.948 
Q 125.90625 102.948 125.90625 100.948 
L 125.90625 43.2355 
Q 125.90625 41.2355 123.90625 41.2355 
L 53.965625 41.2355 
Q 51.965625 41.2355 51.965625 43.2355 
L 51.965625 100.948 
Q 51.965625 102.948 53.965625 102.948 
z
" style="fill:#ffffff;opacity:0.8;stroke:#cccccc;stroke-linejoin:miter;"/>
    </g>
    <g id="PathCollection_5">
     <g>
      <use style="fill:#1f77b4;stroke:#ffffff;stroke-width:0.48;" x="65.965625" xlink:href="#mdd4650e1c3" y="50.208937"/>
     </g>
    </g>
    <g id="text_16">
     <!-- r=1000 -->
     <g transform="translate(83.965625 52.833937)scale(0.1 -0.1)">
      <defs>
       <path d="M 2631 2963 
Q 2534 3019 2420 3045 
Q 2306 3072 2169 3072 
Q 1681 3072 1420 2755 
Q 1159 2438 1159 1844 
L 1159 0 
L 581 0 
L 581 3500 
L 1159 3500 
L 1159 2956 
Q 1341 3275 1631 3429 
Q 1922 3584 2338 3584 
Q 2397 3584 2469 3576 
Q 2541 3569 2628 3553 
L 2631 2963 
z
" id="DejaVuSans-72" transform="scale(0.015625)"/>
       <path d="M 678 2906 
L 4684 2906 
L 4684 2381 
L 678 2381 
L 678 2906 
z
M 678 1631 
L 4684 1631 
L 4684 1100 
L 678 1100 
L 678 1631 
z
" id="DejaVuSans-3d" transform="scale(0.015625)"/>
      </defs>
      <use xlink:href="#DejaVuSans-72"/>
      <use x="41.113281" xlink:href="#DejaVuSans-3d"/>
      <use x="124.902344" xlink:href="#DejaVuSans-31"/>
      <use x="188.525391" xlink:href="#DejaVuSans-30"/>
      <use x="252.148438" xlink:href="#DejaVuSans-30"/>
      <use x="315.771484" xlink:href="#DejaVuSans-30"/>
     </g>
    </g>
    <g id="PathCollection_6">
     <g>
      <use style="fill:#ff7f0e;stroke:#ffffff;stroke-width:0.48;" x="65.965625" xlink:href="#mb622ecef2f" y="64.887062"/>
     </g>
    </g>
    <g id="text_17">
     <!-- r=3000 -->
     <g transform="translate(83.965625 67.512062)scale(0.1 -0.1)">
      <use xlink:href="#DejaVuSans-72"/>
      <use x="41.113281" xlink:href="#DejaVuSans-3d"/>
      <use x="124.902344" xlink:href="#DejaVuSans-33"/>
      <use x="188.525391" xlink:href="#DejaVuSans-30"/>
      <use x="252.148438" xlink:href="#DejaVuSans-30"/>
      <use x="315.771484" xlink:href="#DejaVuSans-30"/>
     </g>
    </g>
    <g id="PathCollection_7">
     <g>
      <use style="fill:#2ca02c;stroke:#ffffff;stroke-width:0.48;" x="65.965625" xlink:href="#mad36495ec9" y="79.565187"/>
     </g>
    </g>
    <g id="text_18">
     <!-- r=5000 -->
     <g transform="translate(83.965625 82.190187)scale(0.1 -0.1)">
      <use xlink:href="#DejaVuSans-72"/>
      <use x="41.113281" xlink:href="#DejaVuSans-3d"/>
      <use x="124.902344" xlink:href="#DejaVuSans-35"/>
      <use x="188.525391" xlink:href="#DejaVuSans-30"/>
      <use x="252.148438" xlink:href="#DejaVuSans-30"/>
      <use x="315.771484" xlink:href="#DejaVuSans-30"/>
     </g>
    </g>
    <g id="PathCollection_8">
     <g>
      <use style="fill:#d62728;stroke:#ffffff;stroke-width:0.48;" x="65.965625" xlink:href="#m2be0ebca37" y="94.243313"/>
     </g>
    </g>
    <g id="text_19">
     <!-- r=7000 -->
     <g transform="translate(83.965625 96.868313)scale(0.1 -0.1)">
      <use xlink:href="#DejaVuSans-72"/>
      <use x="41.113281" xlink:href="#DejaVuSans-3d"/>
      <use x="124.902344" xlink:href="#DejaVuSans-37"/>
      <use x="188.525391" xlink:href="#DejaVuSans-30"/>
      <use x="252.148438" xlink:href="#DejaVuSans-30"/>
      <use x="315.771484" xlink:href="#DejaVuSans-30"/>
     </g>
    </g>
   </g>
  </g>
 </g>
 <defs>
  <clipPath id="p2ff0151ac6">
   <rect height="217.44" width="334.8" x="46.965625" y="36.2355"/>
  </clipPath>
 </defs>
</svg>
