<?xml version="1.0" encoding="utf-8" standalone="no"?>
<!DOCTYPE svg PUBLIC "-//W3C//DTD SVG 1.1//EN"
  "http://www.w3.org/Graphics/SVG/1.1/DTD/svg11.dtd">
<svg height="291.23175pt" version="1.1" viewBox="0 0 382.603125 291.23175" width="382.603125pt" xmlns="http://www.w3.org/2000/svg" xmlns:xlink="http://www.w3.org/1999/xlink">
 <metadata>
  <rdf:RDF xmlns:cc="http://creativecommons.org/ns#" xmlns:dc="http://purl.org/dc/elements/1.1/" xmlns:rdf="http://www.w3.org/1999/02/22-rdf-syntax-ns#">
   <cc:Work>
    <dc:type rdf:resource="http://purl.org/dc/dcmitype/StillImage"/>
    <dc:date>2021-04-29T16:15:49.219345</dc:date>
    <dc:format>image/svg+xml</dc:format>
    <dc:creator>
     <cc:Agent>
      <dc:title>Matplotlib v3.4.1, https://matplotlib.org/</dc:title>
     </cc:Agent>
    </dc:creator>
   </cc:Work>
  </rdf:RDF>
 </metadata>
 <defs>
  <style type="text/css">*{stroke-linecap:butt;stroke-linejoin:round;}</style>
 </defs>
 <g id="figure_1">
  <g id="patch_1">
   <path d="M 0 291.23175 
L 382.603125 291.23175 
L 382.603125 0 
L 0 0 
z
" style="fill:none;"/>
  </g>
  <g id="axes_1">
   <g id="patch_2">
    <path d="M 40.603125 253.6755 
L 375.403125 253.6755 
L 375.403125 36.2355 
L 40.603125 36.2355 
z
" style="fill:#ffffff;"/>
   </g>
   <g id="PathCollection_1">
    <defs>
     <path d="M 0 3 
C 0.795609 3 1.55874 2.683901 2.12132 2.12132 
C 2.683901 1.55874 3 0.795609 3 0 
C 3 -0.795609 2.683901 -1.55874 2.12132 -2.12132 
C 1.55874 -2.683901 0.795609 -3 0 -3 
C -0.795609 -3 -1.55874 -2.683901 -2.12132 -2.12132 
C -2.683901 -1.55874 -3 -0.795609 -3 0 
C -3 0.795609 -2.683901 1.55874 -2.12132 2.12132 
C -1.55874 2.683901 -0.795609 3 0 3 
z
" id="m018769c240" style="stroke:#ffffff;stroke-width:0.48;"/>
    </defs>
    <g clip-path="url(#pd350d45b35)">
     <use style="fill:#1f77b4;stroke:#ffffff;stroke-width:0.48;" x="55.821307" xlink:href="#m018769c240" y="243.78936"/>
     <use style="fill:#1f77b4;stroke:#ffffff;stroke-width:0.48;" x="68.503125" xlink:href="#m018769c240" y="243.789342"/>
     <use style="fill:#1f77b4;stroke:#ffffff;stroke-width:0.48;" x="81.184943" xlink:href="#m018769c240" y="243.789228"/>
     <use style="fill:#1f77b4;stroke:#ffffff;stroke-width:0.48;" x="93.866761" xlink:href="#m018769c240" y="243.789023"/>
     <use style="fill:#1f77b4;stroke:#ffffff;stroke-width:0.48;" x="106.54858" xlink:href="#m018769c240" y="243.788795"/>
     <use style="fill:#1f77b4;stroke:#ffffff;stroke-width:0.48;" x="119.230398" xlink:href="#m018769c240" y="243.788289"/>
     <use style="fill:#1f77b4;stroke:#ffffff;stroke-width:0.48;" x="131.912216" xlink:href="#m018769c240" y="243.787655"/>
     <use style="fill:#1f77b4;stroke:#ffffff;stroke-width:0.48;" x="144.594034" xlink:href="#m018769c240" y="243.786566"/>
     <use style="fill:#1f77b4;stroke:#ffffff;stroke-width:0.48;" x="157.275852" xlink:href="#m018769c240" y="243.785104"/>
     <use style="fill:#1f77b4;stroke:#ffffff;stroke-width:0.48;" x="169.95767" xlink:href="#m018769c240" y="243.781802"/>
     <use style="fill:#1f77b4;stroke:#ffffff;stroke-width:0.48;" x="182.639489" xlink:href="#m018769c240" y="243.775529"/>
     <use style="fill:#1f77b4;stroke:#ffffff;stroke-width:0.48;" x="195.321307" xlink:href="#m018769c240" y="243.764267"/>
     <use style="fill:#1f77b4;stroke:#ffffff;stroke-width:0.48;" x="208.003125" xlink:href="#m018769c240" y="243.739441"/>
     <use style="fill:#1f77b4;stroke:#ffffff;stroke-width:0.48;" x="220.684943" xlink:href="#m018769c240" y="243.693886"/>
     <use style="fill:#1f77b4;stroke:#ffffff;stroke-width:0.48;" x="233.366761" xlink:href="#m018769c240" y="243.600224"/>
     <use style="fill:#1f77b4;stroke:#ffffff;stroke-width:0.48;" x="246.04858" xlink:href="#m018769c240" y="243.411095"/>
     <use style="fill:#1f77b4;stroke:#ffffff;stroke-width:0.48;" x="258.730398" xlink:href="#m018769c240" y="243.056457"/>
     <use style="fill:#1f77b4;stroke:#ffffff;stroke-width:0.48;" x="271.412216" xlink:href="#m018769c240" y="242.307109"/>
     <use style="fill:#1f77b4;stroke:#ffffff;stroke-width:0.48;" x="284.094034" xlink:href="#m018769c240" y="240.870493"/>
     <use style="fill:#1f77b4;stroke:#ffffff;stroke-width:0.48;" x="296.775852" xlink:href="#m018769c240" y="237.949145"/>
     <use style="fill:#1f77b4;stroke:#ffffff;stroke-width:0.48;" x="309.45767" xlink:href="#m018769c240" y="232.077826"/>
     <use style="fill:#1f77b4;stroke:#ffffff;stroke-width:0.48;" x="322.139489" xlink:href="#m018769c240" y="220.25479"/>
     <use style="fill:#1f77b4;stroke:#ffffff;stroke-width:0.48;" x="334.821307" xlink:href="#m018769c240" y="197.084063"/>
     <use style="fill:#1f77b4;stroke:#ffffff;stroke-width:0.48;" x="347.503125" xlink:href="#m018769c240" y="151.150757"/>
     <use style="fill:#1f77b4;stroke:#ffffff;stroke-width:0.48;" x="360.184943" xlink:href="#m018769c240" y="57.738597"/>
     <use style="fill:#1f77b4;stroke:#ffffff;stroke-width:0.48;" x="55.821307" xlink:href="#m018769c240" y="243.789377"/>
     <use style="fill:#1f77b4;stroke:#ffffff;stroke-width:0.48;" x="68.503125" xlink:href="#m018769c240" y="243.789224"/>
     <use style="fill:#1f77b4;stroke:#ffffff;stroke-width:0.48;" x="81.184943" xlink:href="#m018769c240" y="243.789183"/>
     <use style="fill:#1f77b4;stroke:#ffffff;stroke-width:0.48;" x="93.866761" xlink:href="#m018769c240" y="243.788982"/>
     <use style="fill:#1f77b4;stroke:#ffffff;stroke-width:0.48;" x="106.54858" xlink:href="#m018769c240" y="243.788757"/>
     <use style="fill:#1f77b4;stroke:#ffffff;stroke-width:0.48;" x="119.230398" xlink:href="#m018769c240" y="243.788341"/>
     <use style="fill:#1f77b4;stroke:#ffffff;stroke-width:0.48;" x="131.912216" xlink:href="#m018769c240" y="243.787998"/>
     <use style="fill:#1f77b4;stroke:#ffffff;stroke-width:0.48;" x="144.594034" xlink:href="#m018769c240" y="243.787117"/>
     <use style="fill:#1f77b4;stroke:#ffffff;stroke-width:0.48;" x="157.275852" xlink:href="#m018769c240" y="243.785537"/>
     <use style="fill:#1f77b4;stroke:#ffffff;stroke-width:0.48;" x="169.95767" xlink:href="#m018769c240" y="243.782533"/>
     <use style="fill:#1f77b4;stroke:#ffffff;stroke-width:0.48;" x="182.639489" xlink:href="#m018769c240" y="243.776507"/>
     <use style="fill:#1f77b4;stroke:#ffffff;stroke-width:0.48;" x="195.321307" xlink:href="#m018769c240" y="243.764496"/>
     <use style="fill:#1f77b4;stroke:#ffffff;stroke-width:0.48;" x="208.003125" xlink:href="#m018769c240" y="243.740529"/>
     <use style="fill:#1f77b4;stroke:#ffffff;stroke-width:0.48;" x="220.684943" xlink:href="#m018769c240" y="243.691855"/>
     <use style="fill:#1f77b4;stroke:#ffffff;stroke-width:0.48;" x="233.366761" xlink:href="#m018769c240" y="243.596925"/>
     <use style="fill:#1f77b4;stroke:#ffffff;stroke-width:0.48;" x="246.04858" xlink:href="#m018769c240" y="243.405772"/>
     <use style="fill:#1f77b4;stroke:#ffffff;stroke-width:0.48;" x="258.730398" xlink:href="#m018769c240" y="243.024625"/>
     <use style="fill:#1f77b4;stroke:#ffffff;stroke-width:0.48;" x="271.412216" xlink:href="#m018769c240" y="242.26681"/>
     <use style="fill:#1f77b4;stroke:#ffffff;stroke-width:0.48;" x="284.094034" xlink:href="#m018769c240" y="240.729096"/>
     <use style="fill:#1f77b4;stroke:#ffffff;stroke-width:0.48;" x="296.775852" xlink:href="#m018769c240" y="237.691842"/>
     <use style="fill:#1f77b4;stroke:#ffffff;stroke-width:0.48;" x="309.45767" xlink:href="#m018769c240" y="231.499458"/>
     <use style="fill:#1f77b4;stroke:#ffffff;stroke-width:0.48;" x="322.139489" xlink:href="#m018769c240" y="219.32001"/>
     <use style="fill:#1f77b4;stroke:#ffffff;stroke-width:0.48;" x="334.821307" xlink:href="#m018769c240" y="194.91267"/>
     <use style="fill:#1f77b4;stroke:#ffffff;stroke-width:0.48;" x="347.503125" xlink:href="#m018769c240" y="145.981138"/>
     <use style="fill:#1f77b4;stroke:#ffffff;stroke-width:0.48;" x="360.184943" xlink:href="#m018769c240" y="48.201935"/>
     <use style="fill:#1f77b4;stroke:#ffffff;stroke-width:0.48;" x="55.821307" xlink:href="#m018769c240" y="243.789283"/>
     <use style="fill:#1f77b4;stroke:#ffffff;stroke-width:0.48;" x="68.503125" xlink:href="#m018769c240" y="243.789207"/>
     <use style="fill:#1f77b4;stroke:#ffffff;stroke-width:0.48;" x="81.184943" xlink:href="#m018769c240" y="243.789044"/>
     <use style="fill:#1f77b4;stroke:#ffffff;stroke-width:0.48;" x="93.866761" xlink:href="#m018769c240" y="243.788909"/>
     <use style="fill:#1f77b4;stroke:#ffffff;stroke-width:0.48;" x="106.54858" xlink:href="#m018769c240" y="243.788746"/>
     <use style="fill:#1f77b4;stroke:#ffffff;stroke-width:0.48;" x="119.230398" xlink:href="#m018769c240" y="243.788365"/>
     <use style="fill:#1f77b4;stroke:#ffffff;stroke-width:0.48;" x="131.912216" xlink:href="#m018769c240" y="243.787956"/>
     <use style="fill:#1f77b4;stroke:#ffffff;stroke-width:0.48;" x="144.594034" xlink:href="#m018769c240" y="243.787339"/>
     <use style="fill:#1f77b4;stroke:#ffffff;stroke-width:0.48;" x="157.275852" xlink:href="#m018769c240" y="243.785943"/>
     <use style="fill:#1f77b4;stroke:#ffffff;stroke-width:0.48;" x="169.95767" xlink:href="#m018769c240" y="243.78325"/>
     <use style="fill:#1f77b4;stroke:#ffffff;stroke-width:0.48;" x="182.639489" xlink:href="#m018769c240" y="243.77739"/>
     <use style="fill:#1f77b4;stroke:#ffffff;stroke-width:0.48;" x="195.321307" xlink:href="#m018769c240" y="243.766419"/>
     <use style="fill:#1f77b4;stroke:#ffffff;stroke-width:0.48;" x="208.003125" xlink:href="#m018769c240" y="243.74449"/>
     <use style="fill:#1f77b4;stroke:#ffffff;stroke-width:0.48;" x="220.684943" xlink:href="#m018769c240" y="243.701017"/>
     <use style="fill:#1f77b4;stroke:#ffffff;stroke-width:0.48;" x="233.366761" xlink:href="#m018769c240" y="243.614096"/>
     <use style="fill:#1f77b4;stroke:#ffffff;stroke-width:0.48;" x="246.04858" xlink:href="#m018769c240" y="243.440658"/>
     <use style="fill:#1f77b4;stroke:#ffffff;stroke-width:0.48;" x="258.730398" xlink:href="#m018769c240" y="243.09344"/>
     <use style="fill:#1f77b4;stroke:#ffffff;stroke-width:0.48;" x="271.412216" xlink:href="#m018769c240" y="242.397998"/>
     <use style="fill:#1f77b4;stroke:#ffffff;stroke-width:0.48;" x="284.094034" xlink:href="#m018769c240" y="241.011051"/>
     <use style="fill:#1f77b4;stroke:#ffffff;stroke-width:0.48;" x="296.775852" xlink:href="#m018769c240" y="238.233062"/>
     <use style="fill:#1f77b4;stroke:#ffffff;stroke-width:0.48;" x="309.45767" xlink:href="#m018769c240" y="232.657233"/>
     <use style="fill:#1f77b4;stroke:#ffffff;stroke-width:0.48;" x="322.139489" xlink:href="#m018769c240" y="221.527477"/>
     <use style="fill:#1f77b4;stroke:#ffffff;stroke-width:0.48;" x="334.821307" xlink:href="#m018769c240" y="199.218376"/>
     <use style="fill:#1f77b4;stroke:#ffffff;stroke-width:0.48;" x="347.503125" xlink:href="#m018769c240" y="153.574081"/>
     <use style="fill:#1f77b4;stroke:#ffffff;stroke-width:0.48;" x="360.184943" xlink:href="#m018769c240" y="63.450198"/>
    </g>
   </g>
   <g id="PolyCollection_1">
    <defs>
     <path d="M 55.821307 -47.439886 
L 55.821307 -47.439886 
L 68.503125 -47.439898 
L 81.184943 -47.439922 
L 93.866761 -47.439969 
L 106.54858 -47.440063 
L 119.230398 -47.440252 
L 131.912216 -47.440629 
L 144.594034 -47.441383 
L 157.275852 -47.442891 
L 169.95767 -47.445907 
L 182.639489 -47.45194 
L 195.321307 -47.464005 
L 208.003125 -47.488135 
L 220.684943 -47.536394 
L 233.366761 -47.632914 
L 246.04858 -47.825954 
L 258.730398 -48.212034 
L 271.412216 -48.984193 
L 284.094034 -50.528511 
L 296.775852 -53.617148 
L 309.45767 -59.794421 
L 322.139489 -72.148967 
L 334.821307 -96.858059 
L 347.503125 -146.276244 
L 360.184943 -245.112614 
L 360.184943 -245.112614 
L 360.184943 -245.112614 
L 347.503125 -146.276244 
L 334.821307 -96.858059 
L 322.139489 -72.148967 
L 309.45767 -59.794421 
L 296.775852 -53.617148 
L 284.094034 -50.528511 
L 271.412216 -48.984193 
L 258.730398 -48.212034 
L 246.04858 -47.825954 
L 233.366761 -47.632914 
L 220.684943 -47.536394 
L 208.003125 -47.488135 
L 195.321307 -47.464005 
L 182.639489 -47.45194 
L 169.95767 -47.445907 
L 157.275852 -47.442891 
L 144.594034 -47.441383 
L 131.912216 -47.440629 
L 119.230398 -47.440252 
L 106.54858 -47.440063 
L 93.866761 -47.439969 
L 81.184943 -47.439922 
L 68.503125 -47.439898 
L 55.821307 -47.439886 
z
" id="ma934002579" style="stroke:#ffa500;stroke-opacity:0.2;"/>
    </defs>
    <g clip-path="url(#pd350d45b35)">
     <use style="fill:#ffa500;fill-opacity:0.2;stroke:#ffa500;stroke-opacity:0.2;" x="0" xlink:href="#ma934002579" y="291.23175"/>
    </g>
   </g>
   <g id="matplotlib.axis_1">
    <g id="xtick_1">
     <g id="line2d_1">
      <defs>
       <path d="M 0 0 
L 0 3.5 
" id="mc6225a4afd" style="stroke:#000000;stroke-width:0.8;"/>
      </defs>
      <g>
       <use style="stroke:#000000;stroke-width:0.8;" x="43.139489" xlink:href="#mc6225a4afd" y="253.6755"/>
      </g>
     </g>
     <g id="text_1">
      <!-- 0 -->
      <g transform="translate(39.958239 268.273937)scale(0.1 -0.1)">
       <defs>
        <path d="M 2034 4250 
Q 1547 4250 1301 3770 
Q 1056 3291 1056 2328 
Q 1056 1369 1301 889 
Q 1547 409 2034 409 
Q 2525 409 2770 889 
Q 3016 1369 3016 2328 
Q 3016 3291 2770 3770 
Q 2525 4250 2034 4250 
z
M 2034 4750 
Q 2819 4750 3233 4129 
Q 3647 3509 3647 2328 
Q 3647 1150 3233 529 
Q 2819 -91 2034 -91 
Q 1250 -91 836 529 
Q 422 1150 422 2328 
Q 422 3509 836 4129 
Q 1250 4750 2034 4750 
z
" id="DejaVuSans-30" transform="scale(0.015625)"/>
       </defs>
       <use xlink:href="#DejaVuSans-30"/>
      </g>
     </g>
    </g>
    <g id="xtick_2">
     <g id="line2d_2">
      <g>
       <use style="stroke:#000000;stroke-width:0.8;" x="106.54858" xlink:href="#mc6225a4afd" y="253.6755"/>
      </g>
     </g>
     <g id="text_2">
      <!-- 5 -->
      <g transform="translate(103.36733 268.273937)scale(0.1 -0.1)">
       <defs>
        <path d="M 691 4666 
L 3169 4666 
L 3169 4134 
L 1269 4134 
L 1269 2991 
Q 1406 3038 1543 3061 
Q 1681 3084 1819 3084 
Q 2600 3084 3056 2656 
Q 3513 2228 3513 1497 
Q 3513 744 3044 326 
Q 2575 -91 1722 -91 
Q 1428 -91 1123 -41 
Q 819 9 494 109 
L 494 744 
Q 775 591 1075 516 
Q 1375 441 1709 441 
Q 2250 441 2565 725 
Q 2881 1009 2881 1497 
Q 2881 1984 2565 2268 
Q 2250 2553 1709 2553 
Q 1456 2553 1204 2497 
Q 953 2441 691 2322 
L 691 4666 
z
" id="DejaVuSans-35" transform="scale(0.015625)"/>
       </defs>
       <use xlink:href="#DejaVuSans-35"/>
      </g>
     </g>
    </g>
    <g id="xtick_3">
     <g id="line2d_3">
      <g>
       <use style="stroke:#000000;stroke-width:0.8;" x="169.95767" xlink:href="#mc6225a4afd" y="253.6755"/>
      </g>
     </g>
     <g id="text_3">
      <!-- 10 -->
      <g transform="translate(163.59517 268.273937)scale(0.1 -0.1)">
       <defs>
        <path d="M 794 531 
L 1825 531 
L 1825 4091 
L 703 3866 
L 703 4441 
L 1819 4666 
L 2450 4666 
L 2450 531 
L 3481 531 
L 3481 0 
L 794 0 
L 794 531 
z
" id="DejaVuSans-31" transform="scale(0.015625)"/>
       </defs>
       <use xlink:href="#DejaVuSans-31"/>
       <use x="63.623047" xlink:href="#DejaVuSans-30"/>
      </g>
     </g>
    </g>
    <g id="xtick_4">
     <g id="line2d_4">
      <g>
       <use style="stroke:#000000;stroke-width:0.8;" x="233.366761" xlink:href="#mc6225a4afd" y="253.6755"/>
      </g>
     </g>
     <g id="text_4">
      <!-- 15 -->
      <g transform="translate(227.004261 268.273937)scale(0.1 -0.1)">
       <use xlink:href="#DejaVuSans-31"/>
       <use x="63.623047" xlink:href="#DejaVuSans-35"/>
      </g>
     </g>
    </g>
    <g id="xtick_5">
     <g id="line2d_5">
      <g>
       <use style="stroke:#000000;stroke-width:0.8;" x="296.775852" xlink:href="#mc6225a4afd" y="253.6755"/>
      </g>
     </g>
     <g id="text_5">
      <!-- 20 -->
      <g transform="translate(290.413352 268.273937)scale(0.1 -0.1)">
       <defs>
        <path d="M 1228 531 
L 3431 531 
L 3431 0 
L 469 0 
L 469 531 
Q 828 903 1448 1529 
Q 2069 2156 2228 2338 
Q 2531 2678 2651 2914 
Q 2772 3150 2772 3378 
Q 2772 3750 2511 3984 
Q 2250 4219 1831 4219 
Q 1534 4219 1204 4116 
Q 875 4013 500 3803 
L 500 4441 
Q 881 4594 1212 4672 
Q 1544 4750 1819 4750 
Q 2544 4750 2975 4387 
Q 3406 4025 3406 3419 
Q 3406 3131 3298 2873 
Q 3191 2616 2906 2266 
Q 2828 2175 2409 1742 
Q 1991 1309 1228 531 
z
" id="DejaVuSans-32" transform="scale(0.015625)"/>
       </defs>
       <use xlink:href="#DejaVuSans-32"/>
       <use x="63.623047" xlink:href="#DejaVuSans-30"/>
      </g>
     </g>
    </g>
    <g id="xtick_6">
     <g id="line2d_6">
      <g>
       <use style="stroke:#000000;stroke-width:0.8;" x="360.184943" xlink:href="#mc6225a4afd" y="253.6755"/>
      </g>
     </g>
     <g id="text_6">
      <!-- 25 -->
      <g transform="translate(353.822443 268.273937)scale(0.1 -0.1)">
       <use xlink:href="#DejaVuSans-32"/>
       <use x="63.623047" xlink:href="#DejaVuSans-35"/>
      </g>
     </g>
    </g>
    <g id="text_7">
     <!-- n -->
     <g transform="translate(204.834375 281.952062)scale(0.1 -0.1)">
      <defs>
       <path d="M 3513 2113 
L 3513 0 
L 2938 0 
L 2938 2094 
Q 2938 2591 2744 2837 
Q 2550 3084 2163 3084 
Q 1697 3084 1428 2787 
Q 1159 2491 1159 1978 
L 1159 0 
L 581 0 
L 581 3500 
L 1159 3500 
L 1159 2956 
Q 1366 3272 1645 3428 
Q 1925 3584 2291 3584 
Q 2894 3584 3203 3211 
Q 3513 2838 3513 2113 
z
" id="DejaVuSans-6e" transform="scale(0.015625)"/>
      </defs>
      <use xlink:href="#DejaVuSans-6e"/>
     </g>
    </g>
   </g>
   <g id="matplotlib.axis_2">
    <g id="ytick_1">
     <g id="line2d_7">
      <defs>
       <path d="M 0 0 
L -3.5 0 
" id="med3a01afd9" style="stroke:#000000;stroke-width:0.8;"/>
      </defs>
      <g>
       <use style="stroke:#000000;stroke-width:0.8;" x="40.603125" xlink:href="#med3a01afd9" y="243.791875"/>
      </g>
     </g>
     <g id="text_8">
      <!-- 0 -->
      <g transform="translate(27.240625 247.591094)scale(0.1 -0.1)">
       <use xlink:href="#DejaVuSans-30"/>
      </g>
     </g>
    </g>
    <g id="ytick_2">
     <g id="line2d_8">
      <g>
       <use style="stroke:#000000;stroke-width:0.8;" x="40.603125" xlink:href="#med3a01afd9" y="209.138307"/>
      </g>
     </g>
     <g id="text_9">
      <!-- 10 -->
      <g transform="translate(20.878125 212.937525)scale(0.1 -0.1)">
       <use xlink:href="#DejaVuSans-31"/>
       <use x="63.623047" xlink:href="#DejaVuSans-30"/>
      </g>
     </g>
    </g>
    <g id="ytick_3">
     <g id="line2d_9">
      <g>
       <use style="stroke:#000000;stroke-width:0.8;" x="40.603125" xlink:href="#med3a01afd9" y="174.484738"/>
      </g>
     </g>
     <g id="text_10">
      <!-- 20 -->
      <g transform="translate(20.878125 178.283957)scale(0.1 -0.1)">
       <use xlink:href="#DejaVuSans-32"/>
       <use x="63.623047" xlink:href="#DejaVuSans-30"/>
      </g>
     </g>
    </g>
    <g id="ytick_4">
     <g id="line2d_10">
      <g>
       <use style="stroke:#000000;stroke-width:0.8;" x="40.603125" xlink:href="#med3a01afd9" y="139.831169"/>
      </g>
     </g>
     <g id="text_11">
      <!-- 30 -->
      <g transform="translate(20.878125 143.630388)scale(0.1 -0.1)">
       <defs>
        <path d="M 2597 2516 
Q 3050 2419 3304 2112 
Q 3559 1806 3559 1356 
Q 3559 666 3084 287 
Q 2609 -91 1734 -91 
Q 1441 -91 1130 -33 
Q 819 25 488 141 
L 488 750 
Q 750 597 1062 519 
Q 1375 441 1716 441 
Q 2309 441 2620 675 
Q 2931 909 2931 1356 
Q 2931 1769 2642 2001 
Q 2353 2234 1838 2234 
L 1294 2234 
L 1294 2753 
L 1863 2753 
Q 2328 2753 2575 2939 
Q 2822 3125 2822 3475 
Q 2822 3834 2567 4026 
Q 2313 4219 1838 4219 
Q 1578 4219 1281 4162 
Q 984 4106 628 3988 
L 628 4550 
Q 988 4650 1302 4700 
Q 1616 4750 1894 4750 
Q 2613 4750 3031 4423 
Q 3450 4097 3450 3541 
Q 3450 3153 3228 2886 
Q 3006 2619 2597 2516 
z
" id="DejaVuSans-33" transform="scale(0.015625)"/>
       </defs>
       <use xlink:href="#DejaVuSans-33"/>
       <use x="63.623047" xlink:href="#DejaVuSans-30"/>
      </g>
     </g>
    </g>
    <g id="ytick_5">
     <g id="line2d_11">
      <g>
       <use style="stroke:#000000;stroke-width:0.8;" x="40.603125" xlink:href="#med3a01afd9" y="105.1776"/>
      </g>
     </g>
     <g id="text_12">
      <!-- 40 -->
      <g transform="translate(20.878125 108.976819)scale(0.1 -0.1)">
       <defs>
        <path d="M 2419 4116 
L 825 1625 
L 2419 1625 
L 2419 4116 
z
M 2253 4666 
L 3047 4666 
L 3047 1625 
L 3713 1625 
L 3713 1100 
L 3047 1100 
L 3047 0 
L 2419 0 
L 2419 1100 
L 313 1100 
L 313 1709 
L 2253 4666 
z
" id="DejaVuSans-34" transform="scale(0.015625)"/>
       </defs>
       <use xlink:href="#DejaVuSans-34"/>
       <use x="63.623047" xlink:href="#DejaVuSans-30"/>
      </g>
     </g>
    </g>
    <g id="ytick_6">
     <g id="line2d_12">
      <g>
       <use style="stroke:#000000;stroke-width:0.8;" x="40.603125" xlink:href="#med3a01afd9" y="70.524031"/>
      </g>
     </g>
     <g id="text_13">
      <!-- 50 -->
      <g transform="translate(20.878125 74.32325)scale(0.1 -0.1)">
       <use xlink:href="#DejaVuSans-35"/>
       <use x="63.623047" xlink:href="#DejaVuSans-30"/>
      </g>
     </g>
    </g>
    <g id="text_14">
     <!-- tiempo (ms) -->
     <g transform="translate(14.798438 175.450812)rotate(-90)scale(0.1 -0.1)">
      <defs>
       <path d="M 1172 4494 
L 1172 3500 
L 2356 3500 
L 2356 3053 
L 1172 3053 
L 1172 1153 
Q 1172 725 1289 603 
Q 1406 481 1766 481 
L 2356 481 
L 2356 0 
L 1766 0 
Q 1100 0 847 248 
Q 594 497 594 1153 
L 594 3053 
L 172 3053 
L 172 3500 
L 594 3500 
L 594 4494 
L 1172 4494 
z
" id="DejaVuSans-74" transform="scale(0.015625)"/>
       <path d="M 603 3500 
L 1178 3500 
L 1178 0 
L 603 0 
L 603 3500 
z
M 603 4863 
L 1178 4863 
L 1178 4134 
L 603 4134 
L 603 4863 
z
" id="DejaVuSans-69" transform="scale(0.015625)"/>
       <path d="M 3597 1894 
L 3597 1613 
L 953 1613 
Q 991 1019 1311 708 
Q 1631 397 2203 397 
Q 2534 397 2845 478 
Q 3156 559 3463 722 
L 3463 178 
Q 3153 47 2828 -22 
Q 2503 -91 2169 -91 
Q 1331 -91 842 396 
Q 353 884 353 1716 
Q 353 2575 817 3079 
Q 1281 3584 2069 3584 
Q 2775 3584 3186 3129 
Q 3597 2675 3597 1894 
z
M 3022 2063 
Q 3016 2534 2758 2815 
Q 2500 3097 2075 3097 
Q 1594 3097 1305 2825 
Q 1016 2553 972 2059 
L 3022 2063 
z
" id="DejaVuSans-65" transform="scale(0.015625)"/>
       <path d="M 3328 2828 
Q 3544 3216 3844 3400 
Q 4144 3584 4550 3584 
Q 5097 3584 5394 3201 
Q 5691 2819 5691 2113 
L 5691 0 
L 5113 0 
L 5113 2094 
Q 5113 2597 4934 2840 
Q 4756 3084 4391 3084 
Q 3944 3084 3684 2787 
Q 3425 2491 3425 1978 
L 3425 0 
L 2847 0 
L 2847 2094 
Q 2847 2600 2669 2842 
Q 2491 3084 2119 3084 
Q 1678 3084 1418 2786 
Q 1159 2488 1159 1978 
L 1159 0 
L 581 0 
L 581 3500 
L 1159 3500 
L 1159 2956 
Q 1356 3278 1631 3431 
Q 1906 3584 2284 3584 
Q 2666 3584 2933 3390 
Q 3200 3197 3328 2828 
z
" id="DejaVuSans-6d" transform="scale(0.015625)"/>
       <path d="M 1159 525 
L 1159 -1331 
L 581 -1331 
L 581 3500 
L 1159 3500 
L 1159 2969 
Q 1341 3281 1617 3432 
Q 1894 3584 2278 3584 
Q 2916 3584 3314 3078 
Q 3713 2572 3713 1747 
Q 3713 922 3314 415 
Q 2916 -91 2278 -91 
Q 1894 -91 1617 61 
Q 1341 213 1159 525 
z
M 3116 1747 
Q 3116 2381 2855 2742 
Q 2594 3103 2138 3103 
Q 1681 3103 1420 2742 
Q 1159 2381 1159 1747 
Q 1159 1113 1420 752 
Q 1681 391 2138 391 
Q 2594 391 2855 752 
Q 3116 1113 3116 1747 
z
" id="DejaVuSans-70" transform="scale(0.015625)"/>
       <path d="M 1959 3097 
Q 1497 3097 1228 2736 
Q 959 2375 959 1747 
Q 959 1119 1226 758 
Q 1494 397 1959 397 
Q 2419 397 2687 759 
Q 2956 1122 2956 1747 
Q 2956 2369 2687 2733 
Q 2419 3097 1959 3097 
z
M 1959 3584 
Q 2709 3584 3137 3096 
Q 3566 2609 3566 1747 
Q 3566 888 3137 398 
Q 2709 -91 1959 -91 
Q 1206 -91 779 398 
Q 353 888 353 1747 
Q 353 2609 779 3096 
Q 1206 3584 1959 3584 
z
" id="DejaVuSans-6f" transform="scale(0.015625)"/>
       <path id="DejaVuSans-20" transform="scale(0.015625)"/>
       <path d="M 1984 4856 
Q 1566 4138 1362 3434 
Q 1159 2731 1159 2009 
Q 1159 1288 1364 580 
Q 1569 -128 1984 -844 
L 1484 -844 
Q 1016 -109 783 600 
Q 550 1309 550 2009 
Q 550 2706 781 3412 
Q 1013 4119 1484 4856 
L 1984 4856 
z
" id="DejaVuSans-28" transform="scale(0.015625)"/>
       <path d="M 2834 3397 
L 2834 2853 
Q 2591 2978 2328 3040 
Q 2066 3103 1784 3103 
Q 1356 3103 1142 2972 
Q 928 2841 928 2578 
Q 928 2378 1081 2264 
Q 1234 2150 1697 2047 
L 1894 2003 
Q 2506 1872 2764 1633 
Q 3022 1394 3022 966 
Q 3022 478 2636 193 
Q 2250 -91 1575 -91 
Q 1294 -91 989 -36 
Q 684 19 347 128 
L 347 722 
Q 666 556 975 473 
Q 1284 391 1588 391 
Q 1994 391 2212 530 
Q 2431 669 2431 922 
Q 2431 1156 2273 1281 
Q 2116 1406 1581 1522 
L 1381 1569 
Q 847 1681 609 1914 
Q 372 2147 372 2553 
Q 372 3047 722 3315 
Q 1072 3584 1716 3584 
Q 2034 3584 2315 3537 
Q 2597 3491 2834 3397 
z
" id="DejaVuSans-73" transform="scale(0.015625)"/>
       <path d="M 513 4856 
L 1013 4856 
Q 1481 4119 1714 3412 
Q 1947 2706 1947 2009 
Q 1947 1309 1714 600 
Q 1481 -109 1013 -844 
L 513 -844 
Q 928 -128 1133 580 
Q 1338 1288 1338 2009 
Q 1338 2731 1133 3434 
Q 928 4138 513 4856 
z
" id="DejaVuSans-29" transform="scale(0.015625)"/>
      </defs>
      <use xlink:href="#DejaVuSans-74"/>
      <use x="39.208984" xlink:href="#DejaVuSans-69"/>
      <use x="66.992188" xlink:href="#DejaVuSans-65"/>
      <use x="128.515625" xlink:href="#DejaVuSans-6d"/>
      <use x="225.927734" xlink:href="#DejaVuSans-70"/>
      <use x="289.404297" xlink:href="#DejaVuSans-6f"/>
      <use x="350.585938" xlink:href="#DejaVuSans-20"/>
      <use x="382.373047" xlink:href="#DejaVuSans-28"/>
      <use x="421.386719" xlink:href="#DejaVuSans-6d"/>
      <use x="518.798828" xlink:href="#DejaVuSans-73"/>
      <use x="570.898438" xlink:href="#DejaVuSans-29"/>
     </g>
    </g>
   </g>
   <g id="line2d_13">
    <path clip-path="url(#pd350d45b35)" d="M 55.821307 243.791864 
L 68.503125 243.791852 
L 81.184943 243.791828 
L 93.866761 243.791781 
L 106.54858 243.791687 
L 119.230398 243.791498 
L 131.912216 243.791121 
L 144.594034 243.790367 
L 157.275852 243.788859 
L 169.95767 243.785843 
L 182.639489 243.77981 
L 195.321307 243.767745 
L 208.003125 243.743615 
L 220.684943 243.695356 
L 233.366761 243.598836 
L 246.04858 243.405796 
L 258.730398 243.019716 
L 271.412216 242.247557 
L 284.094034 240.703239 
L 296.775852 237.614602 
L 309.45767 231.437329 
L 322.139489 219.082783 
L 334.821307 194.373691 
L 347.503125 144.955506 
L 360.184943 46.119136 
" style="fill:none;stroke:#ffa500;stroke-linecap:square;stroke-width:1.5;"/>
   </g>
   <g id="patch_3">
    <path d="M 40.603125 253.6755 
L 40.603125 36.2355 
" style="fill:none;stroke:#000000;stroke-linecap:square;stroke-linejoin:miter;stroke-width:0.8;"/>
   </g>
   <g id="patch_4">
    <path d="M 375.403125 253.6755 
L 375.403125 36.2355 
" style="fill:none;stroke:#000000;stroke-linecap:square;stroke-linejoin:miter;stroke-width:0.8;"/>
   </g>
   <g id="patch_5">
    <path d="M 40.603125 253.6755 
L 375.403125 253.6755 
" style="fill:none;stroke:#000000;stroke-linecap:square;stroke-linejoin:miter;stroke-width:0.8;"/>
   </g>
   <g id="patch_6">
    <path d="M 40.603125 36.2355 
L 375.403125 36.2355 
" style="fill:none;stroke:#000000;stroke-linecap:square;stroke-linejoin:miter;stroke-width:0.8;"/>
   </g>
   <g id="text_15">
    <!-- Comparación FB con función exponencial -->
    <g transform="translate(83.879062 16.798125)scale(0.12 -0.12)">
     <defs>
      <path d="M 4122 4306 
L 4122 3641 
Q 3803 3938 3442 4084 
Q 3081 4231 2675 4231 
Q 1875 4231 1450 3742 
Q 1025 3253 1025 2328 
Q 1025 1406 1450 917 
Q 1875 428 2675 428 
Q 3081 428 3442 575 
Q 3803 722 4122 1019 
L 4122 359 
Q 3791 134 3420 21 
Q 3050 -91 2638 -91 
Q 1578 -91 968 557 
Q 359 1206 359 2328 
Q 359 3453 968 4101 
Q 1578 4750 2638 4750 
Q 3056 4750 3426 4639 
Q 3797 4528 4122 4306 
z
" id="DejaVuSans-43" transform="scale(0.015625)"/>
      <path d="M 2194 1759 
Q 1497 1759 1228 1600 
Q 959 1441 959 1056 
Q 959 750 1161 570 
Q 1363 391 1709 391 
Q 2188 391 2477 730 
Q 2766 1069 2766 1631 
L 2766 1759 
L 2194 1759 
z
M 3341 1997 
L 3341 0 
L 2766 0 
L 2766 531 
Q 2569 213 2275 61 
Q 1981 -91 1556 -91 
Q 1019 -91 701 211 
Q 384 513 384 1019 
Q 384 1609 779 1909 
Q 1175 2209 1959 2209 
L 2766 2209 
L 2766 2266 
Q 2766 2663 2505 2880 
Q 2244 3097 1772 3097 
Q 1472 3097 1187 3025 
Q 903 2953 641 2809 
L 641 3341 
Q 956 3463 1253 3523 
Q 1550 3584 1831 3584 
Q 2591 3584 2966 3190 
Q 3341 2797 3341 1997 
z
" id="DejaVuSans-61" transform="scale(0.015625)"/>
      <path d="M 2631 2963 
Q 2534 3019 2420 3045 
Q 2306 3072 2169 3072 
Q 1681 3072 1420 2755 
Q 1159 2438 1159 1844 
L 1159 0 
L 581 0 
L 581 3500 
L 1159 3500 
L 1159 2956 
Q 1341 3275 1631 3429 
Q 1922 3584 2338 3584 
Q 2397 3584 2469 3576 
Q 2541 3569 2628 3553 
L 2631 2963 
z
" id="DejaVuSans-72" transform="scale(0.015625)"/>
      <path d="M 3122 3366 
L 3122 2828 
Q 2878 2963 2633 3030 
Q 2388 3097 2138 3097 
Q 1578 3097 1268 2742 
Q 959 2388 959 1747 
Q 959 1106 1268 751 
Q 1578 397 2138 397 
Q 2388 397 2633 464 
Q 2878 531 3122 666 
L 3122 134 
Q 2881 22 2623 -34 
Q 2366 -91 2075 -91 
Q 1284 -91 818 406 
Q 353 903 353 1747 
Q 353 2603 823 3093 
Q 1294 3584 2113 3584 
Q 2378 3584 2631 3529 
Q 2884 3475 3122 3366 
z
" id="DejaVuSans-63" transform="scale(0.015625)"/>
      <path d="M 1959 3097 
Q 1497 3097 1228 2736 
Q 959 2375 959 1747 
Q 959 1119 1226 758 
Q 1494 397 1959 397 
Q 2419 397 2687 759 
Q 2956 1122 2956 1747 
Q 2956 2369 2687 2733 
Q 2419 3097 1959 3097 
z
M 1959 3584 
Q 2709 3584 3137 3096 
Q 3566 2609 3566 1747 
Q 3566 888 3137 398 
Q 2709 -91 1959 -91 
Q 1206 -91 779 398 
Q 353 888 353 1747 
Q 353 2609 779 3096 
Q 1206 3584 1959 3584 
z
M 2394 5119 
L 3016 5119 
L 1998 3944 
L 1519 3944 
L 2394 5119 
z
" id="DejaVuSans-f3" transform="scale(0.015625)"/>
      <path d="M 628 4666 
L 3309 4666 
L 3309 4134 
L 1259 4134 
L 1259 2759 
L 3109 2759 
L 3109 2228 
L 1259 2228 
L 1259 0 
L 628 0 
L 628 4666 
z
" id="DejaVuSans-46" transform="scale(0.015625)"/>
      <path d="M 1259 2228 
L 1259 519 
L 2272 519 
Q 2781 519 3026 730 
Q 3272 941 3272 1375 
Q 3272 1813 3026 2020 
Q 2781 2228 2272 2228 
L 1259 2228 
z
M 1259 4147 
L 1259 2741 
L 2194 2741 
Q 2656 2741 2882 2914 
Q 3109 3088 3109 3444 
Q 3109 3797 2882 3972 
Q 2656 4147 2194 4147 
L 1259 4147 
z
M 628 4666 
L 2241 4666 
Q 2963 4666 3353 4366 
Q 3744 4066 3744 3513 
Q 3744 3084 3544 2831 
Q 3344 2578 2956 2516 
Q 3422 2416 3680 2098 
Q 3938 1781 3938 1306 
Q 3938 681 3513 340 
Q 3088 0 2303 0 
L 628 0 
L 628 4666 
z
" id="DejaVuSans-42" transform="scale(0.015625)"/>
      <path d="M 2375 4863 
L 2375 4384 
L 1825 4384 
Q 1516 4384 1395 4259 
Q 1275 4134 1275 3809 
L 1275 3500 
L 2222 3500 
L 2222 3053 
L 1275 3053 
L 1275 0 
L 697 0 
L 697 3053 
L 147 3053 
L 147 3500 
L 697 3500 
L 697 3744 
Q 697 4328 969 4595 
Q 1241 4863 1831 4863 
L 2375 4863 
z
" id="DejaVuSans-66" transform="scale(0.015625)"/>
      <path d="M 544 1381 
L 544 3500 
L 1119 3500 
L 1119 1403 
Q 1119 906 1312 657 
Q 1506 409 1894 409 
Q 2359 409 2629 706 
Q 2900 1003 2900 1516 
L 2900 3500 
L 3475 3500 
L 3475 0 
L 2900 0 
L 2900 538 
Q 2691 219 2414 64 
Q 2138 -91 1772 -91 
Q 1169 -91 856 284 
Q 544 659 544 1381 
z
M 1991 3584 
L 1991 3584 
z
" id="DejaVuSans-75" transform="scale(0.015625)"/>
      <path d="M 3513 3500 
L 2247 1797 
L 3578 0 
L 2900 0 
L 1881 1375 
L 863 0 
L 184 0 
L 1544 1831 
L 300 3500 
L 978 3500 
L 1906 2253 
L 2834 3500 
L 3513 3500 
z
" id="DejaVuSans-78" transform="scale(0.015625)"/>
      <path d="M 603 4863 
L 1178 4863 
L 1178 0 
L 603 0 
L 603 4863 
z
" id="DejaVuSans-6c" transform="scale(0.015625)"/>
     </defs>
     <use xlink:href="#DejaVuSans-43"/>
     <use x="69.824219" xlink:href="#DejaVuSans-6f"/>
     <use x="131.005859" xlink:href="#DejaVuSans-6d"/>
     <use x="228.417969" xlink:href="#DejaVuSans-70"/>
     <use x="291.894531" xlink:href="#DejaVuSans-61"/>
     <use x="353.173828" xlink:href="#DejaVuSans-72"/>
     <use x="394.287109" xlink:href="#DejaVuSans-61"/>
     <use x="455.566406" xlink:href="#DejaVuSans-63"/>
     <use x="510.546875" xlink:href="#DejaVuSans-69"/>
     <use x="538.330078" xlink:href="#DejaVuSans-f3"/>
     <use x="599.511719" xlink:href="#DejaVuSans-6e"/>
     <use x="662.890625" xlink:href="#DejaVuSans-20"/>
     <use x="694.677734" xlink:href="#DejaVuSans-46"/>
     <use x="752.197266" xlink:href="#DejaVuSans-42"/>
     <use x="820.800781" xlink:href="#DejaVuSans-20"/>
     <use x="852.587891" xlink:href="#DejaVuSans-63"/>
     <use x="907.568359" xlink:href="#DejaVuSans-6f"/>
     <use x="968.75" xlink:href="#DejaVuSans-6e"/>
     <use x="1032.128906" xlink:href="#DejaVuSans-20"/>
     <use x="1063.916016" xlink:href="#DejaVuSans-66"/>
     <use x="1099.121094" xlink:href="#DejaVuSans-75"/>
     <use x="1162.5" xlink:href="#DejaVuSans-6e"/>
     <use x="1225.878906" xlink:href="#DejaVuSans-63"/>
     <use x="1280.859375" xlink:href="#DejaVuSans-69"/>
     <use x="1308.642578" xlink:href="#DejaVuSans-f3"/>
     <use x="1369.824219" xlink:href="#DejaVuSans-6e"/>
     <use x="1433.203125" xlink:href="#DejaVuSans-20"/>
     <use x="1464.990234" xlink:href="#DejaVuSans-65"/>
     <use x="1524.763672" xlink:href="#DejaVuSans-78"/>
     <use x="1583.943359" xlink:href="#DejaVuSans-70"/>
     <use x="1647.419922" xlink:href="#DejaVuSans-6f"/>
     <use x="1708.601562" xlink:href="#DejaVuSans-6e"/>
     <use x="1771.980469" xlink:href="#DejaVuSans-65"/>
     <use x="1833.503906" xlink:href="#DejaVuSans-6e"/>
     <use x="1896.882812" xlink:href="#DejaVuSans-63"/>
     <use x="1951.863281" xlink:href="#DejaVuSans-69"/>
     <use x="1979.646484" xlink:href="#DejaVuSans-61"/>
     <use x="2040.925781" xlink:href="#DejaVuSans-6c"/>
    </g>
    <!--  -->
    <g transform="translate(208.003125 30.2355)scale(0.12 -0.12)"/>
   </g>
   <g id="legend_1">
    <g id="patch_7">
     <path d="M 47.603125 73.59175 
L 116.357813 73.59175 
Q 118.357813 73.59175 118.357813 71.59175 
L 118.357813 43.2355 
Q 118.357813 41.2355 116.357813 41.2355 
L 47.603125 41.2355 
Q 45.603125 41.2355 45.603125 43.2355 
L 45.603125 71.59175 
Q 45.603125 73.59175 47.603125 73.59175 
z
" style="fill:#ffffff;opacity:0.8;stroke:#cccccc;stroke-linejoin:miter;"/>
    </g>
    <g id="line2d_14">
     <path d="M 49.603125 49.333937 
L 69.603125 49.333937 
" style="fill:none;stroke:#ffa500;stroke-linecap:square;stroke-width:1.5;"/>
    </g>
    <g id="line2d_15"/>
    <g id="text_16">
     <!-- O(2^n) -->
     <g transform="translate(77.603125 52.833937)scale(0.1 -0.1)">
      <defs>
       <path d="M 2522 4238 
Q 1834 4238 1429 3725 
Q 1025 3213 1025 2328 
Q 1025 1447 1429 934 
Q 1834 422 2522 422 
Q 3209 422 3611 934 
Q 4013 1447 4013 2328 
Q 4013 3213 3611 3725 
Q 3209 4238 2522 4238 
z
M 2522 4750 
Q 3503 4750 4090 4092 
Q 4678 3434 4678 2328 
Q 4678 1225 4090 567 
Q 3503 -91 2522 -91 
Q 1538 -91 948 565 
Q 359 1222 359 2328 
Q 359 3434 948 4092 
Q 1538 4750 2522 4750 
z
" id="DejaVuSans-4f" transform="scale(0.015625)"/>
       <path d="M 2988 4666 
L 4684 2925 
L 4056 2925 
L 2681 4159 
L 1306 2925 
L 678 2925 
L 2375 4666 
L 2988 4666 
z
" id="DejaVuSans-5e" transform="scale(0.015625)"/>
      </defs>
      <use xlink:href="#DejaVuSans-4f"/>
      <use x="78.710938" xlink:href="#DejaVuSans-28"/>
      <use x="117.724609" xlink:href="#DejaVuSans-32"/>
      <use x="181.347656" xlink:href="#DejaVuSans-5e"/>
      <use x="265.136719" xlink:href="#DejaVuSans-6e"/>
      <use x="328.515625" xlink:href="#DejaVuSans-29"/>
     </g>
    </g>
    <g id="PathCollection_2">
     <g>
      <use style="fill:#1f77b4;stroke:#ffffff;stroke-width:0.48;" x="59.603125" xlink:href="#m018769c240" y="64.887062"/>
     </g>
    </g>
    <g id="text_17">
     <!-- FB -->
     <g transform="translate(77.603125 67.512062)scale(0.1 -0.1)">
      <use xlink:href="#DejaVuSans-46"/>
      <use x="57.519531" xlink:href="#DejaVuSans-42"/>
     </g>
    </g>
   </g>
  </g>
 </g>
 <defs>
  <clipPath id="pd350d45b35">
   <rect height="217.44" width="334.8" x="40.603125" y="36.2355"/>
  </clipPath>
 </defs>
</svg>
