<?xml version="1.0" encoding="utf-8" standalone="no"?>
<!DOCTYPE svg PUBLIC "-//W3C//DTD SVG 1.1//EN"
  "http://www.w3.org/Graphics/SVG/1.1/DTD/svg11.dtd">
<svg height="290.75175pt" version="1.1" viewBox="0 0 382.603125 290.75175" width="382.603125pt" xmlns="http://www.w3.org/2000/svg" xmlns:xlink="http://www.w3.org/1999/xlink">
 <metadata>
  <rdf:RDF xmlns:cc="http://creativecommons.org/ns#" xmlns:dc="http://purl.org/dc/elements/1.1/" xmlns:rdf="http://www.w3.org/1999/02/22-rdf-syntax-ns#">
   <cc:Work>
    <dc:type rdf:resource="http://purl.org/dc/dcmitype/StillImage"/>
    <dc:date>2021-04-29T16:15:48.073696</dc:date>
    <dc:format>image/svg+xml</dc:format>
    <dc:creator>
     <cc:Agent>
      <dc:title>Matplotlib v3.4.1, https://matplotlib.org/</dc:title>
     </cc:Agent>
    </dc:creator>
   </cc:Work>
  </rdf:RDF>
 </metadata>
 <defs>
  <style type="text/css">*{stroke-linecap:butt;stroke-linejoin:round;}</style>
 </defs>
 <g id="figure_1">
  <g id="patch_1">
   <path d="M 0 290.75175 
L 382.603125 290.75175 
L 382.603125 0 
L 0 0 
z
" style="fill:none;"/>
  </g>
  <g id="axes_1">
   <g id="patch_2">
    <path d="M 40.603125 253.1955 
L 375.403125 253.1955 
L 375.403125 35.7555 
L 40.603125 35.7555 
z
" style="fill:#ffffff;"/>
   </g>
   <g id="PathCollection_1">
    <defs>
     <path d="M 0 3 
C 0.795609 3 1.55874 2.683901 2.12132 2.12132 
C 2.683901 1.55874 3 0.795609 3 -0 
C 3 -0.795609 2.683901 -1.55874 2.12132 -2.12132 
C 1.55874 -2.683901 0.795609 -3 0 -3 
C -0.795609 -3 -1.55874 -2.683901 -2.12132 -2.12132 
C -2.683901 -1.55874 -3 -0.795609 -3 0 
C -3 0.795609 -2.683901 1.55874 -2.12132 2.12132 
C -1.55874 2.683901 -0.795609 3 0 3 
z
" id="C0_0_19d542a5f7"/>
    </defs>
    <g clip-path="url(#pd4503d65ca)">
     <use style="fill:#1f77b4;stroke:#ffffff;stroke-width:0.48;" x="55.821307" xlink:href="#C0_0_19d542a5f7" y="243.311846"/>
    </g>
    <g clip-path="url(#pd4503d65ca)">
     <use style="fill:#1f77b4;stroke:#ffffff;stroke-width:0.48;" x="68.503125" xlink:href="#C0_0_19d542a5f7" y="243.311829"/>
    </g>
    <g clip-path="url(#pd4503d65ca)">
     <use style="fill:#1f77b4;stroke:#ffffff;stroke-width:0.48;" x="81.184943" xlink:href="#C0_0_19d542a5f7" y="243.311713"/>
    </g>
    <g clip-path="url(#pd4503d65ca)">
     <use style="fill:#1f77b4;stroke:#ffffff;stroke-width:0.48;" x="93.866761" xlink:href="#C0_0_19d542a5f7" y="243.311506"/>
    </g>
    <g clip-path="url(#pd4503d65ca)">
     <use style="fill:#1f77b4;stroke:#ffffff;stroke-width:0.48;" x="106.54858" xlink:href="#C0_0_19d542a5f7" y="243.311275"/>
    </g>
    <g clip-path="url(#pd4503d65ca)">
     <use style="fill:#1f77b4;stroke:#ffffff;stroke-width:0.48;" x="119.230398" xlink:href="#C0_0_19d542a5f7" y="243.310764"/>
    </g>
    <g clip-path="url(#pd4503d65ca)">
     <use style="fill:#1f77b4;stroke:#ffffff;stroke-width:0.48;" x="131.912216" xlink:href="#C0_0_19d542a5f7" y="243.310123"/>
    </g>
    <g clip-path="url(#pd4503d65ca)">
     <use style="fill:#1f77b4;stroke:#ffffff;stroke-width:0.48;" x="144.594034" xlink:href="#C0_0_19d542a5f7" y="243.309023"/>
    </g>
    <g clip-path="url(#pd4503d65ca)">
     <use style="fill:#1f77b4;stroke:#ffffff;stroke-width:0.48;" x="157.275852" xlink:href="#C0_0_19d542a5f7" y="243.307545"/>
    </g>
    <g clip-path="url(#pd4503d65ca)">
     <use style="fill:#1f77b4;stroke:#ffffff;stroke-width:0.48;" x="169.95767" xlink:href="#C0_0_19d542a5f7" y="243.304208"/>
    </g>
    <g clip-path="url(#pd4503d65ca)">
     <use style="fill:#1f77b4;stroke:#ffffff;stroke-width:0.48;" x="182.639489" xlink:href="#C0_0_19d542a5f7" y="243.297868"/>
    </g>
    <g clip-path="url(#pd4503d65ca)">
     <use style="fill:#1f77b4;stroke:#ffffff;stroke-width:0.48;" x="195.321307" xlink:href="#C0_0_19d542a5f7" y="243.286486"/>
    </g>
    <g clip-path="url(#pd4503d65ca)">
     <use style="fill:#1f77b4;stroke:#ffffff;stroke-width:0.48;" x="208.003125" xlink:href="#C0_0_19d542a5f7" y="243.261395"/>
    </g>
    <g clip-path="url(#pd4503d65ca)">
     <use style="fill:#1f77b4;stroke:#ffffff;stroke-width:0.48;" x="220.684943" xlink:href="#C0_0_19d542a5f7" y="243.215354"/>
    </g>
    <g clip-path="url(#pd4503d65ca)">
     <use style="fill:#1f77b4;stroke:#ffffff;stroke-width:0.48;" x="233.366761" xlink:href="#C0_0_19d542a5f7" y="243.120694"/>
    </g>
    <g clip-path="url(#pd4503d65ca)">
     <use style="fill:#1f77b4;stroke:#ffffff;stroke-width:0.48;" x="246.04858" xlink:href="#C0_0_19d542a5f7" y="242.929549"/>
    </g>
    <g clip-path="url(#pd4503d65ca)">
     <use style="fill:#1f77b4;stroke:#ffffff;stroke-width:0.48;" x="258.730398" xlink:href="#C0_0_19d542a5f7" y="242.57113"/>
    </g>
    <g clip-path="url(#pd4503d65ca)">
     <use style="fill:#1f77b4;stroke:#ffffff;stroke-width:0.48;" x="271.412216" xlink:href="#C0_0_19d542a5f7" y="241.813792"/>
    </g>
    <g clip-path="url(#pd4503d65ca)">
     <use style="fill:#1f77b4;stroke:#ffffff;stroke-width:0.48;" x="284.094034" xlink:href="#C0_0_19d542a5f7" y="240.36186"/>
    </g>
    <g clip-path="url(#pd4503d65ca)">
     <use style="fill:#1f77b4;stroke:#ffffff;stroke-width:0.48;" x="296.775852" xlink:href="#C0_0_19d542a5f7" y="237.409365"/>
    </g>
    <g clip-path="url(#pd4503d65ca)">
     <use style="fill:#1f77b4;stroke:#ffffff;stroke-width:0.48;" x="309.45767" xlink:href="#C0_0_19d542a5f7" y="231.475448"/>
    </g>
    <g clip-path="url(#pd4503d65ca)">
     <use style="fill:#1f77b4;stroke:#ffffff;stroke-width:0.48;" x="322.139489" xlink:href="#C0_0_19d542a5f7" y="219.526359"/>
    </g>
    <g clip-path="url(#pd4503d65ca)">
     <use style="fill:#1f77b4;stroke:#ffffff;stroke-width:0.48;" x="334.821307" xlink:href="#C0_0_19d542a5f7" y="196.108594"/>
    </g>
    <g clip-path="url(#pd4503d65ca)">
     <use style="fill:#1f77b4;stroke:#ffffff;stroke-width:0.48;" x="347.503125" xlink:href="#C0_0_19d542a5f7" y="149.685563"/>
    </g>
    <g clip-path="url(#pd4503d65ca)">
     <use style="fill:#1f77b4;stroke:#ffffff;stroke-width:0.48;" x="360.184943" xlink:href="#C0_0_19d542a5f7" y="55.277475"/>
    </g>
    <g clip-path="url(#pd4503d65ca)">
     <use style="fill:#ff7f0e;stroke:#ffffff;stroke-width:0.48;" x="55.821307" xlink:href="#C0_0_19d542a5f7" y="243.311864"/>
    </g>
    <g clip-path="url(#pd4503d65ca)">
     <use style="fill:#ff7f0e;stroke:#ffffff;stroke-width:0.48;" x="68.503125" xlink:href="#C0_0_19d542a5f7" y="243.31171"/>
    </g>
    <g clip-path="url(#pd4503d65ca)">
     <use style="fill:#ff7f0e;stroke:#ffffff;stroke-width:0.48;" x="81.184943" xlink:href="#C0_0_19d542a5f7" y="243.311668"/>
    </g>
    <g clip-path="url(#pd4503d65ca)">
     <use style="fill:#ff7f0e;stroke:#ffffff;stroke-width:0.48;" x="93.866761" xlink:href="#C0_0_19d542a5f7" y="243.311464"/>
    </g>
    <g clip-path="url(#pd4503d65ca)">
     <use style="fill:#ff7f0e;stroke:#ffffff;stroke-width:0.48;" x="106.54858" xlink:href="#C0_0_19d542a5f7" y="243.311237"/>
    </g>
    <g clip-path="url(#pd4503d65ca)">
     <use style="fill:#ff7f0e;stroke:#ffffff;stroke-width:0.48;" x="119.230398" xlink:href="#C0_0_19d542a5f7" y="243.310816"/>
    </g>
    <g clip-path="url(#pd4503d65ca)">
     <use style="fill:#ff7f0e;stroke:#ffffff;stroke-width:0.48;" x="131.912216" xlink:href="#C0_0_19d542a5f7" y="243.31047"/>
    </g>
    <g clip-path="url(#pd4503d65ca)">
     <use style="fill:#ff7f0e;stroke:#ffffff;stroke-width:0.48;" x="144.594034" xlink:href="#C0_0_19d542a5f7" y="243.30958"/>
    </g>
    <g clip-path="url(#pd4503d65ca)">
     <use style="fill:#ff7f0e;stroke:#ffffff;stroke-width:0.48;" x="157.275852" xlink:href="#C0_0_19d542a5f7" y="243.307983"/>
    </g>
    <g clip-path="url(#pd4503d65ca)">
     <use style="fill:#ff7f0e;stroke:#ffffff;stroke-width:0.48;" x="169.95767" xlink:href="#C0_0_19d542a5f7" y="243.304947"/>
    </g>
    <g clip-path="url(#pd4503d65ca)">
     <use style="fill:#ff7f0e;stroke:#ffffff;stroke-width:0.48;" x="182.639489" xlink:href="#C0_0_19d542a5f7" y="243.298856"/>
    </g>
    <g clip-path="url(#pd4503d65ca)">
     <use style="fill:#ff7f0e;stroke:#ffffff;stroke-width:0.48;" x="195.321307" xlink:href="#C0_0_19d542a5f7" y="243.286717"/>
    </g>
    <g clip-path="url(#pd4503d65ca)">
     <use style="fill:#ff7f0e;stroke:#ffffff;stroke-width:0.48;" x="208.003125" xlink:href="#C0_0_19d542a5f7" y="243.262495"/>
    </g>
    <g clip-path="url(#pd4503d65ca)">
     <use style="fill:#ff7f0e;stroke:#ffffff;stroke-width:0.48;" x="220.684943" xlink:href="#C0_0_19d542a5f7" y="243.213302"/>
    </g>
    <g clip-path="url(#pd4503d65ca)">
     <use style="fill:#ff7f0e;stroke:#ffffff;stroke-width:0.48;" x="233.366761" xlink:href="#C0_0_19d542a5f7" y="243.11736"/>
    </g>
    <g clip-path="url(#pd4503d65ca)">
     <use style="fill:#ff7f0e;stroke:#ffffff;stroke-width:0.48;" x="246.04858" xlink:href="#C0_0_19d542a5f7" y="242.924169"/>
    </g>
    <g clip-path="url(#pd4503d65ca)">
     <use style="fill:#ff7f0e;stroke:#ffffff;stroke-width:0.48;" x="258.730398" xlink:href="#C0_0_19d542a5f7" y="242.538958"/>
    </g>
    <g clip-path="url(#pd4503d65ca)">
     <use style="fill:#ff7f0e;stroke:#ffffff;stroke-width:0.48;" x="271.412216" xlink:href="#C0_0_19d542a5f7" y="241.773064"/>
    </g>
    <g clip-path="url(#pd4503d65ca)">
     <use style="fill:#ff7f0e;stroke:#ffffff;stroke-width:0.48;" x="284.094034" xlink:href="#C0_0_19d542a5f7" y="240.218955"/>
    </g>
    <g clip-path="url(#pd4503d65ca)">
     <use style="fill:#ff7f0e;stroke:#ffffff;stroke-width:0.48;" x="296.775852" xlink:href="#C0_0_19d542a5f7" y="237.149319"/>
    </g>
    <g clip-path="url(#pd4503d65ca)">
     <use style="fill:#ff7f0e;stroke:#ffffff;stroke-width:0.48;" x="309.45767" xlink:href="#C0_0_19d542a5f7" y="230.890913"/>
    </g>
    <g clip-path="url(#pd4503d65ca)">
     <use style="fill:#ff7f0e;stroke:#ffffff;stroke-width:0.48;" x="322.139489" xlink:href="#C0_0_19d542a5f7" y="218.581613"/>
    </g>
    <g clip-path="url(#pd4503d65ca)">
     <use style="fill:#ff7f0e;stroke:#ffffff;stroke-width:0.48;" x="334.821307" xlink:href="#C0_0_19d542a5f7" y="193.91405"/>
    </g>
    <g clip-path="url(#pd4503d65ca)">
     <use style="fill:#ff7f0e;stroke:#ffffff;stroke-width:0.48;" x="347.503125" xlink:href="#C0_0_19d542a5f7" y="144.460827"/>
    </g>
    <g clip-path="url(#pd4503d65ca)">
     <use style="fill:#ff7f0e;stroke:#ffffff;stroke-width:0.48;" x="360.184943" xlink:href="#C0_0_19d542a5f7" y="45.639136"/>
    </g>
    <g clip-path="url(#pd4503d65ca)">
     <use style="fill:#2ca02c;stroke:#ffffff;stroke-width:0.48;" x="55.821307" xlink:href="#C0_0_19d542a5f7" y="243.311769"/>
    </g>
    <g clip-path="url(#pd4503d65ca)">
     <use style="fill:#2ca02c;stroke:#ffffff;stroke-width:0.48;" x="68.503125" xlink:href="#C0_0_19d542a5f7" y="243.311692"/>
    </g>
    <g clip-path="url(#pd4503d65ca)">
     <use style="fill:#2ca02c;stroke:#ffffff;stroke-width:0.48;" x="81.184943" xlink:href="#C0_0_19d542a5f7" y="243.311527"/>
    </g>
    <g clip-path="url(#pd4503d65ca)">
     <use style="fill:#2ca02c;stroke:#ffffff;stroke-width:0.48;" x="93.866761" xlink:href="#C0_0_19d542a5f7" y="243.311391"/>
    </g>
    <g clip-path="url(#pd4503d65ca)">
     <use style="fill:#2ca02c;stroke:#ffffff;stroke-width:0.48;" x="106.54858" xlink:href="#C0_0_19d542a5f7" y="243.311226"/>
    </g>
    <g clip-path="url(#pd4503d65ca)">
     <use style="fill:#2ca02c;stroke:#ffffff;stroke-width:0.48;" x="119.230398" xlink:href="#C0_0_19d542a5f7" y="243.310841"/>
    </g>
    <g clip-path="url(#pd4503d65ca)">
     <use style="fill:#2ca02c;stroke:#ffffff;stroke-width:0.48;" x="131.912216" xlink:href="#C0_0_19d542a5f7" y="243.310428"/>
    </g>
    <g clip-path="url(#pd4503d65ca)">
     <use style="fill:#2ca02c;stroke:#ffffff;stroke-width:0.48;" x="144.594034" xlink:href="#C0_0_19d542a5f7" y="243.309804"/>
    </g>
    <g clip-path="url(#pd4503d65ca)">
     <use style="fill:#2ca02c;stroke:#ffffff;stroke-width:0.48;" x="157.275852" xlink:href="#C0_0_19d542a5f7" y="243.308393"/>
    </g>
    <g clip-path="url(#pd4503d65ca)">
     <use style="fill:#2ca02c;stroke:#ffffff;stroke-width:0.48;" x="169.95767" xlink:href="#C0_0_19d542a5f7" y="243.305672"/>
    </g>
    <g clip-path="url(#pd4503d65ca)">
     <use style="fill:#2ca02c;stroke:#ffffff;stroke-width:0.48;" x="182.639489" xlink:href="#C0_0_19d542a5f7" y="243.299749"/>
    </g>
    <g clip-path="url(#pd4503d65ca)">
     <use style="fill:#2ca02c;stroke:#ffffff;stroke-width:0.48;" x="195.321307" xlink:href="#C0_0_19d542a5f7" y="243.288661"/>
    </g>
    <g clip-path="url(#pd4503d65ca)">
     <use style="fill:#2ca02c;stroke:#ffffff;stroke-width:0.48;" x="208.003125" xlink:href="#C0_0_19d542a5f7" y="243.266498"/>
    </g>
    <g clip-path="url(#pd4503d65ca)">
     <use style="fill:#2ca02c;stroke:#ffffff;stroke-width:0.48;" x="220.684943" xlink:href="#C0_0_19d542a5f7" y="243.222562"/>
    </g>
    <g clip-path="url(#pd4503d65ca)">
     <use style="fill:#2ca02c;stroke:#ffffff;stroke-width:0.48;" x="233.366761" xlink:href="#C0_0_19d542a5f7" y="243.134714"/>
    </g>
    <g clip-path="url(#pd4503d65ca)">
     <use style="fill:#2ca02c;stroke:#ffffff;stroke-width:0.48;" x="246.04858" xlink:href="#C0_0_19d542a5f7" y="242.959427"/>
    </g>
    <g clip-path="url(#pd4503d65ca)">
     <use style="fill:#2ca02c;stroke:#ffffff;stroke-width:0.48;" x="258.730398" xlink:href="#C0_0_19d542a5f7" y="242.608507"/>
    </g>
    <g clip-path="url(#pd4503d65ca)">
     <use style="fill:#2ca02c;stroke:#ffffff;stroke-width:0.48;" x="271.412216" xlink:href="#C0_0_19d542a5f7" y="241.90565"/>
    </g>
    <g clip-path="url(#pd4503d65ca)">
     <use style="fill:#2ca02c;stroke:#ffffff;stroke-width:0.48;" x="284.094034" xlink:href="#C0_0_19d542a5f7" y="240.503916"/>
    </g>
    <g clip-path="url(#pd4503d65ca)">
     <use style="fill:#2ca02c;stroke:#ffffff;stroke-width:0.48;" x="296.775852" xlink:href="#C0_0_19d542a5f7" y="237.696309"/>
    </g>
    <g clip-path="url(#pd4503d65ca)">
     <use style="fill:#2ca02c;stroke:#ffffff;stroke-width:0.48;" x="309.45767" xlink:href="#C0_0_19d542a5f7" y="232.061033"/>
    </g>
    <g clip-path="url(#pd4503d65ca)">
     <use style="fill:#2ca02c;stroke:#ffffff;stroke-width:0.48;" x="322.139489" xlink:href="#C0_0_19d542a5f7" y="220.812615"/>
    </g>
    <g clip-path="url(#pd4503d65ca)">
     <use style="fill:#2ca02c;stroke:#ffffff;stroke-width:0.48;" x="334.821307" xlink:href="#C0_0_19d542a5f7" y="198.265662"/>
    </g>
    <g clip-path="url(#pd4503d65ca)">
     <use style="fill:#2ca02c;stroke:#ffffff;stroke-width:0.48;" x="347.503125" xlink:href="#C0_0_19d542a5f7" y="152.134724"/>
    </g>
    <g clip-path="url(#pd4503d65ca)">
     <use style="fill:#2ca02c;stroke:#ffffff;stroke-width:0.48;" x="360.184943" xlink:href="#C0_0_19d542a5f7" y="61.049971"/>
    </g>
   </g>
   <g id="PathCollection_2"/>
   <g id="PathCollection_3"/>
   <g id="PathCollection_4"/>
   <g id="matplotlib.axis_1">
    <g id="xtick_1">
     <g id="line2d_1">
      <defs>
       <path d="M 0 0 
L 0 3.5 
" id="mca05c4a743" style="stroke:#000000;stroke-width:0.8;"/>
      </defs>
      <g>
       <use style="stroke:#000000;stroke-width:0.8;" x="43.139489" xlink:href="#mca05c4a743" y="253.1955"/>
      </g>
     </g>
     <g id="text_1">
      <!-- 0 -->
      <g transform="translate(39.958239 267.793937)scale(0.1 -0.1)">
       <defs>
        <path d="M 2034 4250 
Q 1547 4250 1301 3770 
Q 1056 3291 1056 2328 
Q 1056 1369 1301 889 
Q 1547 409 2034 409 
Q 2525 409 2770 889 
Q 3016 1369 3016 2328 
Q 3016 3291 2770 3770 
Q 2525 4250 2034 4250 
z
M 2034 4750 
Q 2819 4750 3233 4129 
Q 3647 3509 3647 2328 
Q 3647 1150 3233 529 
Q 2819 -91 2034 -91 
Q 1250 -91 836 529 
Q 422 1150 422 2328 
Q 422 3509 836 4129 
Q 1250 4750 2034 4750 
z
" id="DejaVuSans-30" transform="scale(0.015625)"/>
       </defs>
       <use xlink:href="#DejaVuSans-30"/>
      </g>
     </g>
    </g>
    <g id="xtick_2">
     <g id="line2d_2">
      <g>
       <use style="stroke:#000000;stroke-width:0.8;" x="106.54858" xlink:href="#mca05c4a743" y="253.1955"/>
      </g>
     </g>
     <g id="text_2">
      <!-- 5 -->
      <g transform="translate(103.36733 267.793937)scale(0.1 -0.1)">
       <defs>
        <path d="M 691 4666 
L 3169 4666 
L 3169 4134 
L 1269 4134 
L 1269 2991 
Q 1406 3038 1543 3061 
Q 1681 3084 1819 3084 
Q 2600 3084 3056 2656 
Q 3513 2228 3513 1497 
Q 3513 744 3044 326 
Q 2575 -91 1722 -91 
Q 1428 -91 1123 -41 
Q 819 9 494 109 
L 494 744 
Q 775 591 1075 516 
Q 1375 441 1709 441 
Q 2250 441 2565 725 
Q 2881 1009 2881 1497 
Q 2881 1984 2565 2268 
Q 2250 2553 1709 2553 
Q 1456 2553 1204 2497 
Q 953 2441 691 2322 
L 691 4666 
z
" id="DejaVuSans-35" transform="scale(0.015625)"/>
       </defs>
       <use xlink:href="#DejaVuSans-35"/>
      </g>
     </g>
    </g>
    <g id="xtick_3">
     <g id="line2d_3">
      <g>
       <use style="stroke:#000000;stroke-width:0.8;" x="169.95767" xlink:href="#mca05c4a743" y="253.1955"/>
      </g>
     </g>
     <g id="text_3">
      <!-- 10 -->
      <g transform="translate(163.59517 267.793937)scale(0.1 -0.1)">
       <defs>
        <path d="M 794 531 
L 1825 531 
L 1825 4091 
L 703 3866 
L 703 4441 
L 1819 4666 
L 2450 4666 
L 2450 531 
L 3481 531 
L 3481 0 
L 794 0 
L 794 531 
z
" id="DejaVuSans-31" transform="scale(0.015625)"/>
       </defs>
       <use xlink:href="#DejaVuSans-31"/>
       <use x="63.623047" xlink:href="#DejaVuSans-30"/>
      </g>
     </g>
    </g>
    <g id="xtick_4">
     <g id="line2d_4">
      <g>
       <use style="stroke:#000000;stroke-width:0.8;" x="233.366761" xlink:href="#mca05c4a743" y="253.1955"/>
      </g>
     </g>
     <g id="text_4">
      <!-- 15 -->
      <g transform="translate(227.004261 267.793937)scale(0.1 -0.1)">
       <use xlink:href="#DejaVuSans-31"/>
       <use x="63.623047" xlink:href="#DejaVuSans-35"/>
      </g>
     </g>
    </g>
    <g id="xtick_5">
     <g id="line2d_5">
      <g>
       <use style="stroke:#000000;stroke-width:0.8;" x="296.775852" xlink:href="#mca05c4a743" y="253.1955"/>
      </g>
     </g>
     <g id="text_5">
      <!-- 20 -->
      <g transform="translate(290.413352 267.793937)scale(0.1 -0.1)">
       <defs>
        <path d="M 1228 531 
L 3431 531 
L 3431 0 
L 469 0 
L 469 531 
Q 828 903 1448 1529 
Q 2069 2156 2228 2338 
Q 2531 2678 2651 2914 
Q 2772 3150 2772 3378 
Q 2772 3750 2511 3984 
Q 2250 4219 1831 4219 
Q 1534 4219 1204 4116 
Q 875 4013 500 3803 
L 500 4441 
Q 881 4594 1212 4672 
Q 1544 4750 1819 4750 
Q 2544 4750 2975 4387 
Q 3406 4025 3406 3419 
Q 3406 3131 3298 2873 
Q 3191 2616 2906 2266 
Q 2828 2175 2409 1742 
Q 1991 1309 1228 531 
z
" id="DejaVuSans-32" transform="scale(0.015625)"/>
       </defs>
       <use xlink:href="#DejaVuSans-32"/>
       <use x="63.623047" xlink:href="#DejaVuSans-30"/>
      </g>
     </g>
    </g>
    <g id="xtick_6">
     <g id="line2d_6">
      <g>
       <use style="stroke:#000000;stroke-width:0.8;" x="360.184943" xlink:href="#mca05c4a743" y="253.1955"/>
      </g>
     </g>
     <g id="text_6">
      <!-- 25 -->
      <g transform="translate(353.822443 267.793937)scale(0.1 -0.1)">
       <use xlink:href="#DejaVuSans-32"/>
       <use x="63.623047" xlink:href="#DejaVuSans-35"/>
      </g>
     </g>
    </g>
    <g id="text_7">
     <!-- n -->
     <g transform="translate(204.834375 281.472062)scale(0.1 -0.1)">
      <defs>
       <path d="M 3513 2113 
L 3513 0 
L 2938 0 
L 2938 2094 
Q 2938 2591 2744 2837 
Q 2550 3084 2163 3084 
Q 1697 3084 1428 2787 
Q 1159 2491 1159 1978 
L 1159 0 
L 581 0 
L 581 3500 
L 1159 3500 
L 1159 2956 
Q 1366 3272 1645 3428 
Q 1925 3584 2291 3584 
Q 2894 3584 3203 3211 
Q 3513 2838 3513 2113 
z
" id="DejaVuSans-6e" transform="scale(0.015625)"/>
      </defs>
      <use xlink:href="#DejaVuSans-6e"/>
     </g>
    </g>
   </g>
   <g id="matplotlib.axis_2">
    <g id="ytick_1">
     <g id="line2d_7">
      <defs>
       <path d="M 0 0 
L -3.5 0 
" id="m246360b0f6" style="stroke:#000000;stroke-width:0.8;"/>
      </defs>
      <g>
       <use style="stroke:#000000;stroke-width:0.8;" x="40.603125" xlink:href="#m246360b0f6" y="243.314389"/>
      </g>
     </g>
     <g id="text_8">
      <!-- 0 -->
      <g transform="translate(27.240625 247.113608)scale(0.1 -0.1)">
       <use xlink:href="#DejaVuSans-30"/>
      </g>
     </g>
    </g>
    <g id="ytick_2">
     <g id="line2d_8">
      <g>
       <use style="stroke:#000000;stroke-width:0.8;" x="40.603125" xlink:href="#m246360b0f6" y="208.291356"/>
      </g>
     </g>
     <g id="text_9">
      <!-- 10 -->
      <g transform="translate(20.878125 212.090574)scale(0.1 -0.1)">
       <use xlink:href="#DejaVuSans-31"/>
       <use x="63.623047" xlink:href="#DejaVuSans-30"/>
      </g>
     </g>
    </g>
    <g id="ytick_3">
     <g id="line2d_9">
      <g>
       <use style="stroke:#000000;stroke-width:0.8;" x="40.603125" xlink:href="#m246360b0f6" y="173.268323"/>
      </g>
     </g>
     <g id="text_10">
      <!-- 20 -->
      <g transform="translate(20.878125 177.067541)scale(0.1 -0.1)">
       <use xlink:href="#DejaVuSans-32"/>
       <use x="63.623047" xlink:href="#DejaVuSans-30"/>
      </g>
     </g>
    </g>
    <g id="ytick_4">
     <g id="line2d_10">
      <g>
       <use style="stroke:#000000;stroke-width:0.8;" x="40.603125" xlink:href="#m246360b0f6" y="138.245289"/>
      </g>
     </g>
     <g id="text_11">
      <!-- 30 -->
      <g transform="translate(20.878125 142.044508)scale(0.1 -0.1)">
       <defs>
        <path d="M 2597 2516 
Q 3050 2419 3304 2112 
Q 3559 1806 3559 1356 
Q 3559 666 3084 287 
Q 2609 -91 1734 -91 
Q 1441 -91 1130 -33 
Q 819 25 488 141 
L 488 750 
Q 750 597 1062 519 
Q 1375 441 1716 441 
Q 2309 441 2620 675 
Q 2931 909 2931 1356 
Q 2931 1769 2642 2001 
Q 2353 2234 1838 2234 
L 1294 2234 
L 1294 2753 
L 1863 2753 
Q 2328 2753 2575 2939 
Q 2822 3125 2822 3475 
Q 2822 3834 2567 4026 
Q 2313 4219 1838 4219 
Q 1578 4219 1281 4162 
Q 984 4106 628 3988 
L 628 4550 
Q 988 4650 1302 4700 
Q 1616 4750 1894 4750 
Q 2613 4750 3031 4423 
Q 3450 4097 3450 3541 
Q 3450 3153 3228 2886 
Q 3006 2619 2597 2516 
z
" id="DejaVuSans-33" transform="scale(0.015625)"/>
       </defs>
       <use xlink:href="#DejaVuSans-33"/>
       <use x="63.623047" xlink:href="#DejaVuSans-30"/>
      </g>
     </g>
    </g>
    <g id="ytick_5">
     <g id="line2d_11">
      <g>
       <use style="stroke:#000000;stroke-width:0.8;" x="40.603125" xlink:href="#m246360b0f6" y="103.222256"/>
      </g>
     </g>
     <g id="text_12">
      <!-- 40 -->
      <g transform="translate(20.878125 107.021475)scale(0.1 -0.1)">
       <defs>
        <path d="M 2419 4116 
L 825 1625 
L 2419 1625 
L 2419 4116 
z
M 2253 4666 
L 3047 4666 
L 3047 1625 
L 3713 1625 
L 3713 1100 
L 3047 1100 
L 3047 0 
L 2419 0 
L 2419 1100 
L 313 1100 
L 313 1709 
L 2253 4666 
z
" id="DejaVuSans-34" transform="scale(0.015625)"/>
       </defs>
       <use xlink:href="#DejaVuSans-34"/>
       <use x="63.623047" xlink:href="#DejaVuSans-30"/>
      </g>
     </g>
    </g>
    <g id="ytick_6">
     <g id="line2d_12">
      <g>
       <use style="stroke:#000000;stroke-width:0.8;" x="40.603125" xlink:href="#m246360b0f6" y="68.199223"/>
      </g>
     </g>
     <g id="text_13">
      <!-- 50 -->
      <g transform="translate(20.878125 71.998442)scale(0.1 -0.1)">
       <use xlink:href="#DejaVuSans-35"/>
       <use x="63.623047" xlink:href="#DejaVuSans-30"/>
      </g>
     </g>
    </g>
    <g id="text_14">
     <!-- tiempo (ms) -->
     <g transform="translate(14.798438 174.970812)rotate(-90)scale(0.1 -0.1)">
      <defs>
       <path d="M 1172 4494 
L 1172 3500 
L 2356 3500 
L 2356 3053 
L 1172 3053 
L 1172 1153 
Q 1172 725 1289 603 
Q 1406 481 1766 481 
L 2356 481 
L 2356 0 
L 1766 0 
Q 1100 0 847 248 
Q 594 497 594 1153 
L 594 3053 
L 172 3053 
L 172 3500 
L 594 3500 
L 594 4494 
L 1172 4494 
z
" id="DejaVuSans-74" transform="scale(0.015625)"/>
       <path d="M 603 3500 
L 1178 3500 
L 1178 0 
L 603 0 
L 603 3500 
z
M 603 4863 
L 1178 4863 
L 1178 4134 
L 603 4134 
L 603 4863 
z
" id="DejaVuSans-69" transform="scale(0.015625)"/>
       <path d="M 3597 1894 
L 3597 1613 
L 953 1613 
Q 991 1019 1311 708 
Q 1631 397 2203 397 
Q 2534 397 2845 478 
Q 3156 559 3463 722 
L 3463 178 
Q 3153 47 2828 -22 
Q 2503 -91 2169 -91 
Q 1331 -91 842 396 
Q 353 884 353 1716 
Q 353 2575 817 3079 
Q 1281 3584 2069 3584 
Q 2775 3584 3186 3129 
Q 3597 2675 3597 1894 
z
M 3022 2063 
Q 3016 2534 2758 2815 
Q 2500 3097 2075 3097 
Q 1594 3097 1305 2825 
Q 1016 2553 972 2059 
L 3022 2063 
z
" id="DejaVuSans-65" transform="scale(0.015625)"/>
       <path d="M 3328 2828 
Q 3544 3216 3844 3400 
Q 4144 3584 4550 3584 
Q 5097 3584 5394 3201 
Q 5691 2819 5691 2113 
L 5691 0 
L 5113 0 
L 5113 2094 
Q 5113 2597 4934 2840 
Q 4756 3084 4391 3084 
Q 3944 3084 3684 2787 
Q 3425 2491 3425 1978 
L 3425 0 
L 2847 0 
L 2847 2094 
Q 2847 2600 2669 2842 
Q 2491 3084 2119 3084 
Q 1678 3084 1418 2786 
Q 1159 2488 1159 1978 
L 1159 0 
L 581 0 
L 581 3500 
L 1159 3500 
L 1159 2956 
Q 1356 3278 1631 3431 
Q 1906 3584 2284 3584 
Q 2666 3584 2933 3390 
Q 3200 3197 3328 2828 
z
" id="DejaVuSans-6d" transform="scale(0.015625)"/>
       <path d="M 1159 525 
L 1159 -1331 
L 581 -1331 
L 581 3500 
L 1159 3500 
L 1159 2969 
Q 1341 3281 1617 3432 
Q 1894 3584 2278 3584 
Q 2916 3584 3314 3078 
Q 3713 2572 3713 1747 
Q 3713 922 3314 415 
Q 2916 -91 2278 -91 
Q 1894 -91 1617 61 
Q 1341 213 1159 525 
z
M 3116 1747 
Q 3116 2381 2855 2742 
Q 2594 3103 2138 3103 
Q 1681 3103 1420 2742 
Q 1159 2381 1159 1747 
Q 1159 1113 1420 752 
Q 1681 391 2138 391 
Q 2594 391 2855 752 
Q 3116 1113 3116 1747 
z
" id="DejaVuSans-70" transform="scale(0.015625)"/>
       <path d="M 1959 3097 
Q 1497 3097 1228 2736 
Q 959 2375 959 1747 
Q 959 1119 1226 758 
Q 1494 397 1959 397 
Q 2419 397 2687 759 
Q 2956 1122 2956 1747 
Q 2956 2369 2687 2733 
Q 2419 3097 1959 3097 
z
M 1959 3584 
Q 2709 3584 3137 3096 
Q 3566 2609 3566 1747 
Q 3566 888 3137 398 
Q 2709 -91 1959 -91 
Q 1206 -91 779 398 
Q 353 888 353 1747 
Q 353 2609 779 3096 
Q 1206 3584 1959 3584 
z
" id="DejaVuSans-6f" transform="scale(0.015625)"/>
       <path id="DejaVuSans-20" transform="scale(0.015625)"/>
       <path d="M 1984 4856 
Q 1566 4138 1362 3434 
Q 1159 2731 1159 2009 
Q 1159 1288 1364 580 
Q 1569 -128 1984 -844 
L 1484 -844 
Q 1016 -109 783 600 
Q 550 1309 550 2009 
Q 550 2706 781 3412 
Q 1013 4119 1484 4856 
L 1984 4856 
z
" id="DejaVuSans-28" transform="scale(0.015625)"/>
       <path d="M 2834 3397 
L 2834 2853 
Q 2591 2978 2328 3040 
Q 2066 3103 1784 3103 
Q 1356 3103 1142 2972 
Q 928 2841 928 2578 
Q 928 2378 1081 2264 
Q 1234 2150 1697 2047 
L 1894 2003 
Q 2506 1872 2764 1633 
Q 3022 1394 3022 966 
Q 3022 478 2636 193 
Q 2250 -91 1575 -91 
Q 1294 -91 989 -36 
Q 684 19 347 128 
L 347 722 
Q 666 556 975 473 
Q 1284 391 1588 391 
Q 1994 391 2212 530 
Q 2431 669 2431 922 
Q 2431 1156 2273 1281 
Q 2116 1406 1581 1522 
L 1381 1569 
Q 847 1681 609 1914 
Q 372 2147 372 2553 
Q 372 3047 722 3315 
Q 1072 3584 1716 3584 
Q 2034 3584 2315 3537 
Q 2597 3491 2834 3397 
z
" id="DejaVuSans-73" transform="scale(0.015625)"/>
       <path d="M 513 4856 
L 1013 4856 
Q 1481 4119 1714 3412 
Q 1947 2706 1947 2009 
Q 1947 1309 1714 600 
Q 1481 -109 1013 -844 
L 513 -844 
Q 928 -128 1133 580 
Q 1338 1288 1338 2009 
Q 1338 2731 1133 3434 
Q 928 4138 513 4856 
z
" id="DejaVuSans-29" transform="scale(0.015625)"/>
      </defs>
      <use xlink:href="#DejaVuSans-74"/>
      <use x="39.208984" xlink:href="#DejaVuSans-69"/>
      <use x="66.992188" xlink:href="#DejaVuSans-65"/>
      <use x="128.515625" xlink:href="#DejaVuSans-6d"/>
      <use x="225.927734" xlink:href="#DejaVuSans-70"/>
      <use x="289.404297" xlink:href="#DejaVuSans-6f"/>
      <use x="350.585938" xlink:href="#DejaVuSans-20"/>
      <use x="382.373047" xlink:href="#DejaVuSans-28"/>
      <use x="421.386719" xlink:href="#DejaVuSans-6d"/>
      <use x="518.798828" xlink:href="#DejaVuSans-73"/>
      <use x="570.898438" xlink:href="#DejaVuSans-29"/>
     </g>
    </g>
   </g>
   <g id="patch_3">
    <path d="M 40.603125 253.1955 
L 40.603125 35.7555 
" style="fill:none;stroke:#000000;stroke-linecap:square;stroke-linejoin:miter;stroke-width:0.8;"/>
   </g>
   <g id="patch_4">
    <path d="M 375.403125 253.1955 
L 375.403125 35.7555 
" style="fill:none;stroke:#000000;stroke-linecap:square;stroke-linejoin:miter;stroke-width:0.8;"/>
   </g>
   <g id="patch_5">
    <path d="M 40.603125 253.1955 
L 375.403125 253.1955 
" style="fill:none;stroke:#000000;stroke-linecap:square;stroke-linejoin:miter;stroke-width:0.8;"/>
   </g>
   <g id="patch_6">
    <path d="M 40.603125 35.7555 
L 375.403125 35.7555 
" style="fill:none;stroke:#000000;stroke-linecap:square;stroke-linejoin:miter;stroke-width:0.8;"/>
   </g>
   <g id="text_15">
    <!-- Diferentes datasets para Fuerza Bruta -->
    <g transform="translate(93.526875 16.318125)scale(0.12 -0.12)">
     <defs>
      <path d="M 1259 4147 
L 1259 519 
L 2022 519 
Q 2988 519 3436 956 
Q 3884 1394 3884 2338 
Q 3884 3275 3436 3711 
Q 2988 4147 2022 4147 
L 1259 4147 
z
M 628 4666 
L 1925 4666 
Q 3281 4666 3915 4102 
Q 4550 3538 4550 2338 
Q 4550 1131 3912 565 
Q 3275 0 1925 0 
L 628 0 
L 628 4666 
z
" id="DejaVuSans-44" transform="scale(0.015625)"/>
      <path d="M 2375 4863 
L 2375 4384 
L 1825 4384 
Q 1516 4384 1395 4259 
Q 1275 4134 1275 3809 
L 1275 3500 
L 2222 3500 
L 2222 3053 
L 1275 3053 
L 1275 0 
L 697 0 
L 697 3053 
L 147 3053 
L 147 3500 
L 697 3500 
L 697 3744 
Q 697 4328 969 4595 
Q 1241 4863 1831 4863 
L 2375 4863 
z
" id="DejaVuSans-66" transform="scale(0.015625)"/>
      <path d="M 2631 2963 
Q 2534 3019 2420 3045 
Q 2306 3072 2169 3072 
Q 1681 3072 1420 2755 
Q 1159 2438 1159 1844 
L 1159 0 
L 581 0 
L 581 3500 
L 1159 3500 
L 1159 2956 
Q 1341 3275 1631 3429 
Q 1922 3584 2338 3584 
Q 2397 3584 2469 3576 
Q 2541 3569 2628 3553 
L 2631 2963 
z
" id="DejaVuSans-72" transform="scale(0.015625)"/>
      <path d="M 2906 2969 
L 2906 4863 
L 3481 4863 
L 3481 0 
L 2906 0 
L 2906 525 
Q 2725 213 2448 61 
Q 2172 -91 1784 -91 
Q 1150 -91 751 415 
Q 353 922 353 1747 
Q 353 2572 751 3078 
Q 1150 3584 1784 3584 
Q 2172 3584 2448 3432 
Q 2725 3281 2906 2969 
z
M 947 1747 
Q 947 1113 1208 752 
Q 1469 391 1925 391 
Q 2381 391 2643 752 
Q 2906 1113 2906 1747 
Q 2906 2381 2643 2742 
Q 2381 3103 1925 3103 
Q 1469 3103 1208 2742 
Q 947 2381 947 1747 
z
" id="DejaVuSans-64" transform="scale(0.015625)"/>
      <path d="M 2194 1759 
Q 1497 1759 1228 1600 
Q 959 1441 959 1056 
Q 959 750 1161 570 
Q 1363 391 1709 391 
Q 2188 391 2477 730 
Q 2766 1069 2766 1631 
L 2766 1759 
L 2194 1759 
z
M 3341 1997 
L 3341 0 
L 2766 0 
L 2766 531 
Q 2569 213 2275 61 
Q 1981 -91 1556 -91 
Q 1019 -91 701 211 
Q 384 513 384 1019 
Q 384 1609 779 1909 
Q 1175 2209 1959 2209 
L 2766 2209 
L 2766 2266 
Q 2766 2663 2505 2880 
Q 2244 3097 1772 3097 
Q 1472 3097 1187 3025 
Q 903 2953 641 2809 
L 641 3341 
Q 956 3463 1253 3523 
Q 1550 3584 1831 3584 
Q 2591 3584 2966 3190 
Q 3341 2797 3341 1997 
z
" id="DejaVuSans-61" transform="scale(0.015625)"/>
      <path d="M 628 4666 
L 3309 4666 
L 3309 4134 
L 1259 4134 
L 1259 2759 
L 3109 2759 
L 3109 2228 
L 1259 2228 
L 1259 0 
L 628 0 
L 628 4666 
z
" id="DejaVuSans-46" transform="scale(0.015625)"/>
      <path d="M 544 1381 
L 544 3500 
L 1119 3500 
L 1119 1403 
Q 1119 906 1312 657 
Q 1506 409 1894 409 
Q 2359 409 2629 706 
Q 2900 1003 2900 1516 
L 2900 3500 
L 3475 3500 
L 3475 0 
L 2900 0 
L 2900 538 
Q 2691 219 2414 64 
Q 2138 -91 1772 -91 
Q 1169 -91 856 284 
Q 544 659 544 1381 
z
M 1991 3584 
L 1991 3584 
z
" id="DejaVuSans-75" transform="scale(0.015625)"/>
      <path d="M 353 3500 
L 3084 3500 
L 3084 2975 
L 922 459 
L 3084 459 
L 3084 0 
L 275 0 
L 275 525 
L 2438 3041 
L 353 3041 
L 353 3500 
z
" id="DejaVuSans-7a" transform="scale(0.015625)"/>
      <path d="M 1259 2228 
L 1259 519 
L 2272 519 
Q 2781 519 3026 730 
Q 3272 941 3272 1375 
Q 3272 1813 3026 2020 
Q 2781 2228 2272 2228 
L 1259 2228 
z
M 1259 4147 
L 1259 2741 
L 2194 2741 
Q 2656 2741 2882 2914 
Q 3109 3088 3109 3444 
Q 3109 3797 2882 3972 
Q 2656 4147 2194 4147 
L 1259 4147 
z
M 628 4666 
L 2241 4666 
Q 2963 4666 3353 4366 
Q 3744 4066 3744 3513 
Q 3744 3084 3544 2831 
Q 3344 2578 2956 2516 
Q 3422 2416 3680 2098 
Q 3938 1781 3938 1306 
Q 3938 681 3513 340 
Q 3088 0 2303 0 
L 628 0 
L 628 4666 
z
" id="DejaVuSans-42" transform="scale(0.015625)"/>
     </defs>
     <use xlink:href="#DejaVuSans-44"/>
     <use x="77.001953" xlink:href="#DejaVuSans-69"/>
     <use x="104.785156" xlink:href="#DejaVuSans-66"/>
     <use x="139.990234" xlink:href="#DejaVuSans-65"/>
     <use x="201.513672" xlink:href="#DejaVuSans-72"/>
     <use x="240.376953" xlink:href="#DejaVuSans-65"/>
     <use x="301.900391" xlink:href="#DejaVuSans-6e"/>
     <use x="365.279297" xlink:href="#DejaVuSans-74"/>
     <use x="404.488281" xlink:href="#DejaVuSans-65"/>
     <use x="466.011719" xlink:href="#DejaVuSans-73"/>
     <use x="518.111328" xlink:href="#DejaVuSans-20"/>
     <use x="549.898438" xlink:href="#DejaVuSans-64"/>
     <use x="613.375" xlink:href="#DejaVuSans-61"/>
     <use x="674.654297" xlink:href="#DejaVuSans-74"/>
     <use x="713.863281" xlink:href="#DejaVuSans-61"/>
     <use x="775.142578" xlink:href="#DejaVuSans-73"/>
     <use x="827.242188" xlink:href="#DejaVuSans-65"/>
     <use x="888.765625" xlink:href="#DejaVuSans-74"/>
     <use x="927.974609" xlink:href="#DejaVuSans-73"/>
     <use x="980.074219" xlink:href="#DejaVuSans-20"/>
     <use x="1011.861328" xlink:href="#DejaVuSans-70"/>
     <use x="1075.337891" xlink:href="#DejaVuSans-61"/>
     <use x="1136.617188" xlink:href="#DejaVuSans-72"/>
     <use x="1177.730469" xlink:href="#DejaVuSans-61"/>
     <use x="1239.009766" xlink:href="#DejaVuSans-20"/>
     <use x="1270.796875" xlink:href="#DejaVuSans-46"/>
     <use x="1322.816406" xlink:href="#DejaVuSans-75"/>
     <use x="1386.195312" xlink:href="#DejaVuSans-65"/>
     <use x="1447.71875" xlink:href="#DejaVuSans-72"/>
     <use x="1488.832031" xlink:href="#DejaVuSans-7a"/>
     <use x="1541.322266" xlink:href="#DejaVuSans-61"/>
     <use x="1602.601562" xlink:href="#DejaVuSans-20"/>
     <use x="1634.388672" xlink:href="#DejaVuSans-42"/>
     <use x="1702.992188" xlink:href="#DejaVuSans-72"/>
     <use x="1744.105469" xlink:href="#DejaVuSans-75"/>
     <use x="1807.484375" xlink:href="#DejaVuSans-74"/>
     <use x="1846.693359" xlink:href="#DejaVuSans-61"/>
    </g>
    <!--  -->
    <g transform="translate(208.003125 29.7555)scale(0.12 -0.12)"/>
   </g>
   <g id="legend_1">
    <g id="patch_7">
     <path d="M 47.603125 102.468 
L 171.654687 102.468 
Q 173.654687 102.468 173.654687 100.468 
L 173.654687 42.7555 
Q 173.654687 40.7555 171.654687 40.7555 
L 47.603125 40.7555 
Q 45.603125 40.7555 45.603125 42.7555 
L 45.603125 100.468 
Q 45.603125 102.468 47.603125 102.468 
z
" style="fill:#ffffff;opacity:0.8;stroke:#cccccc;stroke-linejoin:miter;"/>
    </g>
    <g id="text_16">
     <!-- dataset -->
     <g transform="translate(90.725 52.353937)scale(0.1 -0.1)">
      <use xlink:href="#DejaVuSans-64"/>
      <use x="63.476562" xlink:href="#DejaVuSans-61"/>
      <use x="124.755859" xlink:href="#DejaVuSans-74"/>
      <use x="163.964844" xlink:href="#DejaVuSans-61"/>
      <use x="225.244141" xlink:href="#DejaVuSans-73"/>
      <use x="277.34375" xlink:href="#DejaVuSans-65"/>
      <use x="338.867188" xlink:href="#DejaVuSans-74"/>
     </g>
    </g>
    <g id="PathCollection_5">
     <defs>
      <path d="M 0 3 
C 0.795609 3 1.55874 2.683901 2.12132 2.12132 
C 2.683901 1.55874 3 0.795609 3 0 
C 3 -0.795609 2.683901 -1.55874 2.12132 -2.12132 
C 1.55874 -2.683901 0.795609 -3 0 -3 
C -0.795609 -3 -1.55874 -2.683901 -2.12132 -2.12132 
C -2.683901 -1.55874 -3 -0.795609 -3 0 
C -3 0.795609 -2.683901 1.55874 -2.12132 2.12132 
C -1.55874 2.683901 -0.795609 3 0 3 
z
" id="m73d25b74ed" style="stroke:#1f77b4;"/>
     </defs>
     <g>
      <use style="fill:#1f77b4;stroke:#1f77b4;" x="59.603125" xlink:href="#m73d25b74ed" y="64.407062"/>
     </g>
    </g>
    <g id="text_17">
     <!-- peor-caso-BT -->
     <g transform="translate(77.603125 67.032062)scale(0.1 -0.1)">
      <defs>
       <path d="M 313 2009 
L 1997 2009 
L 1997 1497 
L 313 1497 
L 313 2009 
z
" id="DejaVuSans-2d" transform="scale(0.015625)"/>
       <path d="M 3122 3366 
L 3122 2828 
Q 2878 2963 2633 3030 
Q 2388 3097 2138 3097 
Q 1578 3097 1268 2742 
Q 959 2388 959 1747 
Q 959 1106 1268 751 
Q 1578 397 2138 397 
Q 2388 397 2633 464 
Q 2878 531 3122 666 
L 3122 134 
Q 2881 22 2623 -34 
Q 2366 -91 2075 -91 
Q 1284 -91 818 406 
Q 353 903 353 1747 
Q 353 2603 823 3093 
Q 1294 3584 2113 3584 
Q 2378 3584 2631 3529 
Q 2884 3475 3122 3366 
z
" id="DejaVuSans-63" transform="scale(0.015625)"/>
       <path d="M -19 4666 
L 3928 4666 
L 3928 4134 
L 2272 4134 
L 2272 0 
L 1638 0 
L 1638 4134 
L -19 4134 
L -19 4666 
z
" id="DejaVuSans-54" transform="scale(0.015625)"/>
      </defs>
      <use xlink:href="#DejaVuSans-70"/>
      <use x="63.476562" xlink:href="#DejaVuSans-65"/>
      <use x="125" xlink:href="#DejaVuSans-6f"/>
      <use x="186.181641" xlink:href="#DejaVuSans-72"/>
      <use x="220.919922" xlink:href="#DejaVuSans-2d"/>
      <use x="257.003906" xlink:href="#DejaVuSans-63"/>
      <use x="311.984375" xlink:href="#DejaVuSans-61"/>
      <use x="373.263672" xlink:href="#DejaVuSans-73"/>
      <use x="425.363281" xlink:href="#DejaVuSans-6f"/>
      <use x="488.419922" xlink:href="#DejaVuSans-2d"/>
      <use x="520.878906" xlink:href="#DejaVuSans-42"/>
      <use x="589.482422" xlink:href="#DejaVuSans-54"/>
     </g>
    </g>
    <g id="PathCollection_6">
     <defs>
      <path d="M 0 3 
C 0.795609 3 1.55874 2.683901 2.12132 2.12132 
C 2.683901 1.55874 3 0.795609 3 0 
C 3 -0.795609 2.683901 -1.55874 2.12132 -2.12132 
C 1.55874 -2.683901 0.795609 -3 0 -3 
C -0.795609 -3 -1.55874 -2.683901 -2.12132 -2.12132 
C -2.683901 -1.55874 -3 -0.795609 -3 0 
C -3 0.795609 -2.683901 1.55874 -2.12132 2.12132 
C -1.55874 2.683901 -0.795609 3 0 3 
z
" id="m32bf6db5be" style="stroke:#ff7f0e;"/>
     </defs>
     <g>
      <use style="fill:#ff7f0e;stroke:#ff7f0e;" x="59.603125" xlink:href="#m32bf6db5be" y="79.085187"/>
     </g>
    </g>
    <g id="text_18">
     <!-- entran-muchos-BT -->
     <g transform="translate(77.603125 81.710187)scale(0.1 -0.1)">
      <defs>
       <path d="M 3513 2113 
L 3513 0 
L 2938 0 
L 2938 2094 
Q 2938 2591 2744 2837 
Q 2550 3084 2163 3084 
Q 1697 3084 1428 2787 
Q 1159 2491 1159 1978 
L 1159 0 
L 581 0 
L 581 4863 
L 1159 4863 
L 1159 2956 
Q 1366 3272 1645 3428 
Q 1925 3584 2291 3584 
Q 2894 3584 3203 3211 
Q 3513 2838 3513 2113 
z
" id="DejaVuSans-68" transform="scale(0.015625)"/>
      </defs>
      <use xlink:href="#DejaVuSans-65"/>
      <use x="61.523438" xlink:href="#DejaVuSans-6e"/>
      <use x="124.902344" xlink:href="#DejaVuSans-74"/>
      <use x="164.111328" xlink:href="#DejaVuSans-72"/>
      <use x="205.224609" xlink:href="#DejaVuSans-61"/>
      <use x="266.503906" xlink:href="#DejaVuSans-6e"/>
      <use x="329.882812" xlink:href="#DejaVuSans-2d"/>
      <use x="365.966797" xlink:href="#DejaVuSans-6d"/>
      <use x="463.378906" xlink:href="#DejaVuSans-75"/>
      <use x="526.757812" xlink:href="#DejaVuSans-63"/>
      <use x="581.738281" xlink:href="#DejaVuSans-68"/>
      <use x="645.117188" xlink:href="#DejaVuSans-6f"/>
      <use x="706.298828" xlink:href="#DejaVuSans-73"/>
      <use x="758.398438" xlink:href="#DejaVuSans-2d"/>
      <use x="790.857422" xlink:href="#DejaVuSans-42"/>
      <use x="859.460938" xlink:href="#DejaVuSans-54"/>
     </g>
    </g>
    <g id="PathCollection_7">
     <defs>
      <path d="M 0 3 
C 0.795609 3 1.55874 2.683901 2.12132 2.12132 
C 2.683901 1.55874 3 0.795609 3 0 
C 3 -0.795609 2.683901 -1.55874 2.12132 -2.12132 
C 1.55874 -2.683901 0.795609 -3 0 -3 
C -0.795609 -3 -1.55874 -2.683901 -2.12132 -2.12132 
C -2.683901 -1.55874 -3 -0.795609 -3 0 
C -3 0.795609 -2.683901 1.55874 -2.12132 2.12132 
C -1.55874 2.683901 -0.795609 3 0 3 
z
" id="m24548d6c9b" style="stroke:#2ca02c;"/>
     </defs>
     <g>
      <use style="fill:#2ca02c;stroke:#2ca02c;" x="59.603125" xlink:href="#m24548d6c9b" y="93.763312"/>
     </g>
    </g>
    <g id="text_19">
     <!-- entran-pocos-BT -->
     <g transform="translate(77.603125 96.388312)scale(0.1 -0.1)">
      <use xlink:href="#DejaVuSans-65"/>
      <use x="61.523438" xlink:href="#DejaVuSans-6e"/>
      <use x="124.902344" xlink:href="#DejaVuSans-74"/>
      <use x="164.111328" xlink:href="#DejaVuSans-72"/>
      <use x="205.224609" xlink:href="#DejaVuSans-61"/>
      <use x="266.503906" xlink:href="#DejaVuSans-6e"/>
      <use x="329.882812" xlink:href="#DejaVuSans-2d"/>
      <use x="365.966797" xlink:href="#DejaVuSans-70"/>
      <use x="429.443359" xlink:href="#DejaVuSans-6f"/>
      <use x="490.625" xlink:href="#DejaVuSans-63"/>
      <use x="545.605469" xlink:href="#DejaVuSans-6f"/>
      <use x="606.787109" xlink:href="#DejaVuSans-73"/>
      <use x="658.886719" xlink:href="#DejaVuSans-2d"/>
      <use x="691.345703" xlink:href="#DejaVuSans-42"/>
      <use x="759.949219" xlink:href="#DejaVuSans-54"/>
     </g>
    </g>
   </g>
  </g>
 </g>
 <defs>
  <clipPath id="pd4503d65ca">
   <rect height="217.44" width="334.8" x="40.603125" y="35.7555"/>
  </clipPath>
 </defs>
</svg>
