<?xml version="1.0" encoding="utf-8" standalone="no"?>
<!DOCTYPE svg PUBLIC "-//W3C//DTD SVG 1.1//EN"
  "http://www.w3.org/Graphics/SVG/1.1/DTD/svg11.dtd">
<!-- Created with matplotlib (https://matplotlib.org/) -->
<svg height="291.23175pt" version="1.1" viewBox="0 0 408.010625 291.23175" width="408.010625pt" xmlns="http://www.w3.org/2000/svg" xmlns:xlink="http://www.w3.org/1999/xlink">
 <metadata>
  <rdf:RDF xmlns:cc="http://creativecommons.org/ns#" xmlns:dc="http://purl.org/dc/elements/1.1/" xmlns:rdf="http://www.w3.org/1999/02/22-rdf-syntax-ns#">
   <cc:Work>
    <dc:type rdf:resource="http://purl.org/dc/dcmitype/StillImage"/>
    <dc:date>2021-04-28T08:12:01.499615</dc:date>
    <dc:format>image/svg+xml</dc:format>
    <dc:creator>
     <cc:Agent>
      <dc:title>Matplotlib v3.3.4, https://matplotlib.org/</dc:title>
     </cc:Agent>
    </dc:creator>
   </cc:Work>
  </rdf:RDF>
 </metadata>
 <defs>
  <style type="text/css">*{stroke-linecap:butt;stroke-linejoin:round;}</style>
 </defs>
 <g id="figure_1">
  <g id="patch_1">
   <path d="M 0 291.23175 
L 408.010625 291.23175 
L 408.010625 0 
L 0 0 
z
" style="fill:none;"/>
  </g>
  <g id="axes_1">
   <g id="patch_2">
    <path d="M 56.50625 253.6755 
L 391.30625 253.6755 
L 391.30625 36.2355 
L 56.50625 36.2355 
z
" style="fill:#ffffff;"/>
   </g>
   <g id="PathCollection_1">
    <defs>
     <path d="M 0 3 
C 0.795609 3 1.55874 2.683901 2.12132 2.12132 
C 2.683901 1.55874 3 0.795609 3 -0 
C 3 -0.795609 2.683901 -1.55874 2.12132 -2.12132 
C 1.55874 -2.683901 0.795609 -3 0 -3 
C -0.795609 -3 -1.55874 -2.683901 -2.12132 -2.12132 
C -2.683901 -1.55874 -3 -0.795609 -3 0 
C -3 0.795609 -2.683901 1.55874 -2.12132 2.12132 
C -1.55874 2.683901 -0.795609 3 0 3 
z
" id="C0_0_a81355a0be"/>
    </defs>
    <g clip-path="url(#p26376e53df)">
     <use style="fill:#1f77b4;stroke:#ffffff;stroke-width:0.48;" x="71.724432" xlink:href="#C0_0_a81355a0be" y="243.741514"/>
    </g>
    <g clip-path="url(#p26376e53df)">
     <use style="fill:#1f77b4;stroke:#ffffff;stroke-width:0.48;" x="74.830183" xlink:href="#C0_0_a81355a0be" y="242.640554"/>
    </g>
    <g clip-path="url(#p26376e53df)">
     <use style="fill:#1f77b4;stroke:#ffffff;stroke-width:0.48;" x="77.935935" xlink:href="#C0_0_a81355a0be" y="240.989113"/>
    </g>
    <g clip-path="url(#p26376e53df)">
     <use style="fill:#1f77b4;stroke:#ffffff;stroke-width:0.48;" x="81.041686" xlink:href="#C0_0_a81355a0be" y="242.145122"/>
    </g>
    <g clip-path="url(#p26376e53df)">
     <use style="fill:#1f77b4;stroke:#ffffff;stroke-width:0.48;" x="84.147437" xlink:href="#C0_0_a81355a0be" y="241.319401"/>
    </g>
    <g clip-path="url(#p26376e53df)">
     <use style="fill:#1f77b4;stroke:#ffffff;stroke-width:0.48;" x="87.253189" xlink:href="#C0_0_a81355a0be" y="242.943318"/>
    </g>
    <g clip-path="url(#p26376e53df)">
     <use style="fill:#1f77b4;stroke:#ffffff;stroke-width:0.48;" x="90.35894" xlink:href="#C0_0_a81355a0be" y="241.64969"/>
    </g>
    <g clip-path="url(#p26376e53df)">
     <use style="fill:#1f77b4;stroke:#ffffff;stroke-width:0.48;" x="93.464692" xlink:href="#C0_0_a81355a0be" y="242.447886"/>
    </g>
    <g clip-path="url(#p26376e53df)">
     <use style="fill:#1f77b4;stroke:#ffffff;stroke-width:0.48;" x="96.570443" xlink:href="#C0_0_a81355a0be" y="241.539594"/>
    </g>
    <g clip-path="url(#p26376e53df)">
     <use style="fill:#1f77b4;stroke:#ffffff;stroke-width:0.48;" x="99.676194" xlink:href="#C0_0_a81355a0be" y="241.401973"/>
    </g>
    <g clip-path="url(#p26376e53df)">
     <use style="fill:#1f77b4;stroke:#ffffff;stroke-width:0.48;" x="102.781946" xlink:href="#C0_0_a81355a0be" y="240.934065"/>
    </g>
    <g clip-path="url(#p26376e53df)">
     <use style="fill:#1f77b4;stroke:#ffffff;stroke-width:0.48;" x="105.887697" xlink:href="#C0_0_a81355a0be" y="239.943201"/>
    </g>
    <g clip-path="url(#p26376e53df)">
     <use style="fill:#1f77b4;stroke:#ffffff;stroke-width:0.48;" x="108.993449" xlink:href="#C0_0_a81355a0be" y="240.934065"/>
    </g>
    <g clip-path="url(#p26376e53df)">
     <use style="fill:#1f77b4;stroke:#ffffff;stroke-width:0.48;" x="112.0992" xlink:href="#C0_0_a81355a0be" y="241.842358"/>
    </g>
    <g clip-path="url(#p26376e53df)">
     <use style="fill:#1f77b4;stroke:#ffffff;stroke-width:0.48;" x="115.204951" xlink:href="#C0_0_a81355a0be" y="242.998366"/>
    </g>
    <g clip-path="url(#p26376e53df)">
     <use style="fill:#1f77b4;stroke:#ffffff;stroke-width:0.48;" x="118.310703" xlink:href="#C0_0_a81355a0be" y="241.181781"/>
    </g>
    <g clip-path="url(#p26376e53df)">
     <use style="fill:#1f77b4;stroke:#ffffff;stroke-width:0.48;" x="121.416454" xlink:href="#C0_0_a81355a0be" y="235.016404"/>
    </g>
    <g clip-path="url(#p26376e53df)">
     <use style="fill:#1f77b4;stroke:#ffffff;stroke-width:0.48;" x="124.522205" xlink:href="#C0_0_a81355a0be" y="241.429497"/>
    </g>
    <g clip-path="url(#p26376e53df)">
     <use style="fill:#1f77b4;stroke:#ffffff;stroke-width:0.48;" x="127.627957" xlink:href="#C0_0_a81355a0be" y="243.16351"/>
    </g>
    <g clip-path="url(#p26376e53df)">
     <use style="fill:#1f77b4;stroke:#ffffff;stroke-width:0.48;" x="130.733708" xlink:href="#C0_0_a81355a0be" y="237.796328"/>
    </g>
    <g clip-path="url(#p26376e53df)">
     <use style="fill:#1f77b4;stroke:#ffffff;stroke-width:0.48;" x="133.83946" xlink:href="#C0_0_a81355a0be" y="241.842358"/>
    </g>
    <g clip-path="url(#p26376e53df)">
     <use style="fill:#1f77b4;stroke:#ffffff;stroke-width:0.48;" x="136.945211" xlink:href="#C0_0_a81355a0be" y="238.291761"/>
    </g>
    <g clip-path="url(#p26376e53df)">
     <use style="fill:#1f77b4;stroke:#ffffff;stroke-width:0.48;" x="140.050962" xlink:href="#C0_0_a81355a0be" y="240.713873"/>
    </g>
    <g clip-path="url(#p26376e53df)">
     <use style="fill:#1f77b4;stroke:#ffffff;stroke-width:0.48;" x="143.156714" xlink:href="#C0_0_a81355a0be" y="240.218441"/>
    </g>
    <g clip-path="url(#p26376e53df)">
     <use style="fill:#1f77b4;stroke:#ffffff;stroke-width:0.48;" x="146.262465" xlink:href="#C0_0_a81355a0be" y="240.961589"/>
    </g>
    <g clip-path="url(#p26376e53df)">
     <use style="fill:#1f77b4;stroke:#ffffff;stroke-width:0.48;" x="149.368217" xlink:href="#C0_0_a81355a0be" y="240.631301"/>
    </g>
    <g clip-path="url(#p26376e53df)">
     <use style="fill:#1f77b4;stroke:#ffffff;stroke-width:0.48;" x="152.473968" xlink:href="#C0_0_a81355a0be" y="239.943201"/>
    </g>
    <g clip-path="url(#p26376e53df)">
     <use style="fill:#1f77b4;stroke:#ffffff;stroke-width:0.48;" x="155.579719" xlink:href="#C0_0_a81355a0be" y="240.631301"/>
    </g>
    <g clip-path="url(#p26376e53df)">
     <use style="fill:#1f77b4;stroke:#ffffff;stroke-width:0.48;" x="158.685471" xlink:href="#C0_0_a81355a0be" y="239.475293"/>
    </g>
    <g clip-path="url(#p26376e53df)">
     <use style="fill:#1f77b4;stroke:#ffffff;stroke-width:0.48;" x="161.791222" xlink:href="#C0_0_a81355a0be" y="234.768688"/>
    </g>
    <g clip-path="url(#p26376e53df)">
     <use style="fill:#1f77b4;stroke:#ffffff;stroke-width:0.48;" x="164.896974" xlink:href="#C0_0_a81355a0be" y="238.649573"/>
    </g>
    <g clip-path="url(#p26376e53df)">
     <use style="fill:#1f77b4;stroke:#ffffff;stroke-width:0.48;" x="168.002725" xlink:href="#C0_0_a81355a0be" y="239.117481"/>
    </g>
    <g clip-path="url(#p26376e53df)">
     <use style="fill:#1f77b4;stroke:#ffffff;stroke-width:0.48;" x="171.108476" xlink:href="#C0_0_a81355a0be" y="236.888036"/>
    </g>
    <g clip-path="url(#p26376e53df)">
     <use style="fill:#1f77b4;stroke:#ffffff;stroke-width:0.48;" x="174.214228" xlink:href="#C0_0_a81355a0be" y="238.099093"/>
    </g>
    <g clip-path="url(#p26376e53df)">
     <use style="fill:#1f77b4;stroke:#ffffff;stroke-width:0.48;" x="177.319979" xlink:href="#C0_0_a81355a0be" y="234.71364"/>
    </g>
    <g clip-path="url(#p26376e53df)">
     <use style="fill:#1f77b4;stroke:#ffffff;stroke-width:0.48;" x="180.425731" xlink:href="#C0_0_a81355a0be" y="237.74128"/>
    </g>
    <g clip-path="url(#p26376e53df)">
     <use style="fill:#1f77b4;stroke:#ffffff;stroke-width:0.48;" x="183.531482" xlink:href="#C0_0_a81355a0be" y="237.300896"/>
    </g>
    <g clip-path="url(#p26376e53df)">
     <use style="fill:#1f77b4;stroke:#ffffff;stroke-width:0.48;" x="186.637233" xlink:href="#C0_0_a81355a0be" y="234.823736"/>
    </g>
    <g clip-path="url(#p26376e53df)">
     <use style="fill:#1f77b4;stroke:#ffffff;stroke-width:0.48;" x="189.742985" xlink:href="#C0_0_a81355a0be" y="235.704504"/>
    </g>
    <g clip-path="url(#p26376e53df)">
     <use style="fill:#1f77b4;stroke:#ffffff;stroke-width:0.48;" x="192.848736" xlink:href="#C0_0_a81355a0be" y="234.878784"/>
    </g>
    <g clip-path="url(#p26376e53df)">
     <use style="fill:#1f77b4;stroke:#ffffff;stroke-width:0.48;" x="195.954487" xlink:href="#C0_0_a81355a0be" y="233.805347"/>
    </g>
    <g clip-path="url(#p26376e53df)">
     <use style="fill:#1f77b4;stroke:#ffffff;stroke-width:0.48;" x="199.060239" xlink:href="#C0_0_a81355a0be" y="236.062316"/>
    </g>
    <g clip-path="url(#p26376e53df)">
     <use style="fill:#1f77b4;stroke:#ffffff;stroke-width:0.48;" x="202.16599" xlink:href="#C0_0_a81355a0be" y="235.95222"/>
    </g>
    <g clip-path="url(#p26376e53df)">
     <use style="fill:#1f77b4;stroke:#ffffff;stroke-width:0.48;" x="205.271742" xlink:href="#C0_0_a81355a0be" y="236.08984"/>
    </g>
    <g clip-path="url(#p26376e53df)">
     <use style="fill:#1f77b4;stroke:#ffffff;stroke-width:0.48;" x="208.377493" xlink:href="#C0_0_a81355a0be" y="233.750299"/>
    </g>
    <g clip-path="url(#p26376e53df)">
     <use style="fill:#1f77b4;stroke:#ffffff;stroke-width:0.48;" x="211.483244" xlink:href="#C0_0_a81355a0be" y="233.062199"/>
    </g>
    <g clip-path="url(#p26376e53df)">
     <use style="fill:#1f77b4;stroke:#ffffff;stroke-width:0.48;" x="214.588996" xlink:href="#C0_0_a81355a0be" y="235.67698"/>
    </g>
    <g clip-path="url(#p26376e53df)">
     <use style="fill:#1f77b4;stroke:#ffffff;stroke-width:0.48;" x="217.694747" xlink:href="#C0_0_a81355a0be" y="233.915443"/>
    </g>
    <g clip-path="url(#p26376e53df)">
     <use style="fill:#1f77b4;stroke:#ffffff;stroke-width:0.48;" x="220.800499" xlink:href="#C0_0_a81355a0be" y="234.300779"/>
    </g>
    <g clip-path="url(#p26376e53df)">
     <use style="fill:#1f77b4;stroke:#ffffff;stroke-width:0.48;" x="223.90625" xlink:href="#C0_0_a81355a0be" y="234.108111"/>
    </g>
    <g clip-path="url(#p26376e53df)">
     <use style="fill:#1f77b4;stroke:#ffffff;stroke-width:0.48;" x="227.012001" xlink:href="#C0_0_a81355a0be" y="229.676746"/>
    </g>
    <g clip-path="url(#p26376e53df)">
     <use style="fill:#1f77b4;stroke:#ffffff;stroke-width:0.48;" x="230.117753" xlink:href="#C0_0_a81355a0be" y="233.062199"/>
    </g>
    <g clip-path="url(#p26376e53df)">
     <use style="fill:#1f77b4;stroke:#ffffff;stroke-width:0.48;" x="233.223504" xlink:href="#C0_0_a81355a0be" y="231.438283"/>
    </g>
    <g clip-path="url(#p26376e53df)">
     <use style="fill:#1f77b4;stroke:#ffffff;stroke-width:0.48;" x="236.329256" xlink:href="#C0_0_a81355a0be" y="233.117247"/>
    </g>
    <g clip-path="url(#p26376e53df)">
     <use style="fill:#1f77b4;stroke:#ffffff;stroke-width:0.48;" x="239.435007" xlink:href="#C0_0_a81355a0be" y="231.355711"/>
    </g>
    <g clip-path="url(#p26376e53df)">
     <use style="fill:#1f77b4;stroke:#ffffff;stroke-width:0.48;" x="242.540758" xlink:href="#C0_0_a81355a0be" y="231.796095"/>
    </g>
    <g clip-path="url(#p26376e53df)">
     <use style="fill:#1f77b4;stroke:#ffffff;stroke-width:0.48;" x="245.64651" xlink:href="#C0_0_a81355a0be" y="231.906191"/>
    </g>
    <g clip-path="url(#p26376e53df)">
     <use style="fill:#1f77b4;stroke:#ffffff;stroke-width:0.48;" x="248.752261" xlink:href="#C0_0_a81355a0be" y="232.236479"/>
    </g>
    <g clip-path="url(#p26376e53df)">
     <use style="fill:#1f77b4;stroke:#ffffff;stroke-width:0.48;" x="251.858013" xlink:href="#C0_0_a81355a0be" y="231.355711"/>
    </g>
    <g clip-path="url(#p26376e53df)">
     <use style="fill:#1f77b4;stroke:#ffffff;stroke-width:0.48;" x="254.963764" xlink:href="#C0_0_a81355a0be" y="231.906191"/>
    </g>
    <g clip-path="url(#p26376e53df)">
     <use style="fill:#1f77b4;stroke:#ffffff;stroke-width:0.48;" x="258.069515" xlink:href="#C0_0_a81355a0be" y="230.144654"/>
    </g>
    <g clip-path="url(#p26376e53df)">
     <use style="fill:#1f77b4;stroke:#ffffff;stroke-width:0.48;" x="261.175267" xlink:href="#C0_0_a81355a0be" y="228.988646"/>
    </g>
    <g clip-path="url(#p26376e53df)">
     <use style="fill:#1f77b4;stroke:#ffffff;stroke-width:0.48;" x="264.281018" xlink:href="#C0_0_a81355a0be" y="232.016287"/>
    </g>
    <g clip-path="url(#p26376e53df)">
     <use style="fill:#1f77b4;stroke:#ffffff;stroke-width:0.48;" x="267.386769" xlink:href="#C0_0_a81355a0be" y="231.906191"/>
    </g>
    <g clip-path="url(#p26376e53df)">
     <use style="fill:#1f77b4;stroke:#ffffff;stroke-width:0.48;" x="270.492521" xlink:href="#C0_0_a81355a0be" y="230.557514"/>
    </g>
    <g clip-path="url(#p26376e53df)">
     <use style="fill:#1f77b4;stroke:#ffffff;stroke-width:0.48;" x="273.598272" xlink:href="#C0_0_a81355a0be" y="224.860045"/>
    </g>
    <g clip-path="url(#p26376e53df)">
     <use style="fill:#1f77b4;stroke:#ffffff;stroke-width:0.48;" x="276.704024" xlink:href="#C0_0_a81355a0be" y="228.025306"/>
    </g>
    <g clip-path="url(#p26376e53df)">
     <use style="fill:#1f77b4;stroke:#ffffff;stroke-width:0.48;" x="279.809775" xlink:href="#C0_0_a81355a0be" y="231.383235"/>
    </g>
    <g clip-path="url(#p26376e53df)">
     <use style="fill:#1f77b4;stroke:#ffffff;stroke-width:0.48;" x="282.915526" xlink:href="#C0_0_a81355a0be" y="231.741047"/>
    </g>
    <g clip-path="url(#p26376e53df)">
     <use style="fill:#1f77b4;stroke:#ffffff;stroke-width:0.48;" x="286.021278" xlink:href="#C0_0_a81355a0be" y="231.135518"/>
    </g>
    <g clip-path="url(#p26376e53df)">
     <use style="fill:#1f77b4;stroke:#ffffff;stroke-width:0.48;" x="289.127029" xlink:href="#C0_0_a81355a0be" y="227.309681"/>
    </g>
    <g clip-path="url(#p26376e53df)">
     <use style="fill:#1f77b4;stroke:#ffffff;stroke-width:0.48;" x="292.232781" xlink:href="#C0_0_a81355a0be" y="231.741047"/>
    </g>
    <g clip-path="url(#p26376e53df)">
     <use style="fill:#1f77b4;stroke:#ffffff;stroke-width:0.48;" x="295.338532" xlink:href="#C0_0_a81355a0be" y="224.474709"/>
    </g>
    <g clip-path="url(#p26376e53df)">
     <use style="fill:#1f77b4;stroke:#ffffff;stroke-width:0.48;" x="298.444283" xlink:href="#C0_0_a81355a0be" y="230.585038"/>
    </g>
    <g clip-path="url(#p26376e53df)">
     <use style="fill:#1f77b4;stroke:#ffffff;stroke-width:0.48;" x="301.550035" xlink:href="#C0_0_a81355a0be" y="230.695134"/>
    </g>
    <g clip-path="url(#p26376e53df)">
     <use style="fill:#1f77b4;stroke:#ffffff;stroke-width:0.48;" x="304.655786" xlink:href="#C0_0_a81355a0be" y="229.043694"/>
    </g>
    <g clip-path="url(#p26376e53df)">
     <use style="fill:#1f77b4;stroke:#ffffff;stroke-width:0.48;" x="307.761538" xlink:href="#C0_0_a81355a0be" y="227.034441"/>
    </g>
    <g clip-path="url(#p26376e53df)">
     <use style="fill:#1f77b4;stroke:#ffffff;stroke-width:0.48;" x="310.867289" xlink:href="#C0_0_a81355a0be" y="229.539126"/>
    </g>
    <g clip-path="url(#p26376e53df)">
     <use style="fill:#1f77b4;stroke:#ffffff;stroke-width:0.48;" x="313.97304" xlink:href="#C0_0_a81355a0be" y="229.97951"/>
    </g>
    <g clip-path="url(#p26376e53df)">
     <use style="fill:#1f77b4;stroke:#ffffff;stroke-width:0.48;" x="317.078792" xlink:href="#C0_0_a81355a0be" y="229.786842"/>
    </g>
    <g clip-path="url(#p26376e53df)">
     <use style="fill:#1f77b4;stroke:#ffffff;stroke-width:0.48;" x="320.184543" xlink:href="#C0_0_a81355a0be" y="228.906074"/>
    </g>
    <g clip-path="url(#p26376e53df)">
     <use style="fill:#1f77b4;stroke:#ffffff;stroke-width:0.48;" x="323.290295" xlink:href="#C0_0_a81355a0be" y="227.667493"/>
    </g>
    <g clip-path="url(#p26376e53df)">
     <use style="fill:#1f77b4;stroke:#ffffff;stroke-width:0.48;" x="326.396046" xlink:href="#C0_0_a81355a0be" y="229.42903"/>
    </g>
    <g clip-path="url(#p26376e53df)">
     <use style="fill:#1f77b4;stroke:#ffffff;stroke-width:0.48;" x="329.501797" xlink:href="#C0_0_a81355a0be" y="229.373982"/>
    </g>
    <g clip-path="url(#p26376e53df)">
     <use style="fill:#1f77b4;stroke:#ffffff;stroke-width:0.48;" x="332.607549" xlink:href="#C0_0_a81355a0be" y="228.107878"/>
    </g>
    <g clip-path="url(#p26376e53df)">
     <use style="fill:#1f77b4;stroke:#ffffff;stroke-width:0.48;" x="335.7133" xlink:href="#C0_0_a81355a0be" y="228.19045"/>
    </g>
    <g clip-path="url(#p26376e53df)">
     <use style="fill:#1f77b4;stroke:#ffffff;stroke-width:0.48;" x="338.819051" xlink:href="#C0_0_a81355a0be" y="217.979043"/>
    </g>
    <g clip-path="url(#p26376e53df)">
     <use style="fill:#1f77b4;stroke:#ffffff;stroke-width:0.48;" x="341.924803" xlink:href="#C0_0_a81355a0be" y="228.05283"/>
    </g>
    <g clip-path="url(#p26376e53df)">
     <use style="fill:#1f77b4;stroke:#ffffff;stroke-width:0.48;" x="345.030554" xlink:href="#C0_0_a81355a0be" y="228.19045"/>
    </g>
    <g clip-path="url(#p26376e53df)">
     <use style="fill:#1f77b4;stroke:#ffffff;stroke-width:0.48;" x="348.136306" xlink:href="#C0_0_a81355a0be" y="207.024487"/>
    </g>
    <g clip-path="url(#p26376e53df)">
     <use style="fill:#1f77b4;stroke:#ffffff;stroke-width:0.48;" x="351.242057" xlink:href="#C0_0_a81355a0be" y="227.419777"/>
    </g>
    <g clip-path="url(#p26376e53df)">
     <use style="fill:#1f77b4;stroke:#ffffff;stroke-width:0.48;" x="354.347808" xlink:href="#C0_0_a81355a0be" y="225.190333"/>
    </g>
    <g clip-path="url(#p26376e53df)">
     <use style="fill:#1f77b4;stroke:#ffffff;stroke-width:0.48;" x="357.45356" xlink:href="#C0_0_a81355a0be" y="224.254516"/>
    </g>
    <g clip-path="url(#p26376e53df)">
     <use style="fill:#1f77b4;stroke:#ffffff;stroke-width:0.48;" x="360.559311" xlink:href="#C0_0_a81355a0be" y="224.832521"/>
    </g>
    <g clip-path="url(#p26376e53df)">
     <use style="fill:#1f77b4;stroke:#ffffff;stroke-width:0.48;" x="363.665063" xlink:href="#C0_0_a81355a0be" y="226.841773"/>
    </g>
    <g clip-path="url(#p26376e53df)">
     <use style="fill:#1f77b4;stroke:#ffffff;stroke-width:0.48;" x="366.770814" xlink:href="#C0_0_a81355a0be" y="225.713289"/>
    </g>
    <g clip-path="url(#p26376e53df)">
     <use style="fill:#1f77b4;stroke:#ffffff;stroke-width:0.48;" x="369.876565" xlink:href="#C0_0_a81355a0be" y="223.511368"/>
    </g>
    <g clip-path="url(#p26376e53df)">
     <use style="fill:#1f77b4;stroke:#ffffff;stroke-width:0.48;" x="372.982317" xlink:href="#C0_0_a81355a0be" y="218.557047"/>
    </g>
    <g clip-path="url(#p26376e53df)">
     <use style="fill:#1f77b4;stroke:#ffffff;stroke-width:0.48;" x="376.088068" xlink:href="#C0_0_a81355a0be" y="222.327836"/>
    </g>
    <g clip-path="url(#p26376e53df)">
     <use style="fill:#ff7f0e;stroke:#ffffff;stroke-width:0.48;" x="71.724432" xlink:href="#C0_0_a81355a0be" y="118.782518"/>
    </g>
    <g clip-path="url(#p26376e53df)">
     <use style="fill:#ff7f0e;stroke:#ffffff;stroke-width:0.48;" x="74.830183" xlink:href="#C0_0_a81355a0be" y="103.919553"/>
    </g>
    <g clip-path="url(#p26376e53df)">
     <use style="fill:#ff7f0e;stroke:#ffffff;stroke-width:0.48;" x="77.935935" xlink:href="#C0_0_a81355a0be" y="113.222668"/>
    </g>
    <g clip-path="url(#p26376e53df)">
     <use style="fill:#ff7f0e;stroke:#ffffff;stroke-width:0.48;" x="81.041686" xlink:href="#C0_0_a81355a0be" y="113.552956"/>
    </g>
    <g clip-path="url(#p26376e53df)">
     <use style="fill:#ff7f0e;stroke:#ffffff;stroke-width:0.48;" x="84.147437" xlink:href="#C0_0_a81355a0be" y="109.259211"/>
    </g>
    <g clip-path="url(#p26376e53df)">
     <use style="fill:#ff7f0e;stroke:#ffffff;stroke-width:0.48;" x="87.253189" xlink:href="#C0_0_a81355a0be" y="112.864856"/>
    </g>
    <g clip-path="url(#p26376e53df)">
     <use style="fill:#ff7f0e;stroke:#ffffff;stroke-width:0.48;" x="90.35894" xlink:href="#C0_0_a81355a0be" y="100.451528"/>
    </g>
    <g clip-path="url(#p26376e53df)">
     <use style="fill:#ff7f0e;stroke:#ffffff;stroke-width:0.48;" x="93.464692" xlink:href="#C0_0_a81355a0be" y="113.745624"/>
    </g>
    <g clip-path="url(#p26376e53df)">
     <use style="fill:#ff7f0e;stroke:#ffffff;stroke-width:0.48;" x="96.570443" xlink:href="#C0_0_a81355a0be" y="112.47952"/>
    </g>
    <g clip-path="url(#p26376e53df)">
     <use style="fill:#ff7f0e;stroke:#ffffff;stroke-width:0.48;" x="99.676194" xlink:href="#C0_0_a81355a0be" y="113.360288"/>
    </g>
    <g clip-path="url(#p26376e53df)">
     <use style="fill:#ff7f0e;stroke:#ffffff;stroke-width:0.48;" x="102.781946" xlink:href="#C0_0_a81355a0be" y="116.085165"/>
    </g>
    <g clip-path="url(#p26376e53df)">
     <use style="fill:#ff7f0e;stroke:#ffffff;stroke-width:0.48;" x="105.887697" xlink:href="#C0_0_a81355a0be" y="93.928338"/>
    </g>
    <g clip-path="url(#p26376e53df)">
     <use style="fill:#ff7f0e;stroke:#ffffff;stroke-width:0.48;" x="108.993449" xlink:href="#C0_0_a81355a0be" y="78.790134"/>
    </g>
    <g clip-path="url(#p26376e53df)">
     <use style="fill:#ff7f0e;stroke:#ffffff;stroke-width:0.48;" x="112.0992" xlink:href="#C0_0_a81355a0be" y="109.286735"/>
    </g>
    <g clip-path="url(#p26376e53df)">
     <use style="fill:#ff7f0e;stroke:#ffffff;stroke-width:0.48;" x="115.204951" xlink:href="#C0_0_a81355a0be" y="105.075562"/>
    </g>
    <g clip-path="url(#p26376e53df)">
     <use style="fill:#ff7f0e;stroke:#ffffff;stroke-width:0.48;" x="118.310703" xlink:href="#C0_0_a81355a0be" y="107.662818"/>
    </g>
    <g clip-path="url(#p26376e53df)">
     <use style="fill:#ff7f0e;stroke:#ffffff;stroke-width:0.48;" x="121.416454" xlink:href="#C0_0_a81355a0be" y="90.873173"/>
    </g>
    <g clip-path="url(#p26376e53df)">
     <use style="fill:#ff7f0e;stroke:#ffffff;stroke-width:0.48;" x="124.522205" xlink:href="#C0_0_a81355a0be" y="114.653916"/>
    </g>
    <g clip-path="url(#p26376e53df)">
     <use style="fill:#ff7f0e;stroke:#ffffff;stroke-width:0.48;" x="127.627957" xlink:href="#C0_0_a81355a0be" y="107.167386"/>
    </g>
    <g clip-path="url(#p26376e53df)">
     <use style="fill:#ff7f0e;stroke:#ffffff;stroke-width:0.48;" x="130.733708" xlink:href="#C0_0_a81355a0be" y="75.019345"/>
    </g>
    <g clip-path="url(#p26376e53df)">
     <use style="fill:#ff7f0e;stroke:#ffffff;stroke-width:0.48;" x="133.83946" xlink:href="#C0_0_a81355a0be" y="108.103202"/>
    </g>
    <g clip-path="url(#p26376e53df)">
     <use style="fill:#ff7f0e;stroke:#ffffff;stroke-width:0.48;" x="136.945211" xlink:href="#C0_0_a81355a0be" y="80.193858"/>
    </g>
    <g clip-path="url(#p26376e53df)">
     <use style="fill:#ff7f0e;stroke:#ffffff;stroke-width:0.48;" x="140.050962" xlink:href="#C0_0_a81355a0be" y="103.011261"/>
    </g>
    <g clip-path="url(#p26376e53df)">
     <use style="fill:#ff7f0e;stroke:#ffffff;stroke-width:0.48;" x="143.156714" xlink:href="#C0_0_a81355a0be" y="107.497674"/>
    </g>
    <g clip-path="url(#p26376e53df)">
     <use style="fill:#ff7f0e;stroke:#ffffff;stroke-width:0.48;" x="146.262465" xlink:href="#C0_0_a81355a0be" y="87.983153"/>
    </g>
    <g clip-path="url(#p26376e53df)">
     <use style="fill:#ff7f0e;stroke:#ffffff;stroke-width:0.48;" x="149.368217" xlink:href="#C0_0_a81355a0be" y="101.414869"/>
    </g>
    <g clip-path="url(#p26376e53df)">
     <use style="fill:#ff7f0e;stroke:#ffffff;stroke-width:0.48;" x="152.473968" xlink:href="#C0_0_a81355a0be" y="101.607537"/>
    </g>
    <g clip-path="url(#p26376e53df)">
     <use style="fill:#ff7f0e;stroke:#ffffff;stroke-width:0.48;" x="155.579719" xlink:href="#C0_0_a81355a0be" y="106.23157"/>
    </g>
    <g clip-path="url(#p26376e53df)">
     <use style="fill:#ff7f0e;stroke:#ffffff;stroke-width:0.48;" x="158.685471" xlink:href="#C0_0_a81355a0be" y="103.919553"/>
    </g>
    <g clip-path="url(#p26376e53df)">
     <use style="fill:#ff7f0e;stroke:#ffffff;stroke-width:0.48;" x="161.791222" xlink:href="#C0_0_a81355a0be" y="90.900697"/>
    </g>
    <g clip-path="url(#p26376e53df)">
     <use style="fill:#ff7f0e;stroke:#ffffff;stroke-width:0.48;" x="164.896974" xlink:href="#C0_0_a81355a0be" y="73.20276"/>
    </g>
    <g clip-path="url(#p26376e53df)">
     <use style="fill:#ff7f0e;stroke:#ffffff;stroke-width:0.48;" x="168.002725" xlink:href="#C0_0_a81355a0be" y="102.680973"/>
    </g>
    <g clip-path="url(#p26376e53df)">
     <use style="fill:#ff7f0e;stroke:#ffffff;stroke-width:0.48;" x="171.108476" xlink:href="#C0_0_a81355a0be" y="106.038902"/>
    </g>
    <g clip-path="url(#p26376e53df)">
     <use style="fill:#ff7f0e;stroke:#ffffff;stroke-width:0.48;" x="174.214228" xlink:href="#C0_0_a81355a0be" y="96.020163"/>
    </g>
    <g clip-path="url(#p26376e53df)">
     <use style="fill:#ff7f0e;stroke:#ffffff;stroke-width:0.48;" x="177.319979" xlink:href="#C0_0_a81355a0be" y="84.652748"/>
    </g>
    <g clip-path="url(#p26376e53df)">
     <use style="fill:#ff7f0e;stroke:#ffffff;stroke-width:0.48;" x="180.425731" xlink:href="#C0_0_a81355a0be" y="85.01056"/>
    </g>
    <g clip-path="url(#p26376e53df)">
     <use style="fill:#ff7f0e;stroke:#ffffff;stroke-width:0.48;" x="183.531482" xlink:href="#C0_0_a81355a0be" y="98.33218"/>
    </g>
    <g clip-path="url(#p26376e53df)">
     <use style="fill:#ff7f0e;stroke:#ffffff;stroke-width:0.48;" x="186.637233" xlink:href="#C0_0_a81355a0be" y="103.947077"/>
    </g>
    <g clip-path="url(#p26376e53df)">
     <use style="fill:#ff7f0e;stroke:#ffffff;stroke-width:0.48;" x="189.742985" xlink:href="#C0_0_a81355a0be" y="101.635061"/>
    </g>
    <g clip-path="url(#p26376e53df)">
     <use style="fill:#ff7f0e;stroke:#ffffff;stroke-width:0.48;" x="192.848736" xlink:href="#C0_0_a81355a0be" y="100.5341"/>
    </g>
    <g clip-path="url(#p26376e53df)">
     <use style="fill:#ff7f0e;stroke:#ffffff;stroke-width:0.48;" x="195.954487" xlink:href="#C0_0_a81355a0be" y="91.836514"/>
    </g>
    <g clip-path="url(#p26376e53df)">
     <use style="fill:#ff7f0e;stroke:#ffffff;stroke-width:0.48;" x="199.060239" xlink:href="#C0_0_a81355a0be" y="100.39648"/>
    </g>
    <g clip-path="url(#p26376e53df)">
     <use style="fill:#ff7f0e;stroke:#ffffff;stroke-width:0.48;" x="202.16599" xlink:href="#C0_0_a81355a0be" y="106.424238"/>
    </g>
    <g clip-path="url(#p26376e53df)">
     <use style="fill:#ff7f0e;stroke:#ffffff;stroke-width:0.48;" x="205.271742" xlink:href="#C0_0_a81355a0be" y="97.451411"/>
    </g>
    <g clip-path="url(#p26376e53df)">
     <use style="fill:#ff7f0e;stroke:#ffffff;stroke-width:0.48;" x="208.377493" xlink:href="#C0_0_a81355a0be" y="94.616439"/>
    </g>
    <g clip-path="url(#p26376e53df)">
     <use style="fill:#ff7f0e;stroke:#ffffff;stroke-width:0.48;" x="211.483244" xlink:href="#C0_0_a81355a0be" y="94.616439"/>
    </g>
    <g clip-path="url(#p26376e53df)">
     <use style="fill:#ff7f0e;stroke:#ffffff;stroke-width:0.48;" x="214.588996" xlink:href="#C0_0_a81355a0be" y="100.644196"/>
    </g>
    <g clip-path="url(#p26376e53df)">
     <use style="fill:#ff7f0e;stroke:#ffffff;stroke-width:0.48;" x="217.694747" xlink:href="#C0_0_a81355a0be" y="102.791069"/>
    </g>
    <g clip-path="url(#p26376e53df)">
     <use style="fill:#ff7f0e;stroke:#ffffff;stroke-width:0.48;" x="220.800499" xlink:href="#C0_0_a81355a0be" y="95.166919"/>
    </g>
    <g clip-path="url(#p26376e53df)">
     <use style="fill:#ff7f0e;stroke:#ffffff;stroke-width:0.48;" x="223.90625" xlink:href="#C0_0_a81355a0be" y="103.093833"/>
    </g>
    <g clip-path="url(#p26376e53df)">
     <use style="fill:#ff7f0e;stroke:#ffffff;stroke-width:0.48;" x="227.012001" xlink:href="#C0_0_a81355a0be" y="91.506226"/>
    </g>
    <g clip-path="url(#p26376e53df)">
     <use style="fill:#ff7f0e;stroke:#ffffff;stroke-width:0.48;" x="230.117753" xlink:href="#C0_0_a81355a0be" y="103.781933"/>
    </g>
    <g clip-path="url(#p26376e53df)">
     <use style="fill:#ff7f0e;stroke:#ffffff;stroke-width:0.48;" x="233.223504" xlink:href="#C0_0_a81355a0be" y="101.937825"/>
    </g>
    <g clip-path="url(#p26376e53df)">
     <use style="fill:#ff7f0e;stroke:#ffffff;stroke-width:0.48;" x="236.329256" xlink:href="#C0_0_a81355a0be" y="94.396246"/>
    </g>
    <g clip-path="url(#p26376e53df)">
     <use style="fill:#ff7f0e;stroke:#ffffff;stroke-width:0.48;" x="239.435007" xlink:href="#C0_0_a81355a0be" y="100.5341"/>
    </g>
    <g clip-path="url(#p26376e53df)">
     <use style="fill:#ff7f0e;stroke:#ffffff;stroke-width:0.48;" x="242.540758" xlink:href="#C0_0_a81355a0be" y="87.157432"/>
    </g>
    <g clip-path="url(#p26376e53df)">
     <use style="fill:#ff7f0e;stroke:#ffffff;stroke-width:0.48;" x="245.64651" xlink:href="#C0_0_a81355a0be" y="93.240238"/>
    </g>
    <g clip-path="url(#p26376e53df)">
     <use style="fill:#ff7f0e;stroke:#ffffff;stroke-width:0.48;" x="248.752261" xlink:href="#C0_0_a81355a0be" y="85.175704"/>
    </g>
    <g clip-path="url(#p26376e53df)">
     <use style="fill:#ff7f0e;stroke:#ffffff;stroke-width:0.48;" x="251.858013" xlink:href="#C0_0_a81355a0be" y="94.093482"/>
    </g>
    <g clip-path="url(#p26376e53df)">
     <use style="fill:#ff7f0e;stroke:#ffffff;stroke-width:0.48;" x="254.963764" xlink:href="#C0_0_a81355a0be" y="95.882543"/>
    </g>
    <g clip-path="url(#p26376e53df)">
     <use style="fill:#ff7f0e;stroke:#ffffff;stroke-width:0.48;" x="258.069515" xlink:href="#C0_0_a81355a0be" y="61.422485"/>
    </g>
    <g clip-path="url(#p26376e53df)">
     <use style="fill:#ff7f0e;stroke:#ffffff;stroke-width:0.48;" x="261.175267" xlink:href="#C0_0_a81355a0be" y="70.780648"/>
    </g>
    <g clip-path="url(#p26376e53df)">
     <use style="fill:#ff7f0e;stroke:#ffffff;stroke-width:0.48;" x="264.281018" xlink:href="#C0_0_a81355a0be" y="91.698894"/>
    </g>
    <g clip-path="url(#p26376e53df)">
     <use style="fill:#ff7f0e;stroke:#ffffff;stroke-width:0.48;" x="267.386769" xlink:href="#C0_0_a81355a0be" y="89.194209"/>
    </g>
    <g clip-path="url(#p26376e53df)">
     <use style="fill:#ff7f0e;stroke:#ffffff;stroke-width:0.48;" x="270.492521" xlink:href="#C0_0_a81355a0be" y="90.845649"/>
    </g>
    <g clip-path="url(#p26376e53df)">
     <use style="fill:#ff7f0e;stroke:#ffffff;stroke-width:0.48;" x="273.598272" xlink:href="#C0_0_a81355a0be" y="75.129441"/>
    </g>
    <g clip-path="url(#p26376e53df)">
     <use style="fill:#ff7f0e;stroke:#ffffff;stroke-width:0.48;" x="276.704024" xlink:href="#C0_0_a81355a0be" y="84.570176"/>
    </g>
    <g clip-path="url(#p26376e53df)">
     <use style="fill:#ff7f0e;stroke:#ffffff;stroke-width:0.48;" x="279.809775" xlink:href="#C0_0_a81355a0be" y="96.185307"/>
    </g>
    <g clip-path="url(#p26376e53df)">
     <use style="fill:#ff7f0e;stroke:#ffffff;stroke-width:0.48;" x="282.915526" xlink:href="#C0_0_a81355a0be" y="94.533867"/>
    </g>
    <g clip-path="url(#p26376e53df)">
     <use style="fill:#ff7f0e;stroke:#ffffff;stroke-width:0.48;" x="286.021278" xlink:href="#C0_0_a81355a0be" y="74.716581"/>
    </g>
    <g clip-path="url(#p26376e53df)">
     <use style="fill:#ff7f0e;stroke:#ffffff;stroke-width:0.48;" x="289.127029" xlink:href="#C0_0_a81355a0be" y="82.588447"/>
    </g>
    <g clip-path="url(#p26376e53df)">
     <use style="fill:#ff7f0e;stroke:#ffffff;stroke-width:0.48;" x="292.232781" xlink:href="#C0_0_a81355a0be" y="58.339796"/>
    </g>
    <g clip-path="url(#p26376e53df)">
     <use style="fill:#ff7f0e;stroke:#ffffff;stroke-width:0.48;" x="295.338532" xlink:href="#C0_0_a81355a0be" y="90.818125"/>
    </g>
    <g clip-path="url(#p26376e53df)">
     <use style="fill:#ff7f0e;stroke:#ffffff;stroke-width:0.48;" x="298.444283" xlink:href="#C0_0_a81355a0be" y="69.514543"/>
    </g>
    <g clip-path="url(#p26376e53df)">
     <use style="fill:#ff7f0e;stroke:#ffffff;stroke-width:0.48;" x="301.550035" xlink:href="#C0_0_a81355a0be" y="71.55132"/>
    </g>
    <g clip-path="url(#p26376e53df)">
     <use style="fill:#ff7f0e;stroke:#ffffff;stroke-width:0.48;" x="304.655786" xlink:href="#C0_0_a81355a0be" y="93.405382"/>
    </g>
    <g clip-path="url(#p26376e53df)">
     <use style="fill:#ff7f0e;stroke:#ffffff;stroke-width:0.48;" x="307.761538" xlink:href="#C0_0_a81355a0be" y="50.302786"/>
    </g>
    <g clip-path="url(#p26376e53df)">
     <use style="fill:#ff7f0e;stroke:#ffffff;stroke-width:0.48;" x="310.867289" xlink:href="#C0_0_a81355a0be" y="67.890627"/>
    </g>
    <g clip-path="url(#p26376e53df)">
     <use style="fill:#ff7f0e;stroke:#ffffff;stroke-width:0.48;" x="313.97304" xlink:href="#C0_0_a81355a0be" y="68.413583"/>
    </g>
    <g clip-path="url(#p26376e53df)">
     <use style="fill:#ff7f0e;stroke:#ffffff;stroke-width:0.48;" x="317.078792" xlink:href="#C0_0_a81355a0be" y="63.073925"/>
    </g>
    <g clip-path="url(#p26376e53df)">
     <use style="fill:#ff7f0e;stroke:#ffffff;stroke-width:0.48;" x="320.184543" xlink:href="#C0_0_a81355a0be" y="82.753591"/>
    </g>
    <g clip-path="url(#p26376e53df)">
     <use style="fill:#ff7f0e;stroke:#ffffff;stroke-width:0.48;" x="323.290295" xlink:href="#C0_0_a81355a0be" y="57.95446"/>
    </g>
    <g clip-path="url(#p26376e53df)">
     <use style="fill:#ff7f0e;stroke:#ffffff;stroke-width:0.48;" x="326.396046" xlink:href="#C0_0_a81355a0be" y="67.890627"/>
    </g>
    <g clip-path="url(#p26376e53df)">
     <use style="fill:#ff7f0e;stroke:#ffffff;stroke-width:0.48;" x="329.501797" xlink:href="#C0_0_a81355a0be" y="91.616322"/>
    </g>
    <g clip-path="url(#p26376e53df)">
     <use style="fill:#ff7f0e;stroke:#ffffff;stroke-width:0.48;" x="332.607549" xlink:href="#C0_0_a81355a0be" y="77.248789"/>
    </g>
    <g clip-path="url(#p26376e53df)">
     <use style="fill:#ff7f0e;stroke:#ffffff;stroke-width:0.48;" x="335.7133" xlink:href="#C0_0_a81355a0be" y="76.725833"/>
    </g>
    <g clip-path="url(#p26376e53df)">
     <use style="fill:#ff7f0e;stroke:#ffffff;stroke-width:0.48;" x="338.819051" xlink:href="#C0_0_a81355a0be" y="85.891328"/>
    </g>
    <g clip-path="url(#p26376e53df)">
     <use style="fill:#ff7f0e;stroke:#ffffff;stroke-width:0.48;" x="341.924803" xlink:href="#C0_0_a81355a0be" y="74.716581"/>
    </g>
    <g clip-path="url(#p26376e53df)">
     <use style="fill:#ff7f0e;stroke:#ffffff;stroke-width:0.48;" x="345.030554" xlink:href="#C0_0_a81355a0be" y="67.147479"/>
    </g>
    <g clip-path="url(#p26376e53df)">
     <use style="fill:#ff7f0e;stroke:#ffffff;stroke-width:0.48;" x="348.136306" xlink:href="#C0_0_a81355a0be" y="64.75289"/>
    </g>
    <g clip-path="url(#p26376e53df)">
     <use style="fill:#ff7f0e;stroke:#ffffff;stroke-width:0.48;" x="351.242057" xlink:href="#C0_0_a81355a0be" y="62.771161"/>
    </g>
    <g clip-path="url(#p26376e53df)">
     <use style="fill:#ff7f0e;stroke:#ffffff;stroke-width:0.48;" x="354.347808" xlink:href="#C0_0_a81355a0be" y="70.808172"/>
    </g>
    <g clip-path="url(#p26376e53df)">
     <use style="fill:#ff7f0e;stroke:#ffffff;stroke-width:0.48;" x="357.45356" xlink:href="#C0_0_a81355a0be" y="57.514076"/>
    </g>
    <g clip-path="url(#p26376e53df)">
     <use style="fill:#ff7f0e;stroke:#ffffff;stroke-width:0.48;" x="360.559311" xlink:href="#C0_0_a81355a0be" y="46.119136"/>
    </g>
    <g clip-path="url(#p26376e53df)">
     <use style="fill:#ff7f0e;stroke:#ffffff;stroke-width:0.48;" x="363.665063" xlink:href="#C0_0_a81355a0be" y="66.762142"/>
    </g>
    <g clip-path="url(#p26376e53df)">
     <use style="fill:#ff7f0e;stroke:#ffffff;stroke-width:0.48;" x="366.770814" xlink:href="#C0_0_a81355a0be" y="57.486552"/>
    </g>
    <g clip-path="url(#p26376e53df)">
     <use style="fill:#ff7f0e;stroke:#ffffff;stroke-width:0.48;" x="369.876565" xlink:href="#C0_0_a81355a0be" y="56.110351"/>
    </g>
    <g clip-path="url(#p26376e53df)">
     <use style="fill:#ff7f0e;stroke:#ffffff;stroke-width:0.48;" x="372.982317" xlink:href="#C0_0_a81355a0be" y="60.01876"/>
    </g>
    <g clip-path="url(#p26376e53df)">
     <use style="fill:#ff7f0e;stroke:#ffffff;stroke-width:0.48;" x="376.088068" xlink:href="#C0_0_a81355a0be" y="55.119487"/>
    </g>
   </g>
   <g id="PathCollection_2"/>
   <g id="PathCollection_3"/>
   <g id="matplotlib.axis_1">
    <g id="xtick_1">
     <g id="line2d_1">
      <defs>
       <path d="M 0 0 
L 0 3.5 
" id="m403cce5487" style="stroke:#000000;stroke-width:0.8;"/>
      </defs>
      <g>
       <use style="stroke:#000000;stroke-width:0.8;" x="68.61868" xlink:href="#m403cce5487" y="253.6755"/>
      </g>
     </g>
     <g id="text_1">
      <!-- 0 -->
      <g transform="translate(65.43743 268.273937)scale(0.1 -0.1)">
       <defs>
        <path d="M 31.78125 66.40625 
Q 24.171875 66.40625 20.328125 58.90625 
Q 16.5 51.421875 16.5 36.375 
Q 16.5 21.390625 20.328125 13.890625 
Q 24.171875 6.390625 31.78125 6.390625 
Q 39.453125 6.390625 43.28125 13.890625 
Q 47.125 21.390625 47.125 36.375 
Q 47.125 51.421875 43.28125 58.90625 
Q 39.453125 66.40625 31.78125 66.40625 
z
M 31.78125 74.21875 
Q 44.046875 74.21875 50.515625 64.515625 
Q 56.984375 54.828125 56.984375 36.375 
Q 56.984375 17.96875 50.515625 8.265625 
Q 44.046875 -1.421875 31.78125 -1.421875 
Q 19.53125 -1.421875 13.0625 8.265625 
Q 6.59375 17.96875 6.59375 36.375 
Q 6.59375 54.828125 13.0625 64.515625 
Q 19.53125 74.21875 31.78125 74.21875 
z
" id="DejaVuSans-48"/>
       </defs>
       <use xlink:href="#DejaVuSans-48"/>
      </g>
     </g>
    </g>
    <g id="xtick_2">
     <g id="line2d_2">
      <g>
       <use style="stroke:#000000;stroke-width:0.8;" x="130.733708" xlink:href="#m403cce5487" y="253.6755"/>
      </g>
     </g>
     <g id="text_2">
      <!-- 20 -->
      <g transform="translate(124.371208 268.273937)scale(0.1 -0.1)">
       <defs>
        <path d="M 19.1875 8.296875 
L 53.609375 8.296875 
L 53.609375 0 
L 7.328125 0 
L 7.328125 8.296875 
Q 12.9375 14.109375 22.625 23.890625 
Q 32.328125 33.6875 34.8125 36.53125 
Q 39.546875 41.84375 41.421875 45.53125 
Q 43.3125 49.21875 43.3125 52.78125 
Q 43.3125 58.59375 39.234375 62.25 
Q 35.15625 65.921875 28.609375 65.921875 
Q 23.96875 65.921875 18.8125 64.3125 
Q 13.671875 62.703125 7.8125 59.421875 
L 7.8125 69.390625 
Q 13.765625 71.78125 18.9375 73 
Q 24.125 74.21875 28.421875 74.21875 
Q 39.75 74.21875 46.484375 68.546875 
Q 53.21875 62.890625 53.21875 53.421875 
Q 53.21875 48.921875 51.53125 44.890625 
Q 49.859375 40.875 45.40625 35.40625 
Q 44.1875 33.984375 37.640625 27.21875 
Q 31.109375 20.453125 19.1875 8.296875 
z
" id="DejaVuSans-50"/>
       </defs>
       <use xlink:href="#DejaVuSans-50"/>
       <use x="63.623047" xlink:href="#DejaVuSans-48"/>
      </g>
     </g>
    </g>
    <g id="xtick_3">
     <g id="line2d_3">
      <g>
       <use style="stroke:#000000;stroke-width:0.8;" x="192.848736" xlink:href="#m403cce5487" y="253.6755"/>
      </g>
     </g>
     <g id="text_3">
      <!-- 40 -->
      <g transform="translate(186.486236 268.273937)scale(0.1 -0.1)">
       <defs>
        <path d="M 37.796875 64.3125 
L 12.890625 25.390625 
L 37.796875 25.390625 
z
M 35.203125 72.90625 
L 47.609375 72.90625 
L 47.609375 25.390625 
L 58.015625 25.390625 
L 58.015625 17.1875 
L 47.609375 17.1875 
L 47.609375 0 
L 37.796875 0 
L 37.796875 17.1875 
L 4.890625 17.1875 
L 4.890625 26.703125 
z
" id="DejaVuSans-52"/>
       </defs>
       <use xlink:href="#DejaVuSans-52"/>
       <use x="63.623047" xlink:href="#DejaVuSans-48"/>
      </g>
     </g>
    </g>
    <g id="xtick_4">
     <g id="line2d_4">
      <g>
       <use style="stroke:#000000;stroke-width:0.8;" x="254.963764" xlink:href="#m403cce5487" y="253.6755"/>
      </g>
     </g>
     <g id="text_4">
      <!-- 60 -->
      <g transform="translate(248.601264 268.273937)scale(0.1 -0.1)">
       <defs>
        <path d="M 33.015625 40.375 
Q 26.375 40.375 22.484375 35.828125 
Q 18.609375 31.296875 18.609375 23.390625 
Q 18.609375 15.53125 22.484375 10.953125 
Q 26.375 6.390625 33.015625 6.390625 
Q 39.65625 6.390625 43.53125 10.953125 
Q 47.40625 15.53125 47.40625 23.390625 
Q 47.40625 31.296875 43.53125 35.828125 
Q 39.65625 40.375 33.015625 40.375 
z
M 52.59375 71.296875 
L 52.59375 62.3125 
Q 48.875 64.0625 45.09375 64.984375 
Q 41.3125 65.921875 37.59375 65.921875 
Q 27.828125 65.921875 22.671875 59.328125 
Q 17.53125 52.734375 16.796875 39.40625 
Q 19.671875 43.65625 24.015625 45.921875 
Q 28.375 48.1875 33.59375 48.1875 
Q 44.578125 48.1875 50.953125 41.515625 
Q 57.328125 34.859375 57.328125 23.390625 
Q 57.328125 12.15625 50.6875 5.359375 
Q 44.046875 -1.421875 33.015625 -1.421875 
Q 20.359375 -1.421875 13.671875 8.265625 
Q 6.984375 17.96875 6.984375 36.375 
Q 6.984375 53.65625 15.1875 63.9375 
Q 23.390625 74.21875 37.203125 74.21875 
Q 40.921875 74.21875 44.703125 73.484375 
Q 48.484375 72.75 52.59375 71.296875 
z
" id="DejaVuSans-54"/>
       </defs>
       <use xlink:href="#DejaVuSans-54"/>
       <use x="63.623047" xlink:href="#DejaVuSans-48"/>
      </g>
     </g>
    </g>
    <g id="xtick_5">
     <g id="line2d_5">
      <g>
       <use style="stroke:#000000;stroke-width:0.8;" x="317.078792" xlink:href="#m403cce5487" y="253.6755"/>
      </g>
     </g>
     <g id="text_5">
      <!-- 80 -->
      <g transform="translate(310.716292 268.273937)scale(0.1 -0.1)">
       <defs>
        <path d="M 31.78125 34.625 
Q 24.75 34.625 20.71875 30.859375 
Q 16.703125 27.09375 16.703125 20.515625 
Q 16.703125 13.921875 20.71875 10.15625 
Q 24.75 6.390625 31.78125 6.390625 
Q 38.8125 6.390625 42.859375 10.171875 
Q 46.921875 13.96875 46.921875 20.515625 
Q 46.921875 27.09375 42.890625 30.859375 
Q 38.875 34.625 31.78125 34.625 
z
M 21.921875 38.8125 
Q 15.578125 40.375 12.03125 44.71875 
Q 8.5 49.078125 8.5 55.328125 
Q 8.5 64.0625 14.71875 69.140625 
Q 20.953125 74.21875 31.78125 74.21875 
Q 42.671875 74.21875 48.875 69.140625 
Q 55.078125 64.0625 55.078125 55.328125 
Q 55.078125 49.078125 51.53125 44.71875 
Q 48 40.375 41.703125 38.8125 
Q 48.828125 37.15625 52.796875 32.3125 
Q 56.78125 27.484375 56.78125 20.515625 
Q 56.78125 9.90625 50.3125 4.234375 
Q 43.84375 -1.421875 31.78125 -1.421875 
Q 19.734375 -1.421875 13.25 4.234375 
Q 6.78125 9.90625 6.78125 20.515625 
Q 6.78125 27.484375 10.78125 32.3125 
Q 14.796875 37.15625 21.921875 38.8125 
z
M 18.3125 54.390625 
Q 18.3125 48.734375 21.84375 45.5625 
Q 25.390625 42.390625 31.78125 42.390625 
Q 38.140625 42.390625 41.71875 45.5625 
Q 45.3125 48.734375 45.3125 54.390625 
Q 45.3125 60.0625 41.71875 63.234375 
Q 38.140625 66.40625 31.78125 66.40625 
Q 25.390625 66.40625 21.84375 63.234375 
Q 18.3125 60.0625 18.3125 54.390625 
z
" id="DejaVuSans-56"/>
       </defs>
       <use xlink:href="#DejaVuSans-56"/>
       <use x="63.623047" xlink:href="#DejaVuSans-48"/>
      </g>
     </g>
    </g>
    <g id="xtick_6">
     <g id="line2d_6">
      <g>
       <use style="stroke:#000000;stroke-width:0.8;" x="379.19382" xlink:href="#m403cce5487" y="253.6755"/>
      </g>
     </g>
     <g id="text_6">
      <!-- 100 -->
      <g transform="translate(369.65007 268.273937)scale(0.1 -0.1)">
       <defs>
        <path d="M 12.40625 8.296875 
L 28.515625 8.296875 
L 28.515625 63.921875 
L 10.984375 60.40625 
L 10.984375 69.390625 
L 28.421875 72.90625 
L 38.28125 72.90625 
L 38.28125 8.296875 
L 54.390625 8.296875 
L 54.390625 0 
L 12.40625 0 
z
" id="DejaVuSans-49"/>
       </defs>
       <use xlink:href="#DejaVuSans-49"/>
       <use x="63.623047" xlink:href="#DejaVuSans-48"/>
       <use x="127.246094" xlink:href="#DejaVuSans-48"/>
      </g>
     </g>
    </g>
    <g id="text_7">
     <!-- n -->
     <g transform="translate(220.7375 281.952062)scale(0.1 -0.1)">
      <defs>
       <path d="M 54.890625 33.015625 
L 54.890625 0 
L 45.90625 0 
L 45.90625 32.71875 
Q 45.90625 40.484375 42.875 44.328125 
Q 39.84375 48.1875 33.796875 48.1875 
Q 26.515625 48.1875 22.3125 43.546875 
Q 18.109375 38.921875 18.109375 30.90625 
L 18.109375 0 
L 9.078125 0 
L 9.078125 54.6875 
L 18.109375 54.6875 
L 18.109375 46.1875 
Q 21.34375 51.125 25.703125 53.5625 
Q 30.078125 56 35.796875 56 
Q 45.21875 56 50.046875 50.171875 
Q 54.890625 44.34375 54.890625 33.015625 
z
" id="DejaVuSans-110"/>
      </defs>
      <use xlink:href="#DejaVuSans-110"/>
     </g>
    </g>
   </g>
   <g id="matplotlib.axis_2">
    <g id="ytick_1">
     <g id="line2d_7">
      <defs>
       <path d="M 0 0 
L -3.5 0 
" id="mfeaa47f32c" style="stroke:#000000;stroke-width:0.8;"/>
      </defs>
      <g>
       <use style="stroke:#000000;stroke-width:0.8;" x="56.50625" xlink:href="#mfeaa47f32c" y="237.8789"/>
      </g>
     </g>
     <g id="text_8">
      <!-- 0.001 -->
      <g transform="translate(20.878125 241.678119)scale(0.1 -0.1)">
       <defs>
        <path d="M 10.6875 12.40625 
L 21 12.40625 
L 21 0 
L 10.6875 0 
z
" id="DejaVuSans-46"/>
       </defs>
       <use xlink:href="#DejaVuSans-48"/>
       <use x="63.623047" xlink:href="#DejaVuSans-46"/>
       <use x="95.410156" xlink:href="#DejaVuSans-48"/>
       <use x="159.033203" xlink:href="#DejaVuSans-48"/>
       <use x="222.65625" xlink:href="#DejaVuSans-49"/>
      </g>
     </g>
    </g>
    <g id="ytick_2">
     <g id="line2d_8">
      <g>
       <use style="stroke:#000000;stroke-width:0.8;" x="56.50625" xlink:href="#mfeaa47f32c" y="210.354892"/>
      </g>
     </g>
     <g id="text_9">
      <!-- 0.002 -->
      <g transform="translate(20.878125 214.154111)scale(0.1 -0.1)">
       <use xlink:href="#DejaVuSans-48"/>
       <use x="63.623047" xlink:href="#DejaVuSans-46"/>
       <use x="95.410156" xlink:href="#DejaVuSans-48"/>
       <use x="159.033203" xlink:href="#DejaVuSans-48"/>
       <use x="222.65625" xlink:href="#DejaVuSans-50"/>
      </g>
     </g>
    </g>
    <g id="ytick_3">
     <g id="line2d_9">
      <g>
       <use style="stroke:#000000;stroke-width:0.8;" x="56.50625" xlink:href="#mfeaa47f32c" y="182.830884"/>
      </g>
     </g>
     <g id="text_10">
      <!-- 0.003 -->
      <g transform="translate(20.878125 186.630103)scale(0.1 -0.1)">
       <defs>
        <path d="M 40.578125 39.3125 
Q 47.65625 37.796875 51.625 33 
Q 55.609375 28.21875 55.609375 21.1875 
Q 55.609375 10.40625 48.1875 4.484375 
Q 40.765625 -1.421875 27.09375 -1.421875 
Q 22.515625 -1.421875 17.65625 -0.515625 
Q 12.796875 0.390625 7.625 2.203125 
L 7.625 11.71875 
Q 11.71875 9.328125 16.59375 8.109375 
Q 21.484375 6.890625 26.8125 6.890625 
Q 36.078125 6.890625 40.9375 10.546875 
Q 45.796875 14.203125 45.796875 21.1875 
Q 45.796875 27.640625 41.28125 31.265625 
Q 36.765625 34.90625 28.71875 34.90625 
L 20.21875 34.90625 
L 20.21875 43.015625 
L 29.109375 43.015625 
Q 36.375 43.015625 40.234375 45.921875 
Q 44.09375 48.828125 44.09375 54.296875 
Q 44.09375 59.90625 40.109375 62.90625 
Q 36.140625 65.921875 28.71875 65.921875 
Q 24.65625 65.921875 20.015625 65.03125 
Q 15.375 64.15625 9.8125 62.3125 
L 9.8125 71.09375 
Q 15.4375 72.65625 20.34375 73.4375 
Q 25.25 74.21875 29.59375 74.21875 
Q 40.828125 74.21875 47.359375 69.109375 
Q 53.90625 64.015625 53.90625 55.328125 
Q 53.90625 49.265625 50.4375 45.09375 
Q 46.96875 40.921875 40.578125 39.3125 
z
" id="DejaVuSans-51"/>
       </defs>
       <use xlink:href="#DejaVuSans-48"/>
       <use x="63.623047" xlink:href="#DejaVuSans-46"/>
       <use x="95.410156" xlink:href="#DejaVuSans-48"/>
       <use x="159.033203" xlink:href="#DejaVuSans-48"/>
       <use x="222.65625" xlink:href="#DejaVuSans-51"/>
      </g>
     </g>
    </g>
    <g id="ytick_4">
     <g id="line2d_10">
      <g>
       <use style="stroke:#000000;stroke-width:0.8;" x="56.50625" xlink:href="#mfeaa47f32c" y="155.306876"/>
      </g>
     </g>
     <g id="text_11">
      <!-- 0.004 -->
      <g transform="translate(20.878125 159.106095)scale(0.1 -0.1)">
       <use xlink:href="#DejaVuSans-48"/>
       <use x="63.623047" xlink:href="#DejaVuSans-46"/>
       <use x="95.410156" xlink:href="#DejaVuSans-48"/>
       <use x="159.033203" xlink:href="#DejaVuSans-48"/>
       <use x="222.65625" xlink:href="#DejaVuSans-52"/>
      </g>
     </g>
    </g>
    <g id="ytick_5">
     <g id="line2d_11">
      <g>
       <use style="stroke:#000000;stroke-width:0.8;" x="56.50625" xlink:href="#mfeaa47f32c" y="127.782868"/>
      </g>
     </g>
     <g id="text_12">
      <!-- 0.005 -->
      <g transform="translate(20.878125 131.582087)scale(0.1 -0.1)">
       <defs>
        <path d="M 10.796875 72.90625 
L 49.515625 72.90625 
L 49.515625 64.59375 
L 19.828125 64.59375 
L 19.828125 46.734375 
Q 21.96875 47.46875 24.109375 47.828125 
Q 26.265625 48.1875 28.421875 48.1875 
Q 40.625 48.1875 47.75 41.5 
Q 54.890625 34.8125 54.890625 23.390625 
Q 54.890625 11.625 47.5625 5.09375 
Q 40.234375 -1.421875 26.90625 -1.421875 
Q 22.3125 -1.421875 17.546875 -0.640625 
Q 12.796875 0.140625 7.71875 1.703125 
L 7.71875 11.625 
Q 12.109375 9.234375 16.796875 8.0625 
Q 21.484375 6.890625 26.703125 6.890625 
Q 35.15625 6.890625 40.078125 11.328125 
Q 45.015625 15.765625 45.015625 23.390625 
Q 45.015625 31 40.078125 35.4375 
Q 35.15625 39.890625 26.703125 39.890625 
Q 22.75 39.890625 18.8125 39.015625 
Q 14.890625 38.140625 10.796875 36.28125 
z
" id="DejaVuSans-53"/>
       </defs>
       <use xlink:href="#DejaVuSans-48"/>
       <use x="63.623047" xlink:href="#DejaVuSans-46"/>
       <use x="95.410156" xlink:href="#DejaVuSans-48"/>
       <use x="159.033203" xlink:href="#DejaVuSans-48"/>
       <use x="222.65625" xlink:href="#DejaVuSans-53"/>
      </g>
     </g>
    </g>
    <g id="ytick_6">
     <g id="line2d_12">
      <g>
       <use style="stroke:#000000;stroke-width:0.8;" x="56.50625" xlink:href="#mfeaa47f32c" y="100.25886"/>
      </g>
     </g>
     <g id="text_13">
      <!-- 0.006 -->
      <g transform="translate(20.878125 104.058079)scale(0.1 -0.1)">
       <use xlink:href="#DejaVuSans-48"/>
       <use x="63.623047" xlink:href="#DejaVuSans-46"/>
       <use x="95.410156" xlink:href="#DejaVuSans-48"/>
       <use x="159.033203" xlink:href="#DejaVuSans-48"/>
       <use x="222.65625" xlink:href="#DejaVuSans-54"/>
      </g>
     </g>
    </g>
    <g id="ytick_7">
     <g id="line2d_13">
      <g>
       <use style="stroke:#000000;stroke-width:0.8;" x="56.50625" xlink:href="#mfeaa47f32c" y="72.734852"/>
      </g>
     </g>
     <g id="text_14">
      <!-- 0.007 -->
      <g transform="translate(20.878125 76.534071)scale(0.1 -0.1)">
       <defs>
        <path d="M 8.203125 72.90625 
L 55.078125 72.90625 
L 55.078125 68.703125 
L 28.609375 0 
L 18.3125 0 
L 43.21875 64.59375 
L 8.203125 64.59375 
z
" id="DejaVuSans-55"/>
       </defs>
       <use xlink:href="#DejaVuSans-48"/>
       <use x="63.623047" xlink:href="#DejaVuSans-46"/>
       <use x="95.410156" xlink:href="#DejaVuSans-48"/>
       <use x="159.033203" xlink:href="#DejaVuSans-48"/>
       <use x="222.65625" xlink:href="#DejaVuSans-55"/>
      </g>
     </g>
    </g>
    <g id="ytick_8">
     <g id="line2d_14">
      <g>
       <use style="stroke:#000000;stroke-width:0.8;" x="56.50625" xlink:href="#mfeaa47f32c" y="45.210844"/>
      </g>
     </g>
     <g id="text_15">
      <!-- 0.008 -->
      <g transform="translate(20.878125 49.010063)scale(0.1 -0.1)">
       <use xlink:href="#DejaVuSans-48"/>
       <use x="63.623047" xlink:href="#DejaVuSans-46"/>
       <use x="95.410156" xlink:href="#DejaVuSans-48"/>
       <use x="159.033203" xlink:href="#DejaVuSans-48"/>
       <use x="222.65625" xlink:href="#DejaVuSans-56"/>
      </g>
     </g>
    </g>
    <g id="text_16">
     <!-- tiempo (ms) -->
     <g transform="translate(14.798437 175.450812)rotate(-90)scale(0.1 -0.1)">
      <defs>
       <path d="M 18.3125 70.21875 
L 18.3125 54.6875 
L 36.8125 54.6875 
L 36.8125 47.703125 
L 18.3125 47.703125 
L 18.3125 18.015625 
Q 18.3125 11.328125 20.140625 9.421875 
Q 21.96875 7.515625 27.59375 7.515625 
L 36.8125 7.515625 
L 36.8125 0 
L 27.59375 0 
Q 17.1875 0 13.234375 3.875 
Q 9.28125 7.765625 9.28125 18.015625 
L 9.28125 47.703125 
L 2.6875 47.703125 
L 2.6875 54.6875 
L 9.28125 54.6875 
L 9.28125 70.21875 
z
" id="DejaVuSans-116"/>
       <path d="M 9.421875 54.6875 
L 18.40625 54.6875 
L 18.40625 0 
L 9.421875 0 
z
M 9.421875 75.984375 
L 18.40625 75.984375 
L 18.40625 64.59375 
L 9.421875 64.59375 
z
" id="DejaVuSans-105"/>
       <path d="M 56.203125 29.59375 
L 56.203125 25.203125 
L 14.890625 25.203125 
Q 15.484375 15.921875 20.484375 11.0625 
Q 25.484375 6.203125 34.421875 6.203125 
Q 39.59375 6.203125 44.453125 7.46875 
Q 49.3125 8.734375 54.109375 11.28125 
L 54.109375 2.78125 
Q 49.265625 0.734375 44.1875 -0.34375 
Q 39.109375 -1.421875 33.890625 -1.421875 
Q 20.796875 -1.421875 13.15625 6.1875 
Q 5.515625 13.8125 5.515625 26.8125 
Q 5.515625 40.234375 12.765625 48.109375 
Q 20.015625 56 32.328125 56 
Q 43.359375 56 49.78125 48.890625 
Q 56.203125 41.796875 56.203125 29.59375 
z
M 47.21875 32.234375 
Q 47.125 39.59375 43.09375 43.984375 
Q 39.0625 48.390625 32.421875 48.390625 
Q 24.90625 48.390625 20.390625 44.140625 
Q 15.875 39.890625 15.1875 32.171875 
z
" id="DejaVuSans-101"/>
       <path d="M 52 44.1875 
Q 55.375 50.25 60.0625 53.125 
Q 64.75 56 71.09375 56 
Q 79.640625 56 84.28125 50.015625 
Q 88.921875 44.046875 88.921875 33.015625 
L 88.921875 0 
L 79.890625 0 
L 79.890625 32.71875 
Q 79.890625 40.578125 77.09375 44.375 
Q 74.3125 48.1875 68.609375 48.1875 
Q 61.625 48.1875 57.5625 43.546875 
Q 53.515625 38.921875 53.515625 30.90625 
L 53.515625 0 
L 44.484375 0 
L 44.484375 32.71875 
Q 44.484375 40.625 41.703125 44.40625 
Q 38.921875 48.1875 33.109375 48.1875 
Q 26.21875 48.1875 22.15625 43.53125 
Q 18.109375 38.875 18.109375 30.90625 
L 18.109375 0 
L 9.078125 0 
L 9.078125 54.6875 
L 18.109375 54.6875 
L 18.109375 46.1875 
Q 21.1875 51.21875 25.484375 53.609375 
Q 29.78125 56 35.6875 56 
Q 41.65625 56 45.828125 52.96875 
Q 50 49.953125 52 44.1875 
z
" id="DejaVuSans-109"/>
       <path d="M 18.109375 8.203125 
L 18.109375 -20.796875 
L 9.078125 -20.796875 
L 9.078125 54.6875 
L 18.109375 54.6875 
L 18.109375 46.390625 
Q 20.953125 51.265625 25.265625 53.625 
Q 29.59375 56 35.59375 56 
Q 45.5625 56 51.78125 48.09375 
Q 58.015625 40.1875 58.015625 27.296875 
Q 58.015625 14.40625 51.78125 6.484375 
Q 45.5625 -1.421875 35.59375 -1.421875 
Q 29.59375 -1.421875 25.265625 0.953125 
Q 20.953125 3.328125 18.109375 8.203125 
z
M 48.6875 27.296875 
Q 48.6875 37.203125 44.609375 42.84375 
Q 40.53125 48.484375 33.40625 48.484375 
Q 26.265625 48.484375 22.1875 42.84375 
Q 18.109375 37.203125 18.109375 27.296875 
Q 18.109375 17.390625 22.1875 11.75 
Q 26.265625 6.109375 33.40625 6.109375 
Q 40.53125 6.109375 44.609375 11.75 
Q 48.6875 17.390625 48.6875 27.296875 
z
" id="DejaVuSans-112"/>
       <path d="M 30.609375 48.390625 
Q 23.390625 48.390625 19.1875 42.75 
Q 14.984375 37.109375 14.984375 27.296875 
Q 14.984375 17.484375 19.15625 11.84375 
Q 23.34375 6.203125 30.609375 6.203125 
Q 37.796875 6.203125 41.984375 11.859375 
Q 46.1875 17.53125 46.1875 27.296875 
Q 46.1875 37.015625 41.984375 42.703125 
Q 37.796875 48.390625 30.609375 48.390625 
z
M 30.609375 56 
Q 42.328125 56 49.015625 48.375 
Q 55.71875 40.765625 55.71875 27.296875 
Q 55.71875 13.875 49.015625 6.21875 
Q 42.328125 -1.421875 30.609375 -1.421875 
Q 18.84375 -1.421875 12.171875 6.21875 
Q 5.515625 13.875 5.515625 27.296875 
Q 5.515625 40.765625 12.171875 48.375 
Q 18.84375 56 30.609375 56 
z
" id="DejaVuSans-111"/>
       <path id="DejaVuSans-32"/>
       <path d="M 31 75.875 
Q 24.46875 64.65625 21.28125 53.65625 
Q 18.109375 42.671875 18.109375 31.390625 
Q 18.109375 20.125 21.3125 9.0625 
Q 24.515625 -2 31 -13.1875 
L 23.1875 -13.1875 
Q 15.875 -1.703125 12.234375 9.375 
Q 8.59375 20.453125 8.59375 31.390625 
Q 8.59375 42.28125 12.203125 53.3125 
Q 15.828125 64.359375 23.1875 75.875 
z
" id="DejaVuSans-40"/>
       <path d="M 44.28125 53.078125 
L 44.28125 44.578125 
Q 40.484375 46.53125 36.375 47.5 
Q 32.28125 48.484375 27.875 48.484375 
Q 21.1875 48.484375 17.84375 46.4375 
Q 14.5 44.390625 14.5 40.28125 
Q 14.5 37.15625 16.890625 35.375 
Q 19.28125 33.59375 26.515625 31.984375 
L 29.59375 31.296875 
Q 39.15625 29.25 43.1875 25.515625 
Q 47.21875 21.78125 47.21875 15.09375 
Q 47.21875 7.46875 41.1875 3.015625 
Q 35.15625 -1.421875 24.609375 -1.421875 
Q 20.21875 -1.421875 15.453125 -0.5625 
Q 10.6875 0.296875 5.421875 2 
L 5.421875 11.28125 
Q 10.40625 8.6875 15.234375 7.390625 
Q 20.0625 6.109375 24.8125 6.109375 
Q 31.15625 6.109375 34.5625 8.28125 
Q 37.984375 10.453125 37.984375 14.40625 
Q 37.984375 18.0625 35.515625 20.015625 
Q 33.0625 21.96875 24.703125 23.78125 
L 21.578125 24.515625 
Q 13.234375 26.265625 9.515625 29.90625 
Q 5.8125 33.546875 5.8125 39.890625 
Q 5.8125 47.609375 11.28125 51.796875 
Q 16.75 56 26.8125 56 
Q 31.78125 56 36.171875 55.265625 
Q 40.578125 54.546875 44.28125 53.078125 
z
" id="DejaVuSans-115"/>
       <path d="M 8.015625 75.875 
L 15.828125 75.875 
Q 23.140625 64.359375 26.78125 53.3125 
Q 30.421875 42.28125 30.421875 31.390625 
Q 30.421875 20.453125 26.78125 9.375 
Q 23.140625 -1.703125 15.828125 -13.1875 
L 8.015625 -13.1875 
Q 14.5 -2 17.703125 9.0625 
Q 20.90625 20.125 20.90625 31.390625 
Q 20.90625 42.671875 17.703125 53.65625 
Q 14.5 64.65625 8.015625 75.875 
z
" id="DejaVuSans-41"/>
      </defs>
      <use xlink:href="#DejaVuSans-116"/>
      <use x="39.208984" xlink:href="#DejaVuSans-105"/>
      <use x="66.992188" xlink:href="#DejaVuSans-101"/>
      <use x="128.515625" xlink:href="#DejaVuSans-109"/>
      <use x="225.927734" xlink:href="#DejaVuSans-112"/>
      <use x="289.404297" xlink:href="#DejaVuSans-111"/>
      <use x="350.585938" xlink:href="#DejaVuSans-32"/>
      <use x="382.373047" xlink:href="#DejaVuSans-40"/>
      <use x="421.386719" xlink:href="#DejaVuSans-109"/>
      <use x="518.798828" xlink:href="#DejaVuSans-115"/>
      <use x="570.898438" xlink:href="#DejaVuSans-41"/>
     </g>
    </g>
   </g>
   <g id="line2d_15">
    <path clip-path="url(#p26376e53df)" d="M 71.724432 113.084347 
L 74.830183 112.593083 
L 77.935935 112.101818 
L 81.041686 111.610554 
L 84.147437 111.119289 
L 87.253189 110.628025 
L 90.35894 110.13676 
L 93.464692 109.645495 
L 96.570443 109.154231 
L 99.676194 108.662966 
L 102.781946 108.171702 
L 105.887697 107.680437 
L 108.993449 107.189173 
L 112.0992 106.697908 
L 115.204951 106.206643 
L 118.310703 105.715379 
L 121.416454 105.224114 
L 124.522205 104.73285 
L 127.627957 104.241585 
L 130.733708 103.750321 
L 133.83946 103.259056 
L 136.945211 102.767791 
L 140.050962 102.276527 
L 143.156714 101.785262 
L 146.262465 101.293998 
L 149.368217 100.802733 
L 152.473968 100.311469 
L 155.579719 99.820204 
L 158.685471 99.32894 
L 161.791222 98.837675 
L 164.896974 98.34641 
L 168.002725 97.855146 
L 171.108476 97.363881 
L 174.214228 96.872617 
L 177.319979 96.381352 
L 180.425731 95.890088 
L 183.531482 95.398823 
L 186.637233 94.907558 
L 189.742985 94.416294 
L 192.848736 93.925029 
L 195.954487 93.433765 
L 199.060239 92.9425 
L 202.16599 92.451236 
L 205.271742 91.959971 
L 208.377493 91.468707 
L 211.483244 90.977442 
L 214.588996 90.486177 
L 217.694747 89.994913 
L 220.800499 89.503648 
L 223.90625 89.012384 
L 227.012001 88.521119 
L 230.117753 88.029855 
L 233.223504 87.53859 
L 236.329256 87.047325 
L 239.435007 86.556061 
L 242.540758 86.064796 
L 245.64651 85.573532 
L 248.752261 85.082267 
L 251.858013 84.591003 
L 254.963764 84.099738 
L 258.069515 83.608473 
L 261.175267 83.117209 
L 264.281018 82.625944 
L 267.386769 82.13468 
L 270.492521 81.643415 
L 273.598272 81.152151 
L 276.704024 80.660886 
L 279.809775 80.169622 
L 282.915526 79.678357 
L 286.021278 79.187092 
L 289.127029 78.695828 
L 292.232781 78.204563 
L 295.338532 77.713299 
L 298.444283 77.222034 
L 301.550035 76.73077 
L 304.655786 76.239505 
L 307.761538 75.74824 
L 310.867289 75.256976 
L 313.97304 74.765711 
L 317.078792 74.274447 
L 320.184543 73.783182 
L 323.290295 73.291918 
L 326.396046 72.800653 
L 329.501797 72.309389 
L 332.607549 71.818124 
L 335.7133 71.326859 
L 338.819051 70.835595 
L 341.924803 70.34433 
L 345.030554 69.853066 
L 348.136306 69.361801 
L 351.242057 68.870537 
L 354.347808 68.379272 
L 357.45356 67.888007 
L 360.559311 67.396743 
L 363.665063 66.905478 
L 366.770814 66.414214 
L 369.876565 65.922949 
L 372.982317 65.431685 
L 376.088068 64.94042 
" style="fill:none;stroke:#ffa500;stroke-linecap:square;stroke-width:1.5;"/>
   </g>
   <g id="line2d_16">
    <path clip-path="url(#p26376e53df)" d="M 71.724432 243.791864 
L 74.830183 243.582247 
L 77.935935 243.372631 
L 81.041686 243.163014 
L 84.147437 242.953398 
L 87.253189 242.743781 
L 90.35894 242.534165 
L 93.464692 242.324548 
L 96.570443 242.114932 
L 99.676194 241.905315 
L 102.781946 241.695699 
L 105.887697 241.486082 
L 108.993449 241.276465 
L 112.0992 241.066849 
L 115.204951 240.857232 
L 118.310703 240.647616 
L 121.416454 240.437999 
L 124.522205 240.228383 
L 127.627957 240.018766 
L 130.733708 239.80915 
L 133.83946 239.599533 
L 136.945211 239.389917 
L 140.050962 239.1803 
L 143.156714 238.970684 
L 146.262465 238.761067 
L 149.368217 238.551451 
L 152.473968 238.341834 
L 155.579719 238.132218 
L 158.685471 237.922601 
L 161.791222 237.712985 
L 164.896974 237.503368 
L 168.002725 237.293752 
L 171.108476 237.084135 
L 174.214228 236.874519 
L 177.319979 236.664902 
L 180.425731 236.455286 
L 183.531482 236.245669 
L 186.637233 236.036053 
L 189.742985 235.826436 
L 192.848736 235.61682 
L 195.954487 235.407203 
L 199.060239 235.197587 
L 202.16599 234.98797 
L 205.271742 234.778354 
L 208.377493 234.568737 
L 211.483244 234.359121 
L 214.588996 234.149504 
L 217.694747 233.939888 
L 220.800499 233.730271 
L 223.90625 233.520654 
L 227.012001 233.311038 
L 230.117753 233.101421 
L 233.223504 232.891805 
L 236.329256 232.682188 
L 239.435007 232.472572 
L 242.540758 232.262955 
L 245.64651 232.053339 
L 248.752261 231.843722 
L 251.858013 231.634106 
L 254.963764 231.424489 
L 258.069515 231.214873 
L 261.175267 231.005256 
L 264.281018 230.79564 
L 267.386769 230.586023 
L 270.492521 230.376407 
L 273.598272 230.16679 
L 276.704024 229.957174 
L 279.809775 229.747557 
L 282.915526 229.537941 
L 286.021278 229.328324 
L 289.127029 229.118708 
L 292.232781 228.909091 
L 295.338532 228.699475 
L 298.444283 228.489858 
L 301.550035 228.280242 
L 304.655786 228.070625 
L 307.761538 227.861009 
L 310.867289 227.651392 
L 313.97304 227.441776 
L 317.078792 227.232159 
L 320.184543 227.022543 
L 323.290295 226.812926 
L 326.396046 226.60331 
L 329.501797 226.393693 
L 332.607549 226.184077 
L 335.7133 225.97446 
L 338.819051 225.764843 
L 341.924803 225.555227 
L 345.030554 225.34561 
L 348.136306 225.135994 
L 351.242057 224.926377 
L 354.347808 224.716761 
L 357.45356 224.507144 
L 360.559311 224.297528 
L 363.665063 224.087911 
L 366.770814 223.878295 
L 369.876565 223.668678 
L 372.982317 223.459062 
L 376.088068 223.249445 
" style="fill:none;stroke:#0000ff;stroke-linecap:square;stroke-width:1.5;"/>
   </g>
   <g id="patch_3">
    <path d="M 56.50625 253.6755 
L 56.50625 36.2355 
" style="fill:none;stroke:#000000;stroke-linecap:square;stroke-linejoin:miter;stroke-width:0.8;"/>
   </g>
   <g id="patch_4">
    <path d="M 391.30625 253.6755 
L 391.30625 36.2355 
" style="fill:none;stroke:#000000;stroke-linecap:square;stroke-linejoin:miter;stroke-width:0.8;"/>
   </g>
   <g id="patch_5">
    <path d="M 56.50625 253.6755 
L 391.30625 253.6755 
" style="fill:none;stroke:#000000;stroke-linecap:square;stroke-linejoin:miter;stroke-width:0.8;"/>
   </g>
   <g id="patch_6">
    <path d="M 56.50625 36.2355 
L 391.30625 36.2355 
" style="fill:none;stroke:#000000;stroke-linecap:square;stroke-linejoin:miter;stroke-width:0.8;"/>
   </g>
   <g id="text_17">
    <!-- Tiempos de ejecucin en mejores casos para ambas podas -->
    <g transform="translate(47.001875 16.798125)scale(0.12 -0.12)">
     <defs>
      <path d="M -0.296875 72.90625 
L 61.375 72.90625 
L 61.375 64.59375 
L 35.5 64.59375 
L 35.5 0 
L 25.59375 0 
L 25.59375 64.59375 
L -0.296875 64.59375 
z
" id="DejaVuSans-84"/>
      <path d="M 45.40625 46.390625 
L 45.40625 75.984375 
L 54.390625 75.984375 
L 54.390625 0 
L 45.40625 0 
L 45.40625 8.203125 
Q 42.578125 3.328125 38.25 0.953125 
Q 33.9375 -1.421875 27.875 -1.421875 
Q 17.96875 -1.421875 11.734375 6.484375 
Q 5.515625 14.40625 5.515625 27.296875 
Q 5.515625 40.1875 11.734375 48.09375 
Q 17.96875 56 27.875 56 
Q 33.9375 56 38.25 53.625 
Q 42.578125 51.265625 45.40625 46.390625 
z
M 14.796875 27.296875 
Q 14.796875 17.390625 18.875 11.75 
Q 22.953125 6.109375 30.078125 6.109375 
Q 37.203125 6.109375 41.296875 11.75 
Q 45.40625 17.390625 45.40625 27.296875 
Q 45.40625 37.203125 41.296875 42.84375 
Q 37.203125 48.484375 30.078125 48.484375 
Q 22.953125 48.484375 18.875 42.84375 
Q 14.796875 37.203125 14.796875 27.296875 
z
" id="DejaVuSans-100"/>
      <path d="M 9.421875 54.6875 
L 18.40625 54.6875 
L 18.40625 -0.984375 
Q 18.40625 -11.421875 14.421875 -16.109375 
Q 10.453125 -20.796875 1.609375 -20.796875 
L -1.8125 -20.796875 
L -1.8125 -13.1875 
L 0.59375 -13.1875 
Q 5.71875 -13.1875 7.5625 -10.8125 
Q 9.421875 -8.453125 9.421875 -0.984375 
z
M 9.421875 75.984375 
L 18.40625 75.984375 
L 18.40625 64.59375 
L 9.421875 64.59375 
z
" id="DejaVuSans-106"/>
      <path d="M 48.78125 52.59375 
L 48.78125 44.1875 
Q 44.96875 46.296875 41.140625 47.34375 
Q 37.3125 48.390625 33.40625 48.390625 
Q 24.65625 48.390625 19.8125 42.84375 
Q 14.984375 37.3125 14.984375 27.296875 
Q 14.984375 17.28125 19.8125 11.734375 
Q 24.65625 6.203125 33.40625 6.203125 
Q 37.3125 6.203125 41.140625 7.25 
Q 44.96875 8.296875 48.78125 10.40625 
L 48.78125 2.09375 
Q 45.015625 0.34375 40.984375 -0.53125 
Q 36.96875 -1.421875 32.421875 -1.421875 
Q 20.0625 -1.421875 12.78125 6.34375 
Q 5.515625 14.109375 5.515625 27.296875 
Q 5.515625 40.671875 12.859375 48.328125 
Q 20.21875 56 33.015625 56 
Q 37.15625 56 41.109375 55.140625 
Q 45.0625 54.296875 48.78125 52.59375 
z
" id="DejaVuSans-99"/>
      <path d="M 8.5 21.578125 
L 8.5 54.6875 
L 17.484375 54.6875 
L 17.484375 21.921875 
Q 17.484375 14.15625 20.5 10.265625 
Q 23.53125 6.390625 29.59375 6.390625 
Q 36.859375 6.390625 41.078125 11.03125 
Q 45.3125 15.671875 45.3125 23.6875 
L 45.3125 54.6875 
L 54.296875 54.6875 
L 54.296875 0 
L 45.3125 0 
L 45.3125 8.40625 
Q 42.046875 3.421875 37.71875 1 
Q 33.40625 -1.421875 27.6875 -1.421875 
Q 18.265625 -1.421875 13.375 4.4375 
Q 8.5 10.296875 8.5 21.578125 
z
M 31.109375 56 
z
" id="DejaVuSans-117"/>
      <path d="M 30.609375 48.390625 
Q 23.390625 48.390625 19.1875 42.75 
Q 14.984375 37.109375 14.984375 27.296875 
Q 14.984375 17.484375 19.15625 11.84375 
Q 23.34375 6.203125 30.609375 6.203125 
Q 37.796875 6.203125 41.984375 11.859375 
Q 46.1875 17.53125 46.1875 27.296875 
Q 46.1875 37.015625 41.984375 42.703125 
Q 37.796875 48.390625 30.609375 48.390625 
z
M 30.609375 56 
Q 42.328125 56 49.015625 48.375 
Q 55.71875 40.765625 55.71875 27.296875 
Q 55.71875 13.875 49.015625 6.21875 
Q 42.328125 -1.421875 30.609375 -1.421875 
Q 18.84375 -1.421875 12.171875 6.21875 
Q 5.515625 13.875 5.515625 27.296875 
Q 5.515625 40.765625 12.171875 48.375 
Q 18.84375 56 30.609375 56 
z
M 37.40625 79.984375 
L 47.125 79.984375 
L 31.21875 61.625 
L 23.734375 61.625 
z
" id="DejaVuSans-243"/>
      <path d="M 41.109375 46.296875 
Q 39.59375 47.171875 37.8125 47.578125 
Q 36.03125 48 33.890625 48 
Q 26.265625 48 22.1875 43.046875 
Q 18.109375 38.09375 18.109375 28.8125 
L 18.109375 0 
L 9.078125 0 
L 9.078125 54.6875 
L 18.109375 54.6875 
L 18.109375 46.1875 
Q 20.953125 51.171875 25.484375 53.578125 
Q 30.03125 56 36.53125 56 
Q 37.453125 56 38.578125 55.875 
Q 39.703125 55.765625 41.0625 55.515625 
z
" id="DejaVuSans-114"/>
      <path d="M 34.28125 27.484375 
Q 23.390625 27.484375 19.1875 25 
Q 14.984375 22.515625 14.984375 16.5 
Q 14.984375 11.71875 18.140625 8.90625 
Q 21.296875 6.109375 26.703125 6.109375 
Q 34.1875 6.109375 38.703125 11.40625 
Q 43.21875 16.703125 43.21875 25.484375 
L 43.21875 27.484375 
z
M 52.203125 31.203125 
L 52.203125 0 
L 43.21875 0 
L 43.21875 8.296875 
Q 40.140625 3.328125 35.546875 0.953125 
Q 30.953125 -1.421875 24.3125 -1.421875 
Q 15.921875 -1.421875 10.953125 3.296875 
Q 6 8.015625 6 15.921875 
Q 6 25.140625 12.171875 29.828125 
Q 18.359375 34.515625 30.609375 34.515625 
L 43.21875 34.515625 
L 43.21875 35.40625 
Q 43.21875 41.609375 39.140625 45 
Q 35.0625 48.390625 27.6875 48.390625 
Q 23 48.390625 18.546875 47.265625 
Q 14.109375 46.140625 10.015625 43.890625 
L 10.015625 52.203125 
Q 14.9375 54.109375 19.578125 55.046875 
Q 24.21875 56 28.609375 56 
Q 40.484375 56 46.34375 49.84375 
Q 52.203125 43.703125 52.203125 31.203125 
z
" id="DejaVuSans-97"/>
      <path d="M 48.6875 27.296875 
Q 48.6875 37.203125 44.609375 42.84375 
Q 40.53125 48.484375 33.40625 48.484375 
Q 26.265625 48.484375 22.1875 42.84375 
Q 18.109375 37.203125 18.109375 27.296875 
Q 18.109375 17.390625 22.1875 11.75 
Q 26.265625 6.109375 33.40625 6.109375 
Q 40.53125 6.109375 44.609375 11.75 
Q 48.6875 17.390625 48.6875 27.296875 
z
M 18.109375 46.390625 
Q 20.953125 51.265625 25.265625 53.625 
Q 29.59375 56 35.59375 56 
Q 45.5625 56 51.78125 48.09375 
Q 58.015625 40.1875 58.015625 27.296875 
Q 58.015625 14.40625 51.78125 6.484375 
Q 45.5625 -1.421875 35.59375 -1.421875 
Q 29.59375 -1.421875 25.265625 0.953125 
Q 20.953125 3.328125 18.109375 8.203125 
L 18.109375 0 
L 9.078125 0 
L 9.078125 75.984375 
L 18.109375 75.984375 
z
" id="DejaVuSans-98"/>
     </defs>
     <use xlink:href="#DejaVuSans-84"/>
     <use x="57.958984" xlink:href="#DejaVuSans-105"/>
     <use x="85.742188" xlink:href="#DejaVuSans-101"/>
     <use x="147.265625" xlink:href="#DejaVuSans-109"/>
     <use x="244.677734" xlink:href="#DejaVuSans-112"/>
     <use x="308.154297" xlink:href="#DejaVuSans-111"/>
     <use x="369.335938" xlink:href="#DejaVuSans-115"/>
     <use x="421.435547" xlink:href="#DejaVuSans-32"/>
     <use x="453.222656" xlink:href="#DejaVuSans-100"/>
     <use x="516.699219" xlink:href="#DejaVuSans-101"/>
     <use x="578.222656" xlink:href="#DejaVuSans-32"/>
     <use x="610.009766" xlink:href="#DejaVuSans-101"/>
     <use x="671.533203" xlink:href="#DejaVuSans-106"/>
     <use x="699.316406" xlink:href="#DejaVuSans-101"/>
     <use x="760.839844" xlink:href="#DejaVuSans-99"/>
     <use x="815.820312" xlink:href="#DejaVuSans-117"/>
     <use x="879.199219" xlink:href="#DejaVuSans-99"/>
     <use x="934.179688" xlink:href="#DejaVuSans-105"/>
     <use x="961.962891" xlink:href="#DejaVuSans-243"/>
     <use x="1023.144531" xlink:href="#DejaVuSans-110"/>
     <use x="1086.523438" xlink:href="#DejaVuSans-32"/>
     <use x="1118.310547" xlink:href="#DejaVuSans-101"/>
     <use x="1179.833984" xlink:href="#DejaVuSans-110"/>
     <use x="1243.212891" xlink:href="#DejaVuSans-32"/>
     <use x="1275" xlink:href="#DejaVuSans-109"/>
     <use x="1372.412109" xlink:href="#DejaVuSans-101"/>
     <use x="1433.935547" xlink:href="#DejaVuSans-106"/>
     <use x="1461.71875" xlink:href="#DejaVuSans-111"/>
     <use x="1522.900391" xlink:href="#DejaVuSans-114"/>
     <use x="1561.763672" xlink:href="#DejaVuSans-101"/>
     <use x="1623.287109" xlink:href="#DejaVuSans-115"/>
     <use x="1675.386719" xlink:href="#DejaVuSans-32"/>
     <use x="1707.173828" xlink:href="#DejaVuSans-99"/>
     <use x="1762.154297" xlink:href="#DejaVuSans-97"/>
     <use x="1823.433594" xlink:href="#DejaVuSans-115"/>
     <use x="1875.533203" xlink:href="#DejaVuSans-111"/>
     <use x="1936.714844" xlink:href="#DejaVuSans-115"/>
     <use x="1988.814453" xlink:href="#DejaVuSans-32"/>
     <use x="2020.601562" xlink:href="#DejaVuSans-112"/>
     <use x="2084.078125" xlink:href="#DejaVuSans-97"/>
     <use x="2145.357422" xlink:href="#DejaVuSans-114"/>
     <use x="2186.470703" xlink:href="#DejaVuSans-97"/>
     <use x="2247.75" xlink:href="#DejaVuSans-32"/>
     <use x="2279.537109" xlink:href="#DejaVuSans-97"/>
     <use x="2340.816406" xlink:href="#DejaVuSans-109"/>
     <use x="2438.228516" xlink:href="#DejaVuSans-98"/>
     <use x="2501.705078" xlink:href="#DejaVuSans-97"/>
     <use x="2562.984375" xlink:href="#DejaVuSans-115"/>
     <use x="2615.083984" xlink:href="#DejaVuSans-32"/>
     <use x="2646.871094" xlink:href="#DejaVuSans-112"/>
     <use x="2710.347656" xlink:href="#DejaVuSans-111"/>
     <use x="2771.529297" xlink:href="#DejaVuSans-100"/>
     <use x="2835.005859" xlink:href="#DejaVuSans-97"/>
     <use x="2896.285156" xlink:href="#DejaVuSans-115"/>
    </g>
    <!--  -->
    <g transform="translate(223.90625 30.2355)scale(0.12 -0.12)"/>
   </g>
   <g id="legend_1">
    <g id="patch_7">
     <path d="M 270.235938 175.81175 
L 384.30625 175.81175 
Q 386.30625 175.81175 386.30625 173.81175 
L 386.30625 116.09925 
Q 386.30625 114.09925 384.30625 114.09925 
L 270.235938 114.09925 
Q 268.235938 114.09925 268.235938 116.09925 
L 268.235938 173.81175 
Q 268.235938 175.81175 270.235938 175.81175 
z
" style="fill:#ffffff;opacity:0.8;stroke:#cccccc;stroke-linejoin:miter;"/>
    </g>
    <g id="line2d_17">
     <path d="M 272.235938 122.197687 
L 292.235938 122.197687 
" style="fill:none;stroke:#ffa500;stroke-linecap:square;stroke-width:1.5;"/>
    </g>
    <g id="line2d_18"/>
    <g id="text_18">
     <!-- ajuste BT-O -->
     <g transform="translate(300.235938 125.697687)scale(0.1 -0.1)">
      <defs>
       <path d="M 19.671875 34.8125 
L 19.671875 8.109375 
L 35.5 8.109375 
Q 43.453125 8.109375 47.28125 11.40625 
Q 51.125 14.703125 51.125 21.484375 
Q 51.125 28.328125 47.28125 31.5625 
Q 43.453125 34.8125 35.5 34.8125 
z
M 19.671875 64.796875 
L 19.671875 42.828125 
L 34.28125 42.828125 
Q 41.5 42.828125 45.03125 45.53125 
Q 48.578125 48.25 48.578125 53.8125 
Q 48.578125 59.328125 45.03125 62.0625 
Q 41.5 64.796875 34.28125 64.796875 
z
M 9.8125 72.90625 
L 35.015625 72.90625 
Q 46.296875 72.90625 52.390625 68.21875 
Q 58.5 63.53125 58.5 54.890625 
Q 58.5 48.1875 55.375 44.234375 
Q 52.25 40.28125 46.1875 39.3125 
Q 53.46875 37.75 57.5 32.78125 
Q 61.53125 27.828125 61.53125 20.40625 
Q 61.53125 10.640625 54.890625 5.3125 
Q 48.25 0 35.984375 0 
L 9.8125 0 
z
" id="DejaVuSans-66"/>
       <path d="M 4.890625 31.390625 
L 31.203125 31.390625 
L 31.203125 23.390625 
L 4.890625 23.390625 
z
" id="DejaVuSans-45"/>
       <path d="M 39.40625 66.21875 
Q 28.65625 66.21875 22.328125 58.203125 
Q 16.015625 50.203125 16.015625 36.375 
Q 16.015625 22.609375 22.328125 14.59375 
Q 28.65625 6.59375 39.40625 6.59375 
Q 50.140625 6.59375 56.421875 14.59375 
Q 62.703125 22.609375 62.703125 36.375 
Q 62.703125 50.203125 56.421875 58.203125 
Q 50.140625 66.21875 39.40625 66.21875 
z
M 39.40625 74.21875 
Q 54.734375 74.21875 63.90625 63.9375 
Q 73.09375 53.65625 73.09375 36.375 
Q 73.09375 19.140625 63.90625 8.859375 
Q 54.734375 -1.421875 39.40625 -1.421875 
Q 24.03125 -1.421875 14.8125 8.828125 
Q 5.609375 19.09375 5.609375 36.375 
Q 5.609375 53.65625 14.8125 63.9375 
Q 24.03125 74.21875 39.40625 74.21875 
z
" id="DejaVuSans-79"/>
      </defs>
      <use xlink:href="#DejaVuSans-97"/>
      <use x="61.279297" xlink:href="#DejaVuSans-106"/>
      <use x="89.0625" xlink:href="#DejaVuSans-117"/>
      <use x="152.441406" xlink:href="#DejaVuSans-115"/>
      <use x="204.541016" xlink:href="#DejaVuSans-116"/>
      <use x="243.75" xlink:href="#DejaVuSans-101"/>
      <use x="305.273438" xlink:href="#DejaVuSans-32"/>
      <use x="337.060547" xlink:href="#DejaVuSans-66"/>
      <use x="405.664062" xlink:href="#DejaVuSans-84"/>
      <use x="457.623047" xlink:href="#DejaVuSans-45"/>
      <use x="496.457031" xlink:href="#DejaVuSans-79"/>
     </g>
    </g>
    <g id="line2d_19">
     <path d="M 272.235938 136.875812 
L 292.235938 136.875812 
" style="fill:none;stroke:#0000ff;stroke-linecap:square;stroke-width:1.5;"/>
    </g>
    <g id="line2d_20"/>
    <g id="text_19">
     <!-- ajuste BT-F -->
     <g transform="translate(300.235938 140.375812)scale(0.1 -0.1)">
      <defs>
       <path d="M 9.8125 72.90625 
L 51.703125 72.90625 
L 51.703125 64.59375 
L 19.671875 64.59375 
L 19.671875 43.109375 
L 48.578125 43.109375 
L 48.578125 34.8125 
L 19.671875 34.8125 
L 19.671875 0 
L 9.8125 0 
z
" id="DejaVuSans-70"/>
      </defs>
      <use xlink:href="#DejaVuSans-97"/>
      <use x="61.279297" xlink:href="#DejaVuSans-106"/>
      <use x="89.0625" xlink:href="#DejaVuSans-117"/>
      <use x="152.441406" xlink:href="#DejaVuSans-115"/>
      <use x="204.541016" xlink:href="#DejaVuSans-116"/>
      <use x="243.75" xlink:href="#DejaVuSans-101"/>
      <use x="305.273438" xlink:href="#DejaVuSans-32"/>
      <use x="337.060547" xlink:href="#DejaVuSans-66"/>
      <use x="405.664062" xlink:href="#DejaVuSans-84"/>
      <use x="457.623047" xlink:href="#DejaVuSans-45"/>
      <use x="493.707031" xlink:href="#DejaVuSans-70"/>
     </g>
    </g>
    <g id="PathCollection_4">
     <defs>
      <path d="M 0 3 
C 0.795609 3 1.55874 2.683901 2.12132 2.12132 
C 2.683901 1.55874 3 0.795609 3 0 
C 3 -0.795609 2.683901 -1.55874 2.12132 -2.12132 
C 1.55874 -2.683901 0.795609 -3 0 -3 
C -0.795609 -3 -1.55874 -2.683901 -2.12132 -2.12132 
C -2.683901 -1.55874 -3 -0.795609 -3 0 
C -3 0.795609 -2.683901 1.55874 -2.12132 2.12132 
C -1.55874 2.683901 -0.795609 3 0 3 
z
" id="m19f8fd988a" style="stroke:#1f77b4;"/>
     </defs>
     <g>
      <use style="fill:#1f77b4;stroke:#1f77b4;" x="282.235938" xlink:href="#m19f8fd988a" y="152.428937"/>
     </g>
    </g>
    <g id="text_20">
     <!-- mejor-caso-BT-F -->
     <g transform="translate(300.235938 155.053937)scale(0.1 -0.1)">
      <use xlink:href="#DejaVuSans-109"/>
      <use x="97.412109" xlink:href="#DejaVuSans-101"/>
      <use x="158.935547" xlink:href="#DejaVuSans-106"/>
      <use x="186.71875" xlink:href="#DejaVuSans-111"/>
      <use x="247.900391" xlink:href="#DejaVuSans-114"/>
      <use x="282.638672" xlink:href="#DejaVuSans-45"/>
      <use x="318.722656" xlink:href="#DejaVuSans-99"/>
      <use x="373.703125" xlink:href="#DejaVuSans-97"/>
      <use x="434.982422" xlink:href="#DejaVuSans-115"/>
      <use x="487.082031" xlink:href="#DejaVuSans-111"/>
      <use x="550.138672" xlink:href="#DejaVuSans-45"/>
      <use x="582.597656" xlink:href="#DejaVuSans-66"/>
      <use x="651.201172" xlink:href="#DejaVuSans-84"/>
      <use x="703.160156" xlink:href="#DejaVuSans-45"/>
      <use x="739.244141" xlink:href="#DejaVuSans-70"/>
     </g>
    </g>
    <g id="PathCollection_5">
     <defs>
      <path d="M 0 3 
C 0.795609 3 1.55874 2.683901 2.12132 2.12132 
C 2.683901 1.55874 3 0.795609 3 0 
C 3 -0.795609 2.683901 -1.55874 2.12132 -2.12132 
C 1.55874 -2.683901 0.795609 -3 0 -3 
C -0.795609 -3 -1.55874 -2.683901 -2.12132 -2.12132 
C -2.683901 -1.55874 -3 -0.795609 -3 0 
C -3 0.795609 -2.683901 1.55874 -2.12132 2.12132 
C -1.55874 2.683901 -0.795609 3 0 3 
z
" id="m68303dfaf4" style="stroke:#ff7f0e;"/>
     </defs>
     <g>
      <use style="fill:#ff7f0e;stroke:#ff7f0e;" x="282.235938" xlink:href="#m68303dfaf4" y="167.107062"/>
     </g>
    </g>
    <g id="text_21">
     <!-- mejor-caso-BT-O -->
     <g transform="translate(300.235938 169.732062)scale(0.1 -0.1)">
      <use xlink:href="#DejaVuSans-109"/>
      <use x="97.412109" xlink:href="#DejaVuSans-101"/>
      <use x="158.935547" xlink:href="#DejaVuSans-106"/>
      <use x="186.71875" xlink:href="#DejaVuSans-111"/>
      <use x="247.900391" xlink:href="#DejaVuSans-114"/>
      <use x="282.638672" xlink:href="#DejaVuSans-45"/>
      <use x="318.722656" xlink:href="#DejaVuSans-99"/>
      <use x="373.703125" xlink:href="#DejaVuSans-97"/>
      <use x="434.982422" xlink:href="#DejaVuSans-115"/>
      <use x="487.082031" xlink:href="#DejaVuSans-111"/>
      <use x="550.138672" xlink:href="#DejaVuSans-45"/>
      <use x="582.597656" xlink:href="#DejaVuSans-66"/>
      <use x="651.201172" xlink:href="#DejaVuSans-84"/>
      <use x="703.160156" xlink:href="#DejaVuSans-45"/>
      <use x="741.994141" xlink:href="#DejaVuSans-79"/>
     </g>
    </g>
   </g>
  </g>
 </g>
 <defs>
  <clipPath id="p26376e53df">
   <rect height="217.44" width="334.8" x="56.50625" y="36.2355"/>
  </clipPath>
 </defs>
</svg>
