<?xml version="1.0" encoding="utf-8" standalone="no"?>
<!DOCTYPE svg PUBLIC "-//W3C//DTD SVG 1.1//EN"
  "http://www.w3.org/Graphics/SVG/1.1/DTD/svg11.dtd">
<!-- Created with matplotlib (https://matplotlib.org/) -->
<svg height="291.23175pt" version="1.1" viewBox="0 0 389.574375 291.23175" width="389.574375pt" xmlns="http://www.w3.org/2000/svg" xmlns:xlink="http://www.w3.org/1999/xlink">
 <metadata>
  <rdf:RDF xmlns:cc="http://creativecommons.org/ns#" xmlns:dc="http://purl.org/dc/elements/1.1/" xmlns:rdf="http://www.w3.org/1999/02/22-rdf-syntax-ns#">
   <cc:Work>
    <dc:type rdf:resource="http://purl.org/dc/dcmitype/StillImage"/>
    <dc:date>2021-04-28T08:12:12.050960</dc:date>
    <dc:format>image/svg+xml</dc:format>
    <dc:creator>
     <cc:Agent>
      <dc:title>Matplotlib v3.3.4, https://matplotlib.org/</dc:title>
     </cc:Agent>
    </dc:creator>
   </cc:Work>
  </rdf:RDF>
 </metadata>
 <defs>
  <style type="text/css">*{stroke-linecap:butt;stroke-linejoin:round;}</style>
 </defs>
 <g id="figure_1">
  <g id="patch_1">
   <path d="M 0 291.23175 
L 389.574375 291.23175 
L 389.574375 0 
L 0 0 
z
" style="fill:none;"/>
  </g>
  <g id="axes_1">
   <g id="patch_2">
    <path d="M 40.603125 253.6755 
L 375.403125 253.6755 
L 375.403125 36.2355 
L 40.603125 36.2355 
z
" style="fill:#ffffff;"/>
   </g>
   <g id="PathCollection_1">
    <defs>
     <path d="M 0 3 
C 0.795609 3 1.55874 2.683901 2.12132 2.12132 
C 2.683901 1.55874 3 0.795609 3 -0 
C 3 -0.795609 2.683901 -1.55874 2.12132 -2.12132 
C 1.55874 -2.683901 0.795609 -3 0 -3 
C -0.795609 -3 -1.55874 -2.683901 -2.12132 -2.12132 
C -2.683901 -1.55874 -3 -0.795609 -3 0 
C -3 0.795609 -2.683901 1.55874 -2.12132 2.12132 
C -1.55874 2.683901 -0.795609 3 0 3 
z
" id="C0_0_fb9ba21224"/>
    </defs>
    <g clip-path="url(#p0abcac4fa6)">
     <use style="fill:#1f77b4;stroke:#ffffff;stroke-width:0.48;" x="55.821307" xlink:href="#C0_0_fb9ba21224" y="243.791864"/>
    </g>
    <g clip-path="url(#p0abcac4fa6)">
     <use style="fill:#1f77b4;stroke:#ffffff;stroke-width:0.48;" x="58.575729" xlink:href="#C0_0_fb9ba21224" y="242.163044"/>
    </g>
    <g clip-path="url(#p0abcac4fa6)">
     <use style="fill:#1f77b4;stroke:#ffffff;stroke-width:0.48;" x="61.330151" xlink:href="#C0_0_fb9ba21224" y="240.666756"/>
    </g>
    <g clip-path="url(#p0abcac4fa6)">
     <use style="fill:#1f77b4;stroke:#ffffff;stroke-width:0.48;" x="64.084573" xlink:href="#C0_0_fb9ba21224" y="239.527694"/>
    </g>
    <g clip-path="url(#p0abcac4fa6)">
     <use style="fill:#1f77b4;stroke:#ffffff;stroke-width:0.48;" x="66.838995" xlink:href="#C0_0_fb9ba21224" y="237.558357"/>
    </g>
    <g clip-path="url(#p0abcac4fa6)">
     <use style="fill:#1f77b4;stroke:#ffffff;stroke-width:0.48;" x="69.593417" xlink:href="#C0_0_fb9ba21224" y="236.357274"/>
    </g>
    <g clip-path="url(#p0abcac4fa6)">
     <use style="fill:#1f77b4;stroke:#ffffff;stroke-width:0.48;" x="72.347839" xlink:href="#C0_0_fb9ba21224" y="234.582289"/>
    </g>
    <g clip-path="url(#p0abcac4fa6)">
     <use style="fill:#1f77b4;stroke:#ffffff;stroke-width:0.48;" x="75.102261" xlink:href="#C0_0_fb9ba21224" y="232.967401"/>
    </g>
    <g clip-path="url(#p0abcac4fa6)">
     <use style="fill:#1f77b4;stroke:#ffffff;stroke-width:0.48;" x="77.856683" xlink:href="#C0_0_fb9ba21224" y="231.197369"/>
    </g>
    <g clip-path="url(#p0abcac4fa6)">
     <use style="fill:#1f77b4;stroke:#ffffff;stroke-width:0.48;" x="80.611105" xlink:href="#C0_0_fb9ba21224" y="229.940719"/>
    </g>
    <g clip-path="url(#p0abcac4fa6)">
     <use style="fill:#1f77b4;stroke:#ffffff;stroke-width:0.48;" x="83.365527" xlink:href="#C0_0_fb9ba21224" y="228.168774"/>
    </g>
    <g clip-path="url(#p0abcac4fa6)">
     <use style="fill:#1f77b4;stroke:#ffffff;stroke-width:0.48;" x="86.119949" xlink:href="#C0_0_fb9ba21224" y="226.672373"/>
    </g>
    <g clip-path="url(#p0abcac4fa6)">
     <use style="fill:#1f77b4;stroke:#ffffff;stroke-width:0.48;" x="88.874371" xlink:href="#C0_0_fb9ba21224" y="225.103972"/>
    </g>
    <g clip-path="url(#p0abcac4fa6)">
     <use style="fill:#1f77b4;stroke:#ffffff;stroke-width:0.48;" x="91.628793" xlink:href="#C0_0_fb9ba21224" y="223.574629"/>
    </g>
    <g clip-path="url(#p0abcac4fa6)">
     <use style="fill:#1f77b4;stroke:#ffffff;stroke-width:0.48;" x="58.575729" xlink:href="#C0_0_fb9ba21224" y="241.910161"/>
    </g>
    <g clip-path="url(#p0abcac4fa6)">
     <use style="fill:#1f77b4;stroke:#ffffff;stroke-width:0.48;" x="62.707362" xlink:href="#C0_0_fb9ba21224" y="239.244382"/>
    </g>
    <g clip-path="url(#p0abcac4fa6)">
     <use style="fill:#1f77b4;stroke:#ffffff;stroke-width:0.48;" x="66.838995" xlink:href="#C0_0_fb9ba21224" y="237.044599"/>
    </g>
    <g clip-path="url(#p0abcac4fa6)">
     <use style="fill:#1f77b4;stroke:#ffffff;stroke-width:0.48;" x="70.970628" xlink:href="#C0_0_fb9ba21224" y="234.385648"/>
    </g>
    <g clip-path="url(#p0abcac4fa6)">
     <use style="fill:#1f77b4;stroke:#ffffff;stroke-width:0.48;" x="75.102261" xlink:href="#C0_0_fb9ba21224" y="231.936433"/>
    </g>
    <g clip-path="url(#p0abcac4fa6)">
     <use style="fill:#1f77b4;stroke:#ffffff;stroke-width:0.48;" x="79.233894" xlink:href="#C0_0_fb9ba21224" y="229.178806"/>
    </g>
    <g clip-path="url(#p0abcac4fa6)">
     <use style="fill:#1f77b4;stroke:#ffffff;stroke-width:0.48;" x="83.365527" xlink:href="#C0_0_fb9ba21224" y="226.884922"/>
    </g>
    <g clip-path="url(#p0abcac4fa6)">
     <use style="fill:#1f77b4;stroke:#ffffff;stroke-width:0.48;" x="87.49716" xlink:href="#C0_0_fb9ba21224" y="224.510897"/>
    </g>
    <g clip-path="url(#p0abcac4fa6)">
     <use style="fill:#1f77b4;stroke:#ffffff;stroke-width:0.48;" x="91.628793" xlink:href="#C0_0_fb9ba21224" y="221.857649"/>
    </g>
    <g clip-path="url(#p0abcac4fa6)">
     <use style="fill:#1f77b4;stroke:#ffffff;stroke-width:0.48;" x="95.760427" xlink:href="#C0_0_fb9ba21224" y="219.686343"/>
    </g>
    <g clip-path="url(#p0abcac4fa6)">
     <use style="fill:#1f77b4;stroke:#ffffff;stroke-width:0.48;" x="99.89206" xlink:href="#C0_0_fb9ba21224" y="217.472752"/>
    </g>
    <g clip-path="url(#p0abcac4fa6)">
     <use style="fill:#1f77b4;stroke:#ffffff;stroke-width:0.48;" x="104.023693" xlink:href="#C0_0_fb9ba21224" y="214.903624"/>
    </g>
    <g clip-path="url(#p0abcac4fa6)">
     <use style="fill:#1f77b4;stroke:#ffffff;stroke-width:0.48;" x="108.155326" xlink:href="#C0_0_fb9ba21224" y="212.664107"/>
    </g>
    <g clip-path="url(#p0abcac4fa6)">
     <use style="fill:#1f77b4;stroke:#ffffff;stroke-width:0.48;" x="112.286959" xlink:href="#C0_0_fb9ba21224" y="210.405267"/>
    </g>
    <g clip-path="url(#p0abcac4fa6)">
     <use style="fill:#1f77b4;stroke:#ffffff;stroke-width:0.48;" x="61.330151" xlink:href="#C0_0_fb9ba21224" y="240.122382"/>
    </g>
    <g clip-path="url(#p0abcac4fa6)">
     <use style="fill:#1f77b4;stroke:#ffffff;stroke-width:0.48;" x="66.838995" xlink:href="#C0_0_fb9ba21224" y="236.829423"/>
    </g>
    <g clip-path="url(#p0abcac4fa6)">
     <use style="fill:#1f77b4;stroke:#ffffff;stroke-width:0.48;" x="72.347839" xlink:href="#C0_0_fb9ba21224" y="233.341548"/>
    </g>
    <g clip-path="url(#p0abcac4fa6)">
     <use style="fill:#1f77b4;stroke:#ffffff;stroke-width:0.48;" x="77.856683" xlink:href="#C0_0_fb9ba21224" y="230.396397"/>
    </g>
    <g clip-path="url(#p0abcac4fa6)">
     <use style="fill:#1f77b4;stroke:#ffffff;stroke-width:0.48;" x="83.365527" xlink:href="#C0_0_fb9ba21224" y="226.808119"/>
    </g>
    <g clip-path="url(#p0abcac4fa6)">
     <use style="fill:#1f77b4;stroke:#ffffff;stroke-width:0.48;" x="88.874371" xlink:href="#C0_0_fb9ba21224" y="223.138086"/>
    </g>
    <g clip-path="url(#p0abcac4fa6)">
     <use style="fill:#1f77b4;stroke:#ffffff;stroke-width:0.48;" x="94.383215" xlink:href="#C0_0_fb9ba21224" y="219.979072"/>
    </g>
    <g clip-path="url(#p0abcac4fa6)">
     <use style="fill:#1f77b4;stroke:#ffffff;stroke-width:0.48;" x="99.89206" xlink:href="#C0_0_fb9ba21224" y="216.703972"/>
    </g>
    <g clip-path="url(#p0abcac4fa6)">
     <use style="fill:#1f77b4;stroke:#ffffff;stroke-width:0.48;" x="105.400904" xlink:href="#C0_0_fb9ba21224" y="213.277743"/>
    </g>
    <g clip-path="url(#p0abcac4fa6)">
     <use style="fill:#1f77b4;stroke:#ffffff;stroke-width:0.48;" x="110.909748" xlink:href="#C0_0_fb9ba21224" y="209.758127"/>
    </g>
    <g clip-path="url(#p0abcac4fa6)">
     <use style="fill:#1f77b4;stroke:#ffffff;stroke-width:0.48;" x="116.418592" xlink:href="#C0_0_fb9ba21224" y="206.602039"/>
    </g>
    <g clip-path="url(#p0abcac4fa6)">
     <use style="fill:#1f77b4;stroke:#ffffff;stroke-width:0.48;" x="121.927436" xlink:href="#C0_0_fb9ba21224" y="202.804289"/>
    </g>
    <g clip-path="url(#p0abcac4fa6)">
     <use style="fill:#1f77b4;stroke:#ffffff;stroke-width:0.48;" x="127.43628" xlink:href="#C0_0_fb9ba21224" y="200.054841"/>
    </g>
    <g clip-path="url(#p0abcac4fa6)">
     <use style="fill:#1f77b4;stroke:#ffffff;stroke-width:0.48;" x="132.945124" xlink:href="#C0_0_fb9ba21224" y="196.687067"/>
    </g>
    <g clip-path="url(#p0abcac4fa6)">
     <use style="fill:#1f77b4;stroke:#ffffff;stroke-width:0.48;" x="64.084573" xlink:href="#C0_0_fb9ba21224" y="238.432304"/>
    </g>
    <g clip-path="url(#p0abcac4fa6)">
     <use style="fill:#1f77b4;stroke:#ffffff;stroke-width:0.48;" x="70.970628" xlink:href="#C0_0_fb9ba21224" y="234.026959"/>
    </g>
    <g clip-path="url(#p0abcac4fa6)">
     <use style="fill:#1f77b4;stroke:#ffffff;stroke-width:0.48;" x="77.856683" xlink:href="#C0_0_fb9ba21224" y="229.748468"/>
    </g>
    <g clip-path="url(#p0abcac4fa6)">
     <use style="fill:#1f77b4;stroke:#ffffff;stroke-width:0.48;" x="84.742738" xlink:href="#C0_0_fb9ba21224" y="225.202236"/>
    </g>
    <g clip-path="url(#p0abcac4fa6)">
     <use style="fill:#1f77b4;stroke:#ffffff;stroke-width:0.48;" x="91.628793" xlink:href="#C0_0_fb9ba21224" y="220.765412"/>
    </g>
    <g clip-path="url(#p0abcac4fa6)">
     <use style="fill:#1f77b4;stroke:#ffffff;stroke-width:0.48;" x="98.514849" xlink:href="#C0_0_fb9ba21224" y="216.810153"/>
    </g>
    <g clip-path="url(#p0abcac4fa6)">
     <use style="fill:#1f77b4;stroke:#ffffff;stroke-width:0.48;" x="105.400904" xlink:href="#C0_0_fb9ba21224" y="211.47882"/>
    </g>
    <g clip-path="url(#p0abcac4fa6)">
     <use style="fill:#1f77b4;stroke:#ffffff;stroke-width:0.48;" x="112.286959" xlink:href="#C0_0_fb9ba21224" y="208.485906"/>
    </g>
    <g clip-path="url(#p0abcac4fa6)">
     <use style="fill:#1f77b4;stroke:#ffffff;stroke-width:0.48;" x="119.173014" xlink:href="#C0_0_fb9ba21224" y="204.280316"/>
    </g>
    <g clip-path="url(#p0abcac4fa6)">
     <use style="fill:#1f77b4;stroke:#ffffff;stroke-width:0.48;" x="126.059069" xlink:href="#C0_0_fb9ba21224" y="200.418407"/>
    </g>
    <g clip-path="url(#p0abcac4fa6)">
     <use style="fill:#1f77b4;stroke:#ffffff;stroke-width:0.48;" x="132.945124" xlink:href="#C0_0_fb9ba21224" y="196.225199"/>
    </g>
    <g clip-path="url(#p0abcac4fa6)">
     <use style="fill:#1f77b4;stroke:#ffffff;stroke-width:0.48;" x="139.831179" xlink:href="#C0_0_fb9ba21224" y="191.087993"/>
    </g>
    <g clip-path="url(#p0abcac4fa6)">
     <use style="fill:#1f77b4;stroke:#ffffff;stroke-width:0.48;" x="146.717234" xlink:href="#C0_0_fb9ba21224" y="188.18659"/>
    </g>
    <g clip-path="url(#p0abcac4fa6)">
     <use style="fill:#1f77b4;stroke:#ffffff;stroke-width:0.48;" x="153.60329" xlink:href="#C0_0_fb9ba21224" y="183.996007"/>
    </g>
    <g clip-path="url(#p0abcac4fa6)">
     <use style="fill:#1f77b4;stroke:#ffffff;stroke-width:0.48;" x="66.838995" xlink:href="#C0_0_fb9ba21224" y="236.846832"/>
    </g>
    <g clip-path="url(#p0abcac4fa6)">
     <use style="fill:#1f77b4;stroke:#ffffff;stroke-width:0.48;" x="75.102261" xlink:href="#C0_0_fb9ba21224" y="231.078431"/>
    </g>
    <g clip-path="url(#p0abcac4fa6)">
     <use style="fill:#1f77b4;stroke:#ffffff;stroke-width:0.48;" x="83.365527" xlink:href="#C0_0_fb9ba21224" y="225.747623"/>
    </g>
    <g clip-path="url(#p0abcac4fa6)">
     <use style="fill:#1f77b4;stroke:#ffffff;stroke-width:0.48;" x="91.628793" xlink:href="#C0_0_fb9ba21224" y="220.980437"/>
    </g>
    <g clip-path="url(#p0abcac4fa6)">
     <use style="fill:#1f77b4;stroke:#ffffff;stroke-width:0.48;" x="99.89206" xlink:href="#C0_0_fb9ba21224" y="216.057469"/>
    </g>
    <g clip-path="url(#p0abcac4fa6)">
     <use style="fill:#1f77b4;stroke:#ffffff;stroke-width:0.48;" x="108.155326" xlink:href="#C0_0_fb9ba21224" y="210.869574"/>
    </g>
    <g clip-path="url(#p0abcac4fa6)">
     <use style="fill:#1f77b4;stroke:#ffffff;stroke-width:0.48;" x="116.418592" xlink:href="#C0_0_fb9ba21224" y="205.73008"/>
    </g>
    <g clip-path="url(#p0abcac4fa6)">
     <use style="fill:#1f77b4;stroke:#ffffff;stroke-width:0.48;" x="124.681858" xlink:href="#C0_0_fb9ba21224" y="200.477313"/>
    </g>
    <g clip-path="url(#p0abcac4fa6)">
     <use style="fill:#1f77b4;stroke:#ffffff;stroke-width:0.48;" x="132.945124" xlink:href="#C0_0_fb9ba21224" y="195.542714"/>
    </g>
    <g clip-path="url(#p0abcac4fa6)">
     <use style="fill:#1f77b4;stroke:#ffffff;stroke-width:0.48;" x="141.20839" xlink:href="#C0_0_fb9ba21224" y="190.608865"/>
    </g>
    <g clip-path="url(#p0abcac4fa6)">
     <use style="fill:#1f77b4;stroke:#ffffff;stroke-width:0.48;" x="149.471656" xlink:href="#C0_0_fb9ba21224" y="185.79433"/>
    </g>
    <g clip-path="url(#p0abcac4fa6)">
     <use style="fill:#1f77b4;stroke:#ffffff;stroke-width:0.48;" x="157.734923" xlink:href="#C0_0_fb9ba21224" y="181.092353"/>
    </g>
    <g clip-path="url(#p0abcac4fa6)">
     <use style="fill:#1f77b4;stroke:#ffffff;stroke-width:0.48;" x="165.998189" xlink:href="#C0_0_fb9ba21224" y="176.009926"/>
    </g>
    <g clip-path="url(#p0abcac4fa6)">
     <use style="fill:#1f77b4;stroke:#ffffff;stroke-width:0.48;" x="174.261455" xlink:href="#C0_0_fb9ba21224" y="171.316579"/>
    </g>
    <g clip-path="url(#p0abcac4fa6)">
     <use style="fill:#1f77b4;stroke:#ffffff;stroke-width:0.48;" x="69.593417" xlink:href="#C0_0_fb9ba21224" y="234.905109"/>
    </g>
    <g clip-path="url(#p0abcac4fa6)">
     <use style="fill:#1f77b4;stroke:#ffffff;stroke-width:0.48;" x="79.233894" xlink:href="#C0_0_fb9ba21224" y="228.611319"/>
    </g>
    <g clip-path="url(#p0abcac4fa6)">
     <use style="fill:#1f77b4;stroke:#ffffff;stroke-width:0.48;" x="88.874371" xlink:href="#C0_0_fb9ba21224" y="222.217652"/>
    </g>
    <g clip-path="url(#p0abcac4fa6)">
     <use style="fill:#1f77b4;stroke:#ffffff;stroke-width:0.48;" x="98.514849" xlink:href="#C0_0_fb9ba21224" y="216.30116"/>
    </g>
    <g clip-path="url(#p0abcac4fa6)">
     <use style="fill:#1f77b4;stroke:#ffffff;stroke-width:0.48;" x="108.155326" xlink:href="#C0_0_fb9ba21224" y="210.487661"/>
    </g>
    <g clip-path="url(#p0abcac4fa6)">
     <use style="fill:#1f77b4;stroke:#ffffff;stroke-width:0.48;" x="117.795803" xlink:href="#C0_0_fb9ba21224" y="203.540051"/>
    </g>
    <g clip-path="url(#p0abcac4fa6)">
     <use style="fill:#1f77b4;stroke:#ffffff;stroke-width:0.48;" x="127.43628" xlink:href="#C0_0_fb9ba21224" y="198.060665"/>
    </g>
    <g clip-path="url(#p0abcac4fa6)">
     <use style="fill:#1f77b4;stroke:#ffffff;stroke-width:0.48;" x="137.076757" xlink:href="#C0_0_fb9ba21224" y="191.981338"/>
    </g>
    <g clip-path="url(#p0abcac4fa6)">
     <use style="fill:#1f77b4;stroke:#ffffff;stroke-width:0.48;" x="146.717234" xlink:href="#C0_0_fb9ba21224" y="185.841229"/>
    </g>
    <g clip-path="url(#p0abcac4fa6)">
     <use style="fill:#1f77b4;stroke:#ffffff;stroke-width:0.48;" x="156.357712" xlink:href="#C0_0_fb9ba21224" y="180.302187"/>
    </g>
    <g clip-path="url(#p0abcac4fa6)">
     <use style="fill:#1f77b4;stroke:#ffffff;stroke-width:0.48;" x="165.998189" xlink:href="#C0_0_fb9ba21224" y="174.488875"/>
    </g>
    <g clip-path="url(#p0abcac4fa6)">
     <use style="fill:#1f77b4;stroke:#ffffff;stroke-width:0.48;" x="175.638666" xlink:href="#C0_0_fb9ba21224" y="168.622285"/>
    </g>
    <g clip-path="url(#p0abcac4fa6)">
     <use style="fill:#1f77b4;stroke:#ffffff;stroke-width:0.48;" x="185.279143" xlink:href="#C0_0_fb9ba21224" y="163.488831"/>
    </g>
    <g clip-path="url(#p0abcac4fa6)">
     <use style="fill:#1f77b4;stroke:#ffffff;stroke-width:0.48;" x="194.91962" xlink:href="#C0_0_fb9ba21224" y="156.522912"/>
    </g>
    <g clip-path="url(#p0abcac4fa6)">
     <use style="fill:#1f77b4;stroke:#ffffff;stroke-width:0.48;" x="72.347839" xlink:href="#C0_0_fb9ba21224" y="232.751475"/>
    </g>
    <g clip-path="url(#p0abcac4fa6)">
     <use style="fill:#1f77b4;stroke:#ffffff;stroke-width:0.48;" x="83.365527" xlink:href="#C0_0_fb9ba21224" y="225.785068"/>
    </g>
    <g clip-path="url(#p0abcac4fa6)">
     <use style="fill:#1f77b4;stroke:#ffffff;stroke-width:0.48;" x="94.383215" xlink:href="#C0_0_fb9ba21224" y="218.436297"/>
    </g>
    <g clip-path="url(#p0abcac4fa6)">
     <use style="fill:#1f77b4;stroke:#ffffff;stroke-width:0.48;" x="105.400904" xlink:href="#C0_0_fb9ba21224" y="212.130539"/>
    </g>
    <g clip-path="url(#p0abcac4fa6)">
     <use style="fill:#1f77b4;stroke:#ffffff;stroke-width:0.48;" x="116.418592" xlink:href="#C0_0_fb9ba21224" y="204.806343"/>
    </g>
    <g clip-path="url(#p0abcac4fa6)">
     <use style="fill:#1f77b4;stroke:#ffffff;stroke-width:0.48;" x="127.43628" xlink:href="#C0_0_fb9ba21224" y="198.531163"/>
    </g>
    <g clip-path="url(#p0abcac4fa6)">
     <use style="fill:#1f77b4;stroke:#ffffff;stroke-width:0.48;" x="138.453968" xlink:href="#C0_0_fb9ba21224" y="191.184794"/>
    </g>
    <g clip-path="url(#p0abcac4fa6)">
     <use style="fill:#1f77b4;stroke:#ffffff;stroke-width:0.48;" x="149.471656" xlink:href="#C0_0_fb9ba21224" y="184.263148"/>
    </g>
    <g clip-path="url(#p0abcac4fa6)">
     <use style="fill:#1f77b4;stroke:#ffffff;stroke-width:0.48;" x="160.489345" xlink:href="#C0_0_fb9ba21224" y="178.201831"/>
    </g>
    <g clip-path="url(#p0abcac4fa6)">
     <use style="fill:#1f77b4;stroke:#ffffff;stroke-width:0.48;" x="171.507033" xlink:href="#C0_0_fb9ba21224" y="171.573214"/>
    </g>
    <g clip-path="url(#p0abcac4fa6)">
     <use style="fill:#1f77b4;stroke:#ffffff;stroke-width:0.48;" x="182.524721" xlink:href="#C0_0_fb9ba21224" y="165.189227"/>
    </g>
    <g clip-path="url(#p0abcac4fa6)">
     <use style="fill:#1f77b4;stroke:#ffffff;stroke-width:0.48;" x="193.542409" xlink:href="#C0_0_fb9ba21224" y="158.261578"/>
    </g>
    <g clip-path="url(#p0abcac4fa6)">
     <use style="fill:#1f77b4;stroke:#ffffff;stroke-width:0.48;" x="204.560097" xlink:href="#C0_0_fb9ba21224" y="151.987148"/>
    </g>
    <g clip-path="url(#p0abcac4fa6)">
     <use style="fill:#1f77b4;stroke:#ffffff;stroke-width:0.48;" x="215.577786" xlink:href="#C0_0_fb9ba21224" y="143.938784"/>
    </g>
    <g clip-path="url(#p0abcac4fa6)">
     <use style="fill:#1f77b4;stroke:#ffffff;stroke-width:0.48;" x="75.102261" xlink:href="#C0_0_fb9ba21224" y="230.526966"/>
    </g>
    <g clip-path="url(#p0abcac4fa6)">
     <use style="fill:#1f77b4;stroke:#ffffff;stroke-width:0.48;" x="87.49716" xlink:href="#C0_0_fb9ba21224" y="222.444871"/>
    </g>
    <g clip-path="url(#p0abcac4fa6)">
     <use style="fill:#1f77b4;stroke:#ffffff;stroke-width:0.48;" x="99.89206" xlink:href="#C0_0_fb9ba21224" y="214.695727"/>
    </g>
    <g clip-path="url(#p0abcac4fa6)">
     <use style="fill:#1f77b4;stroke:#ffffff;stroke-width:0.48;" x="112.286959" xlink:href="#C0_0_fb9ba21224" y="207.386202"/>
    </g>
    <g clip-path="url(#p0abcac4fa6)">
     <use style="fill:#1f77b4;stroke:#ffffff;stroke-width:0.48;" x="124.681858" xlink:href="#C0_0_fb9ba21224" y="199.831223"/>
    </g>
    <g clip-path="url(#p0abcac4fa6)">
     <use style="fill:#1f77b4;stroke:#ffffff;stroke-width:0.48;" x="137.076757" xlink:href="#C0_0_fb9ba21224" y="191.218937"/>
    </g>
    <g clip-path="url(#p0abcac4fa6)">
     <use style="fill:#1f77b4;stroke:#ffffff;stroke-width:0.48;" x="149.471656" xlink:href="#C0_0_fb9ba21224" y="183.909337"/>
    </g>
    <g clip-path="url(#p0abcac4fa6)">
     <use style="fill:#1f77b4;stroke:#ffffff;stroke-width:0.48;" x="161.866556" xlink:href="#C0_0_fb9ba21224" y="176.098848"/>
    </g>
    <g clip-path="url(#p0abcac4fa6)">
     <use style="fill:#1f77b4;stroke:#ffffff;stroke-width:0.48;" x="174.261455" xlink:href="#C0_0_fb9ba21224" y="168.467328"/>
    </g>
    <g clip-path="url(#p0abcac4fa6)">
     <use style="fill:#1f77b4;stroke:#ffffff;stroke-width:0.48;" x="186.656354" xlink:href="#C0_0_fb9ba21224" y="161.416239"/>
    </g>
    <g clip-path="url(#p0abcac4fa6)">
     <use style="fill:#1f77b4;stroke:#ffffff;stroke-width:0.48;" x="199.051253" xlink:href="#C0_0_fb9ba21224" y="153.528835"/>
    </g>
    <g clip-path="url(#p0abcac4fa6)">
     <use style="fill:#1f77b4;stroke:#ffffff;stroke-width:0.48;" x="211.446153" xlink:href="#C0_0_fb9ba21224" y="146.732505"/>
    </g>
    <g clip-path="url(#p0abcac4fa6)">
     <use style="fill:#1f77b4;stroke:#ffffff;stroke-width:0.48;" x="223.841052" xlink:href="#C0_0_fb9ba21224" y="139.623261"/>
    </g>
    <g clip-path="url(#p0abcac4fa6)">
     <use style="fill:#1f77b4;stroke:#ffffff;stroke-width:0.48;" x="236.235951" xlink:href="#C0_0_fb9ba21224" y="131.435698"/>
    </g>
    <g clip-path="url(#p0abcac4fa6)">
     <use style="fill:#1f77b4;stroke:#ffffff;stroke-width:0.48;" x="77.856683" xlink:href="#C0_0_fb9ba21224" y="228.948434"/>
    </g>
    <g clip-path="url(#p0abcac4fa6)">
     <use style="fill:#1f77b4;stroke:#ffffff;stroke-width:0.48;" x="91.628793" xlink:href="#C0_0_fb9ba21224" y="220.109604"/>
    </g>
    <g clip-path="url(#p0abcac4fa6)">
     <use style="fill:#1f77b4;stroke:#ffffff;stroke-width:0.48;" x="105.400904" xlink:href="#C0_0_fb9ba21224" y="211.675837"/>
    </g>
    <g clip-path="url(#p0abcac4fa6)">
     <use style="fill:#1f77b4;stroke:#ffffff;stroke-width:0.48;" x="119.173014" xlink:href="#C0_0_fb9ba21224" y="202.329289"/>
    </g>
    <g clip-path="url(#p0abcac4fa6)">
     <use style="fill:#1f77b4;stroke:#ffffff;stroke-width:0.48;" x="132.945124" xlink:href="#C0_0_fb9ba21224" y="193.782287"/>
    </g>
    <g clip-path="url(#p0abcac4fa6)">
     <use style="fill:#1f77b4;stroke:#ffffff;stroke-width:0.48;" x="146.717234" xlink:href="#C0_0_fb9ba21224" y="185.321205"/>
    </g>
    <g clip-path="url(#p0abcac4fa6)">
     <use style="fill:#1f77b4;stroke:#ffffff;stroke-width:0.48;" x="160.489345" xlink:href="#C0_0_fb9ba21224" y="177.146024"/>
    </g>
    <g clip-path="url(#p0abcac4fa6)">
     <use style="fill:#1f77b4;stroke:#ffffff;stroke-width:0.48;" x="174.261455" xlink:href="#C0_0_fb9ba21224" y="168.14691"/>
    </g>
    <g clip-path="url(#p0abcac4fa6)">
     <use style="fill:#1f77b4;stroke:#ffffff;stroke-width:0.48;" x="188.033565" xlink:href="#C0_0_fb9ba21224" y="160.082412"/>
    </g>
    <g clip-path="url(#p0abcac4fa6)">
     <use style="fill:#1f77b4;stroke:#ffffff;stroke-width:0.48;" x="201.805675" xlink:href="#C0_0_fb9ba21224" y="152.412997"/>
    </g>
    <g clip-path="url(#p0abcac4fa6)">
     <use style="fill:#1f77b4;stroke:#ffffff;stroke-width:0.48;" x="215.577786" xlink:href="#C0_0_fb9ba21224" y="144.106872"/>
    </g>
    <g clip-path="url(#p0abcac4fa6)">
     <use style="fill:#1f77b4;stroke:#ffffff;stroke-width:0.48;" x="229.349896" xlink:href="#C0_0_fb9ba21224" y="136.085147"/>
    </g>
    <g clip-path="url(#p0abcac4fa6)">
     <use style="fill:#1f77b4;stroke:#ffffff;stroke-width:0.48;" x="243.122006" xlink:href="#C0_0_fb9ba21224" y="127.605681"/>
    </g>
    <g clip-path="url(#p0abcac4fa6)">
     <use style="fill:#1f77b4;stroke:#ffffff;stroke-width:0.48;" x="256.894116" xlink:href="#C0_0_fb9ba21224" y="118.85157"/>
    </g>
    <g clip-path="url(#p0abcac4fa6)">
     <use style="fill:#1f77b4;stroke:#ffffff;stroke-width:0.48;" x="80.611105" xlink:href="#C0_0_fb9ba21224" y="227.12261"/>
    </g>
    <g clip-path="url(#p0abcac4fa6)">
     <use style="fill:#1f77b4;stroke:#ffffff;stroke-width:0.48;" x="95.760427" xlink:href="#C0_0_fb9ba21224" y="217.197733"/>
    </g>
    <g clip-path="url(#p0abcac4fa6)">
     <use style="fill:#1f77b4;stroke:#ffffff;stroke-width:0.48;" x="110.909748" xlink:href="#C0_0_fb9ba21224" y="207.547912"/>
    </g>
    <g clip-path="url(#p0abcac4fa6)">
     <use style="fill:#1f77b4;stroke:#ffffff;stroke-width:0.48;" x="126.059069" xlink:href="#C0_0_fb9ba21224" y="197.830669"/>
    </g>
    <g clip-path="url(#p0abcac4fa6)">
     <use style="fill:#1f77b4;stroke:#ffffff;stroke-width:0.48;" x="141.20839" xlink:href="#C0_0_fb9ba21224" y="188.592929"/>
    </g>
    <g clip-path="url(#p0abcac4fa6)">
     <use style="fill:#1f77b4;stroke:#ffffff;stroke-width:0.48;" x="156.357712" xlink:href="#C0_0_fb9ba21224" y="179.057656"/>
    </g>
    <g clip-path="url(#p0abcac4fa6)">
     <use style="fill:#1f77b4;stroke:#ffffff;stroke-width:0.48;" x="171.507033" xlink:href="#C0_0_fb9ba21224" y="169.780895"/>
    </g>
    <g clip-path="url(#p0abcac4fa6)">
     <use style="fill:#1f77b4;stroke:#ffffff;stroke-width:0.48;" x="186.656354" xlink:href="#C0_0_fb9ba21224" y="160.605437"/>
    </g>
    <g clip-path="url(#p0abcac4fa6)">
     <use style="fill:#1f77b4;stroke:#ffffff;stroke-width:0.48;" x="201.805675" xlink:href="#C0_0_fb9ba21224" y="150.808277"/>
    </g>
    <g clip-path="url(#p0abcac4fa6)">
     <use style="fill:#1f77b4;stroke:#ffffff;stroke-width:0.48;" x="216.954997" xlink:href="#C0_0_fb9ba21224" y="141.826046"/>
    </g>
    <g clip-path="url(#p0abcac4fa6)">
     <use style="fill:#1f77b4;stroke:#ffffff;stroke-width:0.48;" x="232.104318" xlink:href="#C0_0_fb9ba21224" y="131.863799"/>
    </g>
    <g clip-path="url(#p0abcac4fa6)">
     <use style="fill:#1f77b4;stroke:#ffffff;stroke-width:0.48;" x="247.253639" xlink:href="#C0_0_fb9ba21224" y="124.288559"/>
    </g>
    <g clip-path="url(#p0abcac4fa6)">
     <use style="fill:#1f77b4;stroke:#ffffff;stroke-width:0.48;" x="262.40296" xlink:href="#C0_0_fb9ba21224" y="115.644381"/>
    </g>
    <g clip-path="url(#p0abcac4fa6)">
     <use style="fill:#1f77b4;stroke:#ffffff;stroke-width:0.48;" x="277.552282" xlink:href="#C0_0_fb9ba21224" y="105.321569"/>
    </g>
    <g clip-path="url(#p0abcac4fa6)">
     <use style="fill:#1f77b4;stroke:#ffffff;stroke-width:0.48;" x="83.365527" xlink:href="#C0_0_fb9ba21224" y="225.632363"/>
    </g>
    <g clip-path="url(#p0abcac4fa6)">
     <use style="fill:#1f77b4;stroke:#ffffff;stroke-width:0.48;" x="99.89206" xlink:href="#C0_0_fb9ba21224" y="214.788439"/>
    </g>
    <g clip-path="url(#p0abcac4fa6)">
     <use style="fill:#1f77b4;stroke:#ffffff;stroke-width:0.48;" x="116.418592" xlink:href="#C0_0_fb9ba21224" y="204.400004"/>
    </g>
    <g clip-path="url(#p0abcac4fa6)">
     <use style="fill:#1f77b4;stroke:#ffffff;stroke-width:0.48;" x="132.945124" xlink:href="#C0_0_fb9ba21224" y="194.134222"/>
    </g>
    <g clip-path="url(#p0abcac4fa6)">
     <use style="fill:#1f77b4;stroke:#ffffff;stroke-width:0.48;" x="149.471656" xlink:href="#C0_0_fb9ba21224" y="181.469427"/>
    </g>
    <g clip-path="url(#p0abcac4fa6)">
     <use style="fill:#1f77b4;stroke:#ffffff;stroke-width:0.48;" x="165.998189" xlink:href="#C0_0_fb9ba21224" y="169.51563"/>
    </g>
    <g clip-path="url(#p0abcac4fa6)">
     <use style="fill:#1f77b4;stroke:#ffffff;stroke-width:0.48;" x="182.524721" xlink:href="#C0_0_fb9ba21224" y="163.806999"/>
    </g>
    <g clip-path="url(#p0abcac4fa6)">
     <use style="fill:#1f77b4;stroke:#ffffff;stroke-width:0.48;" x="199.051253" xlink:href="#C0_0_fb9ba21224" y="153.701051"/>
    </g>
    <g clip-path="url(#p0abcac4fa6)">
     <use style="fill:#1f77b4;stroke:#ffffff;stroke-width:0.48;" x="215.577786" xlink:href="#C0_0_fb9ba21224" y="143.523065"/>
    </g>
    <g clip-path="url(#p0abcac4fa6)">
     <use style="fill:#1f77b4;stroke:#ffffff;stroke-width:0.48;" x="232.104318" xlink:href="#C0_0_fb9ba21224" y="134.086845"/>
    </g>
    <g clip-path="url(#p0abcac4fa6)">
     <use style="fill:#1f77b4;stroke:#ffffff;stroke-width:0.48;" x="248.63085" xlink:href="#C0_0_fb9ba21224" y="123.232002"/>
    </g>
    <g clip-path="url(#p0abcac4fa6)">
     <use style="fill:#1f77b4;stroke:#ffffff;stroke-width:0.48;" x="265.157383" xlink:href="#C0_0_fb9ba21224" y="113.936106"/>
    </g>
    <g clip-path="url(#p0abcac4fa6)">
     <use style="fill:#1f77b4;stroke:#ffffff;stroke-width:0.48;" x="281.683915" xlink:href="#C0_0_fb9ba21224" y="103.58628"/>
    </g>
    <g clip-path="url(#p0abcac4fa6)">
     <use style="fill:#1f77b4;stroke:#ffffff;stroke-width:0.48;" x="298.210447" xlink:href="#C0_0_fb9ba21224" y="94.00861"/>
    </g>
    <g clip-path="url(#p0abcac4fa6)">
     <use style="fill:#1f77b4;stroke:#ffffff;stroke-width:0.48;" x="86.119949" xlink:href="#C0_0_fb9ba21224" y="223.773033"/>
    </g>
    <g clip-path="url(#p0abcac4fa6)">
     <use style="fill:#1f77b4;stroke:#ffffff;stroke-width:0.48;" x="104.023693" xlink:href="#C0_0_fb9ba21224" y="212.302342"/>
    </g>
    <g clip-path="url(#p0abcac4fa6)">
     <use style="fill:#1f77b4;stroke:#ffffff;stroke-width:0.48;" x="121.927436" xlink:href="#C0_0_fb9ba21224" y="200.651405"/>
    </g>
    <g clip-path="url(#p0abcac4fa6)">
     <use style="fill:#1f77b4;stroke:#ffffff;stroke-width:0.48;" x="139.831179" xlink:href="#C0_0_fb9ba21224" y="189.736531"/>
    </g>
    <g clip-path="url(#p0abcac4fa6)">
     <use style="fill:#1f77b4;stroke:#ffffff;stroke-width:0.48;" x="157.734923" xlink:href="#C0_0_fb9ba21224" y="178.937968"/>
    </g>
    <g clip-path="url(#p0abcac4fa6)">
     <use style="fill:#1f77b4;stroke:#ffffff;stroke-width:0.48;" x="175.638666" xlink:href="#C0_0_fb9ba21224" y="167.162391"/>
    </g>
    <g clip-path="url(#p0abcac4fa6)">
     <use style="fill:#1f77b4;stroke:#ffffff;stroke-width:0.48;" x="193.542409" xlink:href="#C0_0_fb9ba21224" y="155.487742"/>
    </g>
    <g clip-path="url(#p0abcac4fa6)">
     <use style="fill:#1f77b4;stroke:#ffffff;stroke-width:0.48;" x="211.446153" xlink:href="#C0_0_fb9ba21224" y="144.758215"/>
    </g>
    <g clip-path="url(#p0abcac4fa6)">
     <use style="fill:#1f77b4;stroke:#ffffff;stroke-width:0.48;" x="229.349896" xlink:href="#C0_0_fb9ba21224" y="133.603215"/>
    </g>
    <g clip-path="url(#p0abcac4fa6)">
     <use style="fill:#1f77b4;stroke:#ffffff;stroke-width:0.48;" x="247.253639" xlink:href="#C0_0_fb9ba21224" y="123.746023"/>
    </g>
    <g clip-path="url(#p0abcac4fa6)">
     <use style="fill:#1f77b4;stroke:#ffffff;stroke-width:0.48;" x="265.157383" xlink:href="#C0_0_fb9ba21224" y="113.163949"/>
    </g>
    <g clip-path="url(#p0abcac4fa6)">
     <use style="fill:#1f77b4;stroke:#ffffff;stroke-width:0.48;" x="283.061126" xlink:href="#C0_0_fb9ba21224" y="101.012424"/>
    </g>
    <g clip-path="url(#p0abcac4fa6)">
     <use style="fill:#1f77b4;stroke:#ffffff;stroke-width:0.48;" x="300.964869" xlink:href="#C0_0_fb9ba21224" y="90.01238"/>
    </g>
    <g clip-path="url(#p0abcac4fa6)">
     <use style="fill:#1f77b4;stroke:#ffffff;stroke-width:0.48;" x="318.868612" xlink:href="#C0_0_fb9ba21224" y="78.673533"/>
    </g>
    <g clip-path="url(#p0abcac4fa6)">
     <use style="fill:#1f77b4;stroke:#ffffff;stroke-width:0.48;" x="88.874371" xlink:href="#C0_0_fb9ba21224" y="221.941168"/>
    </g>
    <g clip-path="url(#p0abcac4fa6)">
     <use style="fill:#1f77b4;stroke:#ffffff;stroke-width:0.48;" x="108.155326" xlink:href="#C0_0_fb9ba21224" y="208.705772"/>
    </g>
    <g clip-path="url(#p0abcac4fa6)">
     <use style="fill:#1f77b4;stroke:#ffffff;stroke-width:0.48;" x="127.43628" xlink:href="#C0_0_fb9ba21224" y="196.974468"/>
    </g>
    <g clip-path="url(#p0abcac4fa6)">
     <use style="fill:#1f77b4;stroke:#ffffff;stroke-width:0.48;" x="146.717234" xlink:href="#C0_0_fb9ba21224" y="184.30442"/>
    </g>
    <g clip-path="url(#p0abcac4fa6)">
     <use style="fill:#1f77b4;stroke:#ffffff;stroke-width:0.48;" x="165.998189" xlink:href="#C0_0_fb9ba21224" y="172.069225"/>
    </g>
    <g clip-path="url(#p0abcac4fa6)">
     <use style="fill:#1f77b4;stroke:#ffffff;stroke-width:0.48;" x="185.279143" xlink:href="#C0_0_fb9ba21224" y="160.810295"/>
    </g>
    <g clip-path="url(#p0abcac4fa6)">
     <use style="fill:#1f77b4;stroke:#ffffff;stroke-width:0.48;" x="204.560097" xlink:href="#C0_0_fb9ba21224" y="148.721053"/>
    </g>
    <g clip-path="url(#p0abcac4fa6)">
     <use style="fill:#1f77b4;stroke:#ffffff;stroke-width:0.48;" x="223.841052" xlink:href="#C0_0_fb9ba21224" y="138.200136"/>
    </g>
    <g clip-path="url(#p0abcac4fa6)">
     <use style="fill:#1f77b4;stroke:#ffffff;stroke-width:0.48;" x="243.122006" xlink:href="#C0_0_fb9ba21224" y="125.880898"/>
    </g>
    <g clip-path="url(#p0abcac4fa6)">
     <use style="fill:#1f77b4;stroke:#ffffff;stroke-width:0.48;" x="262.40296" xlink:href="#C0_0_fb9ba21224" y="114.271908"/>
    </g>
    <g clip-path="url(#p0abcac4fa6)">
     <use style="fill:#1f77b4;stroke:#ffffff;stroke-width:0.48;" x="281.683915" xlink:href="#C0_0_fb9ba21224" y="102.752216"/>
    </g>
    <g clip-path="url(#p0abcac4fa6)">
     <use style="fill:#1f77b4;stroke:#ffffff;stroke-width:0.48;" x="300.964869" xlink:href="#C0_0_fb9ba21224" y="91.480904"/>
    </g>
    <g clip-path="url(#p0abcac4fa6)">
     <use style="fill:#1f77b4;stroke:#ffffff;stroke-width:0.48;" x="320.245823" xlink:href="#C0_0_fb9ba21224" y="77.609848"/>
    </g>
    <g clip-path="url(#p0abcac4fa6)">
     <use style="fill:#1f77b4;stroke:#ffffff;stroke-width:0.48;" x="339.526778" xlink:href="#C0_0_fb9ba21224" y="65.897304"/>
    </g>
    <g clip-path="url(#p0abcac4fa6)">
     <use style="fill:#1f77b4;stroke:#ffffff;stroke-width:0.48;" x="91.628793" xlink:href="#C0_0_fb9ba21224" y="219.683342"/>
    </g>
    <g clip-path="url(#p0abcac4fa6)">
     <use style="fill:#1f77b4;stroke:#ffffff;stroke-width:0.48;" x="112.286959" xlink:href="#C0_0_fb9ba21224" y="206.042995"/>
    </g>
    <g clip-path="url(#p0abcac4fa6)">
     <use style="fill:#1f77b4;stroke:#ffffff;stroke-width:0.48;" x="132.945124" xlink:href="#C0_0_fb9ba21224" y="193.279147"/>
    </g>
    <g clip-path="url(#p0abcac4fa6)">
     <use style="fill:#1f77b4;stroke:#ffffff;stroke-width:0.48;" x="153.60329" xlink:href="#C0_0_fb9ba21224" y="180.770433"/>
    </g>
    <g clip-path="url(#p0abcac4fa6)">
     <use style="fill:#1f77b4;stroke:#ffffff;stroke-width:0.48;" x="174.261455" xlink:href="#C0_0_fb9ba21224" y="167.314721"/>
    </g>
    <g clip-path="url(#p0abcac4fa6)">
     <use style="fill:#1f77b4;stroke:#ffffff;stroke-width:0.48;" x="194.91962" xlink:href="#C0_0_fb9ba21224" y="154.49797"/>
    </g>
    <g clip-path="url(#p0abcac4fa6)">
     <use style="fill:#1f77b4;stroke:#ffffff;stroke-width:0.48;" x="215.577786" xlink:href="#C0_0_fb9ba21224" y="138.542316"/>
    </g>
    <g clip-path="url(#p0abcac4fa6)">
     <use style="fill:#1f77b4;stroke:#ffffff;stroke-width:0.48;" x="236.235951" xlink:href="#C0_0_fb9ba21224" y="130.460935"/>
    </g>
    <g clip-path="url(#p0abcac4fa6)">
     <use style="fill:#1f77b4;stroke:#ffffff;stroke-width:0.48;" x="256.894116" xlink:href="#C0_0_fb9ba21224" y="116.892663"/>
    </g>
    <g clip-path="url(#p0abcac4fa6)">
     <use style="fill:#1f77b4;stroke:#ffffff;stroke-width:0.48;" x="277.552282" xlink:href="#C0_0_fb9ba21224" y="104.055277"/>
    </g>
    <g clip-path="url(#p0abcac4fa6)">
     <use style="fill:#1f77b4;stroke:#ffffff;stroke-width:0.48;" x="298.210447" xlink:href="#C0_0_fb9ba21224" y="91.220517"/>
    </g>
    <g clip-path="url(#p0abcac4fa6)">
     <use style="fill:#1f77b4;stroke:#ffffff;stroke-width:0.48;" x="318.868612" xlink:href="#C0_0_fb9ba21224" y="78.151633"/>
    </g>
    <g clip-path="url(#p0abcac4fa6)">
     <use style="fill:#1f77b4;stroke:#ffffff;stroke-width:0.48;" x="339.526778" xlink:href="#C0_0_fb9ba21224" y="66.046257"/>
    </g>
    <g clip-path="url(#p0abcac4fa6)">
     <use style="fill:#1f77b4;stroke:#ffffff;stroke-width:0.48;" x="360.184943" xlink:href="#C0_0_fb9ba21224" y="53.657607"/>
    </g>
   </g>
   <g id="PathCollection_2"/>
   <g id="PolyCollection_1">
    <path clip-path="url(#p0abcac4fa6)" d="M 58.575729 241.268798 
L 58.575729 241.268798 
L 61.330151 239.48661 
L 61.330151 239.48661 
L 61.330151 239.48661 
L 58.575729 241.268798 
z
" style="fill:#0000ff;fill-opacity:0.2;stroke:#0000ff;stroke-opacity:0.2;"/>
    <path clip-path="url(#p0abcac4fa6)" d="M 64.084573 237.704421 
L 64.084573 237.704421 
L 66.838995 235.922232 
L 69.593417 234.140044 
L 70.970628 233.248949 
L 72.347839 232.357855 
L 75.102261 230.575666 
L 77.856683 228.793478 
L 79.233894 227.902383 
L 80.611105 227.011289 
L 83.365527 225.2291 
L 83.365527 225.2291 
L 83.365527 225.2291 
L 80.611105 227.011289 
L 79.233894 227.902383 
L 77.856683 228.793478 
L 75.102261 230.575666 
L 72.347839 232.357855 
L 70.970628 233.248949 
L 69.593417 234.140044 
L 66.838995 235.922232 
L 64.084573 237.704421 
z
" style="fill:#0000ff;fill-opacity:0.2;stroke:#0000ff;stroke-opacity:0.2;"/>
    <path clip-path="url(#p0abcac4fa6)" d="M 86.119949 223.446912 
L 86.119949 223.446912 
L 87.49716 222.555817 
L 88.874371 221.664723 
L 91.628793 219.882534 
L 94.383215 218.100345 
L 95.760427 217.209251 
L 98.514849 215.427062 
L 99.89206 214.535968 
L 104.023693 211.862685 
L 105.400904 210.971591 
L 108.155326 209.189402 
L 110.909748 207.407213 
L 112.286959 206.516119 
L 116.418592 203.842836 
L 116.418592 203.842836 
L 116.418592 203.842836 
L 112.286959 206.516119 
L 110.909748 207.407213 
L 108.155326 209.189402 
L 105.400904 210.971591 
L 104.023693 211.862685 
L 99.89206 214.535968 
L 98.514849 215.427062 
L 95.760427 217.209251 
L 94.383215 218.100345 
L 91.628793 219.882534 
L 88.874371 221.664723 
L 87.49716 222.555817 
L 86.119949 223.446912 
z
" style="fill:#0000ff;fill-opacity:0.2;stroke:#0000ff;stroke-opacity:0.2;"/>
    <path clip-path="url(#p0abcac4fa6)" d="M 119.173014 202.060647 
L 119.173014 202.060647 
L 121.927436 200.278458 
L 124.681858 198.49627 
L 126.059069 197.605175 
L 127.43628 196.714081 
L 132.945124 193.149704 
L 137.076757 190.476421 
L 137.076757 190.476421 
L 137.076757 190.476421 
L 132.945124 193.149704 
L 127.43628 196.714081 
L 126.059069 197.605175 
L 124.681858 198.49627 
L 121.927436 200.278458 
L 119.173014 202.060647 
z
" style="fill:#0000ff;fill-opacity:0.2;stroke:#0000ff;stroke-opacity:0.2;"/>
    <path clip-path="url(#p0abcac4fa6)" d="M 139.831179 188.694232 
L 139.831179 188.694232 
L 141.20839 187.803138 
L 146.717234 184.23876 
L 149.471656 182.456572 
L 153.60329 179.783288 
L 156.357712 178.0011 
L 157.734923 177.110005 
L 160.489345 175.327817 
L 160.489345 175.327817 
L 160.489345 175.327817 
L 157.734923 177.110005 
L 156.357712 178.0011 
L 153.60329 179.783288 
L 149.471656 182.456572 
L 146.717234 184.23876 
L 141.20839 187.803138 
L 139.831179 188.694232 
z
" style="fill:#0000ff;fill-opacity:0.2;stroke:#0000ff;stroke-opacity:0.2;"/>
    <path clip-path="url(#p0abcac4fa6)" d="M 165.998189 171.763439 
L 165.998189 171.763439 
L 171.507033 168.199062 
L 174.261455 166.416873 
L 175.638666 165.525779 
L 182.524721 161.070307 
L 185.279143 159.288118 
L 186.656354 158.397024 
L 186.656354 158.397024 
L 186.656354 158.397024 
L 185.279143 159.288118 
L 182.524721 161.070307 
L 175.638666 165.525779 
L 174.261455 166.416873 
L 171.507033 168.199062 
L 165.998189 171.763439 
z
" style="fill:#0000ff;fill-opacity:0.2;stroke:#0000ff;stroke-opacity:0.2;"/>
    <path clip-path="url(#p0abcac4fa6)" d="M 193.542409 153.941552 
L 193.542409 153.941552 
L 194.91962 153.050458 
L 199.051253 150.377175 
L 201.805675 148.594986 
L 204.560097 146.812798 
L 211.446153 142.357326 
L 215.577786 139.684043 
L 215.577786 139.684043 
L 215.577786 139.684043 
L 211.446153 142.357326 
L 204.560097 146.812798 
L 201.805675 148.594986 
L 199.051253 150.377175 
L 194.91962 153.050458 
L 193.542409 153.941552 
z
" style="fill:#0000ff;fill-opacity:0.2;stroke:#0000ff;stroke-opacity:0.2;"/>
    <path clip-path="url(#p0abcac4fa6)" d="M 223.841052 134.337477 
L 223.841052 134.337477 
L 229.349896 130.773099 
L 232.104318 128.990911 
L 236.235951 126.317628 
L 243.122006 121.862156 
L 247.253639 119.188873 
L 247.253639 119.188873 
L 247.253639 119.188873 
L 243.122006 121.862156 
L 236.235951 126.317628 
L 232.104318 128.990911 
L 229.349896 130.773099 
L 223.841052 134.337477 
z
" style="fill:#0000ff;fill-opacity:0.2;stroke:#0000ff;stroke-opacity:0.2;"/>
    <path clip-path="url(#p0abcac4fa6)" d="M 256.894116 112.951212 
L 256.894116 112.951212 
L 262.40296 109.386835 
L 265.157383 107.604646 
L 277.552282 99.584797 
L 281.683915 96.911514 
L 281.683915 96.911514 
L 281.683915 96.911514 
L 277.552282 99.584797 
L 265.157383 107.604646 
L 262.40296 109.386835 
L 256.894116 112.951212 
z
" style="fill:#0000ff;fill-opacity:0.2;stroke:#0000ff;stroke-opacity:0.2;"/>
    <path clip-path="url(#p0abcac4fa6)" d="M 298.210447 86.218382 
L 298.210447 86.218382 
L 300.964869 84.436193 
L 318.868612 72.851967 
L 318.868612 72.851967 
L 318.868612 72.851967 
L 300.964869 84.436193 
L 298.210447 86.218382 
z
" style="fill:#0000ff;fill-opacity:0.2;stroke:#0000ff;stroke-opacity:0.2;"/>
    <path clip-path="url(#p0abcac4fa6)" d="M 339.526778 59.485552 
L 339.526778 59.485552 
L 339.526778 59.485552 
L 339.526778 59.485552 
z
" style="fill:#0000ff;fill-opacity:0.2;stroke:#0000ff;stroke-opacity:0.2;"/>
   </g>
   <g id="matplotlib.axis_1">
    <g id="xtick_1">
     <g id="line2d_1">
      <defs>
       <path d="M 0 0 
L 0 3.5 
" id="m40bc8cf557" style="stroke:#000000;stroke-width:0.8;"/>
      </defs>
      <g>
       <use style="stroke:#000000;stroke-width:0.8;" x="50.312463" xlink:href="#m40bc8cf557" y="253.6755"/>
      </g>
     </g>
     <g id="text_1">
      <!-- 0 -->
      <g transform="translate(47.131213 268.273937)scale(0.1 -0.1)">
       <defs>
        <path d="M 31.78125 66.40625 
Q 24.171875 66.40625 20.328125 58.90625 
Q 16.5 51.421875 16.5 36.375 
Q 16.5 21.390625 20.328125 13.890625 
Q 24.171875 6.390625 31.78125 6.390625 
Q 39.453125 6.390625 43.28125 13.890625 
Q 47.125 21.390625 47.125 36.375 
Q 47.125 51.421875 43.28125 58.90625 
Q 39.453125 66.40625 31.78125 66.40625 
z
M 31.78125 74.21875 
Q 44.046875 74.21875 50.515625 64.515625 
Q 56.984375 54.828125 56.984375 36.375 
Q 56.984375 17.96875 50.515625 8.265625 
Q 44.046875 -1.421875 31.78125 -1.421875 
Q 19.53125 -1.421875 13.0625 8.265625 
Q 6.59375 17.96875 6.59375 36.375 
Q 6.59375 54.828125 13.0625 64.515625 
Q 19.53125 74.21875 31.78125 74.21875 
z
" id="DejaVuSans-48"/>
       </defs>
       <use xlink:href="#DejaVuSans-48"/>
      </g>
     </g>
    </g>
    <g id="xtick_2">
     <g id="line2d_2">
      <g>
       <use style="stroke:#000000;stroke-width:0.8;" x="105.400904" xlink:href="#m40bc8cf557" y="253.6755"/>
      </g>
     </g>
     <g id="text_2">
      <!-- 1 -->
      <g transform="translate(102.219654 268.273937)scale(0.1 -0.1)">
       <defs>
        <path d="M 12.40625 8.296875 
L 28.515625 8.296875 
L 28.515625 63.921875 
L 10.984375 60.40625 
L 10.984375 69.390625 
L 28.421875 72.90625 
L 38.28125 72.90625 
L 38.28125 8.296875 
L 54.390625 8.296875 
L 54.390625 0 
L 12.40625 0 
z
" id="DejaVuSans-49"/>
       </defs>
       <use xlink:href="#DejaVuSans-49"/>
      </g>
     </g>
    </g>
    <g id="xtick_3">
     <g id="line2d_3">
      <g>
       <use style="stroke:#000000;stroke-width:0.8;" x="160.489345" xlink:href="#m40bc8cf557" y="253.6755"/>
      </g>
     </g>
     <g id="text_3">
      <!-- 2 -->
      <g transform="translate(157.308095 268.273937)scale(0.1 -0.1)">
       <defs>
        <path d="M 19.1875 8.296875 
L 53.609375 8.296875 
L 53.609375 0 
L 7.328125 0 
L 7.328125 8.296875 
Q 12.9375 14.109375 22.625 23.890625 
Q 32.328125 33.6875 34.8125 36.53125 
Q 39.546875 41.84375 41.421875 45.53125 
Q 43.3125 49.21875 43.3125 52.78125 
Q 43.3125 58.59375 39.234375 62.25 
Q 35.15625 65.921875 28.609375 65.921875 
Q 23.96875 65.921875 18.8125 64.3125 
Q 13.671875 62.703125 7.8125 59.421875 
L 7.8125 69.390625 
Q 13.765625 71.78125 18.9375 73 
Q 24.125 74.21875 28.421875 74.21875 
Q 39.75 74.21875 46.484375 68.546875 
Q 53.21875 62.890625 53.21875 53.421875 
Q 53.21875 48.921875 51.53125 44.890625 
Q 49.859375 40.875 45.40625 35.40625 
Q 44.1875 33.984375 37.640625 27.21875 
Q 31.109375 20.453125 19.1875 8.296875 
z
" id="DejaVuSans-50"/>
       </defs>
       <use xlink:href="#DejaVuSans-50"/>
      </g>
     </g>
    </g>
    <g id="xtick_4">
     <g id="line2d_4">
      <g>
       <use style="stroke:#000000;stroke-width:0.8;" x="215.577786" xlink:href="#m40bc8cf557" y="253.6755"/>
      </g>
     </g>
     <g id="text_4">
      <!-- 3 -->
      <g transform="translate(212.396536 268.273937)scale(0.1 -0.1)">
       <defs>
        <path d="M 40.578125 39.3125 
Q 47.65625 37.796875 51.625 33 
Q 55.609375 28.21875 55.609375 21.1875 
Q 55.609375 10.40625 48.1875 4.484375 
Q 40.765625 -1.421875 27.09375 -1.421875 
Q 22.515625 -1.421875 17.65625 -0.515625 
Q 12.796875 0.390625 7.625 2.203125 
L 7.625 11.71875 
Q 11.71875 9.328125 16.59375 8.109375 
Q 21.484375 6.890625 26.8125 6.890625 
Q 36.078125 6.890625 40.9375 10.546875 
Q 45.796875 14.203125 45.796875 21.1875 
Q 45.796875 27.640625 41.28125 31.265625 
Q 36.765625 34.90625 28.71875 34.90625 
L 20.21875 34.90625 
L 20.21875 43.015625 
L 29.109375 43.015625 
Q 36.375 43.015625 40.234375 45.921875 
Q 44.09375 48.828125 44.09375 54.296875 
Q 44.09375 59.90625 40.109375 62.90625 
Q 36.140625 65.921875 28.71875 65.921875 
Q 24.65625 65.921875 20.015625 65.03125 
Q 15.375 64.15625 9.8125 62.3125 
L 9.8125 71.09375 
Q 15.4375 72.65625 20.34375 73.4375 
Q 25.25 74.21875 29.59375 74.21875 
Q 40.828125 74.21875 47.359375 69.109375 
Q 53.90625 64.015625 53.90625 55.328125 
Q 53.90625 49.265625 50.4375 45.09375 
Q 46.96875 40.921875 40.578125 39.3125 
z
" id="DejaVuSans-51"/>
       </defs>
       <use xlink:href="#DejaVuSans-51"/>
      </g>
     </g>
    </g>
    <g id="xtick_5">
     <g id="line2d_5">
      <g>
       <use style="stroke:#000000;stroke-width:0.8;" x="270.666227" xlink:href="#m40bc8cf557" y="253.6755"/>
      </g>
     </g>
     <g id="text_5">
      <!-- 4 -->
      <g transform="translate(267.484977 268.273937)scale(0.1 -0.1)">
       <defs>
        <path d="M 37.796875 64.3125 
L 12.890625 25.390625 
L 37.796875 25.390625 
z
M 35.203125 72.90625 
L 47.609375 72.90625 
L 47.609375 25.390625 
L 58.015625 25.390625 
L 58.015625 17.1875 
L 47.609375 17.1875 
L 47.609375 0 
L 37.796875 0 
L 37.796875 17.1875 
L 4.890625 17.1875 
L 4.890625 26.703125 
z
" id="DejaVuSans-52"/>
       </defs>
       <use xlink:href="#DejaVuSans-52"/>
      </g>
     </g>
    </g>
    <g id="xtick_6">
     <g id="line2d_6">
      <g>
       <use style="stroke:#000000;stroke-width:0.8;" x="325.754668" xlink:href="#m40bc8cf557" y="253.6755"/>
      </g>
     </g>
     <g id="text_6">
      <!-- 5 -->
      <g transform="translate(322.573418 268.273937)scale(0.1 -0.1)">
       <defs>
        <path d="M 10.796875 72.90625 
L 49.515625 72.90625 
L 49.515625 64.59375 
L 19.828125 64.59375 
L 19.828125 46.734375 
Q 21.96875 47.46875 24.109375 47.828125 
Q 26.265625 48.1875 28.421875 48.1875 
Q 40.625 48.1875 47.75 41.5 
Q 54.890625 34.8125 54.890625 23.390625 
Q 54.890625 11.625 47.5625 5.09375 
Q 40.234375 -1.421875 26.90625 -1.421875 
Q 22.3125 -1.421875 17.546875 -0.640625 
Q 12.796875 0.140625 7.71875 1.703125 
L 7.71875 11.625 
Q 12.109375 9.234375 16.796875 8.0625 
Q 21.484375 6.890625 26.703125 6.890625 
Q 35.15625 6.890625 40.078125 11.328125 
Q 45.015625 15.765625 45.015625 23.390625 
Q 45.015625 31 40.078125 35.4375 
Q 35.15625 39.890625 26.703125 39.890625 
Q 22.75 39.890625 18.8125 39.015625 
Q 14.890625 38.140625 10.796875 36.28125 
z
" id="DejaVuSans-53"/>
       </defs>
       <use xlink:href="#DejaVuSans-53"/>
      </g>
     </g>
    </g>
    <g id="text_7">
     <!-- n*r -->
     <g transform="translate(200.278906 281.952062)scale(0.1 -0.1)">
      <defs>
       <path d="M 54.890625 33.015625 
L 54.890625 0 
L 45.90625 0 
L 45.90625 32.71875 
Q 45.90625 40.484375 42.875 44.328125 
Q 39.84375 48.1875 33.796875 48.1875 
Q 26.515625 48.1875 22.3125 43.546875 
Q 18.109375 38.921875 18.109375 30.90625 
L 18.109375 0 
L 9.078125 0 
L 9.078125 54.6875 
L 18.109375 54.6875 
L 18.109375 46.1875 
Q 21.34375 51.125 25.703125 53.5625 
Q 30.078125 56 35.796875 56 
Q 45.21875 56 50.046875 50.171875 
Q 54.890625 44.34375 54.890625 33.015625 
z
" id="DejaVuSans-110"/>
       <path d="M 47.015625 60.890625 
L 29.5 51.421875 
L 47.015625 41.890625 
L 44.1875 37.109375 
L 27.78125 47.015625 
L 27.78125 28.609375 
L 22.21875 28.609375 
L 22.21875 47.015625 
L 5.8125 37.109375 
L 2.984375 41.890625 
L 20.515625 51.421875 
L 2.984375 60.890625 
L 5.8125 65.71875 
L 22.21875 55.8125 
L 22.21875 74.21875 
L 27.78125 74.21875 
L 27.78125 55.8125 
L 44.1875 65.71875 
z
" id="DejaVuSans-42"/>
       <path d="M 41.109375 46.296875 
Q 39.59375 47.171875 37.8125 47.578125 
Q 36.03125 48 33.890625 48 
Q 26.265625 48 22.1875 43.046875 
Q 18.109375 38.09375 18.109375 28.8125 
L 18.109375 0 
L 9.078125 0 
L 9.078125 54.6875 
L 18.109375 54.6875 
L 18.109375 46.1875 
Q 20.953125 51.171875 25.484375 53.578125 
Q 30.03125 56 36.53125 56 
Q 37.453125 56 38.578125 55.875 
Q 39.703125 55.765625 41.0625 55.515625 
z
" id="DejaVuSans-114"/>
      </defs>
      <use xlink:href="#DejaVuSans-110"/>
      <use x="63.378906" xlink:href="#DejaVuSans-42"/>
      <use x="113.378906" xlink:href="#DejaVuSans-114"/>
     </g>
    </g>
    <g id="text_8">
     <!-- 1e7 -->
     <g transform="translate(356.525 280.952062)scale(0.1 -0.1)">
      <defs>
       <path d="M 56.203125 29.59375 
L 56.203125 25.203125 
L 14.890625 25.203125 
Q 15.484375 15.921875 20.484375 11.0625 
Q 25.484375 6.203125 34.421875 6.203125 
Q 39.59375 6.203125 44.453125 7.46875 
Q 49.3125 8.734375 54.109375 11.28125 
L 54.109375 2.78125 
Q 49.265625 0.734375 44.1875 -0.34375 
Q 39.109375 -1.421875 33.890625 -1.421875 
Q 20.796875 -1.421875 13.15625 6.1875 
Q 5.515625 13.8125 5.515625 26.8125 
Q 5.515625 40.234375 12.765625 48.109375 
Q 20.015625 56 32.328125 56 
Q 43.359375 56 49.78125 48.890625 
Q 56.203125 41.796875 56.203125 29.59375 
z
M 47.21875 32.234375 
Q 47.125 39.59375 43.09375 43.984375 
Q 39.0625 48.390625 32.421875 48.390625 
Q 24.90625 48.390625 20.390625 44.140625 
Q 15.875 39.890625 15.1875 32.171875 
z
" id="DejaVuSans-101"/>
       <path d="M 8.203125 72.90625 
L 55.078125 72.90625 
L 55.078125 68.703125 
L 28.609375 0 
L 18.3125 0 
L 43.21875 64.59375 
L 8.203125 64.59375 
z
" id="DejaVuSans-55"/>
      </defs>
      <use xlink:href="#DejaVuSans-49"/>
      <use x="63.623047" xlink:href="#DejaVuSans-101"/>
      <use x="125.146484" xlink:href="#DejaVuSans-55"/>
     </g>
    </g>
   </g>
   <g id="matplotlib.axis_2">
    <g id="ytick_1">
     <g id="line2d_7">
      <defs>
       <path d="M 0 0 
L -3.5 0 
" id="m886a66a2b9" style="stroke:#000000;stroke-width:0.8;"/>
      </defs>
      <g>
       <use style="stroke:#000000;stroke-width:0.8;" x="40.603125" xlink:href="#m886a66a2b9" y="246.615365"/>
      </g>
     </g>
     <g id="text_9">
      <!-- 0 -->
      <g transform="translate(27.240625 250.414583)scale(0.1 -0.1)">
       <use xlink:href="#DejaVuSans-48"/>
      </g>
     </g>
    </g>
    <g id="ytick_2">
     <g id="line2d_8">
      <g>
       <use style="stroke:#000000;stroke-width:0.8;" x="40.603125" xlink:href="#m886a66a2b9" y="209.095603"/>
      </g>
     </g>
     <g id="text_10">
      <!-- 10 -->
      <g transform="translate(20.878125 212.894821)scale(0.1 -0.1)">
       <use xlink:href="#DejaVuSans-49"/>
       <use x="63.623047" xlink:href="#DejaVuSans-48"/>
      </g>
     </g>
    </g>
    <g id="ytick_3">
     <g id="line2d_9">
      <g>
       <use style="stroke:#000000;stroke-width:0.8;" x="40.603125" xlink:href="#m886a66a2b9" y="171.575841"/>
      </g>
     </g>
     <g id="text_11">
      <!-- 20 -->
      <g transform="translate(20.878125 175.375059)scale(0.1 -0.1)">
       <use xlink:href="#DejaVuSans-50"/>
       <use x="63.623047" xlink:href="#DejaVuSans-48"/>
      </g>
     </g>
    </g>
    <g id="ytick_4">
     <g id="line2d_10">
      <g>
       <use style="stroke:#000000;stroke-width:0.8;" x="40.603125" xlink:href="#m886a66a2b9" y="134.056079"/>
      </g>
     </g>
     <g id="text_12">
      <!-- 30 -->
      <g transform="translate(20.878125 137.855297)scale(0.1 -0.1)">
       <use xlink:href="#DejaVuSans-51"/>
       <use x="63.623047" xlink:href="#DejaVuSans-48"/>
      </g>
     </g>
    </g>
    <g id="ytick_5">
     <g id="line2d_11">
      <g>
       <use style="stroke:#000000;stroke-width:0.8;" x="40.603125" xlink:href="#m886a66a2b9" y="96.536317"/>
      </g>
     </g>
     <g id="text_13">
      <!-- 40 -->
      <g transform="translate(20.878125 100.335535)scale(0.1 -0.1)">
       <use xlink:href="#DejaVuSans-52"/>
       <use x="63.623047" xlink:href="#DejaVuSans-48"/>
      </g>
     </g>
    </g>
    <g id="ytick_6">
     <g id="line2d_12">
      <g>
       <use style="stroke:#000000;stroke-width:0.8;" x="40.603125" xlink:href="#m886a66a2b9" y="59.016555"/>
      </g>
     </g>
     <g id="text_14">
      <!-- 50 -->
      <g transform="translate(20.878125 62.815773)scale(0.1 -0.1)">
       <use xlink:href="#DejaVuSans-53"/>
       <use x="63.623047" xlink:href="#DejaVuSans-48"/>
      </g>
     </g>
    </g>
    <g id="text_15">
     <!-- tiempo (ms) -->
     <g transform="translate(14.798438 175.450812)rotate(-90)scale(0.1 -0.1)">
      <defs>
       <path d="M 18.3125 70.21875 
L 18.3125 54.6875 
L 36.8125 54.6875 
L 36.8125 47.703125 
L 18.3125 47.703125 
L 18.3125 18.015625 
Q 18.3125 11.328125 20.140625 9.421875 
Q 21.96875 7.515625 27.59375 7.515625 
L 36.8125 7.515625 
L 36.8125 0 
L 27.59375 0 
Q 17.1875 0 13.234375 3.875 
Q 9.28125 7.765625 9.28125 18.015625 
L 9.28125 47.703125 
L 2.6875 47.703125 
L 2.6875 54.6875 
L 9.28125 54.6875 
L 9.28125 70.21875 
z
" id="DejaVuSans-116"/>
       <path d="M 9.421875 54.6875 
L 18.40625 54.6875 
L 18.40625 0 
L 9.421875 0 
z
M 9.421875 75.984375 
L 18.40625 75.984375 
L 18.40625 64.59375 
L 9.421875 64.59375 
z
" id="DejaVuSans-105"/>
       <path d="M 52 44.1875 
Q 55.375 50.25 60.0625 53.125 
Q 64.75 56 71.09375 56 
Q 79.640625 56 84.28125 50.015625 
Q 88.921875 44.046875 88.921875 33.015625 
L 88.921875 0 
L 79.890625 0 
L 79.890625 32.71875 
Q 79.890625 40.578125 77.09375 44.375 
Q 74.3125 48.1875 68.609375 48.1875 
Q 61.625 48.1875 57.5625 43.546875 
Q 53.515625 38.921875 53.515625 30.90625 
L 53.515625 0 
L 44.484375 0 
L 44.484375 32.71875 
Q 44.484375 40.625 41.703125 44.40625 
Q 38.921875 48.1875 33.109375 48.1875 
Q 26.21875 48.1875 22.15625 43.53125 
Q 18.109375 38.875 18.109375 30.90625 
L 18.109375 0 
L 9.078125 0 
L 9.078125 54.6875 
L 18.109375 54.6875 
L 18.109375 46.1875 
Q 21.1875 51.21875 25.484375 53.609375 
Q 29.78125 56 35.6875 56 
Q 41.65625 56 45.828125 52.96875 
Q 50 49.953125 52 44.1875 
z
" id="DejaVuSans-109"/>
       <path d="M 18.109375 8.203125 
L 18.109375 -20.796875 
L 9.078125 -20.796875 
L 9.078125 54.6875 
L 18.109375 54.6875 
L 18.109375 46.390625 
Q 20.953125 51.265625 25.265625 53.625 
Q 29.59375 56 35.59375 56 
Q 45.5625 56 51.78125 48.09375 
Q 58.015625 40.1875 58.015625 27.296875 
Q 58.015625 14.40625 51.78125 6.484375 
Q 45.5625 -1.421875 35.59375 -1.421875 
Q 29.59375 -1.421875 25.265625 0.953125 
Q 20.953125 3.328125 18.109375 8.203125 
z
M 48.6875 27.296875 
Q 48.6875 37.203125 44.609375 42.84375 
Q 40.53125 48.484375 33.40625 48.484375 
Q 26.265625 48.484375 22.1875 42.84375 
Q 18.109375 37.203125 18.109375 27.296875 
Q 18.109375 17.390625 22.1875 11.75 
Q 26.265625 6.109375 33.40625 6.109375 
Q 40.53125 6.109375 44.609375 11.75 
Q 48.6875 17.390625 48.6875 27.296875 
z
" id="DejaVuSans-112"/>
       <path d="M 30.609375 48.390625 
Q 23.390625 48.390625 19.1875 42.75 
Q 14.984375 37.109375 14.984375 27.296875 
Q 14.984375 17.484375 19.15625 11.84375 
Q 23.34375 6.203125 30.609375 6.203125 
Q 37.796875 6.203125 41.984375 11.859375 
Q 46.1875 17.53125 46.1875 27.296875 
Q 46.1875 37.015625 41.984375 42.703125 
Q 37.796875 48.390625 30.609375 48.390625 
z
M 30.609375 56 
Q 42.328125 56 49.015625 48.375 
Q 55.71875 40.765625 55.71875 27.296875 
Q 55.71875 13.875 49.015625 6.21875 
Q 42.328125 -1.421875 30.609375 -1.421875 
Q 18.84375 -1.421875 12.171875 6.21875 
Q 5.515625 13.875 5.515625 27.296875 
Q 5.515625 40.765625 12.171875 48.375 
Q 18.84375 56 30.609375 56 
z
" id="DejaVuSans-111"/>
       <path id="DejaVuSans-32"/>
       <path d="M 31 75.875 
Q 24.46875 64.65625 21.28125 53.65625 
Q 18.109375 42.671875 18.109375 31.390625 
Q 18.109375 20.125 21.3125 9.0625 
Q 24.515625 -2 31 -13.1875 
L 23.1875 -13.1875 
Q 15.875 -1.703125 12.234375 9.375 
Q 8.59375 20.453125 8.59375 31.390625 
Q 8.59375 42.28125 12.203125 53.3125 
Q 15.828125 64.359375 23.1875 75.875 
z
" id="DejaVuSans-40"/>
       <path d="M 44.28125 53.078125 
L 44.28125 44.578125 
Q 40.484375 46.53125 36.375 47.5 
Q 32.28125 48.484375 27.875 48.484375 
Q 21.1875 48.484375 17.84375 46.4375 
Q 14.5 44.390625 14.5 40.28125 
Q 14.5 37.15625 16.890625 35.375 
Q 19.28125 33.59375 26.515625 31.984375 
L 29.59375 31.296875 
Q 39.15625 29.25 43.1875 25.515625 
Q 47.21875 21.78125 47.21875 15.09375 
Q 47.21875 7.46875 41.1875 3.015625 
Q 35.15625 -1.421875 24.609375 -1.421875 
Q 20.21875 -1.421875 15.453125 -0.5625 
Q 10.6875 0.296875 5.421875 2 
L 5.421875 11.28125 
Q 10.40625 8.6875 15.234375 7.390625 
Q 20.0625 6.109375 24.8125 6.109375 
Q 31.15625 6.109375 34.5625 8.28125 
Q 37.984375 10.453125 37.984375 14.40625 
Q 37.984375 18.0625 35.515625 20.015625 
Q 33.0625 21.96875 24.703125 23.78125 
L 21.578125 24.515625 
Q 13.234375 26.265625 9.515625 29.90625 
Q 5.8125 33.546875 5.8125 39.890625 
Q 5.8125 47.609375 11.28125 51.796875 
Q 16.75 56 26.8125 56 
Q 31.78125 56 36.171875 55.265625 
Q 40.578125 54.546875 44.28125 53.078125 
z
" id="DejaVuSans-115"/>
       <path d="M 8.015625 75.875 
L 15.828125 75.875 
Q 23.140625 64.359375 26.78125 53.3125 
Q 30.421875 42.28125 30.421875 31.390625 
Q 30.421875 20.453125 26.78125 9.375 
Q 23.140625 -1.703125 15.828125 -13.1875 
L 8.015625 -13.1875 
Q 14.5 -2 17.703125 9.0625 
Q 20.90625 20.125 20.90625 31.390625 
Q 20.90625 42.671875 17.703125 53.65625 
Q 14.5 64.65625 8.015625 75.875 
z
" id="DejaVuSans-41"/>
      </defs>
      <use xlink:href="#DejaVuSans-116"/>
      <use x="39.208984" xlink:href="#DejaVuSans-105"/>
      <use x="66.992188" xlink:href="#DejaVuSans-101"/>
      <use x="128.515625" xlink:href="#DejaVuSans-109"/>
      <use x="225.927734" xlink:href="#DejaVuSans-112"/>
      <use x="289.404297" xlink:href="#DejaVuSans-111"/>
      <use x="350.585938" xlink:href="#DejaVuSans-32"/>
      <use x="382.373047" xlink:href="#DejaVuSans-40"/>
      <use x="421.386719" xlink:href="#DejaVuSans-109"/>
      <use x="518.798828" xlink:href="#DejaVuSans-115"/>
      <use x="570.898438" xlink:href="#DejaVuSans-41"/>
     </g>
    </g>
   </g>
   <g id="line2d_13">
    <path clip-path="url(#p0abcac4fa6)" d="M 55.821307 243.050987 
L 58.575729 241.268798 
L 61.330151 239.48661 
L 62.707362 238.595515 
L 64.084573 237.704421 
L 66.838995 235.922232 
L 69.593417 234.140044 
L 70.970628 233.248949 
L 72.347839 232.357855 
L 75.102261 230.575666 
L 77.856683 228.793478 
L 79.233894 227.902383 
L 80.611105 227.011289 
L 83.365527 225.2291 
L 84.742738 224.338006 
L 86.119949 223.446912 
L 87.49716 222.555817 
L 88.874371 221.664723 
L 91.628793 219.882534 
L 94.383215 218.100345 
L 95.760427 217.209251 
L 98.514849 215.427062 
L 99.89206 214.535968 
L 104.023693 211.862685 
L 105.400904 210.971591 
L 108.155326 209.189402 
L 110.909748 207.407213 
L 112.286959 206.516119 
L 116.418592 203.842836 
L 117.795803 202.951742 
L 119.173014 202.060647 
L 121.927436 200.278458 
L 124.681858 198.49627 
L 126.059069 197.605175 
L 127.43628 196.714081 
L 132.945124 193.149704 
L 137.076757 190.476421 
L 138.453968 189.585326 
L 139.831179 188.694232 
L 141.20839 187.803138 
L 146.717234 184.23876 
L 149.471656 182.456572 
L 153.60329 179.783288 
L 156.357712 178.0011 
L 157.734923 177.110005 
L 160.489345 175.327817 
L 161.866556 174.436722 
L 165.998189 171.763439 
L 171.507033 168.199062 
L 174.261455 166.416873 
L 175.638666 165.525779 
L 182.524721 161.070307 
L 185.279143 159.288118 
L 186.656354 158.397024 
L 188.033565 157.50593 
L 193.542409 153.941552 
L 194.91962 153.050458 
L 199.051253 150.377175 
L 201.805675 148.594986 
L 204.560097 146.812798 
L 211.446153 142.357326 
L 215.577786 139.684043 
L 216.954997 138.792949 
L 223.841052 134.337477 
L 229.349896 130.773099 
L 232.104318 128.990911 
L 236.235951 126.317628 
L 243.122006 121.862156 
L 247.253639 119.188873 
L 248.63085 118.297779 
L 256.894116 112.951212 
L 262.40296 109.386835 
L 265.157383 107.604646 
L 277.552282 99.584797 
L 281.683915 96.911514 
L 283.061126 96.02042 
L 298.210447 86.218382 
L 300.964869 84.436193 
L 318.868612 72.851967 
L 320.245823 71.960872 
L 339.526778 59.485552 
L 360.184943 46.119136 
" style="fill:none;stroke:#0000ff;stroke-linecap:square;stroke-width:1.5;"/>
   </g>
   <g id="patch_3">
    <path d="M 40.603125 253.6755 
L 40.603125 36.2355 
" style="fill:none;stroke:#000000;stroke-linecap:square;stroke-linejoin:miter;stroke-width:0.8;"/>
   </g>
   <g id="patch_4">
    <path d="M 375.403125 253.6755 
L 375.403125 36.2355 
" style="fill:none;stroke:#000000;stroke-linecap:square;stroke-linejoin:miter;stroke-width:0.8;"/>
   </g>
   <g id="patch_5">
    <path d="M 40.603125 253.6755 
L 375.403125 253.6755 
" style="fill:none;stroke:#000000;stroke-linecap:square;stroke-linejoin:miter;stroke-width:0.8;"/>
   </g>
   <g id="patch_6">
    <path d="M 40.603125 36.2355 
L 375.403125 36.2355 
" style="fill:none;stroke:#000000;stroke-linecap:square;stroke-linejoin:miter;stroke-width:0.8;"/>
   </g>
   <g id="text_16">
    <!-- Tiempo de ejecucin de mejor caso en funcin de resTubo -->
    <g transform="translate(33.631875 16.798125)scale(0.12 -0.12)">
     <defs>
      <path d="M -0.296875 72.90625 
L 61.375 72.90625 
L 61.375 64.59375 
L 35.5 64.59375 
L 35.5 0 
L 25.59375 0 
L 25.59375 64.59375 
L -0.296875 64.59375 
z
" id="DejaVuSans-84"/>
      <path d="M 45.40625 46.390625 
L 45.40625 75.984375 
L 54.390625 75.984375 
L 54.390625 0 
L 45.40625 0 
L 45.40625 8.203125 
Q 42.578125 3.328125 38.25 0.953125 
Q 33.9375 -1.421875 27.875 -1.421875 
Q 17.96875 -1.421875 11.734375 6.484375 
Q 5.515625 14.40625 5.515625 27.296875 
Q 5.515625 40.1875 11.734375 48.09375 
Q 17.96875 56 27.875 56 
Q 33.9375 56 38.25 53.625 
Q 42.578125 51.265625 45.40625 46.390625 
z
M 14.796875 27.296875 
Q 14.796875 17.390625 18.875 11.75 
Q 22.953125 6.109375 30.078125 6.109375 
Q 37.203125 6.109375 41.296875 11.75 
Q 45.40625 17.390625 45.40625 27.296875 
Q 45.40625 37.203125 41.296875 42.84375 
Q 37.203125 48.484375 30.078125 48.484375 
Q 22.953125 48.484375 18.875 42.84375 
Q 14.796875 37.203125 14.796875 27.296875 
z
" id="DejaVuSans-100"/>
      <path d="M 9.421875 54.6875 
L 18.40625 54.6875 
L 18.40625 -0.984375 
Q 18.40625 -11.421875 14.421875 -16.109375 
Q 10.453125 -20.796875 1.609375 -20.796875 
L -1.8125 -20.796875 
L -1.8125 -13.1875 
L 0.59375 -13.1875 
Q 5.71875 -13.1875 7.5625 -10.8125 
Q 9.421875 -8.453125 9.421875 -0.984375 
z
M 9.421875 75.984375 
L 18.40625 75.984375 
L 18.40625 64.59375 
L 9.421875 64.59375 
z
" id="DejaVuSans-106"/>
      <path d="M 48.78125 52.59375 
L 48.78125 44.1875 
Q 44.96875 46.296875 41.140625 47.34375 
Q 37.3125 48.390625 33.40625 48.390625 
Q 24.65625 48.390625 19.8125 42.84375 
Q 14.984375 37.3125 14.984375 27.296875 
Q 14.984375 17.28125 19.8125 11.734375 
Q 24.65625 6.203125 33.40625 6.203125 
Q 37.3125 6.203125 41.140625 7.25 
Q 44.96875 8.296875 48.78125 10.40625 
L 48.78125 2.09375 
Q 45.015625 0.34375 40.984375 -0.53125 
Q 36.96875 -1.421875 32.421875 -1.421875 
Q 20.0625 -1.421875 12.78125 6.34375 
Q 5.515625 14.109375 5.515625 27.296875 
Q 5.515625 40.671875 12.859375 48.328125 
Q 20.21875 56 33.015625 56 
Q 37.15625 56 41.109375 55.140625 
Q 45.0625 54.296875 48.78125 52.59375 
z
" id="DejaVuSans-99"/>
      <path d="M 8.5 21.578125 
L 8.5 54.6875 
L 17.484375 54.6875 
L 17.484375 21.921875 
Q 17.484375 14.15625 20.5 10.265625 
Q 23.53125 6.390625 29.59375 6.390625 
Q 36.859375 6.390625 41.078125 11.03125 
Q 45.3125 15.671875 45.3125 23.6875 
L 45.3125 54.6875 
L 54.296875 54.6875 
L 54.296875 0 
L 45.3125 0 
L 45.3125 8.40625 
Q 42.046875 3.421875 37.71875 1 
Q 33.40625 -1.421875 27.6875 -1.421875 
Q 18.265625 -1.421875 13.375 4.4375 
Q 8.5 10.296875 8.5 21.578125 
z
M 31.109375 56 
z
" id="DejaVuSans-117"/>
      <path d="M 30.609375 48.390625 
Q 23.390625 48.390625 19.1875 42.75 
Q 14.984375 37.109375 14.984375 27.296875 
Q 14.984375 17.484375 19.15625 11.84375 
Q 23.34375 6.203125 30.609375 6.203125 
Q 37.796875 6.203125 41.984375 11.859375 
Q 46.1875 17.53125 46.1875 27.296875 
Q 46.1875 37.015625 41.984375 42.703125 
Q 37.796875 48.390625 30.609375 48.390625 
z
M 30.609375 56 
Q 42.328125 56 49.015625 48.375 
Q 55.71875 40.765625 55.71875 27.296875 
Q 55.71875 13.875 49.015625 6.21875 
Q 42.328125 -1.421875 30.609375 -1.421875 
Q 18.84375 -1.421875 12.171875 6.21875 
Q 5.515625 13.875 5.515625 27.296875 
Q 5.515625 40.765625 12.171875 48.375 
Q 18.84375 56 30.609375 56 
z
M 37.40625 79.984375 
L 47.125 79.984375 
L 31.21875 61.625 
L 23.734375 61.625 
z
" id="DejaVuSans-243"/>
      <path d="M 34.28125 27.484375 
Q 23.390625 27.484375 19.1875 25 
Q 14.984375 22.515625 14.984375 16.5 
Q 14.984375 11.71875 18.140625 8.90625 
Q 21.296875 6.109375 26.703125 6.109375 
Q 34.1875 6.109375 38.703125 11.40625 
Q 43.21875 16.703125 43.21875 25.484375 
L 43.21875 27.484375 
z
M 52.203125 31.203125 
L 52.203125 0 
L 43.21875 0 
L 43.21875 8.296875 
Q 40.140625 3.328125 35.546875 0.953125 
Q 30.953125 -1.421875 24.3125 -1.421875 
Q 15.921875 -1.421875 10.953125 3.296875 
Q 6 8.015625 6 15.921875 
Q 6 25.140625 12.171875 29.828125 
Q 18.359375 34.515625 30.609375 34.515625 
L 43.21875 34.515625 
L 43.21875 35.40625 
Q 43.21875 41.609375 39.140625 45 
Q 35.0625 48.390625 27.6875 48.390625 
Q 23 48.390625 18.546875 47.265625 
Q 14.109375 46.140625 10.015625 43.890625 
L 10.015625 52.203125 
Q 14.9375 54.109375 19.578125 55.046875 
Q 24.21875 56 28.609375 56 
Q 40.484375 56 46.34375 49.84375 
Q 52.203125 43.703125 52.203125 31.203125 
z
" id="DejaVuSans-97"/>
      <path d="M 37.109375 75.984375 
L 37.109375 68.5 
L 28.515625 68.5 
Q 23.6875 68.5 21.796875 66.546875 
Q 19.921875 64.59375 19.921875 59.515625 
L 19.921875 54.6875 
L 34.71875 54.6875 
L 34.71875 47.703125 
L 19.921875 47.703125 
L 19.921875 0 
L 10.890625 0 
L 10.890625 47.703125 
L 2.296875 47.703125 
L 2.296875 54.6875 
L 10.890625 54.6875 
L 10.890625 58.5 
Q 10.890625 67.625 15.140625 71.796875 
Q 19.390625 75.984375 28.609375 75.984375 
z
" id="DejaVuSans-102"/>
      <path d="M 48.6875 27.296875 
Q 48.6875 37.203125 44.609375 42.84375 
Q 40.53125 48.484375 33.40625 48.484375 
Q 26.265625 48.484375 22.1875 42.84375 
Q 18.109375 37.203125 18.109375 27.296875 
Q 18.109375 17.390625 22.1875 11.75 
Q 26.265625 6.109375 33.40625 6.109375 
Q 40.53125 6.109375 44.609375 11.75 
Q 48.6875 17.390625 48.6875 27.296875 
z
M 18.109375 46.390625 
Q 20.953125 51.265625 25.265625 53.625 
Q 29.59375 56 35.59375 56 
Q 45.5625 56 51.78125 48.09375 
Q 58.015625 40.1875 58.015625 27.296875 
Q 58.015625 14.40625 51.78125 6.484375 
Q 45.5625 -1.421875 35.59375 -1.421875 
Q 29.59375 -1.421875 25.265625 0.953125 
Q 20.953125 3.328125 18.109375 8.203125 
L 18.109375 0 
L 9.078125 0 
L 9.078125 75.984375 
L 18.109375 75.984375 
z
" id="DejaVuSans-98"/>
     </defs>
     <use xlink:href="#DejaVuSans-84"/>
     <use x="57.958984" xlink:href="#DejaVuSans-105"/>
     <use x="85.742188" xlink:href="#DejaVuSans-101"/>
     <use x="147.265625" xlink:href="#DejaVuSans-109"/>
     <use x="244.677734" xlink:href="#DejaVuSans-112"/>
     <use x="308.154297" xlink:href="#DejaVuSans-111"/>
     <use x="369.335938" xlink:href="#DejaVuSans-32"/>
     <use x="401.123047" xlink:href="#DejaVuSans-100"/>
     <use x="464.599609" xlink:href="#DejaVuSans-101"/>
     <use x="526.123047" xlink:href="#DejaVuSans-32"/>
     <use x="557.910156" xlink:href="#DejaVuSans-101"/>
     <use x="619.433594" xlink:href="#DejaVuSans-106"/>
     <use x="647.216797" xlink:href="#DejaVuSans-101"/>
     <use x="708.740234" xlink:href="#DejaVuSans-99"/>
     <use x="763.720703" xlink:href="#DejaVuSans-117"/>
     <use x="827.099609" xlink:href="#DejaVuSans-99"/>
     <use x="882.080078" xlink:href="#DejaVuSans-105"/>
     <use x="909.863281" xlink:href="#DejaVuSans-243"/>
     <use x="971.044922" xlink:href="#DejaVuSans-110"/>
     <use x="1034.423828" xlink:href="#DejaVuSans-32"/>
     <use x="1066.210938" xlink:href="#DejaVuSans-100"/>
     <use x="1129.6875" xlink:href="#DejaVuSans-101"/>
     <use x="1191.210938" xlink:href="#DejaVuSans-32"/>
     <use x="1222.998047" xlink:href="#DejaVuSans-109"/>
     <use x="1320.410156" xlink:href="#DejaVuSans-101"/>
     <use x="1381.933594" xlink:href="#DejaVuSans-106"/>
     <use x="1409.716797" xlink:href="#DejaVuSans-111"/>
     <use x="1470.898438" xlink:href="#DejaVuSans-114"/>
     <use x="1512.011719" xlink:href="#DejaVuSans-32"/>
     <use x="1543.798828" xlink:href="#DejaVuSans-99"/>
     <use x="1598.779297" xlink:href="#DejaVuSans-97"/>
     <use x="1660.058594" xlink:href="#DejaVuSans-115"/>
     <use x="1712.158203" xlink:href="#DejaVuSans-111"/>
     <use x="1773.339844" xlink:href="#DejaVuSans-32"/>
     <use x="1805.126953" xlink:href="#DejaVuSans-101"/>
     <use x="1866.650391" xlink:href="#DejaVuSans-110"/>
     <use x="1930.029297" xlink:href="#DejaVuSans-32"/>
     <use x="1961.816406" xlink:href="#DejaVuSans-102"/>
     <use x="1997.021484" xlink:href="#DejaVuSans-117"/>
     <use x="2060.400391" xlink:href="#DejaVuSans-110"/>
     <use x="2123.779297" xlink:href="#DejaVuSans-99"/>
     <use x="2178.759766" xlink:href="#DejaVuSans-105"/>
     <use x="2206.542969" xlink:href="#DejaVuSans-243"/>
     <use x="2267.724609" xlink:href="#DejaVuSans-110"/>
     <use x="2331.103516" xlink:href="#DejaVuSans-32"/>
     <use x="2362.890625" xlink:href="#DejaVuSans-100"/>
     <use x="2426.367188" xlink:href="#DejaVuSans-101"/>
     <use x="2487.890625" xlink:href="#DejaVuSans-32"/>
     <use x="2519.677734" xlink:href="#DejaVuSans-114"/>
     <use x="2558.541016" xlink:href="#DejaVuSans-101"/>
     <use x="2620.064453" xlink:href="#DejaVuSans-115"/>
     <use x="2672.164062" xlink:href="#DejaVuSans-84"/>
     <use x="2718.123047" xlink:href="#DejaVuSans-117"/>
     <use x="2781.501953" xlink:href="#DejaVuSans-98"/>
     <use x="2844.978516" xlink:href="#DejaVuSans-111"/>
    </g>
    <!--  -->
    <g transform="translate(208.003125 30.2355)scale(0.12 -0.12)"/>
   </g>
   <g id="legend_1">
    <g id="patch_7">
     <path d="M 47.603125 73.59175 
L 151.954688 73.59175 
Q 153.954688 73.59175 153.954688 71.59175 
L 153.954688 43.2355 
Q 153.954688 41.2355 151.954688 41.2355 
L 47.603125 41.2355 
Q 45.603125 41.2355 45.603125 43.2355 
L 45.603125 71.59175 
Q 45.603125 73.59175 47.603125 73.59175 
z
" style="fill:#ffffff;opacity:0.8;stroke:#cccccc;stroke-linejoin:miter;"/>
    </g>
    <g id="line2d_14">
     <path d="M 49.603125 49.333937 
L 69.603125 49.333937 
" style="fill:none;stroke:#0000ff;stroke-linecap:square;stroke-width:1.5;"/>
    </g>
    <g id="line2d_15"/>
    <g id="text_17">
     <!-- cota lineal -->
     <g transform="translate(77.603125 52.833937)scale(0.1 -0.1)">
      <defs>
       <path d="M 9.421875 75.984375 
L 18.40625 75.984375 
L 18.40625 0 
L 9.421875 0 
z
" id="DejaVuSans-108"/>
      </defs>
      <use xlink:href="#DejaVuSans-99"/>
      <use x="54.980469" xlink:href="#DejaVuSans-111"/>
      <use x="116.162109" xlink:href="#DejaVuSans-116"/>
      <use x="155.371094" xlink:href="#DejaVuSans-97"/>
      <use x="216.650391" xlink:href="#DejaVuSans-32"/>
      <use x="248.4375" xlink:href="#DejaVuSans-108"/>
      <use x="276.220703" xlink:href="#DejaVuSans-105"/>
      <use x="304.003906" xlink:href="#DejaVuSans-110"/>
      <use x="367.382812" xlink:href="#DejaVuSans-101"/>
      <use x="428.90625" xlink:href="#DejaVuSans-97"/>
      <use x="490.185547" xlink:href="#DejaVuSans-108"/>
     </g>
    </g>
    <g id="PathCollection_3">
     <defs>
      <path d="M 0 3 
C 0.795609 3 1.55874 2.683901 2.12132 2.12132 
C 2.683901 1.55874 3 0.795609 3 0 
C 3 -0.795609 2.683901 -1.55874 2.12132 -2.12132 
C 1.55874 -2.683901 0.795609 -3 0 -3 
C -0.795609 -3 -1.55874 -2.683901 -2.12132 -2.12132 
C -2.683901 -1.55874 -3 -0.795609 -3 0 
C -3 0.795609 -2.683901 1.55874 -2.12132 2.12132 
C -1.55874 2.683901 -0.795609 3 0 3 
z
" id="m65adee0aeb" style="stroke:#1f77b4;"/>
     </defs>
     <g>
      <use style="fill:#1f77b4;stroke:#1f77b4;" x="59.603125" xlink:href="#m65adee0aeb" y="64.887062"/>
     </g>
    </g>
    <g id="text_18">
     <!-- mejor-caso-DP -->
     <g transform="translate(77.603125 67.512062)scale(0.1 -0.1)">
      <defs>
       <path d="M 4.890625 31.390625 
L 31.203125 31.390625 
L 31.203125 23.390625 
L 4.890625 23.390625 
z
" id="DejaVuSans-45"/>
       <path d="M 19.671875 64.796875 
L 19.671875 8.109375 
L 31.59375 8.109375 
Q 46.6875 8.109375 53.6875 14.9375 
Q 60.6875 21.78125 60.6875 36.53125 
Q 60.6875 51.171875 53.6875 57.984375 
Q 46.6875 64.796875 31.59375 64.796875 
z
M 9.8125 72.90625 
L 30.078125 72.90625 
Q 51.265625 72.90625 61.171875 64.09375 
Q 71.09375 55.28125 71.09375 36.53125 
Q 71.09375 17.671875 61.125 8.828125 
Q 51.171875 0 30.078125 0 
L 9.8125 0 
z
" id="DejaVuSans-68"/>
       <path d="M 19.671875 64.796875 
L 19.671875 37.40625 
L 32.078125 37.40625 
Q 38.96875 37.40625 42.71875 40.96875 
Q 46.484375 44.53125 46.484375 51.125 
Q 46.484375 57.671875 42.71875 61.234375 
Q 38.96875 64.796875 32.078125 64.796875 
z
M 9.8125 72.90625 
L 32.078125 72.90625 
Q 44.34375 72.90625 50.609375 67.359375 
Q 56.890625 61.8125 56.890625 51.125 
Q 56.890625 40.328125 50.609375 34.8125 
Q 44.34375 29.296875 32.078125 29.296875 
L 19.671875 29.296875 
L 19.671875 0 
L 9.8125 0 
z
" id="DejaVuSans-80"/>
      </defs>
      <use xlink:href="#DejaVuSans-109"/>
      <use x="97.412109" xlink:href="#DejaVuSans-101"/>
      <use x="158.935547" xlink:href="#DejaVuSans-106"/>
      <use x="186.71875" xlink:href="#DejaVuSans-111"/>
      <use x="247.900391" xlink:href="#DejaVuSans-114"/>
      <use x="282.638672" xlink:href="#DejaVuSans-45"/>
      <use x="318.722656" xlink:href="#DejaVuSans-99"/>
      <use x="373.703125" xlink:href="#DejaVuSans-97"/>
      <use x="434.982422" xlink:href="#DejaVuSans-115"/>
      <use x="487.082031" xlink:href="#DejaVuSans-111"/>
      <use x="550.138672" xlink:href="#DejaVuSans-45"/>
      <use x="586.222656" xlink:href="#DejaVuSans-68"/>
      <use x="663.224609" xlink:href="#DejaVuSans-80"/>
     </g>
    </g>
   </g>
  </g>
 </g>
 <defs>
  <clipPath id="p0abcac4fa6">
   <rect height="217.44" width="334.8" x="40.603125" y="36.2355"/>
  </clipPath>
 </defs>
</svg>
