<?xml version="1.0" encoding="utf-8" standalone="no"?>
<!DOCTYPE svg PUBLIC "-//W3C//DTD SVG 1.1//EN"
  "http://www.w3.org/Graphics/SVG/1.1/DTD/svg11.dtd">
<!-- Created with matplotlib (https://matplotlib.org/) -->
<svg height="382.19175pt" version="1.1" viewBox="0 0 366.578125 382.19175" width="366.578125pt" xmlns="http://www.w3.org/2000/svg" xmlns:xlink="http://www.w3.org/1999/xlink">
 <metadata>
  <rdf:RDF xmlns:cc="http://creativecommons.org/ns#" xmlns:dc="http://purl.org/dc/elements/1.1/" xmlns:rdf="http://www.w3.org/1999/02/22-rdf-syntax-ns#">
   <cc:Work>
    <dc:type rdf:resource="http://purl.org/dc/dcmitype/StillImage"/>
    <dc:date>2021-04-28T08:12:00.962785</dc:date>
    <dc:format>image/svg+xml</dc:format>
    <dc:creator>
     <cc:Agent>
      <dc:title>Matplotlib v3.3.4, https://matplotlib.org/</dc:title>
     </cc:Agent>
    </dc:creator>
   </cc:Work>
  </rdf:RDF>
 </metadata>
 <defs>
  <style type="text/css">*{stroke-linecap:butt;stroke-linejoin:round;}</style>
 </defs>
 <g id="figure_1">
  <g id="patch_1">
   <path d="M 0 382.19175 
L 366.578125 382.19175 
L 366.578125 0 
L 0 0 
z
" style="fill:none;"/>
  </g>
  <g id="axes_1">
   <g id="patch_2">
    <path d="M 40.603125 344.6355 
L 359.378125 344.6355 
L 359.378125 36.2355 
L 40.603125 36.2355 
z
" style="fill:#ffffff;"/>
   </g>
   <g id="PathCollection_1">
    <defs>
     <path d="M 0 3 
C 0.795609 3 1.55874 2.683901 2.12132 2.12132 
C 2.683901 1.55874 3 0.795609 3 0 
C 3 -0.795609 2.683901 -1.55874 2.12132 -2.12132 
C 1.55874 -2.683901 0.795609 -3 0 -3 
C -0.795609 -3 -1.55874 -2.683901 -2.12132 -2.12132 
C -2.683901 -1.55874 -3 -0.795609 -3 0 
C -3 0.795609 -2.683901 1.55874 -2.12132 2.12132 
C -1.55874 2.683901 -0.795609 3 0 3 
z
" id="m59d0167bcc" style="stroke:#1f77b4;stroke-opacity:0.8;"/>
    </defs>
    <g clip-path="url(#p193dbe15d0)">
     <use style="fill:#1f77b4;fill-opacity:0.8;stroke:#1f77b4;stroke-opacity:0.8;" x="40.603125" xlink:href="#m59d0167bcc" y="330.375129"/>
     <use style="fill:#1f77b4;fill-opacity:0.8;stroke:#1f77b4;stroke-opacity:0.8;" x="40.603144" xlink:href="#m59d0167bcc" y="330.375363"/>
     <use style="fill:#1f77b4;fill-opacity:0.8;stroke:#1f77b4;stroke-opacity:0.8;" x="40.603182" xlink:href="#m59d0167bcc" y="330.375363"/>
     <use style="fill:#1f77b4;fill-opacity:0.8;stroke:#1f77b4;stroke-opacity:0.8;" x="40.603258" xlink:href="#m59d0167bcc" y="330.374528"/>
     <use style="fill:#1f77b4;fill-opacity:0.8;stroke:#1f77b4;stroke-opacity:0.8;" x="40.60341" xlink:href="#m59d0167bcc" y="330.374771"/>
     <use style="fill:#1f77b4;fill-opacity:0.8;stroke:#1f77b4;stroke-opacity:0.8;" x="40.603714" xlink:href="#m59d0167bcc" y="330.373534"/>
     <use style="fill:#1f77b4;fill-opacity:0.8;stroke:#1f77b4;stroke-opacity:0.8;" x="40.604322" xlink:href="#m59d0167bcc" y="330.372311"/>
     <use style="fill:#1f77b4;fill-opacity:0.8;stroke:#1f77b4;stroke-opacity:0.8;" x="40.605538" xlink:href="#m59d0167bcc" y="330.371258"/>
     <use style="fill:#1f77b4;fill-opacity:0.8;stroke:#1f77b4;stroke-opacity:0.8;" x="40.60797" xlink:href="#m59d0167bcc" y="330.368589"/>
     <use style="fill:#1f77b4;fill-opacity:0.8;stroke:#1f77b4;stroke-opacity:0.8;" x="40.612834" xlink:href="#m59d0167bcc" y="330.36425"/>
     <use style="fill:#1f77b4;fill-opacity:0.8;stroke:#1f77b4;stroke-opacity:0.8;" x="40.622562" xlink:href="#m59d0167bcc" y="330.353307"/>
     <use style="fill:#1f77b4;fill-opacity:0.8;stroke:#1f77b4;stroke-opacity:0.8;" x="40.642019" xlink:href="#m59d0167bcc" y="330.338964"/>
     <use style="fill:#1f77b4;fill-opacity:0.8;stroke:#1f77b4;stroke-opacity:0.8;" x="40.680932" xlink:href="#m59d0167bcc" y="330.303127"/>
     <use style="fill:#1f77b4;fill-opacity:0.8;stroke:#1f77b4;stroke-opacity:0.8;" x="40.758758" xlink:href="#m59d0167bcc" y="330.237994"/>
     <use style="fill:#1f77b4;fill-opacity:0.8;stroke:#1f77b4;stroke-opacity:0.8;" x="40.91441" xlink:href="#m59d0167bcc" y="330.10388"/>
     <use style="fill:#1f77b4;fill-opacity:0.8;stroke:#1f77b4;stroke-opacity:0.8;" x="41.225713" xlink:href="#m59d0167bcc" y="329.830801"/>
     <use style="fill:#1f77b4;fill-opacity:0.8;stroke:#1f77b4;stroke-opacity:0.8;" x="41.848321" xlink:href="#m59d0167bcc" y="329.322062"/>
     <use style="fill:#1f77b4;fill-opacity:0.8;stroke:#1f77b4;stroke-opacity:0.8;" x="43.093536" xlink:href="#m59d0167bcc" y="328.243087"/>
     <use style="fill:#1f77b4;fill-opacity:0.8;stroke:#1f77b4;stroke-opacity:0.8;" x="45.583966" xlink:href="#m59d0167bcc" y="326.192464"/>
     <use style="fill:#1f77b4;fill-opacity:0.8;stroke:#1f77b4;stroke-opacity:0.8;" x="50.564825" xlink:href="#m59d0167bcc" y="321.974092"/>
     <use style="fill:#1f77b4;fill-opacity:0.8;stroke:#1f77b4;stroke-opacity:0.8;" x="60.526545" xlink:href="#m59d0167bcc" y="313.484797"/>
     <use style="fill:#1f77b4;fill-opacity:0.8;stroke:#1f77b4;stroke-opacity:0.8;" x="80.449983" xlink:href="#m59d0167bcc" y="296.707283"/>
     <use style="fill:#1f77b4;fill-opacity:0.8;stroke:#1f77b4;stroke-opacity:0.8;" x="120.296861" xlink:href="#m59d0167bcc" y="261.968459"/>
     <use style="fill:#1f77b4;fill-opacity:0.8;stroke:#1f77b4;stroke-opacity:0.8;" x="199.990615" xlink:href="#m59d0167bcc" y="196.542556"/>
     <use style="fill:#1f77b4;fill-opacity:0.8;stroke:#1f77b4;stroke-opacity:0.8;" x="359.378125" xlink:href="#m59d0167bcc" y="61.283071"/>
     <use style="fill:#1f77b4;fill-opacity:0.8;stroke:#1f77b4;stroke-opacity:0.8;" x="40.603125" xlink:href="#m59d0167bcc" y="330.375581"/>
     <use style="fill:#1f77b4;fill-opacity:0.8;stroke:#1f77b4;stroke-opacity:0.8;" x="40.603144" xlink:href="#m59d0167bcc" y="330.375353"/>
     <use style="fill:#1f77b4;fill-opacity:0.8;stroke:#1f77b4;stroke-opacity:0.8;" x="40.603182" xlink:href="#m59d0167bcc" y="330.374399"/>
     <use style="fill:#1f77b4;fill-opacity:0.8;stroke:#1f77b4;stroke-opacity:0.8;" x="40.603258" xlink:href="#m59d0167bcc" y="330.374727"/>
     <use style="fill:#1f77b4;fill-opacity:0.8;stroke:#1f77b4;stroke-opacity:0.8;" x="40.60341" xlink:href="#m59d0167bcc" y="330.374399"/>
     <use style="fill:#1f77b4;fill-opacity:0.8;stroke:#1f77b4;stroke-opacity:0.8;" x="40.603714" xlink:href="#m59d0167bcc" y="330.374294"/>
     <use style="fill:#1f77b4;fill-opacity:0.8;stroke:#1f77b4;stroke-opacity:0.8;" x="40.604322" xlink:href="#m59d0167bcc" y="330.373196"/>
     <use style="fill:#1f77b4;fill-opacity:0.8;stroke:#1f77b4;stroke-opacity:0.8;" x="40.605538" xlink:href="#m59d0167bcc" y="330.372575"/>
     <use style="fill:#1f77b4;fill-opacity:0.8;stroke:#1f77b4;stroke-opacity:0.8;" x="40.60797" xlink:href="#m59d0167bcc" y="330.370209"/>
     <use style="fill:#1f77b4;fill-opacity:0.8;stroke:#1f77b4;stroke-opacity:0.8;" x="40.612834" xlink:href="#m59d0167bcc" y="330.365269"/>
     <use style="fill:#1f77b4;fill-opacity:0.8;stroke:#1f77b4;stroke-opacity:0.8;" x="40.622562" xlink:href="#m59d0167bcc" y="330.356055"/>
     <use style="fill:#1f77b4;fill-opacity:0.8;stroke:#1f77b4;stroke-opacity:0.8;" x="40.642019" xlink:href="#m59d0167bcc" y="330.338909"/>
     <use style="fill:#1f77b4;fill-opacity:0.8;stroke:#1f77b4;stroke-opacity:0.8;" x="40.680932" xlink:href="#m59d0167bcc" y="330.305413"/>
     <use style="fill:#1f77b4;fill-opacity:0.8;stroke:#1f77b4;stroke-opacity:0.8;" x="40.758758" xlink:href="#m59d0167bcc" y="330.23521"/>
     <use style="fill:#1f77b4;fill-opacity:0.8;stroke:#1f77b4;stroke-opacity:0.8;" x="40.91441" xlink:href="#m59d0167bcc" y="330.099447"/>
     <use style="fill:#1f77b4;fill-opacity:0.8;stroke:#1f77b4;stroke-opacity:0.8;" x="41.225713" xlink:href="#m59d0167bcc" y="329.825001"/>
     <use style="fill:#1f77b4;fill-opacity:0.8;stroke:#1f77b4;stroke-opacity:0.8;" x="41.848321" xlink:href="#m59d0167bcc" y="329.280087"/>
     <use style="fill:#1f77b4;fill-opacity:0.8;stroke:#1f77b4;stroke-opacity:0.8;" x="43.093536" xlink:href="#m59d0167bcc" y="328.163874"/>
     <use style="fill:#1f77b4;fill-opacity:0.8;stroke:#1f77b4;stroke-opacity:0.8;" x="45.583966" xlink:href="#m59d0167bcc" y="326.01239"/>
     <use style="fill:#1f77b4;fill-opacity:0.8;stroke:#1f77b4;stroke-opacity:0.8;" x="50.564825" xlink:href="#m59d0167bcc" y="321.648871"/>
     <use style="fill:#1f77b4;fill-opacity:0.8;stroke:#1f77b4;stroke-opacity:0.8;" x="60.526545" xlink:href="#m59d0167bcc" y="312.858955"/>
     <use style="fill:#1f77b4;fill-opacity:0.8;stroke:#1f77b4;stroke-opacity:0.8;" x="80.449983" xlink:href="#m59d0167bcc" y="295.425035"/>
     <use style="fill:#1f77b4;fill-opacity:0.8;stroke:#1f77b4;stroke-opacity:0.8;" x="120.296861" xlink:href="#m59d0167bcc" y="260.537168"/>
     <use style="fill:#1f77b4;fill-opacity:0.8;stroke:#1f77b4;stroke-opacity:0.8;" x="199.990615" xlink:href="#m59d0167bcc" y="190.535607"/>
     <use style="fill:#1f77b4;fill-opacity:0.8;stroke:#1f77b4;stroke-opacity:0.8;" x="359.378125" xlink:href="#m59d0167bcc" y="50.253682"/>
     <use style="fill:#1f77b4;fill-opacity:0.8;stroke:#1f77b4;stroke-opacity:0.8;" x="40.603125" xlink:href="#m59d0167bcc" y="330.375566"/>
     <use style="fill:#1f77b4;fill-opacity:0.8;stroke:#1f77b4;stroke-opacity:0.8;" x="40.603144" xlink:href="#m59d0167bcc" y="330.375179"/>
     <use style="fill:#1f77b4;fill-opacity:0.8;stroke:#1f77b4;stroke-opacity:0.8;" x="40.603182" xlink:href="#m59d0167bcc" y="330.375035"/>
     <use style="fill:#1f77b4;fill-opacity:0.8;stroke:#1f77b4;stroke-opacity:0.8;" x="40.603258" xlink:href="#m59d0167bcc" y="330.374473"/>
     <use style="fill:#1f77b4;fill-opacity:0.8;stroke:#1f77b4;stroke-opacity:0.8;" x="40.60341" xlink:href="#m59d0167bcc" y="330.374021"/>
     <use style="fill:#1f77b4;fill-opacity:0.8;stroke:#1f77b4;stroke-opacity:0.8;" x="40.603714" xlink:href="#m59d0167bcc" y="330.374279"/>
     <use style="fill:#1f77b4;fill-opacity:0.8;stroke:#1f77b4;stroke-opacity:0.8;" x="40.604322" xlink:href="#m59d0167bcc" y="330.373564"/>
     <use style="fill:#1f77b4;fill-opacity:0.8;stroke:#1f77b4;stroke-opacity:0.8;" x="40.605538" xlink:href="#m59d0167bcc" y="330.372545"/>
     <use style="fill:#1f77b4;fill-opacity:0.8;stroke:#1f77b4;stroke-opacity:0.8;" x="40.60797" xlink:href="#m59d0167bcc" y="330.370467"/>
     <use style="fill:#1f77b4;fill-opacity:0.8;stroke:#1f77b4;stroke-opacity:0.8;" x="40.612834" xlink:href="#m59d0167bcc" y="330.365975"/>
     <use style="fill:#1f77b4;fill-opacity:0.8;stroke:#1f77b4;stroke-opacity:0.8;" x="40.622562" xlink:href="#m59d0167bcc" y="330.357939"/>
     <use style="fill:#1f77b4;fill-opacity:0.8;stroke:#1f77b4;stroke-opacity:0.8;" x="40.642019" xlink:href="#m59d0167bcc" y="330.342349"/>
     <use style="fill:#1f77b4;fill-opacity:0.8;stroke:#1f77b4;stroke-opacity:0.8;" x="40.680932" xlink:href="#m59d0167bcc" y="330.310885"/>
     <use style="fill:#1f77b4;fill-opacity:0.8;stroke:#1f77b4;stroke-opacity:0.8;" x="40.758758" xlink:href="#m59d0167bcc" y="330.248659"/>
     <use style="fill:#1f77b4;fill-opacity:0.8;stroke:#1f77b4;stroke-opacity:0.8;" x="40.91441" xlink:href="#m59d0167bcc" y="330.124062"/>
     <use style="fill:#1f77b4;fill-opacity:0.8;stroke:#1f77b4;stroke-opacity:0.8;" x="41.225713" xlink:href="#m59d0167bcc" y="329.875112"/>
     <use style="fill:#1f77b4;fill-opacity:0.8;stroke:#1f77b4;stroke-opacity:0.8;" x="41.848321" xlink:href="#m59d0167bcc" y="329.377127"/>
     <use style="fill:#1f77b4;fill-opacity:0.8;stroke:#1f77b4;stroke-opacity:0.8;" x="43.093536" xlink:href="#m59d0167bcc" y="328.38309"/>
     <use style="fill:#1f77b4;fill-opacity:0.8;stroke:#1f77b4;stroke-opacity:0.8;" x="45.583966" xlink:href="#m59d0167bcc" y="326.368016"/>
     <use style="fill:#1f77b4;fill-opacity:0.8;stroke:#1f77b4;stroke-opacity:0.8;" x="50.564825" xlink:href="#m59d0167bcc" y="322.412127"/>
     <use style="fill:#1f77b4;fill-opacity:0.8;stroke:#1f77b4;stroke-opacity:0.8;" x="60.526545" xlink:href="#m59d0167bcc" y="314.409719"/>
     <use style="fill:#1f77b4;fill-opacity:0.8;stroke:#1f77b4;stroke-opacity:0.8;" x="80.449983" xlink:href="#m59d0167bcc" y="298.485265"/>
     <use style="fill:#1f77b4;fill-opacity:0.8;stroke:#1f77b4;stroke-opacity:0.8;" x="120.296861" xlink:href="#m59d0167bcc" y="265.744483"/>
     <use style="fill:#1f77b4;fill-opacity:0.8;stroke:#1f77b4;stroke-opacity:0.8;" x="199.990615" xlink:href="#m59d0167bcc" y="202.74929"/>
     <use style="fill:#1f77b4;fill-opacity:0.8;stroke:#1f77b4;stroke-opacity:0.8;" x="359.378125" xlink:href="#m59d0167bcc" y="75.480186"/>
    </g>
   </g>
   <g id="PolyCollection_1">
    <path clip-path="url(#p193dbe15d0)" d="M 40.603125 330.079716 
L 40.603125 330.617318 
L 43.823074 327.860631 
L 47.043024 325.11763 
L 50.262973 322.420188 
L 53.482923 319.770341 
L 56.702872 317.13552 
L 59.922822 314.513727 
L 63.142771 311.904723 
L 66.362721 309.285599 
L 69.58267 306.665089 
L 72.80262 304.039465 
L 76.022569 301.422323 
L 79.242519 298.810579 
L 82.462468 296.198928 
L 85.682418 293.59561 
L 88.902367 290.989282 
L 92.122317 288.381183 
L 95.342266 285.772952 
L 98.562216 283.164396 
L 101.782165 280.556181 
L 105.002115 277.947058 
L 108.222064 275.339699 
L 111.442014 272.731441 
L 114.661963 270.123108 
L 117.881913 267.514251 
L 121.101862 264.903121 
L 124.321812 262.291992 
L 127.541761 259.680862 
L 130.761711 257.069732 
L 133.98166 254.458602 
L 137.20161 251.847473 
L 140.421559 249.236343 
L 143.641509 246.625213 
L 146.861458 244.014083 
L 150.081408 241.402954 
L 153.301357 238.791824 
L 156.521307 236.180694 
L 159.741256 233.569564 
L 162.961206 230.958435 
L 166.181155 228.347305 
L 169.401105 225.736175 
L 172.621054 223.125045 
L 175.841004 220.513916 
L 179.060953 217.902786 
L 182.280903 215.291656 
L 185.500852 212.680526 
L 188.720802 210.069397 
L 191.940751 207.458267 
L 195.160701 204.847137 
L 198.38065 202.236007 
L 201.6006 199.624878 
L 204.820549 197.013748 
L 208.040499 194.402618 
L 211.260448 191.791488 
L 214.480398 189.180359 
L 217.700347 186.569229 
L 220.920297 183.958099 
L 224.140246 181.34697 
L 227.360196 178.73584 
L 230.580145 176.1247 
L 233.800095 173.513525 
L 237.020044 170.902349 
L 240.239994 168.291174 
L 243.459943 165.679999 
L 246.679893 163.068823 
L 249.899842 160.457648 
L 253.119792 157.846473 
L 256.339741 155.235297 
L 259.559691 152.624122 
L 262.77964 150.012947 
L 265.99959 147.401771 
L 269.219539 144.790596 
L 272.439489 142.179421 
L 275.659438 139.568246 
L 278.879388 136.95707 
L 282.099337 134.345895 
L 285.319287 131.73472 
L 288.539236 129.123544 
L 291.759186 126.512369 
L 294.979135 123.901194 
L 298.199085 121.290018 
L 301.419034 118.678843 
L 304.638984 116.067668 
L 307.858933 113.456492 
L 311.078883 110.845317 
L 314.298832 108.234142 
L 317.518782 105.622966 
L 320.738731 103.011791 
L 323.958681 100.400616 
L 327.17863 97.78944 
L 330.39858 95.178265 
L 333.618529 92.56709 
L 336.838479 89.955915 
L 340.058428 87.344739 
L 343.278378 84.733564 
L 346.498327 82.122389 
L 349.718277 79.511213 
L 352.938226 76.900038 
L 356.158176 74.288863 
L 359.378125 71.677687 
L 359.378125 53.148828 
L 359.378125 53.148828 
L 356.158176 55.951524 
L 352.938226 58.75422 
L 349.718277 61.556916 
L 346.498327 64.359612 
L 343.278378 67.162308 
L 340.058428 69.965004 
L 336.838479 72.7677 
L 333.618529 75.570396 
L 330.39858 78.373092 
L 327.17863 81.175788 
L 323.958681 83.978484 
L 320.738731 86.78118 
L 317.518782 89.583876 
L 314.298832 92.386573 
L 311.078883 95.189269 
L 307.858933 97.991965 
L 304.638984 100.794661 
L 301.419034 103.597357 
L 298.199085 106.400053 
L 294.979135 109.202749 
L 291.759186 112.005445 
L 288.539236 114.808141 
L 285.319287 117.610837 
L 282.099337 120.413533 
L 278.879388 123.216229 
L 275.659438 126.018925 
L 272.439489 128.821621 
L 269.219539 131.624317 
L 265.99959 134.427014 
L 262.77964 137.228514 
L 259.559691 140.029728 
L 256.339741 142.830948 
L 253.119792 145.632167 
L 249.899842 148.433387 
L 246.679893 151.234606 
L 243.459943 154.035826 
L 240.239994 156.837045 
L 237.020044 159.638265 
L 233.800095 162.439484 
L 230.580145 165.240704 
L 227.360196 168.041923 
L 224.140246 170.843143 
L 220.920297 173.644362 
L 217.700347 176.446424 
L 214.480398 179.249922 
L 211.260448 182.052916 
L 208.040499 184.854257 
L 204.820549 187.655598 
L 201.6006 190.456939 
L 198.38065 193.25832 
L 195.160701 196.059704 
L 191.940751 198.861087 
L 188.720802 201.662739 
L 185.500852 204.465565 
L 182.280903 207.268391 
L 179.060953 210.071218 
L 175.841004 212.874044 
L 172.621054 215.67687 
L 169.401105 218.479696 
L 166.181155 221.282522 
L 162.961206 224.085348 
L 159.741256 226.888175 
L 156.521307 229.691001 
L 153.301357 232.493827 
L 150.081408 235.296653 
L 146.861458 238.099479 
L 143.641509 240.902306 
L 140.421559 243.705169 
L 137.20161 246.506133 
L 133.98166 249.30658 
L 130.761711 252.107027 
L 127.541761 254.907474 
L 124.321812 257.707953 
L 121.101862 260.508488 
L 117.881913 263.313355 
L 114.661963 266.119709 
L 111.442014 268.9261 
L 108.222064 271.722038 
L 105.002115 274.517216 
L 101.782165 277.320029 
L 98.562216 280.123169 
L 95.342266 282.928041 
L 92.122317 285.736193 
L 88.902367 288.544481 
L 85.682418 291.352223 
L 82.462468 294.143072 
L 79.242519 296.94131 
L 76.022569 299.747884 
L 72.80262 302.555172 
L 69.58267 305.352408 
L 66.362721 308.150521 
L 63.142771 310.946603 
L 59.922822 313.743649 
L 56.702872 316.535915 
L 53.482923 319.314754 
L 50.262973 322.0659 
L 47.043024 324.770566 
L 43.823074 327.440922 
L 40.603125 330.079716 
z
" style="fill:#1f77b4;fill-opacity:0.15;"/>
   </g>
   <g id="matplotlib.axis_1">
    <g id="xtick_1">
     <g id="line2d_1">
      <defs>
       <path d="M 0 0 
L 0 3.5 
" id="mbb2c398f12" style="stroke:#000000;stroke-width:0.8;"/>
      </defs>
      <g>
       <use style="stroke:#000000;stroke-width:0.8;" x="88.104285" xlink:href="#mbb2c398f12" y="344.6355"/>
      </g>
     </g>
     <g id="text_1">
      <!-- 0.5 -->
      <g transform="translate(80.152723 359.233937)scale(0.1 -0.1)">
       <defs>
        <path d="M 31.78125 66.40625 
Q 24.171875 66.40625 20.328125 58.90625 
Q 16.5 51.421875 16.5 36.375 
Q 16.5 21.390625 20.328125 13.890625 
Q 24.171875 6.390625 31.78125 6.390625 
Q 39.453125 6.390625 43.28125 13.890625 
Q 47.125 21.390625 47.125 36.375 
Q 47.125 51.421875 43.28125 58.90625 
Q 39.453125 66.40625 31.78125 66.40625 
z
M 31.78125 74.21875 
Q 44.046875 74.21875 50.515625 64.515625 
Q 56.984375 54.828125 56.984375 36.375 
Q 56.984375 17.96875 50.515625 8.265625 
Q 44.046875 -1.421875 31.78125 -1.421875 
Q 19.53125 -1.421875 13.0625 8.265625 
Q 6.59375 17.96875 6.59375 36.375 
Q 6.59375 54.828125 13.0625 64.515625 
Q 19.53125 74.21875 31.78125 74.21875 
z
" id="DejaVuSans-48"/>
        <path d="M 10.6875 12.40625 
L 21 12.40625 
L 21 0 
L 10.6875 0 
z
" id="DejaVuSans-46"/>
        <path d="M 10.796875 72.90625 
L 49.515625 72.90625 
L 49.515625 64.59375 
L 19.828125 64.59375 
L 19.828125 46.734375 
Q 21.96875 47.46875 24.109375 47.828125 
Q 26.265625 48.1875 28.421875 48.1875 
Q 40.625 48.1875 47.75 41.5 
Q 54.890625 34.8125 54.890625 23.390625 
Q 54.890625 11.625 47.5625 5.09375 
Q 40.234375 -1.421875 26.90625 -1.421875 
Q 22.3125 -1.421875 17.546875 -0.640625 
Q 12.796875 0.140625 7.71875 1.703125 
L 7.71875 11.625 
Q 12.109375 9.234375 16.796875 8.0625 
Q 21.484375 6.890625 26.703125 6.890625 
Q 35.15625 6.890625 40.078125 11.328125 
Q 45.015625 15.765625 45.015625 23.390625 
Q 45.015625 31 40.078125 35.4375 
Q 35.15625 39.890625 26.703125 39.890625 
Q 22.75 39.890625 18.8125 39.015625 
Q 14.890625 38.140625 10.796875 36.28125 
z
" id="DejaVuSans-53"/>
       </defs>
       <use xlink:href="#DejaVuSans-48"/>
       <use x="63.623047" xlink:href="#DejaVuSans-46"/>
       <use x="95.410156" xlink:href="#DejaVuSans-53"/>
      </g>
     </g>
    </g>
    <g id="xtick_2">
     <g id="line2d_2">
      <g>
       <use style="stroke:#000000;stroke-width:0.8;" x="135.605465" xlink:href="#mbb2c398f12" y="344.6355"/>
      </g>
     </g>
     <g id="text_2">
      <!-- 1.0 -->
      <g transform="translate(127.653902 359.233937)scale(0.1 -0.1)">
       <defs>
        <path d="M 12.40625 8.296875 
L 28.515625 8.296875 
L 28.515625 63.921875 
L 10.984375 60.40625 
L 10.984375 69.390625 
L 28.421875 72.90625 
L 38.28125 72.90625 
L 38.28125 8.296875 
L 54.390625 8.296875 
L 54.390625 0 
L 12.40625 0 
z
" id="DejaVuSans-49"/>
       </defs>
       <use xlink:href="#DejaVuSans-49"/>
       <use x="63.623047" xlink:href="#DejaVuSans-46"/>
       <use x="95.410156" xlink:href="#DejaVuSans-48"/>
      </g>
     </g>
    </g>
    <g id="xtick_3">
     <g id="line2d_3">
      <g>
       <use style="stroke:#000000;stroke-width:0.8;" x="183.106644" xlink:href="#mbb2c398f12" y="344.6355"/>
      </g>
     </g>
     <g id="text_3">
      <!-- 1.5 -->
      <g transform="translate(175.155082 359.233937)scale(0.1 -0.1)">
       <use xlink:href="#DejaVuSans-49"/>
       <use x="63.623047" xlink:href="#DejaVuSans-46"/>
       <use x="95.410156" xlink:href="#DejaVuSans-53"/>
      </g>
     </g>
    </g>
    <g id="xtick_4">
     <g id="line2d_4">
      <g>
       <use style="stroke:#000000;stroke-width:0.8;" x="230.607824" xlink:href="#mbb2c398f12" y="344.6355"/>
      </g>
     </g>
     <g id="text_4">
      <!-- 2.0 -->
      <g transform="translate(222.656261 359.233937)scale(0.1 -0.1)">
       <defs>
        <path d="M 19.1875 8.296875 
L 53.609375 8.296875 
L 53.609375 0 
L 7.328125 0 
L 7.328125 8.296875 
Q 12.9375 14.109375 22.625 23.890625 
Q 32.328125 33.6875 34.8125 36.53125 
Q 39.546875 41.84375 41.421875 45.53125 
Q 43.3125 49.21875 43.3125 52.78125 
Q 43.3125 58.59375 39.234375 62.25 
Q 35.15625 65.921875 28.609375 65.921875 
Q 23.96875 65.921875 18.8125 64.3125 
Q 13.671875 62.703125 7.8125 59.421875 
L 7.8125 69.390625 
Q 13.765625 71.78125 18.9375 73 
Q 24.125 74.21875 28.421875 74.21875 
Q 39.75 74.21875 46.484375 68.546875 
Q 53.21875 62.890625 53.21875 53.421875 
Q 53.21875 48.921875 51.53125 44.890625 
Q 49.859375 40.875 45.40625 35.40625 
Q 44.1875 33.984375 37.640625 27.21875 
Q 31.109375 20.453125 19.1875 8.296875 
z
" id="DejaVuSans-50"/>
       </defs>
       <use xlink:href="#DejaVuSans-50"/>
       <use x="63.623047" xlink:href="#DejaVuSans-46"/>
       <use x="95.410156" xlink:href="#DejaVuSans-48"/>
      </g>
     </g>
    </g>
    <g id="xtick_5">
     <g id="line2d_5">
      <g>
       <use style="stroke:#000000;stroke-width:0.8;" x="278.109003" xlink:href="#mbb2c398f12" y="344.6355"/>
      </g>
     </g>
     <g id="text_5">
      <!-- 2.5 -->
      <g transform="translate(270.157441 359.233937)scale(0.1 -0.1)">
       <use xlink:href="#DejaVuSans-50"/>
       <use x="63.623047" xlink:href="#DejaVuSans-46"/>
       <use x="95.410156" xlink:href="#DejaVuSans-53"/>
      </g>
     </g>
    </g>
    <g id="xtick_6">
     <g id="line2d_6">
      <g>
       <use style="stroke:#000000;stroke-width:0.8;" x="325.610183" xlink:href="#mbb2c398f12" y="344.6355"/>
      </g>
     </g>
     <g id="text_6">
      <!-- 3.0 -->
      <g transform="translate(317.65862 359.233937)scale(0.1 -0.1)">
       <defs>
        <path d="M 40.578125 39.3125 
Q 47.65625 37.796875 51.625 33 
Q 55.609375 28.21875 55.609375 21.1875 
Q 55.609375 10.40625 48.1875 4.484375 
Q 40.765625 -1.421875 27.09375 -1.421875 
Q 22.515625 -1.421875 17.65625 -0.515625 
Q 12.796875 0.390625 7.625 2.203125 
L 7.625 11.71875 
Q 11.71875 9.328125 16.59375 8.109375 
Q 21.484375 6.890625 26.8125 6.890625 
Q 36.078125 6.890625 40.9375 10.546875 
Q 45.796875 14.203125 45.796875 21.1875 
Q 45.796875 27.640625 41.28125 31.265625 
Q 36.765625 34.90625 28.71875 34.90625 
L 20.21875 34.90625 
L 20.21875 43.015625 
L 29.109375 43.015625 
Q 36.375 43.015625 40.234375 45.921875 
Q 44.09375 48.828125 44.09375 54.296875 
Q 44.09375 59.90625 40.109375 62.90625 
Q 36.140625 65.921875 28.71875 65.921875 
Q 24.65625 65.921875 20.015625 65.03125 
Q 15.375 64.15625 9.8125 62.3125 
L 9.8125 71.09375 
Q 15.4375 72.65625 20.34375 73.4375 
Q 25.25 74.21875 29.59375 74.21875 
Q 40.828125 74.21875 47.359375 69.109375 
Q 53.90625 64.015625 53.90625 55.328125 
Q 53.90625 49.265625 50.4375 45.09375 
Q 46.96875 40.921875 40.578125 39.3125 
z
" id="DejaVuSans-51"/>
       </defs>
       <use xlink:href="#DejaVuSans-51"/>
       <use x="63.623047" xlink:href="#DejaVuSans-46"/>
       <use x="95.410156" xlink:href="#DejaVuSans-48"/>
      </g>
     </g>
    </g>
    <g id="text_7">
     <!-- complejidad -->
     <g transform="translate(169.48125 372.912062)scale(0.1 -0.1)">
      <defs>
       <path d="M 48.78125 52.59375 
L 48.78125 44.1875 
Q 44.96875 46.296875 41.140625 47.34375 
Q 37.3125 48.390625 33.40625 48.390625 
Q 24.65625 48.390625 19.8125 42.84375 
Q 14.984375 37.3125 14.984375 27.296875 
Q 14.984375 17.28125 19.8125 11.734375 
Q 24.65625 6.203125 33.40625 6.203125 
Q 37.3125 6.203125 41.140625 7.25 
Q 44.96875 8.296875 48.78125 10.40625 
L 48.78125 2.09375 
Q 45.015625 0.34375 40.984375 -0.53125 
Q 36.96875 -1.421875 32.421875 -1.421875 
Q 20.0625 -1.421875 12.78125 6.34375 
Q 5.515625 14.109375 5.515625 27.296875 
Q 5.515625 40.671875 12.859375 48.328125 
Q 20.21875 56 33.015625 56 
Q 37.15625 56 41.109375 55.140625 
Q 45.0625 54.296875 48.78125 52.59375 
z
" id="DejaVuSans-99"/>
       <path d="M 30.609375 48.390625 
Q 23.390625 48.390625 19.1875 42.75 
Q 14.984375 37.109375 14.984375 27.296875 
Q 14.984375 17.484375 19.15625 11.84375 
Q 23.34375 6.203125 30.609375 6.203125 
Q 37.796875 6.203125 41.984375 11.859375 
Q 46.1875 17.53125 46.1875 27.296875 
Q 46.1875 37.015625 41.984375 42.703125 
Q 37.796875 48.390625 30.609375 48.390625 
z
M 30.609375 56 
Q 42.328125 56 49.015625 48.375 
Q 55.71875 40.765625 55.71875 27.296875 
Q 55.71875 13.875 49.015625 6.21875 
Q 42.328125 -1.421875 30.609375 -1.421875 
Q 18.84375 -1.421875 12.171875 6.21875 
Q 5.515625 13.875 5.515625 27.296875 
Q 5.515625 40.765625 12.171875 48.375 
Q 18.84375 56 30.609375 56 
z
" id="DejaVuSans-111"/>
       <path d="M 52 44.1875 
Q 55.375 50.25 60.0625 53.125 
Q 64.75 56 71.09375 56 
Q 79.640625 56 84.28125 50.015625 
Q 88.921875 44.046875 88.921875 33.015625 
L 88.921875 0 
L 79.890625 0 
L 79.890625 32.71875 
Q 79.890625 40.578125 77.09375 44.375 
Q 74.3125 48.1875 68.609375 48.1875 
Q 61.625 48.1875 57.5625 43.546875 
Q 53.515625 38.921875 53.515625 30.90625 
L 53.515625 0 
L 44.484375 0 
L 44.484375 32.71875 
Q 44.484375 40.625 41.703125 44.40625 
Q 38.921875 48.1875 33.109375 48.1875 
Q 26.21875 48.1875 22.15625 43.53125 
Q 18.109375 38.875 18.109375 30.90625 
L 18.109375 0 
L 9.078125 0 
L 9.078125 54.6875 
L 18.109375 54.6875 
L 18.109375 46.1875 
Q 21.1875 51.21875 25.484375 53.609375 
Q 29.78125 56 35.6875 56 
Q 41.65625 56 45.828125 52.96875 
Q 50 49.953125 52 44.1875 
z
" id="DejaVuSans-109"/>
       <path d="M 18.109375 8.203125 
L 18.109375 -20.796875 
L 9.078125 -20.796875 
L 9.078125 54.6875 
L 18.109375 54.6875 
L 18.109375 46.390625 
Q 20.953125 51.265625 25.265625 53.625 
Q 29.59375 56 35.59375 56 
Q 45.5625 56 51.78125 48.09375 
Q 58.015625 40.1875 58.015625 27.296875 
Q 58.015625 14.40625 51.78125 6.484375 
Q 45.5625 -1.421875 35.59375 -1.421875 
Q 29.59375 -1.421875 25.265625 0.953125 
Q 20.953125 3.328125 18.109375 8.203125 
z
M 48.6875 27.296875 
Q 48.6875 37.203125 44.609375 42.84375 
Q 40.53125 48.484375 33.40625 48.484375 
Q 26.265625 48.484375 22.1875 42.84375 
Q 18.109375 37.203125 18.109375 27.296875 
Q 18.109375 17.390625 22.1875 11.75 
Q 26.265625 6.109375 33.40625 6.109375 
Q 40.53125 6.109375 44.609375 11.75 
Q 48.6875 17.390625 48.6875 27.296875 
z
" id="DejaVuSans-112"/>
       <path d="M 9.421875 75.984375 
L 18.40625 75.984375 
L 18.40625 0 
L 9.421875 0 
z
" id="DejaVuSans-108"/>
       <path d="M 56.203125 29.59375 
L 56.203125 25.203125 
L 14.890625 25.203125 
Q 15.484375 15.921875 20.484375 11.0625 
Q 25.484375 6.203125 34.421875 6.203125 
Q 39.59375 6.203125 44.453125 7.46875 
Q 49.3125 8.734375 54.109375 11.28125 
L 54.109375 2.78125 
Q 49.265625 0.734375 44.1875 -0.34375 
Q 39.109375 -1.421875 33.890625 -1.421875 
Q 20.796875 -1.421875 13.15625 6.1875 
Q 5.515625 13.8125 5.515625 26.8125 
Q 5.515625 40.234375 12.765625 48.109375 
Q 20.015625 56 32.328125 56 
Q 43.359375 56 49.78125 48.890625 
Q 56.203125 41.796875 56.203125 29.59375 
z
M 47.21875 32.234375 
Q 47.125 39.59375 43.09375 43.984375 
Q 39.0625 48.390625 32.421875 48.390625 
Q 24.90625 48.390625 20.390625 44.140625 
Q 15.875 39.890625 15.1875 32.171875 
z
" id="DejaVuSans-101"/>
       <path d="M 9.421875 54.6875 
L 18.40625 54.6875 
L 18.40625 -0.984375 
Q 18.40625 -11.421875 14.421875 -16.109375 
Q 10.453125 -20.796875 1.609375 -20.796875 
L -1.8125 -20.796875 
L -1.8125 -13.1875 
L 0.59375 -13.1875 
Q 5.71875 -13.1875 7.5625 -10.8125 
Q 9.421875 -8.453125 9.421875 -0.984375 
z
M 9.421875 75.984375 
L 18.40625 75.984375 
L 18.40625 64.59375 
L 9.421875 64.59375 
z
" id="DejaVuSans-106"/>
       <path d="M 9.421875 54.6875 
L 18.40625 54.6875 
L 18.40625 0 
L 9.421875 0 
z
M 9.421875 75.984375 
L 18.40625 75.984375 
L 18.40625 64.59375 
L 9.421875 64.59375 
z
" id="DejaVuSans-105"/>
       <path d="M 45.40625 46.390625 
L 45.40625 75.984375 
L 54.390625 75.984375 
L 54.390625 0 
L 45.40625 0 
L 45.40625 8.203125 
Q 42.578125 3.328125 38.25 0.953125 
Q 33.9375 -1.421875 27.875 -1.421875 
Q 17.96875 -1.421875 11.734375 6.484375 
Q 5.515625 14.40625 5.515625 27.296875 
Q 5.515625 40.1875 11.734375 48.09375 
Q 17.96875 56 27.875 56 
Q 33.9375 56 38.25 53.625 
Q 42.578125 51.265625 45.40625 46.390625 
z
M 14.796875 27.296875 
Q 14.796875 17.390625 18.875 11.75 
Q 22.953125 6.109375 30.078125 6.109375 
Q 37.203125 6.109375 41.296875 11.75 
Q 45.40625 17.390625 45.40625 27.296875 
Q 45.40625 37.203125 41.296875 42.84375 
Q 37.203125 48.484375 30.078125 48.484375 
Q 22.953125 48.484375 18.875 42.84375 
Q 14.796875 37.203125 14.796875 27.296875 
z
" id="DejaVuSans-100"/>
       <path d="M 34.28125 27.484375 
Q 23.390625 27.484375 19.1875 25 
Q 14.984375 22.515625 14.984375 16.5 
Q 14.984375 11.71875 18.140625 8.90625 
Q 21.296875 6.109375 26.703125 6.109375 
Q 34.1875 6.109375 38.703125 11.40625 
Q 43.21875 16.703125 43.21875 25.484375 
L 43.21875 27.484375 
z
M 52.203125 31.203125 
L 52.203125 0 
L 43.21875 0 
L 43.21875 8.296875 
Q 40.140625 3.328125 35.546875 0.953125 
Q 30.953125 -1.421875 24.3125 -1.421875 
Q 15.921875 -1.421875 10.953125 3.296875 
Q 6 8.015625 6 15.921875 
Q 6 25.140625 12.171875 29.828125 
Q 18.359375 34.515625 30.609375 34.515625 
L 43.21875 34.515625 
L 43.21875 35.40625 
Q 43.21875 41.609375 39.140625 45 
Q 35.0625 48.390625 27.6875 48.390625 
Q 23 48.390625 18.546875 47.265625 
Q 14.109375 46.140625 10.015625 43.890625 
L 10.015625 52.203125 
Q 14.9375 54.109375 19.578125 55.046875 
Q 24.21875 56 28.609375 56 
Q 40.484375 56 46.34375 49.84375 
Q 52.203125 43.703125 52.203125 31.203125 
z
" id="DejaVuSans-97"/>
      </defs>
      <use xlink:href="#DejaVuSans-99"/>
      <use x="54.980469" xlink:href="#DejaVuSans-111"/>
      <use x="116.162109" xlink:href="#DejaVuSans-109"/>
      <use x="213.574219" xlink:href="#DejaVuSans-112"/>
      <use x="277.050781" xlink:href="#DejaVuSans-108"/>
      <use x="304.833984" xlink:href="#DejaVuSans-101"/>
      <use x="366.357422" xlink:href="#DejaVuSans-106"/>
      <use x="394.140625" xlink:href="#DejaVuSans-105"/>
      <use x="421.923828" xlink:href="#DejaVuSans-100"/>
      <use x="485.400391" xlink:href="#DejaVuSans-97"/>
      <use x="546.679688" xlink:href="#DejaVuSans-100"/>
     </g>
    </g>
    <g id="text_8">
     <!-- 1e7 -->
     <g transform="translate(340.5 371.912062)scale(0.1 -0.1)">
      <defs>
       <path d="M 8.203125 72.90625 
L 55.078125 72.90625 
L 55.078125 68.703125 
L 28.609375 0 
L 18.3125 0 
L 43.21875 64.59375 
L 8.203125 64.59375 
z
" id="DejaVuSans-55"/>
      </defs>
      <use xlink:href="#DejaVuSans-49"/>
      <use x="63.623047" xlink:href="#DejaVuSans-101"/>
      <use x="125.146484" xlink:href="#DejaVuSans-55"/>
     </g>
    </g>
   </g>
   <g id="matplotlib.axis_2">
    <g id="ytick_1">
     <g id="line2d_7">
      <defs>
       <path d="M 0 0 
L -3.5 0 
" id="m13c564705b" style="stroke:#000000;stroke-width:0.8;"/>
      </defs>
      <g>
       <use style="stroke:#000000;stroke-width:0.8;" x="40.603125" xlink:href="#m13c564705b" y="330.379199"/>
      </g>
     </g>
     <g id="text_9">
      <!-- 0 -->
      <g transform="translate(27.240625 334.178418)scale(0.1 -0.1)">
       <use xlink:href="#DejaVuSans-48"/>
      </g>
     </g>
    </g>
    <g id="ytick_2">
     <g id="line2d_8">
      <g>
       <use style="stroke:#000000;stroke-width:0.8;" x="40.603125" xlink:href="#m13c564705b" y="280.681595"/>
      </g>
     </g>
     <g id="text_10">
      <!-- 10 -->
      <g transform="translate(20.878125 284.480814)scale(0.1 -0.1)">
       <use xlink:href="#DejaVuSans-49"/>
       <use x="63.623047" xlink:href="#DejaVuSans-48"/>
      </g>
     </g>
    </g>
    <g id="ytick_3">
     <g id="line2d_9">
      <g>
       <use style="stroke:#000000;stroke-width:0.8;" x="40.603125" xlink:href="#m13c564705b" y="230.98399"/>
      </g>
     </g>
     <g id="text_11">
      <!-- 20 -->
      <g transform="translate(20.878125 234.783209)scale(0.1 -0.1)">
       <use xlink:href="#DejaVuSans-50"/>
       <use x="63.623047" xlink:href="#DejaVuSans-48"/>
      </g>
     </g>
    </g>
    <g id="ytick_4">
     <g id="line2d_10">
      <g>
       <use style="stroke:#000000;stroke-width:0.8;" x="40.603125" xlink:href="#m13c564705b" y="181.286386"/>
      </g>
     </g>
     <g id="text_12">
      <!-- 30 -->
      <g transform="translate(20.878125 185.085605)scale(0.1 -0.1)">
       <use xlink:href="#DejaVuSans-51"/>
       <use x="63.623047" xlink:href="#DejaVuSans-48"/>
      </g>
     </g>
    </g>
    <g id="ytick_5">
     <g id="line2d_11">
      <g>
       <use style="stroke:#000000;stroke-width:0.8;" x="40.603125" xlink:href="#m13c564705b" y="131.588781"/>
      </g>
     </g>
     <g id="text_13">
      <!-- 40 -->
      <g transform="translate(20.878125 135.388)scale(0.1 -0.1)">
       <defs>
        <path d="M 37.796875 64.3125 
L 12.890625 25.390625 
L 37.796875 25.390625 
z
M 35.203125 72.90625 
L 47.609375 72.90625 
L 47.609375 25.390625 
L 58.015625 25.390625 
L 58.015625 17.1875 
L 47.609375 17.1875 
L 47.609375 0 
L 37.796875 0 
L 37.796875 17.1875 
L 4.890625 17.1875 
L 4.890625 26.703125 
z
" id="DejaVuSans-52"/>
       </defs>
       <use xlink:href="#DejaVuSans-52"/>
       <use x="63.623047" xlink:href="#DejaVuSans-48"/>
      </g>
     </g>
    </g>
    <g id="ytick_6">
     <g id="line2d_12">
      <g>
       <use style="stroke:#000000;stroke-width:0.8;" x="40.603125" xlink:href="#m13c564705b" y="81.891177"/>
      </g>
     </g>
     <g id="text_14">
      <!-- 50 -->
      <g transform="translate(20.878125 85.690396)scale(0.1 -0.1)">
       <use xlink:href="#DejaVuSans-53"/>
       <use x="63.623047" xlink:href="#DejaVuSans-48"/>
      </g>
     </g>
    </g>
    <g id="text_15">
     <!-- tiempo (ms) -->
     <g transform="translate(14.798438 220.930813)rotate(-90)scale(0.1 -0.1)">
      <defs>
       <path d="M 18.3125 70.21875 
L 18.3125 54.6875 
L 36.8125 54.6875 
L 36.8125 47.703125 
L 18.3125 47.703125 
L 18.3125 18.015625 
Q 18.3125 11.328125 20.140625 9.421875 
Q 21.96875 7.515625 27.59375 7.515625 
L 36.8125 7.515625 
L 36.8125 0 
L 27.59375 0 
Q 17.1875 0 13.234375 3.875 
Q 9.28125 7.765625 9.28125 18.015625 
L 9.28125 47.703125 
L 2.6875 47.703125 
L 2.6875 54.6875 
L 9.28125 54.6875 
L 9.28125 70.21875 
z
" id="DejaVuSans-116"/>
       <path id="DejaVuSans-32"/>
       <path d="M 31 75.875 
Q 24.46875 64.65625 21.28125 53.65625 
Q 18.109375 42.671875 18.109375 31.390625 
Q 18.109375 20.125 21.3125 9.0625 
Q 24.515625 -2 31 -13.1875 
L 23.1875 -13.1875 
Q 15.875 -1.703125 12.234375 9.375 
Q 8.59375 20.453125 8.59375 31.390625 
Q 8.59375 42.28125 12.203125 53.3125 
Q 15.828125 64.359375 23.1875 75.875 
z
" id="DejaVuSans-40"/>
       <path d="M 44.28125 53.078125 
L 44.28125 44.578125 
Q 40.484375 46.53125 36.375 47.5 
Q 32.28125 48.484375 27.875 48.484375 
Q 21.1875 48.484375 17.84375 46.4375 
Q 14.5 44.390625 14.5 40.28125 
Q 14.5 37.15625 16.890625 35.375 
Q 19.28125 33.59375 26.515625 31.984375 
L 29.59375 31.296875 
Q 39.15625 29.25 43.1875 25.515625 
Q 47.21875 21.78125 47.21875 15.09375 
Q 47.21875 7.46875 41.1875 3.015625 
Q 35.15625 -1.421875 24.609375 -1.421875 
Q 20.21875 -1.421875 15.453125 -0.5625 
Q 10.6875 0.296875 5.421875 2 
L 5.421875 11.28125 
Q 10.40625 8.6875 15.234375 7.390625 
Q 20.0625 6.109375 24.8125 6.109375 
Q 31.15625 6.109375 34.5625 8.28125 
Q 37.984375 10.453125 37.984375 14.40625 
Q 37.984375 18.0625 35.515625 20.015625 
Q 33.0625 21.96875 24.703125 23.78125 
L 21.578125 24.515625 
Q 13.234375 26.265625 9.515625 29.90625 
Q 5.8125 33.546875 5.8125 39.890625 
Q 5.8125 47.609375 11.28125 51.796875 
Q 16.75 56 26.8125 56 
Q 31.78125 56 36.171875 55.265625 
Q 40.578125 54.546875 44.28125 53.078125 
z
" id="DejaVuSans-115"/>
       <path d="M 8.015625 75.875 
L 15.828125 75.875 
Q 23.140625 64.359375 26.78125 53.3125 
Q 30.421875 42.28125 30.421875 31.390625 
Q 30.421875 20.453125 26.78125 9.375 
Q 23.140625 -1.703125 15.828125 -13.1875 
L 8.015625 -13.1875 
Q 14.5 -2 17.703125 9.0625 
Q 20.90625 20.125 20.90625 31.390625 
Q 20.90625 42.671875 17.703125 53.65625 
Q 14.5 64.65625 8.015625 75.875 
z
" id="DejaVuSans-41"/>
      </defs>
      <use xlink:href="#DejaVuSans-116"/>
      <use x="39.208984" xlink:href="#DejaVuSans-105"/>
      <use x="66.992188" xlink:href="#DejaVuSans-101"/>
      <use x="128.515625" xlink:href="#DejaVuSans-109"/>
      <use x="225.927734" xlink:href="#DejaVuSans-112"/>
      <use x="289.404297" xlink:href="#DejaVuSans-111"/>
      <use x="350.585938" xlink:href="#DejaVuSans-32"/>
      <use x="382.373047" xlink:href="#DejaVuSans-40"/>
      <use x="421.386719" xlink:href="#DejaVuSans-109"/>
      <use x="518.798828" xlink:href="#DejaVuSans-115"/>
      <use x="570.898438" xlink:href="#DejaVuSans-41"/>
     </g>
    </g>
   </g>
   <g id="line2d_13">
    <path clip-path="url(#p193dbe15d0)" d="M 40.603125 330.357425 
L 43.823074 327.650031 
L 47.043024 324.942637 
L 50.262973 322.235244 
L 53.482923 319.52785 
L 56.702872 316.820456 
L 59.922822 314.113063 
L 63.142771 311.405669 
L 66.362721 308.698275 
L 69.58267 305.990882 
L 72.80262 303.283488 
L 76.022569 300.576094 
L 79.242519 297.8687 
L 82.462468 295.161307 
L 85.682418 292.453913 
L 88.902367 289.746519 
L 92.122317 287.039126 
L 95.342266 284.331732 
L 98.562216 281.624338 
L 101.782165 278.916944 
L 105.002115 276.209551 
L 108.222064 273.502157 
L 111.442014 270.794763 
L 114.661963 268.08737 
L 117.881913 265.379976 
L 121.101862 262.672582 
L 124.321812 259.965188 
L 127.541761 257.257795 
L 130.761711 254.550401 
L 133.98166 251.843007 
L 137.20161 249.135614 
L 140.421559 246.42822 
L 143.641509 243.720826 
L 146.861458 241.013432 
L 150.081408 238.306039 
L 153.301357 235.598645 
L 156.521307 232.891251 
L 159.741256 230.183858 
L 162.961206 227.476464 
L 166.181155 224.76907 
L 169.401105 222.061676 
L 172.621054 219.354283 
L 175.841004 216.646889 
L 179.060953 213.939495 
L 182.280903 211.232102 
L 185.500852 208.524708 
L 188.720802 205.817314 
L 191.940751 203.109921 
L 195.160701 200.402527 
L 198.38065 197.695133 
L 201.6006 194.987739 
L 204.820549 192.280346 
L 208.040499 189.572952 
L 211.260448 186.865558 
L 214.480398 184.158165 
L 217.700347 181.450771 
L 220.920297 178.743377 
L 224.140246 176.035983 
L 227.360196 173.32859 
L 230.580145 170.621196 
L 233.800095 167.913802 
L 237.020044 165.206409 
L 240.239994 162.499015 
L 243.459943 159.791621 
L 246.679893 157.084227 
L 249.899842 154.376834 
L 253.119792 151.66944 
L 256.339741 148.962046 
L 259.559691 146.254653 
L 262.77964 143.547259 
L 265.99959 140.839865 
L 269.219539 138.132471 
L 272.439489 135.425078 
L 275.659438 132.717684 
L 278.879388 130.01029 
L 282.099337 127.302897 
L 285.319287 124.595503 
L 288.539236 121.888109 
L 291.759186 119.180715 
L 294.979135 116.473322 
L 298.199085 113.765928 
L 301.419034 111.058534 
L 304.638984 108.351141 
L 307.858933 105.643747 
L 311.078883 102.936353 
L 314.298832 100.228959 
L 317.518782 97.521566 
L 320.738731 94.814172 
L 323.958681 92.106778 
L 327.17863 89.399385 
L 330.39858 86.691991 
L 333.618529 83.984597 
L 336.838479 81.277204 
L 340.058428 78.56981 
L 343.278378 75.862416 
L 346.498327 73.155022 
L 349.718277 70.447629 
L 352.938226 67.740235 
L 356.158176 65.032841 
L 359.378125 62.325448 
" style="fill:none;stroke:#1f77b4;stroke-linecap:square;stroke-width:2.25;"/>
   </g>
   <g id="patch_3">
    <path d="M 40.603125 344.6355 
L 40.603125 36.2355 
" style="fill:none;stroke:#000000;stroke-linecap:square;stroke-linejoin:miter;stroke-width:0.8;"/>
   </g>
   <g id="patch_4">
    <path d="M 40.603125 344.6355 
L 359.378125 344.6355 
" style="fill:none;stroke:#000000;stroke-linecap:square;stroke-linejoin:miter;stroke-width:0.8;"/>
   </g>
   <g id="text_16">
    <!-- Tiempo de ejecución vs función exponencial -->
    <g transform="translate(67.144062 16.798125)scale(0.12 -0.12)">
     <defs>
      <path d="M -0.296875 72.90625 
L 61.375 72.90625 
L 61.375 64.59375 
L 35.5 64.59375 
L 35.5 0 
L 25.59375 0 
L 25.59375 64.59375 
L -0.296875 64.59375 
z
" id="DejaVuSans-84"/>
      <path d="M 8.5 21.578125 
L 8.5 54.6875 
L 17.484375 54.6875 
L 17.484375 21.921875 
Q 17.484375 14.15625 20.5 10.265625 
Q 23.53125 6.390625 29.59375 6.390625 
Q 36.859375 6.390625 41.078125 11.03125 
Q 45.3125 15.671875 45.3125 23.6875 
L 45.3125 54.6875 
L 54.296875 54.6875 
L 54.296875 0 
L 45.3125 0 
L 45.3125 8.40625 
Q 42.046875 3.421875 37.71875 1 
Q 33.40625 -1.421875 27.6875 -1.421875 
Q 18.265625 -1.421875 13.375 4.4375 
Q 8.5 10.296875 8.5 21.578125 
z
M 31.109375 56 
z
" id="DejaVuSans-117"/>
      <path d="M 30.609375 48.390625 
Q 23.390625 48.390625 19.1875 42.75 
Q 14.984375 37.109375 14.984375 27.296875 
Q 14.984375 17.484375 19.15625 11.84375 
Q 23.34375 6.203125 30.609375 6.203125 
Q 37.796875 6.203125 41.984375 11.859375 
Q 46.1875 17.53125 46.1875 27.296875 
Q 46.1875 37.015625 41.984375 42.703125 
Q 37.796875 48.390625 30.609375 48.390625 
z
M 30.609375 56 
Q 42.328125 56 49.015625 48.375 
Q 55.71875 40.765625 55.71875 27.296875 
Q 55.71875 13.875 49.015625 6.21875 
Q 42.328125 -1.421875 30.609375 -1.421875 
Q 18.84375 -1.421875 12.171875 6.21875 
Q 5.515625 13.875 5.515625 27.296875 
Q 5.515625 40.765625 12.171875 48.375 
Q 18.84375 56 30.609375 56 
z
M 37.40625 79.984375 
L 47.125 79.984375 
L 31.21875 61.625 
L 23.734375 61.625 
z
" id="DejaVuSans-243"/>
      <path d="M 54.890625 33.015625 
L 54.890625 0 
L 45.90625 0 
L 45.90625 32.71875 
Q 45.90625 40.484375 42.875 44.328125 
Q 39.84375 48.1875 33.796875 48.1875 
Q 26.515625 48.1875 22.3125 43.546875 
Q 18.109375 38.921875 18.109375 30.90625 
L 18.109375 0 
L 9.078125 0 
L 9.078125 54.6875 
L 18.109375 54.6875 
L 18.109375 46.1875 
Q 21.34375 51.125 25.703125 53.5625 
Q 30.078125 56 35.796875 56 
Q 45.21875 56 50.046875 50.171875 
Q 54.890625 44.34375 54.890625 33.015625 
z
" id="DejaVuSans-110"/>
      <path d="M 2.984375 54.6875 
L 12.5 54.6875 
L 29.59375 8.796875 
L 46.6875 54.6875 
L 56.203125 54.6875 
L 35.6875 0 
L 23.484375 0 
z
" id="DejaVuSans-118"/>
      <path d="M 37.109375 75.984375 
L 37.109375 68.5 
L 28.515625 68.5 
Q 23.6875 68.5 21.796875 66.546875 
Q 19.921875 64.59375 19.921875 59.515625 
L 19.921875 54.6875 
L 34.71875 54.6875 
L 34.71875 47.703125 
L 19.921875 47.703125 
L 19.921875 0 
L 10.890625 0 
L 10.890625 47.703125 
L 2.296875 47.703125 
L 2.296875 54.6875 
L 10.890625 54.6875 
L 10.890625 58.5 
Q 10.890625 67.625 15.140625 71.796875 
Q 19.390625 75.984375 28.609375 75.984375 
z
" id="DejaVuSans-102"/>
      <path d="M 54.890625 54.6875 
L 35.109375 28.078125 
L 55.90625 0 
L 45.3125 0 
L 29.390625 21.484375 
L 13.484375 0 
L 2.875 0 
L 24.125 28.609375 
L 4.6875 54.6875 
L 15.28125 54.6875 
L 29.78125 35.203125 
L 44.28125 54.6875 
z
" id="DejaVuSans-120"/>
     </defs>
     <use xlink:href="#DejaVuSans-84"/>
     <use x="57.958984" xlink:href="#DejaVuSans-105"/>
     <use x="85.742188" xlink:href="#DejaVuSans-101"/>
     <use x="147.265625" xlink:href="#DejaVuSans-109"/>
     <use x="244.677734" xlink:href="#DejaVuSans-112"/>
     <use x="308.154297" xlink:href="#DejaVuSans-111"/>
     <use x="369.335938" xlink:href="#DejaVuSans-32"/>
     <use x="401.123047" xlink:href="#DejaVuSans-100"/>
     <use x="464.599609" xlink:href="#DejaVuSans-101"/>
     <use x="526.123047" xlink:href="#DejaVuSans-32"/>
     <use x="557.910156" xlink:href="#DejaVuSans-101"/>
     <use x="619.433594" xlink:href="#DejaVuSans-106"/>
     <use x="647.216797" xlink:href="#DejaVuSans-101"/>
     <use x="708.740234" xlink:href="#DejaVuSans-99"/>
     <use x="763.720703" xlink:href="#DejaVuSans-117"/>
     <use x="827.099609" xlink:href="#DejaVuSans-99"/>
     <use x="882.080078" xlink:href="#DejaVuSans-105"/>
     <use x="909.863281" xlink:href="#DejaVuSans-243"/>
     <use x="971.044922" xlink:href="#DejaVuSans-110"/>
     <use x="1034.423828" xlink:href="#DejaVuSans-32"/>
     <use x="1066.210938" xlink:href="#DejaVuSans-118"/>
     <use x="1125.390625" xlink:href="#DejaVuSans-115"/>
     <use x="1177.490234" xlink:href="#DejaVuSans-32"/>
     <use x="1209.277344" xlink:href="#DejaVuSans-102"/>
     <use x="1244.482422" xlink:href="#DejaVuSans-117"/>
     <use x="1307.861328" xlink:href="#DejaVuSans-110"/>
     <use x="1371.240234" xlink:href="#DejaVuSans-99"/>
     <use x="1426.220703" xlink:href="#DejaVuSans-105"/>
     <use x="1454.003906" xlink:href="#DejaVuSans-243"/>
     <use x="1515.185547" xlink:href="#DejaVuSans-110"/>
     <use x="1578.564453" xlink:href="#DejaVuSans-32"/>
     <use x="1610.351562" xlink:href="#DejaVuSans-101"/>
     <use x="1670.125" xlink:href="#DejaVuSans-120"/>
     <use x="1729.304688" xlink:href="#DejaVuSans-112"/>
     <use x="1792.78125" xlink:href="#DejaVuSans-111"/>
     <use x="1853.962891" xlink:href="#DejaVuSans-110"/>
     <use x="1917.341797" xlink:href="#DejaVuSans-101"/>
     <use x="1978.865234" xlink:href="#DejaVuSans-110"/>
     <use x="2042.244141" xlink:href="#DejaVuSans-99"/>
     <use x="2097.224609" xlink:href="#DejaVuSans-105"/>
     <use x="2125.007812" xlink:href="#DejaVuSans-97"/>
     <use x="2186.287109" xlink:href="#DejaVuSans-108"/>
    </g>
    <!--  -->
    <g transform="translate(199.990625 30.2355)scale(0.12 -0.12)"/>
   </g>
  </g>
 </g>
 <defs>
  <clipPath id="p193dbe15d0">
   <rect height="308.4" width="318.775" x="40.603125" y="36.2355"/>
  </clipPath>
 </defs>
</svg>
